<svg xmlns="http://www.w3.org/2000/svg" xmlns:xlink="http://www.w3.org/1999/xlink" width="48px" height="47px" viewBox="0 0 48 47"><g fill="#000000" fill-rule="nonzero"><g><path d="M44.7646853,0.0252430279 L3.23531474,0.0252430279 C1.45137849,0.0252430279 1.35880683e-15,1.43340239 1.35880683e-15,3.1641753 L1.35880683e-15,31.6824861 C1.35880683e-15,33.4131633 1.45137849,34.8214183 3.23531474,34.8214183 L29.0256574,34.8214183 L29.0256574,33.674008 L3.23531474,33.674008 C2.08446215,33.674008 1.14741036,32.7806534 1.14741036,31.6824861 L1.14741036,3.1641753 C1.14741036,2.06610359 2.08446215,1.17265339 3.23531474,1.17265339 L44.7646853,1.17265339 C45.9155378,1.17265339 46.8525896,2.06610359 46.8525896,3.1641753 L46.8525896,31.6824861 C46.8525896,32.7806534 45.9155378,33.674008 44.7646853,33.674008 L41.5438088,33.674008 L41.5438088,34.8214183 L44.7646853,34.8214183 C46.5486215,34.8214183 48,33.413259 48,31.6824861 L48,3.1641753 C48,1.43340239 46.5486215,0.0252430279 44.7646853,0.0252430279 Z"></path><path d="M18.9627729,17.2320956 L18.9627729,5.643251 C18.9622987,5.22098277 18.6201009,4.87878501 18.1978327,4.87831076 L6.15891633,4.87831076 C5.7366481,4.87878501 5.39445035,5.22098277 5.3939761,5.643251 L5.3939761,17.2320956 C5.39445035,17.6543638 5.7366481,17.9965616 6.15891633,17.9970359 L18.1978327,17.9970359 C18.6201009,17.9965616 18.9622987,17.6543638 18.9627729,17.2320956 L18.9627729,17.2320956 Z M17.8153625,16.8496255 L6.54138645,16.8496255 L6.54138645,6.02572112 L17.8153625,6.02572112 L17.8153625,16.8496255 Z"></path><path d="M22.0410837,8.42610782 L22.0456733,8.42610782 L40.4495618,8.28267729 C40.7664104,8.2814627 41.0222823,8.02362153 41.021072,7.70677291 C41.0198531,7.38992429 40.762012,7.13405235 40.4451633,7.13526263 L40.4405737,7.13526263 L22.0366853,7.27869323 C21.8317201,7.27947893 21.6427437,7.38955253 21.5409416,7.56745038 C21.4391395,7.74534823 21.4399778,7.96404341 21.5431408,8.14115556 C21.6463038,8.31826771 21.8361185,8.42688929 22.0410837,8.42610782 L22.0410837,8.42610782 Z"></path><path d="M41.0390608,14.7869641 C41.0366278,14.4718346 40.7804775,14.2176574 40.4653386,14.2176574 L40.4608446,14.2176574 L22.0568606,14.3610837 C21.7400119,14.3622983 21.48414,14.6201394 21.4853503,14.936988 C21.4865692,15.2538367 21.7444103,15.5097086 22.061259,15.5084983 L22.065753,15.5084983 L40.4697371,15.3650677 C40.6218945,15.3639057 40.7673579,15.3023446 40.8741246,15.1939281 C40.9808913,15.0855117 41.0402148,14.9391216 41.0390608,14.7869641 L41.0390608,14.7869641 Z"></path><path d="M6.68519522,23.0730882 L6.6899761,23.0730882 L23.6482231,22.9360637 C23.8531882,22.9343557 24.0416726,22.8234298 24.142676,22.6450708 C24.2436793,22.4667118 24.2418569,22.2480166 24.1378951,22.0713656 C24.0339333,21.8947146 23.8436265,21.7869453 23.6386614,21.7886534 L6.6807012,21.9256733 C6.36385257,21.9269143 6.10800204,22.1847769 6.10923853,22.5016255 C6.11048402,22.8184741 6.3683466,23.0743247 6.68519522,23.0730882 L6.68519522,23.0730882 Z" id="Path"></path><path d="M6.70556175,30.1550961 L6.71034263,30.1550961 L23.6686853,30.0180717 C23.9855339,30.0168043 24.241363,29.7589203 24.2401003,29.4420717 C24.2388282,29.1252231 23.9809442,28.869394 23.6640956,28.8706567 L23.6594104,28.8706567 L6.70106773,29.0076813 C6.38421911,29.0089223 6.12836857,29.2667848 6.12960507,29.5836335 C6.13085055,29.9004821 6.38871313,30.1563326 6.70556175,30.1550961 L6.70556175,30.1550961 Z"></path></g><path d="M34.9873147,31.6167012 C35.0265817,31.6176574 35.065753,31.6180458 35.1048287,31.6180458 C37.6718725,31.6180458 39.7916175,29.6274741 39.8551076,27.1293705 C39.8852903,25.9274006 39.4327517,24.763425 38.5985976,23.897498 C37.7155906,22.9714558 36.4984509,22.4376831 35.2190916,22.4154263 C32.601753,22.3547092 30.4158406,24.3665976 30.3512988,26.902757 C30.3212127,28.10471 30.7737373,29.2686497 31.6078088,30.1346295 C32.4908033,31.0606895 33.7079508,31.5944657 34.9873147,31.6167012 L34.9873147,31.6167012 Z M31.4983267,26.9321116 C31.5461355,25.0560956 33.1539442,23.5616892 35.1019602,23.5616892 C35.1318884,23.5616892 35.1619124,23.5616892 35.1920319,23.562741 C36.1665445,23.5784509 37.0941522,23.9838832 37.7675857,24.6884462 C38.3909565,25.334231 38.7296796,26.202803 38.7080797,27.1001116 C38.6596016,29.005004 37.0039841,30.5177689 35.0143745,30.4694821 C34.0398549,30.4537152 33.1122569,30.0482527 32.4388207,29.3436813 C31.8155472,28.697873 31.4768384,27.8293721 31.4983267,26.9321116 L31.4983267,26.9321116 Z"></path><path d="M41.5158884,32.3737052 C42.044749,32.3107888 42.5915857,32.1954741 42.8916335,31.7313466 C43.238247,31.1950279 43.0225339,30.5501833 42.8321594,29.9815458 C42.7499283,29.7359044 42.612239,29.3245578 42.6525896,29.1949004 C42.6908367,29.0772908 43.025498,28.8255299 43.2255299,28.6750279 C43.7136574,28.307761 44.2669004,27.8916335 44.2835378,27.2356016 C44.3001753,26.5795697 43.7687331,26.136 43.2997291,25.7448287 C43.1079203,25.5848606 42.7870279,25.3172271 42.7547092,25.1982789 C42.7211474,25.0669004 42.879012,24.66349 42.9739602,24.4224382 C43.1929243,23.8640319 43.4411474,23.2312351 43.1218805,22.6784701 C42.8026135,22.1257052 42.1287012,22.0213865 41.5346295,21.9301673 C41.2796175,21.8909641 40.8527809,21.8254661 40.7601275,21.733004 C40.6707251,21.6442709 40.6046534,21.2216414 40.5651633,20.9690199 C40.4720319,20.3738964 40.3664701,19.6993147 39.8103586,19.3772749 C39.2659124,19.0617371 38.636749,19.3007809 38.0816892,19.512 C37.8369084,19.6049402 37.4275697,19.7606056 37.2953307,19.7238884 C37.1777211,19.6870757 36.9224223,19.3576733 36.7694343,19.1607968 C36.3979602,18.6827092 35.9767649,18.1396972 35.3275219,18.1242113 C34.6778964,18.1129243 34.2316494,18.6311713 33.8375139,19.0912829 C33.6749641,19.280988 33.4034104,19.5985339 33.2841753,19.6294183 C33.1493546,19.6602072 32.7478566,19.4852271 32.5076653,19.3808127 C31.9626454,19.1438725 31.3453386,18.8754741 30.7865498,19.1644303 C30.2158088,19.4594104 30.0773546,20.1279681 29.955251,20.7179283 C29.9033307,20.9684462 29.8166056,21.3878247 29.7225179,21.4725418 C29.6247968,21.5606056 29.1948048,21.6053546 28.9378805,21.6320319 C28.3401753,21.6940876 27.6626295,21.7644622 27.3155378,22.3013546 C26.9684462,22.838247 27.1846375,23.4824223 27.375012,24.0511554 C27.4571474,24.2968924 27.5949323,24.7081434 27.5544861,24.8378964 C27.516239,24.955506 27.1815777,25.2073625 26.9815458,25.3577689 C26.4934183,25.7250359 25.9402709,26.1411633 25.9235378,26.7972908 C25.9068048,27.4534183 26.4384382,27.8968924 26.9074422,28.2878725 C27.0986773,28.4478406 27.4201434,28.7155697 27.4524622,28.8345179 C27.4860239,28.9658964 27.3281594,29.3693068 27.2332112,29.6103586 C27.014247,30.1687649 26.7659283,30.8015618 27.0852908,31.3543267 C27.4046534,31.9070916 28.0783745,32.0114104 28.6725418,32.1026295 C28.7835538,32.1196494 28.9271713,32.1417371 29.0616096,32.1688924 C29.0269166,32.2192718 29.0005408,32.2748966 28.98349,32.3336414 L25.3806215,44.7719522 C25.3173289,44.9904661 25.3891306,45.2257357 25.5636495,45.3716722 C25.7381685,45.5176086 25.9824317,45.5466392 26.1862948,45.4456733 L29.5578645,43.7752351 L31.9248765,46.6206215 C32.0600348,46.7831479 32.2736162,46.8581848 32.4807277,46.8159069 C32.6878392,46.7736291 32.8549238,46.6208865 32.9155697,46.4183904 L35.7888765,36.8270916 L38.0189641,45.8342629 C38.0697335,46.0393326 38.229098,46.1999071 38.4337777,46.2522261 C38.6384575,46.3045452 38.8553294,46.240142 38.9982789,46.0845896 L41.5080478,43.352988 L44.7905976,45.1805259 C44.99775,45.295673 45.2543853,45.271587 45.4364951,45.1199064 C45.6186049,44.9682259 45.6886994,44.7201764 45.6129084,44.4956175 L41.5158884,32.3737052 Z M28.0807649,30.7792829 C28.059251,30.6448446 28.2156813,30.2461195 28.3006853,30.0289721 C28.4919203,29.542757 28.6886056,29.0400956 28.5635378,28.550247 C28.4419124,28.0738805 28.0350598,27.7345339 27.6415936,27.4063745 C27.4520797,27.2483187 27.1014502,26.9559203 27.0706614,26.8259761 C27.107761,26.6976574 27.4731155,26.4229482 27.6705657,26.2743586 C28.0801912,25.9661833 28.5038725,25.64749 28.6495936,25.1775299 C28.7995219,24.6945657 28.6280797,24.182247 28.4623745,23.686757 C28.3881753,23.4648287 28.2520159,23.0573068 28.2807012,22.924494 C28.3895139,22.8417849 28.8208446,22.7969402 29.0556813,22.7726534 C29.5761275,22.7185339 30.1143586,22.6626932 30.4899442,22.3243028 C30.8628526,21.9880159 30.9725259,21.4602072 31.0781833,20.9498008 C31.1274263,20.7121912 31.2184542,20.2724462 31.3090996,20.1862948 C31.4401912,20.1671713 31.834996,20.3392829 32.049753,20.4324143 C32.5352032,20.6434422 33.0373865,20.8618327 33.5387092,20.7474741 C34.0239681,20.6368446 34.3721116,20.2300876 34.7088765,19.8367171 C34.8722869,19.6454821 35.1765418,19.2902629 35.2956813,19.2704701 C35.4221833,19.2962869 35.7086534,19.6654661 35.8625976,19.8637769 C36.1799522,20.2725418 36.5080159,20.6956494 36.987251,20.8285578 C37.4823586,20.9663426 37.994008,20.7719522 38.4884462,20.5838725 C38.7199363,20.496 39.1033625,20.3504701 39.2354104,20.3725578 C39.3258645,20.4751554 39.3938486,20.9095458 39.430757,21.1457211 C39.5112669,21.660239 39.5944542,22.1923506 39.9505339,22.5462311 C40.3087171,22.9022151 40.8431235,22.984255 41.3600319,23.0636175 C41.5926693,23.0993785 42.0197928,23.1649721 42.1249721,23.2524622 C42.1464861,23.3869004 41.9900558,23.7856255 41.9050518,24.0027729 C41.7143904,24.4888924 41.5172271,24.9916494 41.6422948,25.481498 C41.7640159,25.9578645 42.1707729,26.2972112 42.564239,26.6253705 C42.753753,26.7834263 43.1043825,27.0758247 43.1350757,27.2056733 C43.0979761,27.333992 42.7327171,27.6087968 42.5352669,27.7573865 C42.1255458,28.0655618 41.7019602,28.384255 41.5561434,28.8542151 C41.4063108,29.3371793 41.5776574,29.849498 41.7434582,30.3448924 C41.8176574,30.5668207 41.9538167,30.9743426 41.9251315,31.1073466 C41.8162231,31.1899602 41.384988,31.2347092 41.1501514,31.2590916 C40.6297052,31.3131155 40.0914741,31.3690518 39.7158884,31.7073466 C39.3429801,32.0437291 39.2334024,32.5715378 39.127745,33.0818486 C39.078502,33.3195538 38.9874741,33.7592988 38.8968287,33.8454502 C38.7656414,33.8645737 38.3709323,33.6924622 38.1561753,33.5993307 C37.6706295,33.3882072 37.1683506,33.1701036 36.6671235,33.2837928 C36.1838725,33.3939442 35.8365896,33.7978327 35.501259,34.1896733 C35.4958088,34.1936892 35.490741,34.1978964 35.4854821,34.2021036 C35.4802231,34.2063108 35.4735299,34.2116653 35.4676016,34.2169243 C35.4598884,34.2232988 35.4523347,34.2300876 35.4449402,34.2372908 C35.4384382,34.2436016 35.4321275,34.250008 35.4258167,34.2564143 C35.419506,34.2628207 35.4136733,34.2693227 35.4079363,34.2760159 C35.4021992,34.2827092 35.3948367,34.291506 35.3888127,34.2995378 C35.3838406,34.3059442 35.379251,34.3123506 35.3743745,34.3186614 C35.368255,34.3271713 35.3624223,34.3359681 35.3567809,34.3448606 C35.3523825,34.3518406 35.3481753,34.3588207 35.3440637,34.365992 C35.3411952,34.3708685 35.3380398,34.3755538 35.3353625,34.3806215 C35.1789323,34.5566534 34.996494,34.7460717 34.9104382,34.7603187 C34.7840319,34.734502 34.4974661,34.3653227 34.3435219,34.16749 C34.0261673,33.7587251 33.698008,33.3360956 33.2188685,33.2028048 C33.1040578,33.1712923 32.9854776,33.1556253 32.8664223,33.156239 C32.4833785,33.156239 32.0953625,33.3036813 31.7171952,33.4473944 C31.4857052,33.5352669 31.1024701,33.6808924 30.9701355,33.6587092 C30.8797769,33.5560159 30.8117928,33.1217211 30.7748845,32.8855458 C30.6943745,32.3709323 30.6110916,31.8389163 30.2551076,31.4850359 C29.8969243,31.1291474 29.3624223,31.047012 28.8456096,30.9676494 C28.6133546,30.932749 28.1859442,30.8670598 28.0807649,30.7792829 L28.0807649,30.7792829 Z M32.1226135,45.0645418 L30.1494502,42.6932271 C29.9795725,42.4890382 29.6917451,42.4281577 29.4537371,42.5460717 L26.8449084,43.8387251 L29.7719522,33.7334821 C29.8741673,34.1088765 30.0455139,34.4525259 30.3963347,34.6557131 C30.9406853,34.971251 31.5700398,34.7322072 32.1251952,34.520988 C32.3698805,34.4280478 32.7791235,34.2723825 32.9114582,34.3091952 C33.0289721,34.3459124 33.2843665,34.6753147 33.4373546,34.8721912 C33.8063426,35.3476016 34.2245737,35.8857371 34.8664542,35.9076335 L32.1226135,45.0645418 Z M41.6708845,42.1301355 C41.4390408,42.0010227 41.1489043,42.0477641 40.9693386,42.2431554 L38.8760797,44.5213386 L36.4739761,34.8199841 C36.6311713,34.6395538 36.8266135,34.4279522 36.9227092,34.4032829 C37.0565737,34.3723984 37.4589323,34.5473785 37.6992191,34.6518884 C38.244239,34.8888287 38.8614502,35.1574183 39.4203347,34.8682709 C39.9910757,34.5732908 40.1294343,33.9047331 40.2516335,33.3147729 C40.2902196,33.1029849 40.343577,32.8941563 40.4113147,32.6898167 L44.0499442,43.4551076 L41.6708845,42.1301355 Z"></path></g></svg>