<svg width="40px" height="32px" viewBox="0 0 40 32" version="1.1" xmlns="http://www.w3.org/2000/svg" xmlns:xlink="http://www.w3.org/1999/xlink">
    <path d="M3.48600406,28.1825558 L3.48600406,7.0872211 C3.48721133,6.01227864 4.35832327,5.14116671 5.43326572,5.13995943 L2.99918864,5.13995943 C1.92424619,5.14116671 1.05313425,6.01227864 1.05192698,7.0872211 L1.05192698,28.1825558 C1.05313425,29.2574982 1.92424619,30.1286102 2.99918864,30.1298174 L5.43326572,30.1298174 C4.35832327,30.1286102 3.48721133,29.2574982 3.48600406,28.1825558 L3.48600406,28.1825558 Z" fill="#D4E1F4" class="text-lighten-fill-color"></path>
    <path d="M23.4717241,3.09436105 L23.6989047,2.37111562 C23.9516309,1.5579003 24.7053405,1.0047301 25.5569168,1.00744439 L23.1228398,1.00744439 C22.2712634,1.0047301 21.5175538,1.5579003 21.2648276,2.37111562 L21.0376471,3.09436105 C20.6585237,4.31403686 19.5281883,5.14377006 18.2509533,5.13998548 L20.6850304,5.13998548 C21.9622654,5.14377006 23.0926008,4.31403686 23.4717241,3.09436105 L23.4717241,3.09436105 Z" fill="#D4E1F4" class="text-lighten-fill-color"></path>
    <path d="M37.0762677,4.1663286 L33.5079108,4.1663286 C32.6563123,4.16905201 31.9025958,3.61584379 31.6498986,2.80259635 L31.4227181,2.07926978 C31.0435592,0.859642129 29.9132237,0.0299747066 28.6360243,0.0338069544 L23.1225152,0.0338069544 C21.8453458,0.0300103857 20.7150527,0.859670852 20.3359026,2.07926978 L20.1087221,2.80259635 C19.8560249,3.61584379 19.1023083,4.16905201 18.2507099,4.1663286 L13.0518458,4.1663286 L13.0518458,3.33598377 C13.050728,2.35062448 12.2522153,1.55211174 11.266856,1.55099391 L7.37233266,1.55099391 C6.38697337,1.55211174 5.58846062,2.35062448 5.5873428,3.33598377 L5.5873428,4.1663286 L2.99910751,4.1663286 C1.38668457,4.1681172 0.0800036118,5.47479816 0.0782150101,7.0872211 L0.0782150101,28.1825558 C0.0800482297,29.7949602 1.38670308,31.1016151 2.99910751,31.1034483 L37.0761866,31.1034483 C38.688591,31.1016151 39.9952459,29.7949602 39.9970791,28.1825558 L39.9970791,7.0872211 C39.995246,5.4748483 38.6886405,4.16820652 37.0762677,4.1663286 L37.0762677,4.1663286 Z M6.56105477,3.33598377 C6.56159126,2.88810497 6.92453499,2.52516124 7.37241379,2.52462475 L11.2669371,2.52462475 C11.7148344,2.52511662 12.0778043,2.88808646 12.0782961,3.33598377 L12.0782961,4.1663286 L6.56105477,4.1663286 L6.56105477,3.33598377 Z M39.0235294,28.1825558 C39.0222775,29.2574797 38.1511917,30.1285656 37.0762677,30.1298174 L2.99918864,30.1298174 C1.92424619,30.1286102 1.05313425,29.2574982 1.05192698,28.1825558 L1.05192698,7.0872211 C1.05313425,6.01227864 1.92424619,5.14116671 2.99918864,5.13995943 L18.2509533,5.13995943 C19.5281883,5.14377006 20.6585237,4.31403686 21.0376471,3.09436105 L21.2648276,2.37111562 C21.5175538,1.5579003 22.2712634,1.0047301 23.1228398,1.00744423 L28.6366734,1.00744423 C29.4882277,1.00471911 30.2419303,1.55785129 30.4946856,2.37103448 L30.7218661,3.09444219 C31.1010097,4.31405715 32.2312958,5.14374538 33.5084787,5.13995943 L37.0768357,5.13995943 C38.1517782,5.14116671 39.0228901,6.01227864 39.0240974,7.0872211 L39.0235294,28.1825558 Z" fill="#47586D" class="text-fill-color"></path>
    <path d="M28.9026369,2.20008114 L23.0600406,2.20008114 C22.7687748,2.20008114 22.5326572,2.43619871 22.5326572,2.7274645 L22.5326572,4.62474645 C22.5326572,4.91601224 22.7687748,5.15212982 23.0600406,5.15212982 L28.9026369,5.15212982 C29.1939027,5.15212982 29.4300203,4.91601224 29.4300203,4.62474645 L29.4300203,2.7272211 C29.4298859,2.43605037 29.1938077,2.20008114 28.9026369,2.20008114 Z M28.4563895,4.17801217 L23.5070994,4.17801217 L23.5070994,3.17371197 L28.4563895,3.17371197 L28.4563895,4.17801217 Z" fill="#47586D" class="text-fill-color"></path>
    <g transform="translate(3.894523, 6.328600)" fill="#0071DC" class="primary-fill-color">
        <path d="M18.8025152,0.0102231237 C12.7181339,0.0102231237 7.76803245,4.96024341 7.76803245,11.0447059 C7.76803245,17.1291684 12.7181339,22.0791886 18.8025152,22.0791886 C24.8868966,22.0791886 29.836998,17.1290872 29.836998,11.0447059 C29.836998,4.96032454 24.8868966,0.0102231237 18.8025152,0.0102231237 Z M18.8025152,21.1055578 C13.2460601,21.1055578 8.74166329,16.601161 8.74166329,11.0447059 C8.74166329,5.48825079 13.2460601,0.983853955 18.8025152,0.983853955 C24.3589703,0.983853955 28.8633671,5.48825079 28.8633671,11.0447059 C28.8571072,16.598566 24.3563753,21.0992979 18.8025152,21.1055578 L18.8025152,21.1055578 Z"></path>
        <path d="M18.8025152,2.05184584 C15.1651953,2.05184584 11.8860126,4.24286077 10.4940553,7.60329994 C9.10209807,10.9637391 9.87149079,14.8317831 12.4434644,17.4037567 C15.015438,19.9757303 18.883482,20.745123 22.2439212,19.3531658 C25.6043603,17.9612085 27.7953753,14.6820258 27.7953753,11.0447059 C27.7897414,6.0804219 23.7667992,2.05747966 18.8025152,2.05184584 L18.8025152,2.05184584 Z M18.8025152,19.0640162 C15.5589996,19.0640162 12.6348431,17.1102276 11.3935807,14.1136193 C10.1523182,11.117011 10.8383964,7.66774936 13.1318967,5.37422584 C15.425397,3.08070233 18.8746517,2.39458931 21.8712725,3.63582143 C24.8678934,4.87705355 26.8217444,7.80119023 26.8217444,11.0447059 C26.816692,15.4715226 23.2293318,19.058919 18.8025152,19.0640162 L18.8025152,19.0640162 Z"></path>
        <path d="M6.79107505,2.15350913 L0.727383367,2.15350913 C0.369069216,2.15391155 0.0786985708,2.4442822 0.078296146,2.80259635 L0.078296146,5.07440162 C0.0786985708,5.43271577 0.369069216,5.72308642 0.727383367,5.72348884 L6.79107505,5.72348884 C7.1493892,5.72308642 7.43975985,5.43271577 7.44016227,5.07440162 L7.44016227,2.80259635 C7.43975985,2.4442822 7.1493892,2.15391155 6.79107505,2.15350913 L6.79107505,2.15350913 Z M4.03667343,4.74985801 L1.05192698,4.74985801 L1.05192698,3.12713996 L4.03659229,3.12713996 L4.03667343,4.74985801 Z M6.46653144,4.74985801 L5.01022312,4.74985801 L5.01022312,3.12713996 L6.46653144,3.12713996 L6.46653144,4.74985801 Z"></path>
        <path d="M24.3191075,9.50442191 L19.7505882,10.3697363 L22.0629615,6.33533469 C22.1281614,6.22160737 22.1447391,6.08639097 22.1089434,5.96028147 C22.0731477,5.83417198 21.9880043,5.72782871 21.8727789,5.6653144 L21.6288032,5.53290061 C21.6253144,5.53103448 21.6218256,5.52916836 21.6182556,5.52738337 C20.7472436,5.08044782 19.7818213,4.84871863 18.8028398,4.85154974 C16.2020782,4.8539208 13.8803583,6.48231955 12.9924973,8.92683768 C12.1046362,11.3713558 12.8401653,14.1101625 14.8332346,15.780983 C16.8263039,17.4518035 19.6514532,17.697968 21.9034611,16.397035 C24.155469,15.0961021 25.3535998,12.5257815 24.9019067,9.96454361 L24.8884381,9.89290061 C24.8645877,9.76588348 24.79121,9.65356277 24.6844763,9.58069225 C24.5777426,9.50782174 24.4464136,9.48038256 24.319432,9.50442191 L24.3191075,9.50442191 Z M18.8025152,16.2641785 C15.9198801,16.2641785 13.5830426,13.927341 13.5830426,11.0447059 C13.5830426,8.16207075 15.9198801,5.82518418 18.8025152,5.82518418 C19.5487247,5.82292022 20.2865648,5.9824188 20.9651927,6.29273834 L18.3802028,10.8026775 C18.2857669,10.9675261 18.2958574,11.1722508 18.4060463,11.3270139 C18.5162352,11.4817769 18.7063886,11.5582996 18.8930629,11.523002 L23.9993509,10.5557809 C24.0144422,10.7180527 24.0219878,10.8813793 24.0219878,11.0445436 C24.0189471,13.9259445 21.6839161,16.2610481 18.8025152,16.2641785 L18.8025152,16.2641785 Z"></path>
    </g>
</svg>
