<svg width="40px" height="50px" viewBox="0 0 40 50" version="1.1" xmlns="http://www.w3.org/2000/svg" xmlns:xlink="http://www.w3.org/1999/xlink">
    <path d="M8.68479644,25.5979644 C9.17024489,24.3241094 9.43781802,22.9778944 9.47598595,21.6153785 C9.48910626,21.1601464 9.50500957,20.9621501 9.51574433,20.8758747 C10.3180662,14.5956584 15.6643607,9.89145995 21.9958651,9.89464061 L22.1032124,9.89464061 C23.6255566,9.90617048 25.1327927,10.1952131 26.5509701,10.7482506 C24.6028149,9.54079196 22.3596533,8.89312977 20.067589,8.87682644 C20.0318066,8.87682644 19.9960242,8.87682644 19.9602417,8.87682644 C13.6291349,8.8740458 8.28323786,13.5782443 7.48091603,19.858063 C7.47018127,19.9443384 7.45427796,20.1423347 7.4407602,20.5975668 C7.40259226,21.9600826 7.13501903,23.3062977 6.64917303,24.5801527 L4.80001588,29.4250954 L7.22407756,29.4250954 L8.68479644,25.5979644 Z" fill="#D4E1F4" class="text-lighten-fill-color"></path>
    <path d="M11.4098282,35.473521 L11.4098282,31.0535941 C11.4042621,30.7140585 11.127147,30.4417144 10.788009,30.4428993 L9.37420478,30.4428993 L9.37420478,34.4557093 C9.36943389,35.1005884 9.62865771,35.7196246 10.0914441,36.1684956 C10.5482666,36.6209446 11.1712786,36.8650605 11.8133747,36.8439886 C11.8177481,36.8439886 11.821724,36.851145 11.8260973,36.8507782 L11.8408079,36.8507782 C11.5581266,36.4475986 11.4074427,35.966126 11.4098282,35.473521 L11.4098282,35.473521 Z" fill="#D4E1F4" class="text-lighten-fill-color"></path>
    <path d="M16.7024491,40.519243 L16.7024491,39.6600668 C16.6976782,39.1770038 16.4972965,38.7166031 16.1474237,38.3834288 C15.8007316,38.0494593 15.336355,37.8661736 14.8548823,37.8729325 L14.8346056,37.8729325 L14.4795643,37.8713423 C14.6016222,38.1098919 14.665633,38.3742844 14.6668256,38.6422551 L14.6668256,40.519243 L16.7024491,40.519243 Z" fill="#D4E1F4" class="text-lighten-fill-color"></path>
    <g fill="#47586D" class="text-fill-color">
        <path d="M19.8576653,0.610687023 L19.8576653,4.66881364 C19.8576653,5.00636132 20.1308047,5.27950066 20.4683524,5.27950066 C20.8055025,5.27950066 21.0790394,5.00636132 21.0790394,4.66881364 L21.0790394,0.610687023 C21.0790394,0.273536896 20.8055025,0 20.4683524,0 C20.1308047,0 19.8576653,0.273536896 19.8576653,0.610687023 Z"></path>
        <path d="M35.2393447,20.5701335 L39.2978689,20.5701335 C39.635019,20.5701335 39.9085559,20.2965966 39.9085559,19.9594465 C39.9085559,19.6218988 39.635019,19.3487595 39.2978689,19.3487595 L35.2393447,19.3487595 C34.9021946,19.3487595 34.6286577,19.6218988 34.6286577,19.9594465 C34.6286577,20.2965966 34.9021946,20.5701335 35.2393447,20.5701335 Z"></path>
        <path d="M5.28983776,19.9594465 C5.28983776,19.6218988 5.01669842,19.3487595 4.67915074,19.3487595 L0.621024122,19.3487595 C0.283476438,19.3487595 0.0103370992,19.6218988 0.0103370992,19.9594465 C0.0103370992,20.2965966 0.283476438,20.5701335 0.621024122,20.5701335 L4.67915074,20.5701335 C5.01669842,20.5701335 5.28983776,20.2965966 5.28983776,19.9594465 Z"></path>
        <path d="M33.7961196,5.24848916 L30.6293734,8.41523542 C30.3908238,8.65378504 30.3908238,9.04023532 30.6289759,9.27878494 C30.8675255,9.51733455 31.2543734,9.51733455 31.4929231,9.27878494 L34.6596692,6.11203878 C34.8982188,5.87348916 34.8982188,5.48703878 34.6596692,5.24848916 C34.4211196,5.00993954 34.0346692,5.00993954 33.7961196,5.24848916 Z"></path>
        <path d="M8.85734738,9.45770084 C9.10464377,9.45770084 9.32729008,9.30900132 9.42191471,9.0807888 C9.51614188,8.85257628 9.46405852,8.58977415 9.28951969,8.41523542 L6.12237598,5.24848916 C5.88382636,5.00993954 5.49737598,5.00993954 5.25882636,5.24848916 C5.02027674,5.48703878 5.02027674,5.87348916 5.25882636,6.11203878 L8.42557252,9.27878494 C8.54007634,9.39368641 8.6955312,9.45809476 8.85734738,9.45770084 Z"></path>
    </g>
    <path d="M20.5701335,41.2317111 L20.5701335,20.5347487 C21.0317271,20.442112 21.4535623,20.2083333 21.7771947,19.8664122 C22.5071564,19.1447996 22.7302004,18.0538327 22.3413645,17.1036101 C21.9521311,16.1533874 21.0285465,15.531568 20.0019879,15.5291688 C18.9754294,15.526797 18.0486641,16.1438454 17.6550573,17.0920802 C17.2614504,18.0403149 17.4789281,19.1324745 18.2057093,19.8576653 L18.1854326,19.8576653 C18.5162214,20.1693702 18.9142016,20.4007634 19.3487595,20.5347487 L19.3487595,41.2317111 L20.5701335,41.2317111 Z M19.0720419,17.1389949 C19.586514,16.624523 20.4210401,16.624523 20.9355121,17.1389949 C21.4499841,17.6538645 21.4499841,18.487993 20.9355121,19.002465 C20.4210401,19.5173346 19.586514,19.5173346 19.0720419,19.002465 C18.5583652,18.4875954 18.5583652,17.6542621 19.0720419,17.1389949 Z" fill="#0071DC" class="primary-fill-color"></path>
    <path d="M18.1273854,41.2317111 L18.1273854,31.0046915 C18.1333492,30.3252226 17.8681616,29.6711991 17.3906647,29.1877385 C16.9131679,28.7046756 16.2623251,28.4315363 15.5828562,28.4295483 C15.2270197,28.4279581 14.886689,28.2840331 14.6381997,28.0295802 C14.389313,27.7751272 14.2529421,27.4316158 14.259701,27.0761769 L14.259701,26.7024491 C14.6974396,26.5827767 15.0970102,26.3517812 15.4198473,26.0325222 C16.4018766,25.0337945 16.3935273,23.4295483 15.4011609,22.4415553 C14.7618479,21.7923028 13.8231552,21.5362595 12.9429071,21.7712309 C12.062659,22.0062023 11.3764313,22.6964059 11.1462309,23.5778467 C10.9160305,24.4592875 11.1768448,25.3967876 11.8296755,26.0321247 C12.1552958,26.3732507 12.5767334,26.6074269 13.0383269,26.7028467 L13.0383269,27.0765745 C13.0319656,27.7560433 13.2971533,28.4100668 13.7746502,28.8935273 C14.2525445,29.3769879 14.9029898,29.6497297 15.5828562,29.6517176 C15.9382952,29.6533079 16.278626,29.7972328 16.5275127,30.0516857 C16.7760019,30.3061386 16.9123727,30.6496501 16.9060114,31.0054866 L16.9060114,41.2317111 L18.1273854,41.2317111 Z M12.2813295,24.2374363 C12.2813295,23.6410624 12.6816953,23.1190362 13.2577926,22.9643766 C13.83389,22.8101145 14.4421915,23.0617843 14.7403785,23.5786418 C15.0385655,24.0951018 14.9526876,24.747535 14.5308524,25.1693702 C14.153944,25.5462787 13.5869911,25.6587945 13.0947837,25.4548346 C12.6021787,25.2508747 12.2813295,24.7705948 12.2813295,24.2374363 Z" fill="#0071DC" class="primary-fill-color"></path>
    <path d="M23.1146628,31.0046915 C23.1079039,30.6492525 23.2442748,30.3057411 23.4931615,30.0512881 C23.7416508,29.7968352 24.0819816,29.6525128 24.437818,29.6509223 C25.1172869,29.6489345 25.7677322,29.3761928 26.2456266,28.8927322 C26.7231235,28.4092717 26.988311,27.7556457 26.9823473,27.0761769 L26.9823473,26.7024491 C27.4423505,26.6070292 27.8621979,26.3732507 28.1854326,26.0325222 C29.0008747,25.2238391 29.1706424,23.9678753 28.5989186,22.9719307 C28.026797,21.975986 26.8567112,21.4893447 25.7474555,21.7859415 C24.6378021,22.0829358 23.8668894,23.0884224 23.8684796,24.2370388 C23.8601304,24.9085559 24.1213423,25.555423 24.5940681,26.0321247 C24.9188931,26.3521787 25.3208493,26.5831744 25.7609732,26.7028467 L25.7609732,27.0765745 C25.7673346,27.432411 25.6309638,27.7759224 25.3824745,28.0299777 C25.1335878,28.2844306 24.793257,28.4287532 24.437818,28.4303435 C23.7579517,28.4323314 23.1075064,28.7050732 22.629612,29.1885337 C22.1521151,29.6719943 21.8869274,30.3260178 21.8932888,31.0054866 L21.8932888,41.2317111 L23.1146628,41.2317111 L23.1146628,31.0046915 Z M25.0910313,24.2374363 C25.0910313,23.6088581 25.5351463,23.0677481 26.151797,22.9448951 C26.7680503,22.8224396 27.3854962,23.1524332 27.6260337,23.7333016 C27.8669689,24.3141699 27.6634065,24.9836991 27.1409828,25.3331744 C26.6181616,25.6822519 25.9215967,25.6138677 25.4770992,25.1693702 C25.2290076,24.922869 25.0898536,24.5873091 25.0910313,24.2374363 L25.0910313,24.2374363 Z" fill="#0071DC" class="primary-fill-color"></path>
    <path d="M33.7551685,21.0925573 C33.5456425,13.6669052 27.5063613,7.73338107 20.0779262,7.65585076 C20.0381679,7.65585076 19.9996024,7.65585076 19.9598442,7.65585076 C13.0140744,7.65346687 7.14933211,12.8148855 6.26908397,19.7049936 C6.24801211,19.8711832 6.23171115,20.151479 6.21978372,20.5617843 C6.18519399,21.7875318 5.94505405,22.9985688 5.5085083,24.144402 L3.65259226,29.0056457 C3.51065527,29.3773854 3.56075064,29.7948473 3.78618005,30.122853 C4.01200702,30.4504612 4.38454198,30.6464694 4.78212468,30.6464694 L8.15283074,30.6464694 L8.15283074,34.4557093 C8.15283074,35.4281965 8.54484733,36.3601304 9.23982188,37.0403944 C9.93479644,37.721056 10.8746819,38.0927958 11.8471693,38.0721215 L12.8121024,38.0764949 L12.8188613,38.0764949 C12.978292,38.0705312 13.1337468,38.1269879 13.252624,38.2339377 C13.3699109,38.3381043 13.4394879,38.4856075 13.4454516,38.6422551 L13.4454516,45.6369274 C13.4394879,46.3311069 13.7122296,46.9986482 14.2024491,47.490458 C14.6922709,47.9822678 15.3590172,48.257395 16.0531965,48.2546119 L19.3487595,48.2546119 L19.3487595,49.2823633 C19.3487595,49.6199109 19.6218988,49.8930503 19.9594465,49.8930503 C20.2965966,49.8930503 20.5701335,49.6199109 20.5701335,49.2823633 L20.5701335,48.2546119 L23.8652989,48.2546119 C24.5598759,48.257395 25.2262245,47.9822678 25.716444,47.490458 C26.2062659,46.9986482 26.4790076,46.3311069 26.4734414,45.6369274 L26.4734414,38.0256043 C26.4734414,35.6067112 27.5318066,33.2482506 29.3491572,31.554946 C32.2471374,28.8585401 33.8509861,25.0496978 33.7551685,21.0925573 Z M23.8652989,47.0333379 L16.0531965,47.0333379 C15.6826495,47.0364185 15.326813,46.8901081 15.0656011,46.627306 C14.8043893,46.3645038 14.660862,46.0074746 14.6668256,45.6369274 L14.6668256,45.4047391 L21.6320769,45.4047391 C21.9696246,45.4047391 22.242764,45.1312022 22.242764,44.7940521 C22.242764,44.4565044 21.9696246,44.1833651 21.6320769,44.1833651 L14.6668256,44.1833651 L14.6668256,41.740617 L25.2520674,41.740617 L25.2520674,44.1833651 L23.7325064,44.1833651 C23.3953562,44.1833651 23.1218193,44.4565044 23.1218193,44.7940521 C23.1218193,45.1312022 23.3953562,45.4047391 23.7325064,45.4047391 L25.2520674,45.4047391 L25.2520674,45.6369274 C25.2580311,46.0074746 25.1141063,46.3645038 24.8528945,46.627306 C24.5920802,46.8901081 24.2358461,47.0364185 23.8652989,47.0333379 Z M28.5170166,30.6607825 C26.451972,32.5842875 25.2520674,35.2683683 25.2520674,38.0347487 L25.2520674,40.519243 L14.6668256,40.519243 L14.6668256,38.6422551 C14.6620548,38.1591921 14.4616731,37.6987913 14.1118003,37.3656171 C13.7651082,37.0316476 13.3007316,36.8483619 12.8192589,36.8551208 L12.7989822,36.8551208 L11.8256997,36.8507475 C11.8213263,36.8507475 11.8169529,36.8439886 11.8129771,36.8439886 C11.1704835,36.8650605 10.5478689,36.6209446 10.0910464,36.1684956 C9.62826015,35.7192271 9.36943389,35.1005884 9.37420478,34.4557093 L9.37420478,30.0357824 C9.36863868,29.6962468 9.09152356,29.4239027 8.75238555,29.4250954 L4.80001588,29.4250954 L6.64917303,24.5801527 C7.13462148,23.3062977 7.40219461,21.9600826 7.44036254,20.5975668 C7.45348285,20.1423347 7.46938616,19.9443384 7.48012092,19.858063 C8.28244275,13.5778467 13.6287373,8.87364824 19.9602417,8.87682568 L20.067589,8.87682568 C25.2166825,8.92215328 29.8175095,12.1024173 31.6793893,16.9032284 C33.5416667,21.7040395 32.288486,27.1548982 28.5166189,30.6603848 L28.5170166,30.6607825 Z" fill="#47586D" class="text-fill-color"></path>
</svg>
