<svg width="40px" height="43px" viewBox="0 0 40 43" version="1.1" xmlns="http://www.w3.org/2000/svg" xmlns:xlink="http://www.w3.org/1999/xlink">
    <path d="M24.1390065,31.6544276 C24.143984,27.7495082 26.9702724,24.4200468 30.8225486,23.7809935 C27.7015258,23.2675537 24.5718433,24.6460791 22.8438888,27.2953388 C21.1159343,29.9445985 21.1159343,33.3644295 22.8438888,36.0136893 C24.5718433,38.662949 27.7015258,40.0414743 30.8225486,39.5280346 C26.9703207,38.8887718 24.144114,35.5593336 24.1390065,31.6544276 Z" fill="#D4E1F4" class="text-lighten-fill-color"></path>
    <path d="M29.2631533,40.2344708 C34.0015922,40.2344708 37.842851,36.3931545 37.842851,31.6547156 C37.842851,26.9162767 34.0016498,23.0749028 29.2632109,23.0749028 C24.5247721,23.0749028 20.6832829,26.9159888 20.6832829,31.6544276 C20.6885201,36.3908162 24.5267649,40.2291382 29.2631533,40.2344708 Z M29.2631533,24.1116199 C32.3140549,24.1116199 35.0645207,25.9495143 36.2320017,28.7681998 C37.3994828,31.5868853 36.7540611,34.8312991 34.5966986,36.9885628 C32.439336,39.1458265 29.1948927,39.7910995 26.3762607,38.6234893 C23.5576286,37.4558792 21.72,34.7053292 21.72,31.6544276 C21.7248088,27.4905085 25.099234,24.1162379 29.2631533,24.1116199 L29.2631533,24.1116199 Z" fill="#0071DC" class="primary-fill-color"></path>
    <path d="M29.2798272,36.0673866 C29.2742117,36.0673866 29.2687689,36.0665227 29.2631533,36.0665227 C29.2575378,36.0665227 29.252095,36.0672138 29.2463931,36.0673866 C28.2506349,36.0573063 27.4483584,35.2479034 27.4470842,34.252095 C27.4470842,33.9658135 27.2150072,33.7337365 26.9287257,33.7337365 C26.7925044,33.7342421 26.6621877,33.7894093 26.5670077,33.8868632 C26.4718278,33.9843171 26.4197521,34.1158998 26.4224622,34.252095 C26.4082466,35.6368986 27.4033376,36.8263548 28.7688985,37.0568467 L28.7688985,37.9754644 C28.7688985,38.2617459 29.0009755,38.4938229 29.287257,38.4938229 C29.5735385,38.4938229 29.8056156,38.2617459 29.8056156,37.9754644 L29.8056156,37.0568467 C31.253664,36.7825982 32.254687,35.4508014 32.1155769,33.9835914 C31.9764667,32.5163814 30.7429882,31.3964438 29.2692009,31.3992225 C28.5341431,31.4013904 27.8702593,30.9602661 27.5874695,30.2817791 C27.3046797,29.6032922 27.4587532,28.8212476 27.977764,28.3007263 C28.4967748,27.7802051 29.2783683,27.6238596 29.9576742,27.9046764 C30.6369801,28.1854933 31.0800318,28.8480924 31.08,29.5831533 C31.08,29.8694349 31.312077,30.1015119 31.5983585,30.1015119 C31.8869544,30.1024154 32.1229418,29.8716961 32.1285529,29.5831533 C32.1202108,28.2146207 31.1486399,27.0415305 29.8056156,26.7784017 L29.8056156,25.9663067 C29.8056156,25.6800252 29.5735385,25.4479482 29.287257,25.4479482 C29.0009755,25.4479482 28.7688985,25.6800252 28.7688985,25.9663067 L28.7688985,26.7784017 C27.4033032,27.0088558 26.4081671,28.1983221 26.4223758,29.5831533 C26.4213727,31.1567919 27.6955637,32.4336509 29.2692009,32.4359395 C29.9178964,32.4340413 30.5183285,32.7783622 30.8443202,33.3392 C31.1703118,33.9000377 31.1723372,34.5921876 30.8496333,35.1549235 C30.5269295,35.7176594 29.9285228,36.0654884 29.2798272,36.0673866 L29.2798272,36.0673866 Z" fill="#0071DC" class="primary-fill-color"></path>
    <path d="M2.93097192,11.9827214 C3.86599796,11.9824625 4.74469988,11.5357607 5.29589633,10.7804752 L8.85071274,13.2557235 C8.53918789,14.4038815 8.95249961,15.6264552 9.89680505,16.3500585 C10.8411105,17.0736619 12.1291069,17.1547683 13.156725,16.555339 C14.1843431,15.9559096 14.7477552,14.7948412 14.5827214,13.6166739 L18.3097192,10.4733477 C19.2730907,11.4861311 20.8178929,11.6769727 21.9987738,10.9290857 C23.1796547,10.1811986 23.667441,8.70305825 23.1636285,7.39922246 L26.5643197,4.28233261 C27.236573,5.60635878 28.793326,6.21774912 30.1869231,5.70505331 C31.5805202,5.1923575 32.3698826,3.71784567 32.0237893,2.27382723 C31.677696,0.829808791 30.3056868,-0.126679025 28.8310894,0.0480560468 C27.356492,0.222791118 26.246022,1.47344477 26.2469978,2.95835853 C26.2469978,3.02617711 26.250108,3.09321814 26.2546868,3.15982721 L22.6115767,6.49866091 C21.6552365,5.42914119 20.06506,5.20953641 18.8546407,5.9798247 C17.6442214,6.75011299 17.1697096,8.2836468 17.7335637,9.60293737 L14.2223758,12.5641469 C13.7282004,11.6988937 12.8278445,11.1444208 11.8327665,11.0925358 C10.8376884,11.0406507 9.88454947,11.4984793 9.30306695,12.3076458 L5.75421166,9.83680346 C6.09106464,8.62470577 5.61674397,7.33284161 4.57558811,6.62669347 C3.53443224,5.92054532 2.15874519,5.95766985 1.15718941,6.71894296 C0.155633628,7.48021608 -0.248322498,8.79578156 0.153412357,9.98794759 C0.555147212,11.1801136 1.67293746,11.9828826 2.93097192,11.9827214 L2.93097192,11.9827214 Z M29.1776242,1.06410367 C29.9437866,1.06410367 30.6345272,1.52556695 30.9277491,2.23339872 C31.220971,2.94123048 31.0589279,3.75599743 30.5171816,4.29776844 C29.9754353,4.83953945 29.1606757,5.00161969 28.4528306,4.70843009 C27.7449855,4.41524049 27.2834557,3.72452097 27.2834557,2.95835853 C27.2846459,1.91271755 28.1319833,1.06534151 29.1776242,1.06410367 Z M20.4287689,6.55775378 C21.474937,6.55775378 22.3230238,7.40584057 22.3230238,8.45200864 C22.3230238,9.49817671 21.474937,10.3462635 20.4287689,10.3462635 C19.3826008,10.3462635 18.534514,9.49817671 18.534514,8.45200864 C18.5357043,7.40633398 19.3830942,6.55894402 20.4287689,6.55775378 Z M11.6798272,12.12527 C12.4459896,12.12527 13.1367302,12.5867333 13.4299521,13.294565 C13.723174,14.0023968 13.5611309,14.8171637 13.0193846,15.3589347 C12.4776383,15.9007058 11.6628787,16.062786 10.9550336,15.7695964 C10.2471885,15.4764068 9.78565875,14.7856873 9.78565875,14.0195248 C9.7868489,12.9738839 10.6341863,12.1265078 11.6798272,12.12527 L11.6798272,12.12527 Z M2.93097192,7.15714903 C3.97712875,7.15714903 4.82522678,8.00521827 4.82522678,9.05137509 C4.82522678,10.0975319 3.97718634,10.9456587 2.93102952,10.9456587 C1.88487269,10.9456587 1.03676478,10.0976471 1.03671706,9.05149028 C1.03785971,8.00578188 1.88526358,7.15833936 2.93097192,7.15714903 Z" fill="#47586D" class="text-fill-color"></path>
    <path d="M31.7926566,21.7710583 L31.7926566,9.42902808 C31.7926566,9.14280778 31.6002592,8.89848812 31.3140389,8.89848812 L27.0410367,8.89848812 C26.7524785,8.90437714 26.5218642,9.14041089 26.5226739,9.42902808 L26.5226739,21.7710583 L27.5593952,21.7710583 L27.5593952,9.93520518 L30.7559395,9.93520518 L30.7559395,21.7710583 L31.7926566,21.7710583 Z" fill="#47586D" class="text-fill-color"></path>
    <path d="M23.0669546,24.0172786 L23.0669546,14.9009935 C23.0669546,14.6146868 22.8514903,14.3412527 22.5651836,14.3412527 L18.2923542,14.3412527 C18.0061339,14.3412527 17.7969762,14.6146868 17.7969762,14.9009935 L17.7969762,27.5143844 C17.7935002,27.6451723 17.8452154,27.771387 17.939463,27.8621335 C18.0337105,27.9528801 18.1617915,27.9997828 18.2923542,27.9913607 L20.0431965,27.9913607 L20.0431965,26.9546436 L18.8336933,26.9546436 L18.8336933,15.3779698 L22.0302376,15.3779698 L22.0302376,24.0172786 L23.0669546,24.0172786 Z" fill="#47586D" class="text-fill-color"></path>
    <path d="M14.2548596,20.5615551 C14.2548596,20.2752736 14.0227826,20.0431965 13.7365011,20.0431965 L9.50323974,20.0431965 C9.21695823,20.0431965 8.98488121,20.2752736 8.98488121,20.5615551 L8.98488121,27.5593952 C8.98488121,27.8456768 9.21695823,28.0777538 9.50323974,28.0777538 L13.7365011,28.0777538 C14.0227826,28.0777538 14.2548596,27.8456768 14.2548596,27.5593952 L14.2548596,20.5615551 Z M10.0215983,21.0799136 L13.3045356,21.0799136 L13.3045356,26.9546436 L10.0215983,26.9546436 L10.0215983,21.0799136 Z" fill="#47586D" class="text-fill-color"></path>
    <path d="M5.52915767,15.5507559 C5.52915767,15.2644744 5.29708065,15.0323974 5.01079914,15.0323974 L0.777537797,15.0323974 C0.491256285,15.0323974 0.259179266,15.2644744 0.259179266,15.5507559 L0.259179266,27.4730022 C0.259179266,27.7592837 0.491256285,27.9913607 0.777537797,27.9913607 L5.01079914,27.9913607 C5.29708065,27.9913607 5.52915767,27.7592837 5.52915767,27.4730022 L5.52915767,15.5507559 Z M4.57883369,26.9546436 L1.29589633,26.9546436 L1.29589633,16.0691145 L4.57883369,16.0691145 L4.57883369,26.9546436 Z" fill="#47586D" class="text-fill-color"></path>
    <path d="M29.2631533,42.3052289 C33.5736999,42.3071486 37.460785,39.7117724 39.1112638,35.7297208 C40.7617426,31.7476692 39.8504474,27.1634627 36.8024551,24.115421 C33.7544628,21.0673792 29.1702711,20.1560097 25.1881927,21.8064239 C21.2061143,23.4568381 18.6106751,27.343881 18.612525,31.6544276 C18.6190497,37.5339302 23.3836509,42.2986087 29.2631533,42.3052289 L29.2631533,42.3052289 Z M20.4856156,27.7257883 C21.0509228,26.4717102 21.8763314,25.3521123 22.9071274,24.4412095 C26.5866779,21.2067714 32.1125508,21.2658364 35.7221239,24.5781866 C39.331697,27.8905368 39.8642259,33.3910071 36.9571065,37.334272 C34.0499871,41.277537 28.6380728,42.3955458 24.4063904,39.9270351 C20.1747079,37.4585244 18.4840556,32.1973025 20.4856156,27.7257883 L20.4856156,27.7257883 Z" fill="#0071DC" class="primary-fill-color"></path>
</svg>
