<svg width="40px" height="40px" viewBox="0 0 40 40" version="1.1" xmlns="http://www.w3.org/2000/svg" xmlns:xlink="http://www.w3.org/1999/xlink">
    <path d="M3.40316468,37.2777424 L3.40316468,12.1466801 C3.4039827,11.3372014 4.05966457,10.6815195 4.86914332,10.6807015 L2.77488813,10.6807015 C1.96540938,10.6815195 1.30972751,11.3372014 1.30890949,12.1466801 L1.30890949,37.2777424 C1.30972751,38.0872211 1.96540938,38.742903 2.77488813,38.743721 L4.86914332,38.743721 C4.05966457,38.742903 3.4039827,38.0872211 3.40316468,37.2777424 Z" fill="#D4E1F4" class="text-lighten-fill-color"></path>
    <g fill="#47586D" class="text-fill-color">
        <path d="M27.9059504,9.42414835 L2.77488813,9.42414835 C1.27209647,9.42578449 0.0539925166,10.6438884 0.0523563797,12.1466801 L0.0523563797,37.2777424 C0.0539925166,38.780534 1.27209647,39.998638 2.77488813,40.0002741 L27.9059504,40.0002741 C29.4087421,39.998638 30.626846,38.780534 30.6284821,37.2777424 L30.6284821,12.1466801 C30.626846,10.6438884 29.4087421,9.42578449 27.9059504,9.42414835 Z M29.371929,37.2777424 C29.371111,38.0872211 28.7154291,38.742903 27.9059504,38.743721 L2.77488813,38.743721 C1.96540938,38.742903 1.30972751,38.0872211 1.30890949,37.2777424 L1.30890949,12.1466801 C1.30972751,11.3372014 1.96540938,10.6815195 2.77488813,10.6807015 L27.9059504,10.6807015 C28.7154291,10.6815195 29.371111,11.3372014 29.371929,12.1466801 L29.371929,37.2777424 Z"></path>
        <path d="M3.19373916,6.91104212 C3.19373916,7.25790314 3.4751547,7.53931868 3.82201572,7.53931868 L28.953078,7.53931868 C29.299939,7.53931868 29.5813546,7.25790314 29.5813546,6.91104212 C29.5813546,6.56418111 29.299939,6.28276557 28.953078,6.28276557 L3.82201572,6.28276557 C3.4751547,6.28276557 3.19373916,6.56418111 3.19373916,6.91104212 Z"></path>
        <path d="M4.24086676,3.76965934 C4.24086676,4.11652036 4.5222823,4.3979359 4.86914332,4.3979359 L27.9059504,4.3979359 C28.2528114,4.3979359 28.534227,4.11652036 28.534227,3.76965934 C28.534227,3.42279833 28.2528114,3.14138278 27.9059504,3.14138278 L4.86914332,3.14138278 C4.5222823,3.14138278 4.24086676,3.42279833 4.24086676,3.76965934 Z"></path>
        <path d="M5.28799435,0.628276557 C5.28799435,0.975137573 5.56940989,1.25655311 5.91627091,1.25655311 L26.8588228,1.25655311 C27.2056838,1.25655311 27.4870994,0.975137573 27.4870994,0.628276557 C27.4870994,0.281415541 27.2056838,0 26.8588228,0 L5.91627091,0 C5.56940989,0 5.28799435,0.281415541 5.28799435,0.628276557 Z"></path>
    </g>
    <path d="M23.2777282,21.2705973 L23.2777282,18.2396538 C23.2777282,17.7479947 23.0568497,17.2825137 22.676448,16.9716477 C22.2960461,16.6603727 21.7962063,16.5364353 21.314364,16.6341945 L13.340242,18.2490616 C12.5778022,18.4057217 12.0292873,19.0761287 12.0272421,19.8545209 L12.0272421,25.9843077 C10.91426,25.2038703 9.41228639,25.2856772 8.39051886,26.1814621 C7.36834243,27.0772471 7.09060817,28.5559057 7.71847572,29.7613296 C8.34593416,30.9667535 9.71619873,31.5876674 11.0361522,31.2641213 C12.3565146,30.9405753 13.2846133,29.7572393 13.2837952,28.3980186 L13.2837952,23.8041553 L22.0207661,22.0346733 L22.0207661,27.4437418 C20.8730161,26.6514424 19.3276848,26.7680172 18.3120528,27.7239302 C17.2964209,28.6794341 17.0857683,30.2149485 17.8068956,31.4085104 C18.5280229,32.6024812 19.9850028,33.1305444 21.3037291,32.6761075 C22.6224554,32.2220795 23.4446142,30.9082615 23.2773192,29.5236808 L23.2777282,21.2705973 Z M10.3330224,30.0922383 C9.39715215,30.0922383 8.63880266,29.3334798 8.63880266,28.3980186 C8.63880266,27.4621483 9.39756115,26.7037988 10.3330224,26.7037988 C11.2688927,26.7037988 12.0272421,27.4625573 12.0272421,28.3980186 C12.026015,29.3334798 11.2680746,30.0910112 10.3330224,30.0922383 Z M13.2837952,22.5222421 L13.2837952,19.8545209 C13.2842042,19.6733187 13.412232,19.5170677 13.5897528,19.4806636 L21.5634659,17.8657966 C21.6755412,17.8428907 21.7921159,17.871932 21.8808764,17.9443311 C21.9692278,18.0167302 22.0207661,18.1251242 22.0207661,18.2396538 L22.0207661,20.75276 L13.2837952,22.5222421 Z M20.3478161,31.566826 C19.4450777,31.5676247 18.7002264,30.8604046 18.6540054,29.9588932 C18.6081936,29.0573817 19.2769646,28.2777625 20.1752037,28.1869569 C21.0734428,28.0957423 21.8853757,28.7248368 22.0211751,29.6173496 L22.0211751,29.683204 L22.031401,29.683204 C22.0870297,30.1630013 21.9348689,30.6432074 21.612959,31.0031575 C21.291049,31.3631076 20.8304766,31.5684427 20.3478161,31.566826 L20.3478161,31.566826 Z" fill="#0071DC" class="primary-fill-color"></path>
</svg>
