<svg xmlns="http://www.w3.org/2000/svg" xmlns:xlink="http://www.w3.org/1999/xlink" width="48px" height="46px" viewBox="0 0 48 46"><g fill="#000000" fill-rule="nonzero"><g><path d="M3.57929614,45.6625236 L26.6522575,45.6625236 C28.369571,45.6602207 29.8326586,44.4148024 30.1091845,42.719897 C31.7980105,42.4377877 33.0362775,40.9774609 33.0385237,39.2652361 L33.0385237,33.7751073 C33.0385237,33.4337811 32.7618241,33.1570816 32.4204979,33.1570816 C32.0791717,33.1570816 31.8024721,33.4337811 31.8024721,33.7751073 L31.8024721,39.2652361 C31.801053,40.5161771 30.7873188,41.5299113 29.5363777,41.5313305 L6.56642058,41.5313305 C5.31547949,41.5299113 4.30174529,40.5161771 4.30032618,39.2652361 L4.30032618,3.5735279 C4.30174529,2.32258679 5.31547949,1.30885258 6.56642058,1.30743347 L23.9741459,1.30743347 L23.9741459,6.5905236 C23.9757922,8.06892138 25.1738597,9.26698896 26.6522575,9.26863518 L31.8024721,9.26863518 L31.8024721,12.5795021 C31.8024721,12.9208283 32.0791717,13.1975279 32.4204979,13.1975279 C32.7618241,13.1975279 33.0385237,12.9208283 33.0385237,12.5795021 L33.0385237,8.65060944 C33.0385237,8.62996962 33.0375058,8.6093424 33.0354335,8.58880686 C33.0341974,8.57665236 33.0320344,8.56480686 33.0300773,8.55285834 C33.0288412,8.54503002 33.0280172,8.53709874 33.0264721,8.52927036 C33.023588,8.51484978 33.0197768,8.50084122 33.0161717,8.48672964 C33.0147296,8.48157942 33.0136996,8.4764292 33.0121545,8.47117596 C33.0078283,8.45696136 33.0026781,8.4432618 32.9974249,8.42997426 C32.9955708,8.42503002 32.9939227,8.41967382 32.9919656,8.41503864 C32.9867125,8.40226608 32.9806352,8.39000856 32.9744549,8.37764808 C32.9716738,8.37198282 32.9692017,8.36611158 32.9662146,8.36044638 C32.9603434,8.34942492 32.9536481,8.33881548 32.9471588,8.32820598 C32.9431417,8.32171674 32.9395365,8.31502146 32.9353133,8.3087382 C32.92903,8.29915878 32.9219227,8.2900944 32.9147125,8.28092706 C32.9095622,8.27402574 32.904412,8.26702146 32.8991588,8.26032618 C32.8921545,8.25177684 32.8845322,8.24374248 32.8770129,8.23550214 C32.8716566,8.22952788 32.8667125,8.22324462 32.8609442,8.2174764 L25.032618,0.256274678 L25.0304549,0.254317597 C25.0222146,0.245974249 25.0133562,0.238351931 25.0047038,0.230523605 C24.9984206,0.224961373 24.9924464,0.21888412 24.9859571,0.213527897 C24.9711245,0.201304721 24.9557081,0.189768241 24.9397082,0.178918455 L24.9380601,0.177579399 C24.8534522,0.120134812 24.7558381,0.0847288836 24.6540773,0.074575107 C24.6334764,0.0725150214 24.6128755,0.0713819742 24.5922747,0.0713819742 L6.5665236,0.0713819742 C4.77437078,0.0736202592 3.27224335,1.42671213 3.08343347,3.20889271 C1.35963033,3.45759619 0.079507011,4.93364601 0.0771502146,6.67529616 L0.0771502146,42.1602747 C0.0793072248,44.093579 1.6459919,45.6603097 3.57929614,45.6625236 L3.57929614,45.6625236 Z M25.2101974,6.5905236 L25.2101974,2.19934764 L30.9460944,8.0325837 L26.6522575,8.0325837 C25.8561827,8.03173212 25.211049,7.38659838 25.2101974,6.5905236 Z M1.31320172,6.67529616 C1.31473234,5.62280251 2.0396246,4.70943826 3.06427468,4.4689442 L3.06427468,39.2652361 C3.0664318,41.1985236 4.63313303,42.7652249 6.56642058,42.767382 L28.8350215,42.767382 C28.561405,43.747033 27.6694006,44.4249916 26.6522575,44.4263691 L3.57929614,44.4263691 C2.32835503,44.42495 1.31462083,43.4112158 1.31320172,42.1602747 L1.31320172,6.67529616 Z"></path><path d="M22.944103,12.1992103 L13.3132017,12.1992103 C12.9718755,12.1992103 12.695176,12.4759099 12.695176,12.8172361 C12.695176,13.1585623 12.9718755,13.4352618 13.3132017,13.4352618 L22.944103,13.4352618 C23.2854292,13.4352618 23.5621288,13.1585623 23.5621288,12.8172361 C23.5621288,12.4759099 23.2854292,12.1992103 22.944103,12.1992103 L22.944103,12.1992103 Z"></path><path d="M8.6035365,13.4352618 L10.822867,13.4352618 C11.1641932,13.4352618 11.4408927,13.1585623 11.4408927,12.8172361 C11.4408927,12.4759099 11.1641932,12.1992103 10.822867,12.1992103 L8.6035365,12.1992103 C8.2622103,12.1992103 7.9855107,12.4759099 7.9855107,12.8172361 C7.9855107,13.1585623 8.2622103,13.4352618 8.6035365,13.4352618 L8.6035365,13.4352618 Z"></path><path d="M8.6035365,20.0796566 L14.7037597,20.0796566 C15.0450859,20.0796566 15.3217854,19.8029571 15.3217854,19.4616309 C15.3217854,19.1203047 15.0450859,18.8436052 14.7037597,18.8436052 L8.6035365,18.8436052 C8.2622103,18.8436052 7.9855107,19.1203047 7.9855107,19.4616309 C7.9855107,19.8029571 8.2622103,20.0796566 8.6035365,20.0796566 Z"></path><path d="M20.472,26.1062318 C20.472,25.7649056 20.1953005,25.488206 19.8539743,25.488206 L13.0780429,25.488206 C12.7367167,25.488206 12.4600172,25.7649056 12.4600172,26.1062318 C12.4600172,26.447558 12.7367167,26.7242575 13.0780429,26.7242575 L19.8539743,26.7242575 C20.1953005,26.7242575 20.472,26.447558 20.472,26.1062318 L20.472,26.1062318 Z"></path><path d="M8.6035365,26.7242575 L10.6029528,26.7242575 C10.944279,26.7242575 11.2209785,26.447558 11.2209785,26.1062318 C11.2209785,25.7649056 10.944279,25.488206 10.6029528,25.488206 L8.6035365,25.488206 C8.2622103,25.488206 7.9855107,25.7649056 7.9855107,26.1062318 C7.9855107,26.447558 8.2622103,26.7242575 8.6035365,26.7242575 L8.6035365,26.7242575 Z"></path><path d="M20.7003605,33.3687554 L22.944103,33.3687554 C23.2854292,33.3687554 23.5621288,33.0920558 23.5621288,32.7507296 C23.5621288,32.4094034 23.2854292,32.1327038 22.944103,32.1327038 L20.7003605,32.1327038 C20.3590343,32.1327038 20.0823347,32.4094034 20.0823347,32.7507296 C20.0823347,33.0920558 20.3590343,33.3687554 20.7003605,33.3687554 Z"></path><path d="M8.6035365,33.3687554 L18.07303,33.3687554 C18.4143562,33.3687554 18.6910558,33.0920558 18.6910558,32.7507296 C18.6910558,32.4094034 18.4143562,32.1327038 18.07303,32.1327038 L8.6035365,32.1327038 C8.2622103,32.1327038 7.9855107,32.4094034 7.9855107,32.7507296 C7.9855107,33.0920558 8.2622103,33.3687554 8.6035365,33.3687554 L8.6035365,33.3687554 Z"></path></g><path d="M46.0170644,28.3589356 L46.0170644,20.4367726 L46.9005322,20.0689442 C47.735897,19.7210987 47.8605322,19.1956738 47.8605322,18.913442 C47.8605322,18.6312103 47.735897,18.1056824 46.9005322,17.7579399 L34.1067811,12.430867 C33.1855107,12.047382 31.7427296,12.047382 30.8216653,12.430867 L18.0279142,17.7579399 C17.1925493,18.1056824 17.0678111,18.6311073 17.0678111,18.913442 C17.0678111,19.1957768 17.1925493,19.7210987 18.0279142,20.0689442 L22.3260773,21.8585408 L22.3260773,28.5018026 C22.3260773,28.8431288 22.6027768,29.1198283 22.944103,29.1198283 L23.6420601,29.1198283 C26.06503,29.1198283 28.5332189,31.3722232 30.1664549,32.8626953 C31.2985751,33.8958283 31.8216309,34.3526524 32.3538541,34.3526524 C32.879176,34.3526524 33.3697854,33.9223004 34.5261116,32.8618712 C36.1513133,31.3717082 38.6071417,29.1198283 40.9554335,29.1198283 L41.6908841,29.1198283 C42.0322103,29.1198283 42.3089099,28.8431288 42.3089099,28.5018026 L42.3089099,21.9811159 L44.7810129,20.951897 L44.7810129,28.297133 C43.4590973,28.545077 42.5317532,29.7428363 42.6227726,31.0847203 C42.7137919,32.4266042 43.7943846,33.4881662 45.1376738,33.5553307 C46.480963,33.6224951 47.6620577,32.6740175 47.8864768,31.3479055 C48.110896,30.0217935 47.3076543,28.7375049 46.0170644,28.3589356 L46.0170644,28.3589356 Z M18.4695965,18.913442 C18.479897,18.9087038 18.4913305,18.9038627 18.5030729,18.8990215 L31.296824,13.5719485 C31.9184549,13.3130987 33.0095794,13.3129957 33.6316223,13.5719485 L46.4253734,18.8990215 C46.4371159,18.9038627 46.4482403,18.9087038 46.4588498,18.913442 C46.4485493,18.9181802 46.4371159,18.9229184 46.4253734,18.9278627 L33.6317253,24.2547296 C33.0098884,24.5135794 31.9186609,24.5135794 31.296824,24.2547296 L18.5030729,18.9278627 C18.4913305,18.9229184 18.480103,18.9181802 18.4695965,18.913442 L18.4695965,18.913442 Z M41.0728583,27.8837768 L40.9554335,27.8837768 C38.1262146,27.8837768 35.4570644,30.3312618 33.6907468,31.9509013 C33.2078627,32.3938198 32.6181631,32.9343863 32.3507639,33.0901288 C32.0812017,32.9366524 31.4866609,32.3940257 30.9996566,31.9496653 C29.2254077,30.3305408 26.544206,27.8837768 23.6420601,27.8837768 L23.5621288,27.8837768 L23.5621288,22.3730472 L30.8217682,25.3956052 C31.8832027,25.7790587 33.0453467,25.7790587 34.1067811,25.3956052 L41.0728583,22.4952103 L41.0728583,27.8837768 Z M45.2695622,32.3368583 C44.5035973,32.3331567 43.8776975,31.7243807 43.8527551,30.958813 C43.8278126,30.1932453 44.4127587,29.5450195 45.1768583,29.4914678 C45.2949677,29.5379196 45.4246997,29.5460279 45.5476738,29.5146438 C46.2629456,29.6612208 46.7518753,30.324495 46.6802744,31.0511118 C46.6086734,31.7777285 45.9996865,32.3328139 45.2695622,32.3369614 L45.2695622,32.3368583 Z"></path></g></svg>