<svg xmlns="http://www.w3.org/2000/svg" xmlns:xlink="http://www.w3.org/1999/xlink" width="48px" height="62px" viewBox="0 0 48 62"><g fill="#000000" fill-rule="nonzero"><path d="M27.8455708,0.0152629607 C27.6509954,0.00814118986 27.4559159,0.00356295703 27.2603323,0.00152818398 C15.0968461,-0.13887113 4.981443,9.41184491 4.31151861,21.6683003 C4.28833093,22.053381 4.27875335,25.3537829 4.27673702,26.1717617 L0.115040298,37.1722534 C-0.0901207684,37.7150292 -0.0180371871,38.3249524 0.308607588,38.8036328 C0.635252389,39.2823132 1.17411546,39.5681988 1.75028063,39.5681988 L7.4474096,39.5681988 L7.4474096,46.0581075 C7.4474096,47.5999566 8.06642164,49.0766932 9.16279881,50.1510534 C10.259176,51.2254136 11.7396634,51.8058326 13.2675343,51.7605589 C13.524112,51.7524198 15.794999,51.7386851 19.6618081,51.7224068 L19.6718895,51.7224068 C20.7279403,51.7213896 21.6579707,52.4249122 21.9523543,53.4489119 L21.9523543,60.7186472 C21.9523543,61.1500191 22.2991624,61.5 22.7266234,61.5 L42.3127094,61.5 C42.5264399,61.5 42.7300889,61.4109788 42.8762725,61.2543013 C43.0229603,61.0976237 43.0985725,60.8870247 43.0859704,60.6723561 C43.0779051,60.5421307 42.3243033,47.4860094 43.0839541,39.2502655 C43.2906275,37.0130325 45.4042411,31.6544578 45.594784,31.1762861 C48.9711218,24.6568732 48.7820912,16.8423273 45.0952392,10.4968876 C41.4628281,4.19366935 35.0146178,0.275713911 27.8455708,0.0152629607 Z M44.2040231,30.486498 C44.1924293,30.5088805 44.1818435,30.5317717 44.1727701,30.5546629 C44.0749782,30.7983269 41.777879,36.5460522 41.5419688,39.1052879 C40.8831343,46.2468326 41.3433606,56.9090434 41.4955933,59.9367857 L23.5003885,59.9367857 L23.5003885,53.3451384 C23.5003885,53.281043 23.4928273,53.2169477 23.4772008,53.1543784 C23.0411703,51.392265 21.4709565,50.1571577 19.6713855,50.1591925 L19.6542468,50.1591925 C16.909523,50.1708925 13.5649425,50.1871706 13.2186385,50.1983618 C12.1096592,50.2309182 11.0354615,49.8087029 10.240021,49.0283674 C9.44458035,48.2485406 8.99544387,47.1767239 8.9959479,46.05709 L8.9959479,38.7863373 C8.9959479,38.3549654 8.64913989,38.0049844 8.22167879,38.0049844 L1.74977658,38.0049844 C1.68374188,38.0049844 1.62173982,37.972428 1.5839338,37.9169804 C1.54663171,37.8620416 1.53806236,37.7918419 1.56175422,37.7292726 L5.77385909,26.5949945 C5.8071284,26.5069906 5.82477129,26.4128824 5.82477129,26.3182653 C5.82880394,24.7046903 5.8409019,22.0411724 5.85753655,21.7583389 C6.47453228,10.428214 15.7592091,1.56067303 27.0037548,1.5627071 C27.0828956,1.5627071 27.1635486,1.5627071 27.2431936,1.56423391 C27.4261751,1.56626869 27.6081484,1.57033823 27.7901219,1.57695121 C31.1387352,1.67767241 34.4001424,2.67471121 37.2416497,4.46582028 C45.9143717,9.99226386 48.941381,21.305602 44.2040231,30.486498 Z"></path><path d="M27.0002541,3.75 C18.716069,3.74949176 12,10.465561 12,18.7497459 C12,27.033931 18.7155609,33.75 27.0002541,33.75 C35.2844391,33.75 42,27.0344391 42,18.7497459 C41.9908536,10.4696261 35.2808822,3.75914643 27.0002541,3.75 Z M35.1645185,29.4165933 L35.1645185,27.8779495 L36.9612969,26.1741603 C37.1162792,26.0268002 37.2041871,25.8220202 37.2041871,25.6080939 L37.2041871,24.1055278 C38.2839818,23.72544 38.9323668,22.6222709 38.7392741,21.4942031 C38.5461813,20.3661352 37.5685225,19.5409179 36.4236861,19.5409179 C35.2793578,19.5409179 34.301699,20.3661352 34.1086062,21.4942031 C33.9155135,22.6222709 34.5638985,23.72544 35.6431851,24.1055278 L35.6431851,25.2722142 L33.8469147,26.9760033 C33.6914244,27.1233634 33.6035165,27.3281433 33.6035165,27.5425778 L33.6035165,30.4506556 C32.686326,30.9709896 31.7112078,31.3805494 30.6974712,31.6712047 L30.6974712,25.5989473 L33.3641831,21.9418732 C33.4617457,21.8087409 33.514084,21.6476609 33.514084,21.4820078 L33.514084,17.3671005 C34.5938787,16.9870128 35.2417556,15.8838437 35.049171,14.7557759 C34.8560783,13.6277079 33.8784195,12.8029989 32.733583,12.8029989 C31.5892545,12.8029989 30.6110876,13.6277079 30.418503,14.7557759 C30.2254104,15.8838437 30.8737952,16.9870128 31.953082,17.3671005 L31.953082,21.2279384 L29.2863701,24.8845044 C29.1893156,25.0181447 29.1364692,25.1792248 29.1364692,25.3443699 L29.1364692,32.0182633 C28.501804,32.1198911 27.8605329,32.1757864 27.2172294,32.1859492 L27.2172294,23.6837726 L28.6959129,22.205089 C28.8422568,22.0587451 28.9245754,21.860571 28.9245754,21.6532505 L28.9245754,11.3766536 C30.0038618,10.9965659 30.6522469,9.89339668 30.4591541,8.76532881 C30.2660615,7.63726093 29.2884025,6.81255191 28.1440743,6.81255191 C26.9992378,6.81255191 26.0215789,7.63726093 25.8284862,8.76532881 C25.6353935,9.89339668 26.2837785,10.9965659 27.3635733,11.3766536 L27.3635733,21.3300742 L25.8848896,22.8082496 C25.7385457,22.9551018 25.6562273,23.1532758 25.6562273,23.3605964 L25.6562273,32.1224319 C25.4026661,32.0970249 25.1511374,32.0650123 24.9021494,32.0253774 L24.9021494,20.0978379 C24.9021494,19.8910255 24.819831,19.6923432 24.6729789,19.5459993 L22.5235522,17.3970808 L22.5235522,16.1739909 C23.603347,15.7939032 24.2512237,14.6907341 24.0586392,13.5626661 C23.8655464,12.4345984 22.8878877,11.6098892 21.7430512,11.6098892 C20.5987228,11.6098892 19.621064,12.4345984 19.4279713,13.5626661 C19.2348785,14.6907341 19.8832635,15.7939032 20.9625501,16.1739909 L20.9625501,17.7197488 C20.9625501,17.9265614 21.0448687,18.1252435 21.1912126,18.2715874 L23.3411473,20.4210141 L23.3411473,31.6823837 C22.5286336,31.4521969 21.7405105,31.1452812 20.9864327,30.7657015 L20.9864327,24.8291173 C20.9864327,24.5110224 20.7933399,24.2244322 20.4981114,24.1055278 L18.3568149,23.2411838 L18.3568149,21.5500982 C19.4361015,21.1695024 20.0844865,20.0668414 19.8913938,18.9387736 C19.698301,17.8107056 18.7206422,16.9859966 17.5763139,16.9859966 C16.4319856,16.9859966 15.4538186,17.8107056 15.261234,18.9387736 C15.0681413,20.0668414 15.7165263,21.1695024 16.7958129,21.5500982 L16.7958129,23.7681237 C16.7958129,24.0867266 16.9889055,24.3728087 17.2841341,24.4922213 L19.4254306,25.3560571 L19.4254306,29.8454625 C14.6098003,26.560854 12.4603736,20.5470326 14.1026778,14.954458 C15.7454903,9.3618837 20.8060434,5.46547622 26.6323617,5.30642871 C32.459188,5.14788944 37.724013,8.76329626 39.6686599,14.2583081 C41.6133065,19.7533198 39.79417,25.8753748 35.1645185,29.4165933 L35.1645185,29.4165933 Z M36.4236861,22.6807068 C35.9887194,22.6807068 35.6360712,22.3280586 35.6360712,21.8925838 C35.6360712,21.4576171 35.9887194,21.1049688 36.4241942,21.1049688 C36.8591609,21.1049688 37.2118092,21.4576171 37.2118092,21.8925838 C37.211301,22.3275505 36.8586528,22.6801987 36.4236861,22.6807068 L36.4236861,22.6807068 Z M32.7340911,15.9422797 C32.2986162,15.9422797 31.9459679,15.5896314 31.9459679,15.1546647 C31.9459679,14.7191899 32.2986162,14.3665416 32.733583,14.3665416 C33.1690578,14.3665416 33.521706,14.7191899 33.521706,15.1541566 C33.5211979,15.5891234 33.1685497,15.9417716 32.7340911,15.9422797 Z M28.1440743,9.95183271 C27.7085994,9.95183271 27.3559512,9.59918434 27.3559512,9.16421762 C27.3559512,8.72874282 27.7085994,8.37609466 28.1435661,8.37609466 C28.579041,8.37609466 28.9316893,8.72874282 28.9316893,9.16421762 C28.9311811,9.59918434 28.5785328,9.95132455 28.1440743,9.95183271 Z M21.7435592,14.7491711 C21.3085925,14.7496781 20.9559433,14.3965218 20.9559433,13.9615551 C20.9554363,13.5265884 21.3085925,13.173432 21.7435592,13.173432 C22.178526,13.173432 22.5316824,13.5260802 22.5316824,13.9615551 C22.5311743,14.3965218 22.178526,14.7491711 21.7430512,14.7491711 L21.7435592,14.7491711 Z M17.576822,20.1247692 C17.1418553,20.1247692 16.7892071,19.7716128 16.7892071,19.3366461 C16.7892071,18.9016794 17.1418553,18.5485231 17.5773302,18.5485231 C18.012297,18.5490312 18.3649451,18.9016794 18.3649451,19.3366461 C18.364437,19.7721211 18.0117887,20.1242611 17.5763139,20.1247692 L17.576822,20.1247692 Z"></path></g></svg>