<svg xmlns="http://www.w3.org/2000/svg" xmlns:xlink="http://www.w3.org/1999/xlink" width="48px" height="45px" viewBox="0 0 48 45"><g fill="#000000" fill-rule="nonzero"><g transform="translate(0.262342, 0.000000)"><path d="M17.5365766,21.7542342 C23.5437327,21.7542342 28.4136937,16.8843633 28.4136937,10.8769161 C28.4136937,4.86987101 23.5437327,0 17.5365766,0 C11.5294204,0 6.65945946,4.86987101 6.65945946,10.8769161 C6.6650872,16.8819514 11.5314303,21.7482047 17.5365766,21.7542342 Z M17.5365766,2.05808827 C22.4073415,2.05808827 26.3555674,6.00664319 26.3555674,10.8769161 C26.3555674,15.747591 22.4073415,19.696146 17.5365766,19.696146 C12.6658117,19.696146 8.71758578,15.747591 8.71758578,10.8769161 C8.72321348,6.00865303 12.6682236,2.06371591 17.5365766,2.05808827 Z"></path><path d="M17.5997767,24.418018 C12.8329279,24.4284307 8.40961737,26.2534496 5.13116375,29.5750882 C1.81124161,32.9275642 -0.0101215421,37.5107366 -4.19588986e-05,42.4831823 C0.00207507562,42.7547124 0.110218543,43.0154294 0.302112159,43.210867 C0.497664738,43.4039018 0.763957809,43.5108318 1.04082125,43.5085068 L27.684762,43.4571665 L27.684762,41.4066734 L2.11290483,41.4579358 C2.33163108,37.4286368 3.91353368,33.7477615 6.62972285,31.0104333 C9.51300575,28.0884807 13.4159267,26.4789238 17.6099406,26.4789238 L17.6412453,26.4789238 C21.6120609,26.4584989 25.4348906,27.9627278 28.2990655,30.6720219 L29.7455856,29.1958271 C26.4923384,26.1184855 22.1515584,24.4088068 17.6412453,24.4284307 C17.6310814,24.418018 17.620511,24.418018 17.5997767,24.418018 Z"></path><path d="M45.2791963,30.1364254 L38.2667375,29.0772543 L35.1722036,22.7740418 C34.9992223,22.4237964 34.6398282,22.2008765 34.2450237,22.1981982 C33.8477772,22.19204 33.4826849,22.4121483 33.3072614,22.7640004 L30.1187071,29.015399 L23.0960728,29.9717457 C22.7028965,30.0243629 22.3744356,30.2938751 22.250296,30.66581 C22.1261566,31.0377449 22.2279102,31.447034 22.5124137,31.7197595 L27.5557347,36.6452865 L26.305385,43.5345174 C26.2333434,43.9193053 26.3912651,44.3109215 26.7115858,44.5418746 C27.0286504,44.7776476 27.4560159,44.8097802 27.8056418,44.6242144 L34.1094878,41.4161753 L40.3612359,44.7169972 C40.5118314,44.7973288 40.6799285,44.8395028 40.8508748,44.8403604 C41.0686277,44.8419128 41.2806825,44.7732293 41.4552918,44.6446989 C41.7796826,44.4161558 41.9453377,44.0257446 41.8826575,43.6373417 L40.7365036,36.7272247 L45.8522732,31.8844392 C46.1384047,31.6145252 46.2434145,31.2076462 46.1233451,30.8357112 C45.9939144,30.4669895 45.6695236,30.1982806 45.2791963,30.1364254 Z M39.4257162,35.8447188 C39.1483897,36.1018545 39.0219615,36.4793138 39.0894805,36.8487514 L40.0873119,42.8266007 L34.6581485,39.9744884 C34.4904839,39.8853598 34.3033339,39.8381216 34.1130119,39.837676 C33.9276744,39.8399042 33.745509,39.8826859 33.5792038,39.9629016 L28.1038194,42.7352439 L29.1940929,36.7801225 C29.2602524,36.4097936 29.1392621,36.0309973 28.869186,35.7649487 L24.495857,31.5095081 L30.5979446,30.6881888 C30.9772294,30.6382769 31.3071209,30.4078797 31.4793171,30.0718652 L34.2403463,24.6644385 L36.9202621,30.1177663 C37.0838486,30.4577917 37.4110212,30.6935365 37.7903058,30.7452311 L43.8688299,31.657907 L39.4257162,35.8447188 Z"></path></g></g></svg>