<svg xmlns="http://www.w3.org/2000/svg" viewBox="0 0 512 512" width="512" height="512"><title>basket ball</title><g fill="#000000"><path d="M320.867,34.986A236.882,236.882,0,0,0,28.11,198.451,237.7,237.7,0,0,0,256.343,501.739,237.362,237.362,0,0,0,483.89,329.085a237.985,237.985,0,0,0-163.023-294.1ZM440.185,137.551C426.666,151.584,375.1,201.785,279.229,258c-1.06-1.795-2.107-3.6-3.119-5.427A224.328,224.328,0,0,1,273.2,40.509a224.434,224.434,0,0,1,43.821,7.938A221.334,221.334,0,0,1,440.185,137.551ZM147.692,68.08A221.133,221.133,0,0,1,255.678,39.8c.73,0,1.46.012,2.19.019a238.391,238.391,0,0,0,5.994,219.535c1.053,1.9,2.144,3.779,3.246,5.649-2.768,1.576-5.559,3.154-8.4,4.737-18.126,10.11-35.5,19.117-51.89,27.116-.309-.558-.62-1.108-.93-1.669-61.739-111.521-81.512-190.8-85.539-209.157A226.041,226.041,0,0,1,147.692,68.08ZM108.263,95.991c2.437,10.077,6.874,26.506,14.345,48.462,11.771,34.585,33.65,89.987,71.035,157.518.177.321.355.636.533.957-14.4,6.8-27.938,12.781-40.388,18l-.053-.1c-28.716-51.87-68.229-94.294-111.7-120.081A222.379,222.379,0,0,1,108.263,95.991ZM38.384,214.9C78,239.386,114.06,278.57,140.741,326.292c-12.588,5.063-23.841,9.272-33.514,12.706-26.6,9.443-45.7,14.649-54.486,16.863A222.659,222.659,0,0,1,38.384,214.9Zm22.7,157.613c-.7-1.271-1.383-2.55-2.059-3.83,14.387-3.775,45.765-12.86,88.331-30.016,22.983,45.138,35.244,92.829,35.038,136.408A221.562,221.562,0,0,1,61.079,372.516ZM196.323,479.455c1.055-46.629-11.59-97.836-35.989-146.128,12.759-5.359,26.378-11.395,40.727-18.175,51.865,90.754,99.435,144.082,118.113,163.386A220.654,220.654,0,0,1,196.323,479.455Zm167.986-20a225.586,225.586,0,0,1-30.354,14.1c-12.787-12.748-64.352-66.971-120.241-164.485,16.479-8.056,33.809-17.054,51.817-27.1,3.065-1.71,6.075-3.414,9.059-5.115A236.419,236.419,0,0,0,446.44,380.426,222.112,222.112,0,0,1,364.309,459.455Zm106.116-134.2a226.528,226.528,0,0,1-16.5,41.779,222.4,222.4,0,0,1-167.2-97.2c56.191-33,96.789-63.626,121.853-84.43,19.359-16.068,32.272-28.512,39.312-35.674q1.544,2.622,3.028,5.293A223.167,223.167,0,0,1,470.425,325.254Z"></path></g></svg>