<svg xmlns="http://www.w3.org/2000/svg" viewBox="0 0 512 512" width="512" height="512"><title>bell time</title><g fill="#000000"><path d="M314,264a7,7,0,0,0-7-7H248.293a20.8,20.8,0,0,0-19.448-13.855,20.5,20.5,0,0,0-6.629,1.053l-56.1-79.035a6.993,6.993,0,1,0-11.414,8.083L211.263,252.9a20.617,20.617,0,0,0-3.106,10.872,20.837,20.837,0,0,0,20.688,20.855A20.6,20.6,0,0,0,248.293,271H307A7,7,0,0,0,314,264Zm-85.155,6.507a6.74,6.74,0,1,1,6.687-6.739A6.722,6.722,0,0,1,228.845,270.507Z"></path><path d="M486.523,373.832a29.635,29.635,0,0,1-9.288-10.392c-6.668-13.06-14.617-35.248-14.617-66.778,0-19.295-8.146-38.852-22.267-53.659-1.072-1.124-2.351-2.2-3.351-3.25V238.1a7.029,7.029,0,0,0-.007-.871A210.431,210.431,0,0,0,318.4,73.258a209.583,209.583,0,0,0-179.114,0A210.6,210.6,0,0,0,19,263.768C19,379.9,113.135,474.376,228.844,474.376a208.7,208.7,0,0,0,135.921-50.159,28.333,28.333,0,0,0,51.2-17.021,31.025,31.025,0,0,0-.173-3.2H476.06A16.822,16.822,0,0,0,493,387.241c0-3.556-1.19-8.48-4.52-11.811A15.325,15.325,0,0,0,486.523,373.832ZM228.845,460.376C120.855,460.376,33,372.178,33,263.768A196.6,196.6,0,0,1,145.286,85.9a195.609,195.609,0,0,1,167.121,0A196.538,196.538,0,0,1,421.525,228.4a74.054,74.054,0,0,0-13.164-5.733,25.7,25.7,0,0,0-20.169-40.74,180.42,180.42,0,0,0-82.956-80.64,178.8,178.8,0,0,0-152.779,0A179.622,179.622,0,0,0,49.868,263.768c0,99.044,80.288,179.49,178.977,179.49,40.44,0,79.959-13.258,111.5-39.258h19.046a30.74,30.74,0,0,0-.172,3.175,30.122,30.122,0,0,0,.159,3.079A194.846,194.846,0,0,1,228.845,460.376ZM387.594,219.319l-.062,0a11.638,11.638,0,1,1,.123,0ZM299.127,404H316.2c-26.051,17-56.409,25.258-87.351,25.258-90.969,0-164.977-74.232-164.977-165.557A164.937,164.937,0,0,1,299.235,113.929a166.4,166.4,0,0,1,75.1,71.692,25.715,25.715,0,0,0-7.507,37.042A77.389,77.389,0,0,0,334.789,243c-14.121,14.8-22.221,34.36-22.221,53.655,0,35.693-10.235,58.866-16.337,69.5a25.226,25.226,0,0,1-7.243,7.7,15.35,15.35,0,0,0-1.85,1.57,16.53,16.53,0,0,0-4.95,11.817A16.821,16.821,0,0,0,299.127,404Zm102.838,3.2a14.373,14.373,0,1,1-28.743-.055,15.854,15.854,0,0,1,.316-3.141h28.109A16.264,16.264,0,0,1,401.965,407.2Zm74.1-17.2H299.127a2.777,2.777,0,0,1-2.939-2.759,2.689,2.689,0,0,1,.862-2,.526.526,0,0,0,.154-.089A39.029,39.029,0,0,0,308.376,373.1c6.794-11.843,18.192-37.519,18.192-76.458,0-33.116,29.034-63.272,60.937-63.328.029,0,.059,0,.089,0h.089c31.9.056,60.935,30.22,60.935,63.341,0,34.313,8.781,58.716,16.149,73.143a43.419,43.419,0,0,0,13.557,15.374,1.941,1.941,0,0,1,.17.135,4.29,4.29,0,0,1,.506,1.927A2.777,2.777,0,0,1,476.06,390Z"></path><path d="M228,139.275a7,7,0,0,0,7-7V111.2a7,7,0,0,0-14,0v21.079A7,7,0,0,0,228,139.275Z"></path><path d="M228,389.264a7,7,0,0,0-7,7v21.079a7,7,0,1,0,14,0V396.264A7,7,0,0,0,228,389.264Z"></path><path d="M96,258H76a7,7,0,0,0,0,14H96a7,7,0,0,0,0-14Z"></path></g></svg>