<svg xmlns="http://www.w3.org/2000/svg" xmlns:xlink="http://www.w3.org/1999/xlink" width="50px" height="63px" viewBox="0 0 50 63"><path d="M4.44444444,7.69283238 C4.44816476,4.49776794 7.03745048,1.90848222 10.2325149,1.9047619 L7.69283238,1.9047619 C4.49776794,1.90848222 1.90848222,4.49776794 1.9047619,7.69283238 L1.9047619,49.4041419 C2.02070937,49.2714533 2.14099698,49.1424851 2.26624508,49.0166171 C2.8980654,48.3841765 3.6352927,47.8658235 4.44444444,47.485739 L4.44444444,7.69283238 Z" fill="#D3E6FA"></path><polygon fill="#D3E6FA" points="12.2426835 1.9047619 14.782366 1.9047619 14.782366 46.7503721 12.2426835 46.7503721"></polygon><path d="M-1.35341473e-14,7.69283238 L-1.35341473e-14,54.5293898 C0.00496031746,58.7760416 3.44618063,62.2172619 7.69283238,62.2222222 L48.8901289,62.2222222 C49.4159225,62.2222222 49.8425098,61.7956349 49.8425098,61.2698413 L49.8425098,47.9110863 C49.8573908,47.8422619 49.8648314,47.7728175 49.8648314,47.702753 L49.8648314,0.952380952 C49.8648314,0.426587302 49.4388641,-9.0227649e-15 48.9124505,-9.0227649e-15 L7.69283238,-9.0227649e-15 C3.44618063,0.00496031746 0.00496031746,3.44618063 -1.35341473e-14,7.69283238 L-1.35341473e-14,7.69283238 Z M1.9047619,7.69283238 C1.90848222,4.49776794 4.49776794,1.90848222 7.69283238,1.9047619 L10.3379216,1.9047619 L10.3379216,46.7503721 L7.77901778,46.7503721 C5.71242556,46.7392113 3.72767857,47.5558035 2.26624508,49.0166171 C2.14099698,49.1424851 2.02070937,49.2714533 1.9047619,49.4041419 L1.9047619,7.69283238 Z M7.69283238,60.3174603 C5.60205857,60.31312 3.67435524,59.1896081 2.63888889,57.3728919 C1.6040427,55.5567956 1.62078381,53.3252729 2.68229175,51.5240575 C3.74441968,49.7234622 5.68886413,48.6284722 7.77901778,48.655134 L47.9377479,48.655134 L47.9377479,51.2624008 L6.46081349,51.2624008 C5.93501984,51.2624008 5.50843254,51.6889881 5.50843254,52.2147817 C5.50843254,52.7405754 5.93501984,53.1671627 6.46081349,53.1671627 L47.9371279,53.1671627 L47.9371279,55.2932787 L6.46081349,55.2932787 C5.93501984,55.2932787 5.50843254,55.719246 5.50843254,56.2456597 C5.50843254,56.7714533 5.93501984,57.1980406 6.46081349,57.1980406 L47.9371279,57.1980406 L47.9371279,60.3174603 L7.69283238,60.3174603 Z M47.9600695,46.7503721 L12.2426835,46.7503721 L12.2426835,1.9047619 L47.9600695,1.9047619 L47.9600695,46.7503721 Z" fill="#0071DC" class="primary-fill-color"></path><path d="M30.4489403,33.5017276 C29.9606111,33.5017276 29.5644195,33.8973434 29.5644195,34.3862485 C29.5644195,34.8745777 29.9606111,35.2707694 30.4489403,35.2707694 L33.4485949,35.2707694 C33.9369242,35.2707694 34.3331158,34.8745777 34.3331158,34.3862485 C34.3331158,33.8973434 33.9369242,33.5017276 33.4485949,33.5017276 L30.4489403,33.5017276 Z" fill="#FFC221" class="secondary-fill-color"></path><path d="M44.6744087,26.8845209 C44.6744087,26.3961916 44.2782171,26 43.7898879,26 L18.8845209,26 C18.3961916,26 18,26.3961916 18,26.8845209 C18,27.3734261 18.3961916,27.7690418 18.8845209,27.7690418 L43.7898879,27.7690418 C44.2782171,27.7690418 44.6744087,27.3734261 44.6744087,26.8845209 Z" fill="#FFC221" class="secondary-fill-color"></path><path d="M44.6744087,18.8845209 C44.6744087,18.3961916 44.2782171,18 43.7898879,18 L18.8845209,18 C18.3961916,18 18,18.3961916 18,18.8845209 C18,19.3734261 18.3961916,19.7690418 18.8845209,19.7690418 L43.7898879,19.7690418 C44.2782171,19.7690418 44.6744087,19.3734261 44.6744087,18.8845209 Z" fill="#FFC221" class="secondary-fill-color"></path><path d="M18.8845209,33.5017276 C18.3961916,33.5017276 18,33.8973434 18,34.3862485 C18,34.8745777 18.3961916,35.2707694 18.8845209,35.2707694 L26.6476888,35.2707694 C27.1360181,35.2707694 27.5322097,34.8745777 27.5322097,34.3862485 C27.5322097,33.8973434 27.1360181,33.5017276 26.6476888,33.5017276 L18.8845209,33.5017276 Z" fill="#FFC221" class="secondary-fill-color"></path></svg>