<svg xmlns="http://www.w3.org/2000/svg" xmlns:xlink="http://www.w3.org/1999/xlink" width="48px" height="48px" viewBox="0 0 48 48"><path d="M3.51219512,37.6810732 L3.51219512,2.69570732 C3.51224685,2.13587368 3.73472291,1.59899705 4.1306674,1.20321723 C4.52661189,0.807437407 5.06358102,0.585365743 5.62341463,0.585365743 L2.69658537,0.585365743 C2.13675175,0.585365743 1.59978263,0.807437407 1.20383813,1.20321723 C0.807893639,1.59899705 0.585417582,2.13587368 0.585365854,2.69570732 L0.585365854,37.6810732 C0.585473597,38.8470229 1.53063566,39.7922927 2.69658537,39.7922927 L5.62341463,39.7922927 C4.45746493,39.7922927 3.51230287,38.8470229 3.51219512,37.6810732 L3.51219512,37.6810732 Z" fill="#D3E6FA"></path><g><path d="M9.44263415,15.6390244 C9.76592278,15.6390244 10.028,15.3769472 10.028,15.0536585 C10.028,14.7303699 9.76592278,14.4682927 9.44263415,14.4682927 L6.64146341,14.4682927 C6.17067047,14.4687227 5.7890794,14.8501828 5.7884878,15.3209756 L5.7884878,20.9160976 C5.78913304,21.3868681 6.17069272,21.7682968 6.64146341,21.7687805 L12.2439024,21.7687805 C12.7146731,21.7682968 13.0962328,21.3868681 13.096878,20.9160976 L13.096878,19.0220488 C13.096878,18.6987601 12.8348008,18.4366829 12.5115122,18.4366829 C12.1882236,18.4366829 11.9261463,18.6987601 11.9261463,19.0220488 L11.9261463,20.5980488 L6.95921951,20.5980488 L6.95921951,15.6390244 L9.44263415,15.6390244 Z" fill="#FFC221" class="secondary-fill-color"></path><path d="M13.5804878,14.1398049 C13.461154,14.0404958 13.307257,13.9926602 13.1526534,14.0068215 C12.9980497,14.0209829 12.855404,14.0959811 12.7560976,14.2153171 L9.96370732,17.5707317 L9.06770732,16.8457561 C8.90537755,16.7112799 8.68328092,16.6744686 8.48624596,16.749382 C8.28921099,16.8242954 8.14767133,16.9993626 8.11568722,17.2077176 C8.08370311,17.4160726 8.16621475,17.6255334 8.33170732,17.7560976 L9.40878049,18.6275122 C9.7753209,18.9290136 10.3102816,18.9053591 10.6487805,18.5726829 L10.6722927,18.5501463 L13.6560976,14.9643902 C13.7554563,14.845033 13.8033125,14.6910845 13.7891318,14.5364326 C13.7749511,14.3817807 13.699896,14.2391024 13.5804878,14.1398049 L13.5804878,14.1398049 Z" fill="#FFC221" class="secondary-fill-color"></path><path d="M5.7884878,33.3227317 C5.7890793,33.7935403 6.17065469,34.1750284 6.64146341,34.1755122 L12.2439024,34.1755122 C12.7147112,34.1750284 13.0962866,33.7935403 13.096878,33.3227317 L13.096878,31.4286829 C13.096878,31.1053943 12.8348008,30.8433171 12.5115122,30.8433171 C12.1882236,30.8433171 11.9261463,31.1053943 11.9261463,31.4286829 L11.9261463,33.004878 L6.95921951,33.004878 L6.95921951,28.0456585 L9.44263415,28.0456585 C9.76592278,28.0456585 10.028,27.7835813 10.028,27.4602927 C10.028,27.137004 9.76592278,26.8749268 9.44263415,26.8749268 L6.64146341,26.8749268 C6.17069272,26.8754105 5.78913304,27.2568393 5.7884878,27.7276098 L5.7884878,33.3227317 Z" fill="#FFC221" class="secondary-fill-color"></path><path d="M13.5804878,26.5463415 C13.4611417,26.4470437 13.3072371,26.3992246 13.1526329,26.4134043 C12.9980287,26.427584 12.8553901,26.5026009 12.7560976,26.6219512 L9.964,29.9772683 L9.068,29.2523902 C8.90568983,29.1181869 8.68379815,29.0815205 8.48694254,29.1563737 C8.29008693,29.2312268 8.14861644,29.4060594 8.11648035,29.6141998 C8.08434425,29.8223401 8.16649693,30.0316993 8.33160976,30.162439 L9.40868293,31.0338537 C9.7752141,31.3353357 10.3101393,31.3117249 10.6486829,30.979122 L10.6721951,30.9564878 L13.656,27.3707317 C13.755309,27.2513979 13.8031447,27.0975009 13.7889834,26.9428973 C13.774822,26.7882936 13.6998238,26.6456479 13.5804878,26.5463415 L13.5804878,26.5463415 Z" fill="#FFC221" class="secondary-fill-color"></path><path d="M44.913561,0 L2.69619512,0 C1.20792625,0.00155902967 0.00177445542,1.20753625 -3.29275902e-15,2.69580488 L-3.29275902e-15,37.6811707 C0.00134030845,39.1680047 1.20526676,40.3735454 2.69209756,40.376878 L25.4693659,40.5379512 L25.4776585,39.3672195 L2.69619512,39.2060488 C1.85438165,39.205243 1.1720222,38.5232763 1.17073171,37.6814634 L1.17073171,9.79326829 L46.4390244,9.79326829 L46.4390244,37.6814634 C46.4379489,38.5234287 45.7555266,39.2056328 44.913561,39.206439 C44.9029268,39.206439 44.8922927,39.206439 44.8816585,39.2074146 L41.928878,39.3684878 L41.9925854,40.5373659 L44.930439,40.3771707 C46.4120524,40.3663002 47.6079215,39.1631155 47.6097561,37.6814634 L47.6097561,2.69580488 C47.6079816,1.20753625 46.4018298,0.00155902967 44.913561,0 Z M1.17073171,8.62253659 L1.17073171,2.69580488 C1.1717535,1.85380149 1.8541915,1.17153807 2.69619512,1.17073171 L44.913561,1.17073171 C45.7555646,1.17153807 46.4380026,1.85380149 46.4390244,2.69580488 L46.4390244,8.62253659 L1.17073171,8.62253659 Z" fill="#0071DC" class="primary-fill-color"></path><path d="M4.89756098,2.57941463 C3.65828788,2.57941463 2.65365854,3.58404398 2.65365854,4.82331707 C2.65365854,6.06259017 3.65828788,7.06721951 4.89756098,7.06721951 C6.13683407,7.06721951 7.14146341,6.06259017 7.14146341,4.82331707 C7.14017284,3.58457894 6.1362991,2.58070521 4.89756098,2.57941463 Z M4.89756098,5.89570732 C4.30486515,5.89570732 3.82439024,5.41523241 3.82439024,4.82253659 C3.82439024,4.22984076 4.30486515,3.74936585 4.89756098,3.74936585 C5.4902568,3.74936585 5.97073171,4.22984076 5.97073171,4.82253659 C5.97014014,5.41498721 5.4900116,5.89511575 4.89756098,5.89570732 Z" fill="#0071DC" class="primary-fill-color"></path><path d="M10.8129756,2.57941463 C9.57370251,2.57941463 8.56907317,3.58404398 8.56907317,4.82331707 C8.56907317,6.06259017 9.57370251,7.06721951 10.8129756,7.06721951 C12.0522487,7.06721951 13.056878,6.06259017 13.056878,4.82331707 C13.0555875,3.58457894 12.0517137,2.58070521 10.8129756,2.57941463 L10.8129756,2.57941463 Z M10.8129756,5.89570732 C10.2202798,5.89570732 9.73980488,5.41523241 9.73980488,4.82253659 C9.73980488,4.22984076 10.2202798,3.74936585 10.8129756,3.74936585 C11.4056714,3.74936585 11.8861463,4.22984076 11.8861463,4.82253659 C11.8855548,5.41498721 11.4054262,5.89511575 10.8129756,5.89570732 L10.8129756,5.89570732 Z" fill="#0071DC" class="primary-fill-color"></path><path d="M16.7284878,2.57941463 C15.4892147,2.57941463 14.4845854,3.58404398 14.4845854,4.82331707 C14.4845854,6.06259017 15.4892147,7.06721951 16.7284878,7.06721951 C17.9677609,7.06721951 18.9723902,6.06259017 18.9723902,4.82331707 C18.9710997,3.58457894 17.9672259,2.58070521 16.7284878,2.57941463 Z M16.7284878,5.89570732 C16.135792,5.89570732 15.6553171,5.41523241 15.6553171,4.82253659 C15.6553171,4.22984076 16.135792,3.74936585 16.7284878,3.74936585 C17.3211836,3.74936585 17.8016585,4.22984076 17.8016585,4.82253659 C17.8011207,5.41500947 17.3209607,5.89516944 16.7284878,5.89570732 L16.7284878,5.89570732 Z" fill="#0071DC" class="primary-fill-color"></path><path d="M44.4812683,4.12682927 L25.4634146,4.12682927 C25.140126,4.12682927 24.8780488,4.38890649 24.8780488,4.71219512 C24.8780488,5.03548376 25.140126,5.29756098 25.4634146,5.29756098 L44.4812683,5.29756098 C44.8045569,5.29756098 45.0666341,5.03548376 45.0666341,4.71219512 C45.0666341,4.38890649 44.8045569,4.12682927 44.4812683,4.12682927 L44.4812683,4.12682927 Z" fill="#0071DC" class="primary-fill-color"></path></g><path d="M19.1195122,16.0470244 L41.9609756,16.0470244 C42.2842642,16.0470244 42.5463415,15.7849472 42.5463415,15.4616585 C42.5463415,15.1383699 42.2842642,14.8762927 41.9609756,14.8762927 L19.1195122,14.8762927 C18.7962236,14.8762927 18.5341463,15.1383699 18.5341463,15.4616585 C18.5341463,15.7849472 18.7962236,16.0470244 19.1195122,16.0470244 Z" fill="#0071DC" class="primary-fill-color"></path><path d="M19.1195122,20.896878 L41.9609756,20.896878 C42.2842642,20.896878 42.5463415,20.6348008 42.5463415,20.3115122 C42.5463415,19.9882236 42.2842642,19.7261463 41.9609756,19.7261463 L19.1195122,19.7261463 C18.7962236,19.7261463 18.5341463,19.9882236 18.5341463,20.3115122 C18.5341463,20.6348008 18.7962236,20.896878 19.1195122,20.896878 L19.1195122,20.896878 Z" fill="#0071DC" class="primary-fill-color"></path><path d="M41.9609756,27.2829268 L37.2050732,27.2829268 C36.8817845,27.2829268 36.6197073,27.545004 36.6197073,27.8682927 C36.6197073,28.1915813 36.8817845,28.4536585 37.2050732,28.4536585 L41.9609756,28.4536585 C42.2842642,28.4536585 42.5463415,28.1915813 42.5463415,27.8682927 C42.5463415,27.545004 42.2842642,27.2829268 41.9609756,27.2829268 L41.9609756,27.2829268 Z" fill="#0071DC" class="primary-fill-color"></path><path d="M19.1195122,28.4536585 L26.5379512,28.4536585 C26.8612399,28.4536585 27.1233171,28.1915813 27.1233171,27.8682927 C27.1233171,27.545004 26.8612399,27.2829268 26.5379512,27.2829268 L19.1195122,27.2829268 C18.7962236,27.2829268 18.5341463,27.545004 18.5341463,27.8682927 C18.5341463,28.1915813 18.7962236,28.4536585 19.1195122,28.4536585 L19.1195122,28.4536585 Z" fill="#0071DC" class="primary-fill-color"></path><path d="M19.1195122,33.3036098 L21.1188293,33.3036098 C21.4421179,33.3036098 21.7041951,33.0415325 21.7041951,32.7182439 C21.7041951,32.3949553 21.4421179,32.132878 21.1188293,32.132878 L19.1195122,32.132878 C18.7962236,32.132878 18.5341463,32.3949553 18.5341463,32.7182439 C18.5341463,33.0415325 18.7962236,33.3036098 19.1195122,33.3036098 L19.1195122,33.3036098 Z" fill="#0071DC" class="primary-fill-color"></path><path d="M31.2292683,23.3494634 C29.9747656,23.3511846 28.9584306,24.3681306 28.9574634,25.6226341 L28.9574634,37.2967805 L28.9143415,37.2343415 C27.9768423,35.875474 26.4313741,35.0641506 24.7804878,35.0641951 C24.3822564,35.0642663 24.0111675,35.2660525 23.7946342,35.6002703 C23.5781009,35.9344882 23.5456008,36.3556394 23.7082927,36.719122 L23.8069268,36.9398049 C24.2627113,37.9591285 24.6304903,39.0155628 24.9062439,40.097561 L26.1485854,44.9795122 C26.1505366,44.9874146 26.1527805,44.9953171 26.155122,45.0032195 C26.6806807,46.7867618 28.3217275,48.008301 30.1810732,48.000042 L38.3429268,48.000042 C40.6636868,47.9968812 42.5440305,46.1158829 42.5463433,43.795122 L42.5463433,37.188 C42.547347,36.4124059 42.1249466,35.6981057 41.4448314,35.3252914 C40.7647162,34.9524771 39.9353454,34.9806022 39.2820488,35.3986341 C39.0332022,34.8484371 38.5603702,34.4313612 37.9834154,34.2531349 C37.4064606,34.0749085 36.7807773,34.1526436 36.2649756,34.4666341 C36.0406934,33.9590447 35.6188423,33.5650687 35.0971281,33.3759556 C34.5754139,33.1868424 33.9990967,33.2189984 33.5016585,33.4649756 L33.5016585,25.6223415 C33.5005294,24.367724 32.4838855,23.3508618 31.2292683,23.3494634 L31.2292683,23.3494634 Z M33.5260488,35.2989268 C33.5260488,34.816688 33.9169806,34.4257561 34.3992195,34.4257561 C34.8814584,34.4257561 35.2723902,34.816688 35.2723902,35.2989268 L35.2723902,35.9623415 C35.2572635,36.0645087 35.2496334,36.1676459 35.249561,36.2709268 L35.249561,38.5686829 C35.249561,38.8919716 35.5116382,39.1540488 35.8349268,39.1540488 L35.8463415,39.1540488 C35.8463415,39.1540488 35.8538537,39.1540488 35.8577561,39.1540488 C36.1810447,39.1540488 36.443122,38.8919716 36.443122,38.5686829 L36.443122,36.0670244 C36.5462364,35.5984502 36.9859062,35.282899 37.4628354,35.3351755 C37.9397646,35.387452 38.3006407,35.7907516 38.2998049,36.2705366 L38.2998049,39.1754146 C38.2998049,39.4987033 38.5618821,39.7607805 38.8851707,39.7607805 C39.2084594,39.7607805 39.4705366,39.4987033 39.4705366,39.1754146 L39.4705366,37.188 C39.4670698,36.8454993 39.6478044,36.5275218 39.9438544,36.3552628 C40.2399043,36.1830039 40.6056566,36.1830039 40.9017066,36.3552628 C41.1977566,36.5275218 41.3784912,36.8454993 41.3750734,37.188 L41.3750734,43.795122 C41.3734132,45.4693672 40.0171707,46.8265262 38.3429268,46.8292981 L30.1810732,46.8292981 C28.8438627,46.8351894 27.6626568,45.9592556 27.28,44.6779512 L26.0409756,39.8085854 C25.7488692,38.661971 25.3592214,37.5424432 24.8762927,36.4622439 L24.7804878,36.2349268 C26.0467122,36.2348777 27.2320974,36.8571138 27.9512195,37.8993171 L28.9578537,39.3577561 L28.9578537,41.5317073 C28.9578537,41.854996 29.2199309,42.1170732 29.5432195,42.1170732 C29.8665081,42.1170732 30.1285854,41.854996 30.1285854,41.5317073 L30.1285854,25.6223415 C30.1285854,25.0142355 30.6215526,24.5212683 31.2296585,24.5212683 C31.8377645,24.5212683 32.3307317,25.0142355 32.3307317,25.6223415 L32.3307317,36.0132683 C32.3307536,36.0704475 32.3391685,36.1273137 32.3557073,36.1820488 L32.3557073,38.5682927 C32.3557073,38.8915813 32.6177845,39.1536585 32.9410732,39.1536585 C33.2643618,39.1536585 33.526439,38.8915813 33.526439,38.5682927 L33.5260488,35.2989268 Z" fill="#0071DC" class="primary-fill-color"></path></svg>