<svg xmlns="http://www.w3.org/2000/svg" xmlns:xlink="http://www.w3.org/1999/xlink" width="60px" height="53px" viewBox="0 0 60 53"><path d="M59.009434,47.284493 L12.3113208,47.284493 C8.64003532,47.2813974 5.66435728,44.3057194 5.66037736,40.6335496 L5.66037736,0.999852566 C5.66081955,0.690300679 5.68293045,0.381633283 5.72626766,0.0751768302 C2.44457547,0.539504717 0.00397994717,3.34669811 0,6.66022992 L0,46.2939269 C0.00397994717,49.9660968 2.97965796,52.9417748 6.6509434,52.9448703 L53.3490566,52.9448703 C56.6630307,52.9413326 59.4697818,50.5007371 59.9341097,47.2194871 C59.6280955,47.2623821 59.3189858,47.284493 59.009434,47.284493 Z" fill="#D3E6FA"></path><path d="M60,6.66022992 L60,46.2939269 C59.9960201,49.9660968 57.020342,52.9417748 53.3490566,52.9448703 L6.6509434,52.9448703 C2.97965796,52.9417748 0.00397994717,49.9660968 0,46.2939269 L0,6.66022992 C0.00397994717,2.9889446 2.97965796,0.013266566 6.6509434,0.0092865283 L53.3490566,0.0092865283 C57.020342,0.013266566 59.9960201,2.9889446 60,6.66022992 Z M58.0188679,46.2939269 L58.0188679,15.8711674 L1.98113208,15.8711674 L1.98113208,46.2939269 C1.98378543,48.8720519 4.07281834,50.9615271 6.6509434,50.9637383 L53.3490566,50.9637383 C55.9271817,50.9615271 58.0162146,48.8720519 58.0188679,46.2939269 Z M58.0188679,13.8900353 L58.0188679,6.66022992 C58.0162146,4.08210498 55.9271817,1.99351415 53.3490566,1.9904186 L6.6509434,1.9904186 C4.07281834,1.99351415 1.98378543,4.08210498 1.98113208,6.66022992 L1.98113208,13.8900353 L58.0188679,13.8900353 Z" fill="#0071DC" class="primary-fill-color"></path><g transform="translate(19.000000, 20.000000)" fill="#FFC221" class="secondary-fill-color"><path d="M21.5827531,8.66944637 C22.0057979,8.3556474 22.1241998,7.78179636 21.8591648,7.33156301 L19.6015216,3.60607916 C19.2669622,3.05868812 18.690964,2.99956655 18.2822455,3.22282272 L16.0052197,4.25145484 C15.5210778,3.91408996 15.0061767,3.62137632 14.4668368,3.37744834 L14.2338251,0.859201436 L14.222027,0.809588954 C14.1238503,0.34612561 13.713025,0.0104145904 13.2305685,3.89465926e-05 L8.8223072,3.89465926e-05 C8.30108574,-0.00446925988 7.86287204,0.382921613 7.81357302,0.892276424 L7.58477488,3.37744834 C7.04037863,3.61393439 6.5221066,3.9054078 6.03922886,4.24732051 L3.74914088,3.21331363 L3.71458947,3.19842989 C3.24772323,3.01651746 2.67804542,3.20256431 2.44840461,3.60814632 L0.246802146,7.32742869 C-0.0262386994,7.78014261 0.0951127872,8.3622624 0.527006072,8.67358069 L2.5979872,10.1193711 C2.5562726,10.4112579 2.53436191,10.7052118 2.53225514,10.9999927 C2.53436191,11.2922929 2.5562726,11.584593 2.5979872,11.8739992 L1.12786453,12.8563263 L0.443155539,13.3135881 L0.412817667,13.3346733 C0.0993263266,13.5699192 -0.0532056964,13.95731 0.0167400061,14.3380857 C0.0369652538,14.4534348 0.0782584141,14.564236 0.138934157,14.6651147 L2.34348616,18.3877046 L2.34896381,18.3972137 C2.47326484,18.6080667 2.6691969,18.7697207 2.90220869,18.8532351 C3.15628828,18.9388165 3.43607088,18.9111162 3.66697579,18.7771626 L5.9452657,17.748117 C6.42898621,18.0854819 6.94346593,18.3777821 7.48238454,18.6212967 L7.71539622,21.1403704 L7.72845838,21.1912232 C7.82663508,21.654273 8.23788178,21.9895707 8.71949552,21.9999538 L13.1281782,21.9999538 C13.6489783,22.0048679 14.087192,21.6174771 14.1356483,21.1085357 L14.3657105,18.622537 C14.9101068,18.3856374 15.4279574,18.094164 15.9112565,17.7526648 L18.2000804,18.7866716 L18.2388455,18.8023823 C18.7052903,18.9863619 19.2391525,18.8127182 19.501238,18.3918389 L21.70579,14.6684222 C21.9746173,14.2177755 21.8545298,13.6410304 21.4276929,13.3292986 L19.5033448,11.8921904 C19.5463235,11.5965828 19.5690768,11.2984944 19.5711837,10.9999927 C19.5686555,10.7052118 19.5467448,10.4112579 19.5054516,10.1193711 L21.5667415,8.68102251 L21.5827531,8.66944637 Z M17.8811114,9.43471882 L17.9683327,10.0346164 C18.0917911,10.6721368 18.0917911,11.3266081 17.9683327,11.9641286 L17.8832182,12.5429408 L20.1947955,14.2715224 L18.4267717,17.2573668 L15.6934138,16.0232564 L15.2037942,16.4168487 C14.6829941,16.8137486 14.1086813,17.13747 13.497289,17.3789175 L12.9427801,17.612923 L12.6739528,20.5181472 L9.17372083,20.5181472 L8.90531496,17.612923 L8.34954209,17.3789175 C7.73140793,17.1205191 7.14740384,16.7889423 6.61101344,16.3912157 L6.12771427,16.0356595 L3.42132338,17.2573668 L1.66425493,14.2905404 L1.77844333,14.214468 L1.78392098,14.2099202 L3.7027913,12.9282644 L4.22148466,12.5598917 L4.13426326,11.9608211 C4.01164777,11.3241275 4.01206911,10.6704831 4.13510603,10.0337895 L4.22274877,9.43471882 L1.76201029,7.71771355 L3.52244962,4.7426184 L6.25707161,5.97672886 L6.74669109,5.5831365 C7.26664856,5.18582324 7.84096135,4.86210177 8.45235366,4.62106788 L9.0077053,4.38706229 L9.27611117,1.48183803 L12.7755005,1.48183803 L13.0443277,4.38788911 L13.5996792,4.62106788 C14.2182348,4.87863926 14.8022388,5.21062948 15.3386292,5.60835615 L15.8219284,5.96515261 L18.5325329,4.74055124 L20.3380576,7.71978071 L17.8811114,9.43471882 Z"></path><path d="M10.999384,5 C7.63599965,5 5,7.63535857 5,11.0002054 C5,14.3650523 7.63599965,17 10.999384,17 C14.3631791,17 17,14.3650523 17,11.0002054 C17,7.63535857 14.3640005,5 10.999384,5 L10.999384,5 Z M10.999384,15.5278795 C8.49933259,15.5274688 6.47284121,13.5000171 6.47325184,10.9993839 C6.47325184,8.49875061 8.50056477,6.4721205 11.0010268,6.4721205 C13.5010782,6.47253122 15.5279803,8.49957216 15.5279803,11.0002054 C15.5411233,12.204929 15.0683849,13.3644704 14.2161413,14.2167722 C13.3638977,15.0686634 12.2044359,15.5414343 10.999384,15.5278795 Z"></path><path d="M10.999713,8.00017745 C9.34281182,8.00017745 8,9.34329695 8,11.0000887 C8,12.6568804 9.34281182,14 10.999713,14 C12.6566142,14 13.9998225,12.6568804 13.9998225,11.0000887 C14.0085473,10.2018308 13.6952509,9.43371067 13.1309211,8.86941811 C12.5661946,8.30472892 11.7980237,7.99145327 10.999713,8.00017745 L10.999713,8.00017745 Z M10.999713,12.5787598 C10.1280354,12.5787598 9.42133413,11.8717086 9.42133413,11.0000887 C9.42133413,10.1280722 10.1280354,9.42141765 10.999713,9.42141765 C11.8717872,9.42141765 12.5784884,10.1280722 12.5784884,11.0000887 C12.5832473,11.4200367 12.4182711,11.8241225 12.1212345,12.1211395 C11.8241979,12.418553 11.4200852,12.5831219 10.999713,12.5787598 L10.999713,12.5787598 Z"></path></g><g transform="translate(4.075472, 4.754717)" fill="#0071DC" class="primary-fill-color"><path d="M22.4716981,6.40595525 L22.4818691,6.40595525 C24.2087264,6.40507075 25.610112,5.00854958 25.6158609,3.28080781 L25.6158609,3.27107898 C25.6140919,1.5442217 24.2171286,0.144162792 22.4902712,0.136641258 L22.4818691,0.136641258 C20.7505896,0.133991774 19.3447818,1.53537736 19.3421248,3.26621457 C19.3394752,4.99749408 20.7408609,6.4028597 22.4716981,6.40595525 Z M22.4818691,2.11777596 L22.4845224,2.11777596 C23.1213148,2.11866158 23.6373821,2.6360554 23.6360579,3.27284785 C23.6356132,3.9096403 23.1186616,4.42526536 22.4818691,4.42482345 L22.4774469,4.42482345 C21.8406545,4.42349649 21.3250295,3.90610257 21.3259128,3.26931011 C21.3272406,2.63207547 21.8446345,2.11689272 22.4818691,2.11777596 Z"></path><path d="M9.71461887,3.2317217 C9.71196928,4.96211672 11.1093749,6.36836672 12.8393278,6.37588438 L12.8490566,6.37588438 C14.5754717,6.37411562 15.9764151,4.97803653 15.9834906,3.25162143 L15.9834906,3.24189272 C15.9830484,1.51415094 14.5860849,0.113207547 12.8592276,0.107016453 L12.8490566,0.107016453 C11.1217571,0.107458755 9.72081374,1.50486442 9.71461887,3.2317217 Z M12.036704,2.42379125 C12.2516214,2.20798936 12.5439269,2.08682196 12.8490566,2.08813775 L12.8530365,2.08813775 C13.4902712,2.08903302 14.0058962,2.60642694 14.0045721,3.2432194 C14.0032429,3.88089623 13.4858491,4.39607898 12.8490566,4.39475486 L12.8459611,4.39475486 C12.3794221,4.39386792 11.959316,4.11173343 11.7824292,3.68012966 C11.6051003,3.24852589 11.7054835,2.7519163 12.036704,2.42379125 Z"></path><path d="M3.22774177,0.076043669 C1.49646226,0.0703125283 0.0880012075,1.46948706 0.0831191407,3.20120875 C0.077388,4.93248815 1.47656253,6.34050702 3.20784204,6.34625969 L3.21757075,6.34625969 C4.94973464,6.34890917 6.35554245,4.94752358 6.35819946,3.21624408 C6.36084906,1.48452238 4.95946347,0.078714566 3.22774177,0.076043669 Z M3.21757075,4.36512498 L3.21403302,4.36512498 C2.57635608,4.36379717 2.06073113,3.84640325 2.06205526,3.2091686 C2.06294219,2.57193396 2.58033611,2.05586672 3.21757075,2.05719084 L3.22199298,2.05719084 C3.85966981,2.05807789 4.37529487,2.5754717 4.37441151,3.21314853 C4.3730837,3.85038328 3.8552477,4.36600823 3.21757075,4.36512498 Z"></path></g></svg>