<svg xmlns="http://www.w3.org/2000/svg" xmlns:xlink="http://www.w3.org/1999/xlink" width="48px" height="39px" viewBox="0 0 48 39"><path d="M3.49332871,35.8745451 L3.49332871,2.74614452 C3.49358601,2.18484695 3.71680739,1.6466409 4.11388668,1.24992557 C4.51096597,0.853210234 5.0493765,0.630739684 5.61067406,0.630739684 L2.6995668,0.630739684 C2.13826924,0.630739684 1.59985871,0.853210234 1.20277942,1.24992557 C0.80570013,1.6466409 0.582478751,2.18484695 0.582221452,2.74614452 L0.582221452,35.8745451 C0.582810826,37.0433646 1.5307473,37.9904322 2.6995668,37.9899499 L5.61067406,37.9899499 C4.44185456,37.9904322 3.49391809,37.0433646 3.49332871,35.8745451 Z" fill="#D3E6FA"></path><path d="M45.0427863,0.0485184543 L2.69937273,0.0485184543 C1.20967508,0.0495873292 0.00203311482,1.25644787 5.51590965e-15,2.74614452 L5.51590965e-15,35.8745451 C0.00208648276,37.3642196 1.2096972,38.5710489 2.69937273,38.5721712 L45.0427863,38.5721712 C46.5324619,38.5710489 47.7400726,37.3642196 47.7421591,35.8745451 L47.7421591,2.74614452 C47.740126,1.25644787 46.532484,0.0495873292 45.0427863,0.0485184543 Z M2.69937273,1.21296136 L45.0427863,1.21296136 C45.889646,1.2133883 46.576325,1.89928586 46.5777162,2.74614452 L46.5777162,8.69062554 L1.1644429,8.69062554 L1.1644429,2.74614452 C1.16583407,1.89928586 1.85251303,1.2133883 2.69937273,1.21296136 Z M45.0427863,37.4077283 L2.69937273,37.4077283 C1.85251303,37.4073014 1.16583407,36.7214038 1.1644429,35.8745451 L1.1644429,9.85477733 L46.5777162,9.85477733 L46.5777162,35.8745451 C46.576325,36.7214038 45.889646,37.4073014 45.0427863,37.4077283 L45.0427863,37.4077283 Z" fill="#0071DC" class="primary-fill-color"></path><path d="M4.90725351,7.12192688 C6.14648601,7.12112312 7.15050608,6.1160172 7.14997055,4.87678455 C7.14943458,3.6375519 6.14454582,2.63331448 4.90531309,2.63358217 C3.66608035,2.63384997 2.66162537,3.63852153 2.66162537,4.87775429 C2.66344413,6.11699064 3.66801624,7.12091161 4.90725351,7.12192688 Z M4.90725351,3.79812164 C5.50339424,3.79892529 5.98608061,4.28271172 5.98552764,4.87885274 C5.98497373,5.47499375 5.50138992,5.95788313 4.90524873,5.95758003 C4.30910753,5.95727665 3.82601524,5.47389556 3.82606827,4.87775429 C3.82719179,4.28134952 4.31084774,3.7983881 4.90725351,3.79812164 L4.90725351,3.79812164 Z" fill="#0071DC" class="primary-fill-color"></path><path d="M10.8403812,7.12192688 C12.079601,7.12106954 13.0835724,6.11593994 13.0830012,4.87671994 C13.0824295,3.63749995 12.0775315,2.63329672 10.8383115,2.63358224 C9.59909136,2.63386788 8.59465604,3.63853417 8.59465604,4.87775429 C8.5964749,6.11702849 9.60110605,7.12096508 10.8403812,7.12192688 Z M10.8403812,3.79812164 C11.4365092,3.79897884 11.9191469,4.28278891 11.9185583,4.87891725 C11.9179687,5.47504558 11.4343757,5.95790078 10.8382471,5.9575799 C10.2421186,5.9572587 9.75904598,5.47388291 9.75909894,4.87775429 C9.76027589,4.28133383 10.2439597,3.79838798 10.8403812,3.79812164 L10.8403812,3.79812164 Z" fill="#0071DC" class="primary-fill-color"></path><path d="M16.7735089,7.12192688 C18.0127287,7.12106954 19.0167001,6.11593994 19.0161289,4.87671994 C19.0155572,3.63749995 18.0106593,2.63329672 16.7714392,2.63358224 C15.5322191,2.63386788 14.5277837,3.63853417 14.5277837,4.87775429 C14.5296026,6.11702849 15.5342338,7.12096508 16.7735089,7.12192688 L16.7735089,7.12192688 Z M16.7735089,3.79812164 C17.3696369,3.79897884 17.8522746,4.28278891 17.851686,4.87891725 C17.8510964,5.47504558 17.3675034,5.95790078 16.7713749,5.9575799 C16.1752463,5.9572587 15.6921737,5.47388291 15.6922267,4.87775429 C15.6934036,4.28133383 16.1770874,3.79838798 16.7735089,3.79812164 L16.7735089,3.79812164 Z" fill="#0071DC" class="primary-fill-color"></path><path d="M25.5345833,5.34925663 L44.6092254,5.34925663 C44.9307775,5.34925663 45.1914469,5.0885872 45.1914469,4.76703518 C45.1914469,4.44548315 44.9307775,4.18481372 44.6092254,4.18481372 L25.5345833,4.18481372 C25.2130312,4.18481372 24.9523618,4.44548315 24.9523618,4.76703518 C24.9523618,5.0885872 25.2130312,5.34925663 25.5345833,5.34925663 L25.5345833,5.34925663 Z" fill="#0071DC" class="primary-fill-color"></path><g transform="translate(3.299255, 12.323687)" fill="#FFC221" class="secondary-fill-color"><path d="M1.13727257,16.2138971 L24.1227933,16.2138971 C24.5513298,16.2134158 24.8986073,15.8661383 24.8990885,15.4376018 L24.8990885,0.867704037 C24.8986073,0.439167515 24.5513298,0.0918900598 24.1227933,0.091408768 L1.13727257,0.091408768 C0.708736047,0.0918900598 0.361458592,0.439167515 0.3609773,0.867704037 L0.3609773,15.4376018 C0.361458592,15.8661383 0.708736047,16.2134158 1.13727257,16.2138971 L1.13727257,16.2138971 Z M1.5254202,1.25585167 L23.7346456,1.25585167 L23.7346456,15.0494542 L1.5254202,15.0494542 L1.5254202,1.25585167 Z"></path><path d="M15.1736614,7.48018714 L10.8001109,4.95722752 C10.5599123,4.81854882 10.2639738,4.81855618 10.0237821,4.95724684 C9.7835905,5.0959375 9.635668,5.35223886 9.635668,5.62959626 L9.635668,10.6748363 C9.63596527,10.9520589 9.7839643,11.2081168 10.0240307,11.3467552 C10.2640972,11.4853936 10.5598493,11.485602 10.8001109,11.347302 L15.1737584,8.8243424 C15.4140679,8.68570356 15.5621241,8.42935867 15.5621241,8.15192514 C15.5621241,7.87449162 15.4140679,7.61814673 15.1737584,7.47950788 L15.1736614,7.48018714 Z M10.800305,10.0031468 L10.800305,6.301965 L14.0088304,8.15265292 L10.800305,10.0031468 Z"></path><path d="M0.662665049,19.1550858 L5.66346214,19.1550858 C5.98501417,19.1550858 6.24568359,18.8944164 6.24568359,18.5728643 C6.24568359,18.2513123 5.98501417,17.9906429 5.66346214,17.9906429 L0.662665049,17.9906429 C0.34111302,17.9906429 0.0804435973,18.2513123 0.0804435973,18.5728643 C0.0804435973,18.8944164 0.34111302,19.1550858 0.662665049,19.1550858 Z"></path><path d="M24.0659296,22.0576538 C24.3874817,22.0576538 24.6481511,21.7969844 24.6481511,21.4754323 C24.6481511,21.1538803 24.3874817,20.8932109 24.0659296,20.8932109 L0.662665049,20.8932109 C0.34111302,20.8932109 0.0804435973,21.1538803 0.0804435973,21.4754323 C0.0804435973,21.7969844 0.34111302,22.0576538 0.662665049,22.0576538 L24.0659296,22.0576538 Z"></path><path d="M28.9716306,9.52397851 L39.820357,9.52397851 C40.2488935,9.52349722 40.5961709,9.17621977 40.5966522,8.74768324 L40.5966522,0.867704037 C40.5962243,0.439145373 40.2489156,0.0918366851 39.820357,0.091408768 L28.9716306,0.091408768 C28.543094,0.0918900598 28.1958166,0.439167515 28.1953353,0.867704037 L28.1953353,8.74768324 C28.1958166,9.17621977 28.543094,9.52349722 28.9716306,9.52397851 L28.9716306,9.52397851 Z M29.3597782,1.25585167 L39.4322093,1.25585167 L39.4322093,8.35953561 L29.3597782,8.35953561 L29.3597782,1.25585167 Z"></path><path d="M28.9716306,22.10297 L39.820357,22.10297 C40.2489156,22.1025421 40.5962243,21.7552334 40.5966522,21.3266748 L40.5966522,13.4466955 C40.5961709,13.018159 40.2488935,12.6708816 39.820357,12.6704003 L28.9716306,12.6704003 C28.543094,12.6708816 28.1958166,13.018159 28.1953353,13.4466955 L28.1953353,21.3266748 C28.1958166,21.7552113 28.543094,22.1024887 28.9716306,22.10297 L28.9716306,22.10297 Z M29.3597782,13.8348432 L39.4322093,13.8348432 L39.4322093,20.9385271 L29.3597782,20.9385271 L29.3597782,13.8348432 Z"></path></g></svg>