<svg xmlns="http://www.w3.org/2000/svg" xmlns:xlink="http://www.w3.org/1999/xlink" width="80px" height="78px" viewBox="0 0 80 78"><path d="M1.88621514,5.14167331 L1.88621514,53.034741 C1.88621514,54.7950112 3.31319602,56.221992 5.07346614,56.221992 L8.76494024,56.221992 L8.76494024,1.95442231 L5.07346614,1.95442231 C3.31319602,1.95442231 1.88621514,3.38140319 1.88621514,5.14167331 Z" fill="#D3E6FA"></path><g fill="#0071DC" class="primary-fill-color"><path d="M74.6078088,0.0420717131 L5.39219124,0.0420717131 C2.41896414,0.0420717131 2.26467804e-15,2.38900398 2.26467804e-15,5.2736255 L2.26467804e-15,52.8041434 C2.26467804e-15,55.6886056 2.41896414,58.0356972 5.39219124,58.0356972 L48.3760956,58.0356972 L48.3760956,56.1233466 L5.39219124,56.1233466 C3.47410359,56.1233466 1.9123506,54.6344223 1.9123506,52.8041434 L1.9123506,5.2736255 C1.9123506,3.44350598 3.47410359,1.95442231 5.39219124,1.95442231 L74.6078088,1.95442231 C76.5258964,1.95442231 78.0876494,3.44350598 78.0876494,5.2736255 L78.0876494,52.8041434 C78.0876494,54.6344223 76.5258964,56.1233466 74.6078088,56.1233466 L69.2396813,56.1233466 L69.2396813,58.0356972 L74.6078088,58.0356972 C77.5810359,58.0356972 80,55.6887649 80,52.8041434 L80,5.2736255 C80,2.38900398 77.5810359,0.0420717131 74.6078088,0.0420717131 Z"></path><path d="M31.6046215,28.7201594 L31.6046215,9.40541833 C31.6038311,8.70163794 31.0335015,8.13130835 30.3297211,8.13051793 L10.2648606,8.13051793 C9.56108017,8.13130835 8.99075058,8.70163794 8.98996016,9.40541833 L8.98996016,28.7201594 C8.99075058,29.4239397 9.56108017,29.9942693 10.2648606,29.9950598 L30.3297211,29.9950598 C31.0335015,29.9942693 31.6038311,29.4239397 31.6046215,28.7201594 L31.6046215,28.7201594 Z M29.6922709,28.0827092 L10.9023108,28.0827092 L10.9023108,10.0428685 L29.6922709,10.0428685 L29.6922709,28.0827092 Z"></path><path d="M36.7351394,14.043513 L36.7427888,14.043513 L67.4159363,13.8044622 C67.9440173,13.8024378 68.3704705,13.3727025 68.3684534,12.8446215 C68.3664219,12.3165405 67.9366866,11.8900872 67.4086056,11.8921044 L67.4009562,11.8921044 L36.7278088,12.1311554 C36.3862002,12.1324649 36.0712395,12.3159209 35.9015693,12.6124173 C35.7318991,12.9089137 35.7332963,13.2734057 35.9052347,13.5685926 C36.077173,13.8637795 36.3935309,14.0448155 36.7351394,14.043513 L36.7351394,14.043513 Z"></path><path d="M68.3984347,24.6449402 C68.3943796,24.1197243 67.9674625,23.6960956 67.4422311,23.6960956 L67.434741,23.6960956 L36.7614343,23.9351394 C36.2333532,23.9371638 35.8069,24.366899 35.8089171,24.8949801 C35.8109486,25.4230611 36.2406839,25.8495144 36.7687649,25.8474972 L36.776255,25.8474972 L67.4495618,25.6084462 C67.7031576,25.6065094 67.9455965,25.5039076 68.123541,25.3232136 C68.3014855,25.1425195 68.4003581,24.8985359 68.3984347,24.6449402 L68.3984347,24.6449402 Z"></path><path d="M11.141992,38.4551469 L11.1499602,38.4551469 L39.4137052,38.2267729 C39.7553137,38.2239262 40.0694543,38.0390497 40.2377933,37.7417847 C40.4061322,37.4445196 40.4030948,37.0800277 40.2298251,36.7856093 C40.0565555,36.491191 39.7393775,36.3115756 39.3977689,36.3144223 L11.134502,36.5427888 C10.606421,36.5448572 10.1800034,36.9746281 10.1820642,37.5027092 C10.18414,38.0307902 10.613911,38.4572078 11.141992,38.4551469 L11.141992,38.4551469 Z"></path><path d="M11.1759363,50.2584935 L11.1839044,50.2584935 L39.4478088,50.0301195 C39.9758898,50.0280072 40.4022716,49.5982005 40.4001671,49.0701195 C40.398047,48.5420385 39.9682404,48.1156566 39.4401594,48.1177611 L39.4323506,48.1177611 L11.1684462,48.3461355 C10.6403652,48.3482038 10.2139476,48.7779747 10.2160084,49.3060558 C10.2180843,49.8341368 10.6478552,50.2605544 11.1759363,50.2584935 L11.1759363,50.2584935 Z"></path></g><path d="M58.3121912,52.694502 C58.3776361,52.6960956 58.4429216,52.696743 58.5080478,52.696743 C62.7864542,52.696743 66.3193625,49.3791235 66.4251793,45.2156175 C66.4754838,43.2123344 65.7212528,41.272375 64.330996,39.8291633 C62.8593176,38.2857597 60.8307515,37.3961385 58.6984861,37.3590438 C54.336255,37.2578486 50.6930677,40.610996 50.585498,44.8379283 C50.5353545,46.8411833 51.2895622,48.7810828 52.6796813,50.2243825 C54.1513388,51.7678158 56.179918,52.6574428 58.3121912,52.694502 L58.3121912,52.694502 Z M52.4972112,44.8868526 C52.5768924,41.7601594 55.2565737,39.2694821 58.5032669,39.2694821 C58.5531474,39.2694821 58.6031873,39.2694821 58.6533865,39.2712351 C60.2775741,39.2974181 61.823587,39.9731387 62.9459761,41.1474104 C63.9849274,42.2237183 64.549466,43.6713384 64.5134661,45.1668526 C64.4326693,48.3416733 61.6733068,50.8629482 58.3572908,50.7824701 C56.7330914,50.756192 55.1870948,50.0804211 54.0647012,48.9061355 C53.025912,47.8297883 52.4613974,46.3822869 52.4972112,44.8868526 L52.4972112,44.8868526 Z" fill="#FFC221" class="secondary-fill-color"></path><path d="M69.1931474,53.9561753 C70.0745817,53.8513147 70.9859761,53.6591235 71.4860558,52.8855777 C72.063745,51.9917131 71.7042231,50.9169721 71.3869323,49.969243 C71.2498805,49.5598406 71.0203984,48.8742629 71.0876494,48.6581673 C71.1513944,48.4621514 71.7091633,48.0425498 72.0425498,47.7917131 C72.8560956,47.1796016 73.7781673,46.4860558 73.8058964,45.3926693 C73.8336255,44.2992829 72.9478884,43.56 72.1662151,42.9080478 C71.8465339,42.6414343 71.3117131,42.1953785 71.2578486,41.9971315 C71.2019124,41.7781673 71.4650199,41.1058167 71.6232669,40.7040637 C71.9882072,39.7733865 72.4019124,38.7187251 71.8698008,37.7974502 C71.3376892,36.8761753 70.214502,36.7023108 69.2243825,36.5502789 C68.7993625,36.4849402 68.0879681,36.3757769 67.9335458,36.2216733 C67.7845418,36.0737849 67.6744223,35.3694024 67.6086056,34.9483665 C67.4533865,33.956494 67.2774502,32.8321912 66.3505976,32.2954582 C65.4431873,31.7695618 64.3945817,32.1679681 63.4694821,32.52 C63.0615139,32.6749004 62.3792829,32.9343426 62.1588845,32.8731474 C61.9628685,32.8117928 61.5373705,32.2627888 61.2823904,31.9346614 C60.6632669,31.1378486 59.9612749,30.2328287 58.8792032,30.2070188 C57.796494,30.1882072 57.052749,31.0519522 56.3958566,31.8188048 C56.1249402,32.1349801 55.6723506,32.6642231 55.4736255,32.7156972 C55.2489243,32.767012 54.579761,32.4753785 54.1794422,32.3013546 C53.2710757,31.9064542 52.2422311,31.4591235 51.3109163,31.9407171 C50.3596813,32.4323506 50.1289243,33.5466135 49.9254183,34.5298805 C49.8388845,34.9474104 49.6943426,35.6463745 49.5375299,35.7875697 C49.3746614,35.9343426 48.658008,36.0089243 48.2298008,36.0533865 C47.2336255,36.1568127 46.1043825,36.2741036 45.5258964,37.1689243 C44.9474104,38.063745 45.3077291,39.1373705 45.6250199,40.085259 C45.7619124,40.4948207 45.9915538,41.180239 45.9241434,41.396494 C45.8603984,41.59251 45.3026295,42.0122709 44.969243,42.2629482 C44.1556972,42.8750598 43.2337849,43.5686056 43.2058964,44.6621514 C43.178008,45.7556972 44.0640637,46.4948207 44.8457371,47.1464542 C45.1644622,47.4130677 45.700239,47.8592829 45.7541036,48.0575299 C45.8100398,48.276494 45.5469323,48.9488446 45.3886853,49.3505976 C45.023745,50.2812749 44.6098805,51.3359363 45.1421514,52.2572112 C45.6744223,53.1784861 46.7972908,53.3523506 47.7875697,53.5043825 C47.9725896,53.532749 48.2119522,53.5695618 48.4360159,53.6148207 C48.3781943,53.6987863 48.3342347,53.7914943 48.3058167,53.8894024 L42.3010359,74.6199203 C42.1955481,74.9841102 42.3152177,75.3762262 42.6060826,75.6194536 C42.8969474,75.862681 43.3040528,75.9110653 43.6438247,75.7427888 L49.2631076,72.9587251 L53.2081275,77.7010359 C53.4333913,77.9719132 53.7893603,78.0969746 54.1345462,78.0265115 C54.479732,77.9560484 54.7582063,77.7014775 54.8592829,77.3639841 L59.6481275,61.3784861 L63.3649402,76.3904382 C63.4495558,76.732221 63.7151633,76.9998452 64.0562962,77.0870436 C64.3974292,77.174242 64.7588824,77.0669034 64.9971315,76.8076494 L69.1800797,72.2549801 L74.650996,75.3008765 C74.99625,75.4927883 75.4239755,75.452645 75.7274918,75.1998441 C76.0310082,74.9470432 76.1478324,74.5336274 76.0215139,74.1593625 L69.1931474,53.9561753 Z M46.8012749,51.2988048 C46.7654183,51.074741 47.0261355,50.4101992 47.1678088,50.0482869 C47.4865339,49.2379283 47.8143426,48.4001594 47.6058964,47.583745 C47.4031873,46.7898008 46.7250996,46.2242231 46.0693227,45.6772908 C45.7534661,45.4138645 45.1690837,44.9265339 45.1177689,44.7099602 C45.1796016,44.4960956 45.7885259,44.038247 46.1176096,43.7905976 C46.8003187,43.2769721 47.5064542,42.7458167 47.7493227,41.9625498 C47.9992032,41.1576096 47.7134661,40.303745 47.4372908,39.4779283 C47.3136255,39.1080478 47.0866932,38.4288446 47.134502,38.20749 C47.3158566,38.0696414 48.034741,37.9949004 48.4261355,37.9544223 C49.2935458,37.8642231 50.1905976,37.7711554 50.8165737,37.2071713 C51.4380876,36.6466932 51.6208765,35.767012 51.7969721,34.9163347 C51.8790438,34.5203187 52.030757,33.7874104 52.1818327,33.6438247 C52.4003187,33.6119522 53.0583267,33.8988048 53.416255,34.0540239 C54.2253386,34.4057371 55.0623108,34.7697211 55.8978486,34.5791235 C56.7066135,34.394741 57.2868526,33.7168127 57.8481275,33.0611952 C58.1204781,32.7424701 58.6275697,32.1504382 58.8261355,32.1174502 C59.0369721,32.1604781 59.5144223,32.7757769 59.770996,33.1062948 C60.2999203,33.7875697 60.8466932,34.492749 61.6454183,34.7142629 C62.4705976,34.9439044 63.3233466,34.6199203 64.1474104,34.3064542 C64.5332271,34.16 65.1722709,33.9174502 65.3923506,33.9542629 C65.5431076,34.125259 65.6564143,34.849243 65.7179283,35.2428685 C65.8521116,36.1003984 65.990757,36.987251 66.5842231,37.5770518 C67.1811952,38.1703586 68.0718725,38.3070916 68.9333865,38.4393625 C69.3211155,38.4989641 70.032988,38.6082869 70.2082869,38.7541036 C70.2441434,38.9781673 69.9834263,39.6427092 69.841753,40.0046215 C69.5239841,40.8148207 69.1953785,41.652749 69.4038247,42.4691633 C69.6066932,43.2631076 70.2846215,43.8286853 70.9403984,44.3756175 C71.256255,44.6390438 71.8406375,45.1263745 71.8917928,45.3427888 C71.8299602,45.5566534 71.2211952,46.0146614 70.8921116,46.2623108 C70.209243,46.7759363 69.5032669,47.3070916 69.260239,48.0903586 C69.0105179,48.8952988 69.2960956,49.7491633 69.5724303,50.5748207 C69.6960956,50.9447012 69.9230279,51.6239044 69.8752191,51.8455777 C69.6937052,51.9832669 68.9749801,52.0578486 68.5835857,52.0984861 C67.7161753,52.1885259 66.8191235,52.281753 66.1931474,52.8455777 C65.5716335,53.4062151 65.389004,54.2858964 65.2129084,55.1364143 C65.1308367,55.5325896 64.9791235,56.265498 64.8280478,56.4090837 C64.6094024,56.4409562 63.9515538,56.1541036 63.5936255,55.9988845 C62.7843825,55.647012 61.947251,55.283506 61.1118725,55.472988 C60.3064542,55.6565737 59.7276494,56.3297211 59.1687649,56.9827888 C59.1596813,56.9894821 59.1512351,56.996494 59.1424701,57.003506 C59.1337052,57.0105179 59.1225498,57.0194422 59.1126693,57.0282072 C59.0998141,57.0388313 59.0872244,57.0501461 59.0749004,57.0621514 C59.0640637,57.0726693 59.0535458,57.0833466 59.0430279,57.0940239 C59.03251,57.1047012 59.0227888,57.1155378 59.0132271,57.1266932 C59.0036653,57.1378486 58.9913944,57.15251 58.9813546,57.1658964 C58.9730677,57.1765737 58.9654183,57.187251 58.9572908,57.1977689 C58.9470916,57.2119522 58.9373705,57.2266135 58.9279681,57.2414343 C58.9206375,57.2530677 58.9136255,57.2647012 58.9067729,57.2766534 C58.901992,57.2847809 58.8967331,57.2925896 58.8922709,57.3010359 C58.6315538,57.5944223 58.32749,57.9101195 58.1840637,57.9338645 C57.9733865,57.8908367 57.4957769,57.2755378 57.2392032,56.9458167 C56.7102789,56.2645418 56.1633466,55.5601594 55.3647809,55.338008 C55.1734297,55.2854872 54.975796,55.2593755 54.7773705,55.2603984 C54.1389641,55.2603984 53.4922709,55.5061355 52.861992,55.7456574 C52.4761753,55.8921116 51.8374502,56.1348207 51.6168924,56.0978486 C51.4662948,55.9266932 51.352988,55.2028685 51.2914741,54.809243 C51.1572908,53.9515538 51.0184861,53.0648606 50.4251793,52.4750598 C49.8282072,51.8819124 48.9373705,51.7450199 48.0760159,51.612749 C47.6889243,51.5545817 46.9765737,51.4450996 46.8012749,51.2988048 L46.8012749,51.2988048 Z M53.5376892,75.1075697 L50.2490837,71.1553785 C49.9659542,70.8150636 49.4862418,70.7135961 49.0895618,70.9101195 L44.7415139,73.0645418 L49.6199203,56.2224701 C49.7902789,56.8481275 50.0758566,57.4208765 50.6605578,57.7595219 C51.5678088,58.2854183 52.6167331,57.887012 53.541992,57.5349801 C53.9498008,57.3800797 54.6318725,57.1206375 54.8524303,57.181992 C55.0482869,57.2431873 55.4739442,57.7921912 55.7289243,58.1203187 C56.3439044,58.9126693 57.0409562,59.8095618 58.110757,59.8460558 L53.5376892,75.1075697 Z M69.4514741,70.2168924 C69.065068,70.0017045 68.5815071,70.0796068 68.2822311,70.405259 L64.7934661,74.2022311 L60.7899602,58.0333068 C61.0519522,57.7325896 61.3776892,57.3799203 61.5378486,57.3388048 C61.7609562,57.2873307 62.4315538,57.5789641 62.8320319,57.7531474 C63.7403984,58.1480478 64.7690837,58.5956972 65.7005578,58.1137849 C66.6517928,57.6221514 66.8823904,56.5078884 67.0860558,55.5246215 C67.150366,55.1716415 67.239295,54.8235938 67.3521912,54.4830279 L73.4165737,72.4251793 L69.4514741,70.2168924 Z" fill="#FFC221" class="secondary-fill-color"></path></svg>