<svg xmlns="http://www.w3.org/2000/svg" xmlns:xlink="http://www.w3.org/1999/xlink" width="155px" height="143px" viewBox="0 0 155 143"><polygon fill="#FFFFFF" points="24.936255 81.6454183 138.517928 81.6454183 138.517928 12.0876494 24.936255 12.0876494"></polygon><polygon fill="#FFC221" points="59.2749004 81.6454183 104.179283 81.6454183 104.179283 71.9601594 59.2749004 71.9601594"></polygon><path d="M25.5066588,14.4044996 L25.5066588,80.1872277 L136.186568,78.2344734 L136.186568,14.4044996 L25.5066588,14.4044996 Z M24.3402927,82.5258964 C24.0356653,82.5258964 23.7420155,82.4072584 23.5238364,82.1945282 C23.3001686,81.9763434 23.1752988,81.6790665 23.1752988,81.3667895 L23.1752988,13.2453927 C23.1752988,12.6058384 23.6967331,12.0876494 24.3402927,12.0876494 L137.352934,12.0876494 C137.997866,12.0876494 138.517928,12.6058384 138.517928,13.2453927 L138.517928,79.3731255 C138.517928,80.0044979 138.008844,80.5199596 137.372145,80.5308688 L24.3608756,82.5258964 L24.3402927,82.5258964 Z" fill="#7692C4"></path><path d="M55.0158014,100.89024 L50.8087699,100.89024 L50.8087699,95.9409284 C53.7801604,94.5675153 55.9269036,91.8137104 56.3432175,88.5462713 C56.4695748,88.5686033 56.595932,88.581165 56.7289397,88.581165 C57.9858618,88.581165 59.0047003,87.6041435 59.0047003,86.3982198 L59.0047003,83.123802 C59.0047003,81.9178783 57.9858618,80.9408568 56.7289397,80.9408568 C56.6238636,80.9408568 56.5187876,80.950627 56.4177018,80.9645844 L56.4177018,79.6874778 C56.4177018,74.447851 51.9885476,70.1992032 46.5219339,70.1992032 C41.0579804,70.1992032 36.6261661,74.447851 36.6261661,79.6874778 L36.6261661,80.9701674 C36.5131096,80.950627 36.4013832,80.9408568 36.2869966,80.9408568 C35.0287444,80.9408568 34.011236,81.9178783 34.011236,83.123802 L34.011236,86.3982198 C34.011236,87.6041435 35.0287444,88.581165 36.2869966,88.581165 C36.4293148,88.581165 36.5663126,88.5672075 36.6993203,88.5420841 C37.1143041,91.8025444 39.2477465,94.5507664 42.2058362,95.9297624 L42.2058362,100.89024 L38.0041251,100.89024 C32.7330326,100.89024 28.4581673,104.990939 28.4581673,110.043536 L28.4581673,116.864542 L64.5577689,116.864542 L64.5577689,110.043536 C64.5577689,104.990939 60.2842337,100.89024 55.0158014,100.89024" fill="#FFFFFF"></path><polygon fill="#D3E6FA" points="84.8087649 65.7968127 127.071713 65.7968127 127.071713 16.4900398 84.8087649 16.4900398"></polygon><polygon fill="#FDE5A4" points="37.2629482 71.9601594 62.7968127 71.9601594 62.7968127 42.0239044 37.2629482 42.0239044"></polygon><path d="M59.2749004,74.6015936 C59.2749004,67.7913092 64.5919601,62.2755535 71.1462535,62.2755535 L76.3775095,62.2755535 L76.3775095,55.2310757 L87.0780577,55.2310757 L87.0780577,62.2755535 L92.3051619,62.2755535 C98.8622231,62.2755535 104.179283,67.7913092 104.179283,74.6015936 L59.2749004,74.6015936 Z" fill="#FFC221"></path><path d="M91.1140729,100.89024 L86.9097016,100.89024 L86.9097016,95.9409284 C89.8810921,94.5675153 92.0278353,91.8137104 92.440159,88.5462713 C92.5678463,88.5686033 92.6955336,88.581165 92.8298713,88.581165 C94.0854634,88.581165 95.1056319,87.6041435 95.1056319,86.3982198 L95.1056319,83.123802 C95.1056319,81.9178783 94.0854634,80.9408568 92.8298713,80.9408568 C92.7247953,80.9408568 92.6210493,80.950627 92.5186335,80.9645844 L92.5186335,79.6874778 C92.5186335,74.447851 88.0881492,70.1992032 82.6228656,70.1992032 C77.1549218,70.1992032 72.7270977,74.447851 72.7270977,79.6874778 L72.7270977,80.9701674 C72.6140412,80.950627 72.5023148,80.9408568 72.3879283,80.9408568 C71.1310061,80.9408568 70.1108376,81.9178783 70.1108376,83.123802 L70.1108376,86.3982198 C70.1108376,87.6041435 71.1310061,88.581165 72.3879283,88.581165 C72.5289164,88.581165 72.6672443,88.5672075 72.7989218,88.5420841 C73.2139057,91.8025444 75.3473481,94.5507664 78.3067679,95.9297624 L78.3067679,100.89024 L74.1050568,100.89024 C68.8313042,100.89024 64.5577689,104.990939 64.5577689,110.043536 L64.5577689,116.864542 L100.657371,116.864542 L100.657371,110.043536 C100.657371,104.990939 96.3851654,100.89024 91.1140729,100.89024" fill="#FFFFFF"></path><path d="M128.974631,100.89024 L124.770259,100.89024 L124.770259,95.9409284 C127.74165,94.5675153 129.887063,91.8137104 130.302047,88.5462713 C130.431064,88.5686033 130.556091,88.581165 130.690429,88.581165 C131.946021,88.581165 132.96486,87.6041435 132.96486,86.3982198 L132.96486,83.123802 C132.96486,81.9178783 131.946021,80.9408568 130.690429,80.9408568 C130.585353,80.9408568 130.480277,80.950627 130.377861,80.9645844 L130.377861,79.6874778 C130.377861,74.447851 125.947377,70.1992032 120.480763,70.1992032 C115.01814,70.1992032 110.586325,74.447851 110.586325,79.6874778 L110.586325,80.9701674 C110.474599,80.950627 110.361543,80.9408568 110.248486,80.9408568 C108.991564,80.9408568 107.971395,81.9178783 107.971395,83.123802 L107.971395,86.3982198 C107.971395,87.6041435 108.991564,88.581165 110.248486,88.581165 C110.389474,88.581165 110.527802,88.5672075 110.65948,88.5420841 C111.074463,91.8025444 113.207906,94.5507664 116.167326,95.9297624 L116.167326,100.89024 L111.964284,100.89024 C106.691862,100.89024 102.418327,104.990939 102.418327,110.043536 L102.418327,116.864542 L138.517928,116.864542 L138.517928,110.043536 C138.517928,104.990939 134.244393,100.89024 128.974631,100.89024" fill="#D3E6FA"></path><path d="M29.0313635,113.684857 L63.983199,113.684857 L63.983199,108.220349 C63.983199,103.960253 60.085618,100.495879 55.2950417,100.495879 L50.9495893,100.495879 C50.303885,100.495879 49.7818262,99.9816364 49.7818262,99.3455991 L49.7818262,94.5469008 C49.7818262,94.0908485 50.0552202,93.6794542 50.4783626,93.4940561 C53.2590125,92.2882918 55.139798,89.9444268 55.5079868,87.2243524 C55.5519496,86.91716 55.7181841,86.6383862 55.9709705,86.4529881 C56.2251307,86.2689432 56.5452351,86.1931601 56.8570966,86.2432311 C57.5398945,86.3636722 58.2487954,85.8859676 58.2487954,85.2945883 L58.2487954,82.1211682 C58.2487954,81.5392617 57.5673713,81.0805029 56.8914426,81.1671123 C56.5575997,81.2104169 56.2237568,81.1089216 55.9709705,80.8896918 C55.719558,80.6704619 55.5753049,80.3565031 55.5753049,80.026305 L55.5753049,78.7880622 C55.5753049,74.3506872 51.5142371,70.7388074 46.5217065,70.7388074 C41.5305498,70.7388074 37.4681081,74.3506872 37.4681081,78.7880622 L37.4681081,80.0317181 C37.4681081,80.3686825 37.3183597,80.6880544 37.0573303,80.9072843 C36.7976748,81.1251609 36.4514674,81.2253029 36.1148768,81.1671123 C35.4100975,81.065617 34.7671409,81.5433216 34.7671409,82.1211682 L34.7671409,85.2945883 C34.7671409,85.8913807 35.5021447,86.3555526 36.1753257,86.2418778 C36.4899349,86.1850404 36.8100393,86.2608236 37.068321,86.4462217 C37.3238551,86.6316198 37.4914634,86.9117469 37.5340524,87.2216459 C37.9008674,89.9336006 39.772036,92.2761124 42.5375737,93.4859365 C42.9607161,93.6699813 43.2313623,94.0827289 43.2313623,94.5374279 L43.2313623,99.3455991 C43.2313623,99.9816364 42.7093036,100.495879 42.0635993,100.495879 L37.7236422,100.495879 C32.9316921,100.495879 29.0313635,103.960253 29.0313635,108.220349 L29.0313635,113.684857 Z M65.150962,115.984064 L27.8636004,115.984064 C27.2192699,115.984064 26.6972112,115.469821 26.6972112,114.835137 L26.6972112,108.220349 C26.6972112,102.692238 31.6430312,98.1966722 37.7236422,98.1966722 L40.8972101,98.1966722 L40.8972101,95.2587212 C38.0863357,93.8080149 36.10526,91.3734807 35.4087236,88.5221391 C33.7243971,88.2812569 32.4329886,86.9252796 32.4329886,85.2945883 L32.4329886,82.1211682 C32.4329886,80.5797927 33.5842656,79.2860658 35.132582,78.9423351 L35.132582,78.7880622 C35.132582,73.0813192 40.2418889,68.438247 46.5217065,68.438247 C52.802898,68.438247 57.910831,73.0813192 57.910831,78.7880622 L57.910831,78.9491014 C59.4440352,79.3023051 60.5829477,80.5906189 60.5829477,82.1211682 L60.5829477,85.2945883 C60.5829477,86.9158067 59.3052775,88.2636644 57.6360632,88.5180793 C56.9367792,91.3816004 54.9447128,93.8229009 52.1173524,95.2709007 L52.1173524,98.1966722 L55.2950417,98.1966722 C61.3742789,98.1966722 66.3187251,102.692238 66.3187251,108.220349 L66.3187251,114.835137 C66.3187251,115.469821 65.7966663,115.984064 65.150962,115.984064 L65.150962,115.984064 Z" fill="#7692C4"></path><path d="M65.130965,113.684857 L100.082801,113.684857 L100.082801,108.220349 C100.082801,103.960253 96.1852196,100.495879 91.3932695,100.495879 L87.0505647,100.495879 C86.4048604,100.495879 85.8828017,99.9816364 85.8828017,99.3455991 L85.8828017,94.5469008 C85.8828017,94.0908485 86.1561956,93.6794542 86.579338,93.4940561 C89.3613618,92.2869385 91.2393995,89.9444268 91.6062145,87.227059 C91.6474297,86.9185132 91.8136642,86.6397394 92.0664506,86.4543413 C92.3206108,86.2689432 92.6448367,86.1918068 92.9512028,86.2432311 C93.6367484,86.3623189 94.3497708,85.8886741 94.3497708,85.2945883 L94.3497708,82.1211682 C94.3497708,81.5392617 93.6820851,81.0723833 92.9896703,81.1684655 C92.659949,81.2022973 92.3219846,81.1075684 92.0705721,80.8896918 C91.8205334,80.6704619 91.6762803,80.3565031 91.6762803,80.026305 L91.6762803,78.7880622 C91.6762803,74.3506872 87.6152125,70.7388074 82.6226819,70.7388074 C77.6315252,70.7388074 73.5690836,74.3506872 73.5690836,78.7880622 L73.5690836,80.0317181 C73.5690836,80.3686825 73.4193351,80.6880544 73.1583058,80.9072843 C72.8972764,81.1251609 72.5551905,81.2253029 72.2158523,81.1671123 C71.5096991,81.0615572 70.8667425,81.5433216 70.8667425,82.1211682 L70.8667425,85.2945883 C70.8667425,85.8913807 71.5852602,86.3582591 72.2735535,86.2418778 C72.5867888,86.1850404 72.9096409,86.2608236 73.1665488,86.4462217 C73.4220828,86.6316198 73.591065,86.9117469 73.633654,87.2216459 C74.000469,89.9336006 75.8716376,92.2747591 78.6385491,93.4859365 C79.0616915,93.6699813 79.3323378,94.0827289 79.3323378,94.5374279 L79.3323378,99.3455991 C79.3323378,99.9816364 78.810279,100.495879 78.1645747,100.495879 L73.8246176,100.495879 C69.0312937,100.495879 65.130965,103.960253 65.130965,108.220349 L65.130965,113.684857 Z M101.250564,115.984064 L63.963202,115.984064 C63.3188715,115.984064 62.7968127,115.469821 62.7968127,114.835137 L62.7968127,108.220349 C62.7968127,102.692238 67.7426328,98.1966722 73.8246176,98.1966722 L76.9981855,98.1966722 L76.9981855,95.2587212 C74.1873111,93.8080149 72.2048616,91.3721275 71.5083252,88.5221391 C69.8239987,88.2799037 68.5325902,86.9252796 68.5325902,85.2945883 L68.5325902,82.1211682 C68.5325902,80.5797927 69.685241,79.2860658 71.2335574,78.9423351 L71.2335574,78.7880622 C71.2335574,73.0813192 76.3428643,68.438247 82.6226819,68.438247 C88.9038734,68.438247 94.0104326,73.0813192 94.0104326,78.7880622 L94.0104326,78.9491014 C95.5450107,79.3023051 96.6839231,80.5892656 96.6839231,82.1211682 L96.6839231,85.2945883 C96.6839231,86.91716 95.4048791,88.266371 93.734291,88.5180793 C93.0363808,91.3802471 91.0456883,93.8229009 88.2183278,95.272254 L88.2183278,98.1966722 L91.3932695,98.1966722 C97.4725066,98.1966722 102.418327,102.692238 102.418327,108.220349 L102.418327,114.835137 C102.418327,115.469821 101.896268,115.984064 101.250564,115.984064 L101.250564,115.984064 Z" fill="#7692C4"></path><path d="M102.991523,113.684857 L137.943358,113.684857 L137.943358,108.220349 C137.943358,103.960253 134.045777,100.495879 129.253827,100.495879 L124.911123,100.495879 C124.265418,100.495879 123.743359,99.9816364 123.743359,99.3455991 L123.743359,94.5469008 C123.743359,94.0908485 124.016753,93.6794542 124.439896,93.4940561 C127.220546,92.2882918 129.099957,89.9444268 129.466772,87.2257057 C129.509361,86.9185132 129.675596,86.6397394 129.928382,86.4543413 C130.181169,86.2689432 130.498525,86.1891003 130.811761,86.2432311 C131.509671,86.3501395 132.208955,85.8886741 132.208955,85.2945883 L132.208955,82.1211682 C132.208955,81.5392617 131.555007,81.0723833 130.848854,81.1684655 C130.519133,81.2022973 130.181169,81.1075684 129.93113,80.8896918 C129.679717,80.6704619 129.535464,80.3565031 129.535464,80.026305 L129.535464,78.7880622 C129.535464,74.3506872 125.473023,70.7388074 120.480492,70.7388074 C115.489335,70.7388074 111.428268,74.3506872 111.428268,78.7880622 L111.428268,80.0317181 C111.428268,80.3686825 111.277145,80.6894077 111.01749,80.9072843 C110.753713,81.1265142 110.410253,81.2225964 110.072289,81.1671123 C109.370257,81.0602039 108.7273,81.5446748 108.7273,82.1211682 L108.7273,85.2945883 C108.7273,85.8913807 109.44307,86.3582591 110.134111,86.2418778 C110.44872,86.1850404 110.770199,86.2608236 111.027107,86.4462217 C111.282641,86.6316198 111.451623,86.9117469 111.494212,87.2216459 C111.861027,89.9336006 113.732195,92.2747591 116.499107,93.4859365 C116.922249,93.6699813 117.192896,94.0827289 117.192896,94.5374279 L117.192896,99.3455991 C117.192896,99.9816364 116.670837,100.495879 116.025132,100.495879 L111.683802,100.495879 C106.891851,100.495879 102.991523,103.960253 102.991523,108.220349 L102.991523,113.684857 Z M139.111121,115.984064 L101.82376,115.984064 C101.179429,115.984064 100.657371,115.469821 100.657371,114.835137 L100.657371,108.220349 C100.657371,102.692238 105.603191,98.1966722 111.683802,98.1966722 L114.858743,98.1966722 L114.858743,95.2587212 C112.047869,93.8080149 110.065419,91.3721275 109.368883,88.5221391 C107.684557,88.2799037 106.393148,86.9252796 106.393148,85.2945883 L106.393148,82.1211682 C106.393148,80.581146 107.544425,79.2860658 109.092741,78.9423351 L109.092741,78.7880622 C109.092741,73.0813192 114.200674,68.438247 120.480492,68.438247 C126.761684,68.438247 131.87099,73.0813192 131.87099,78.7880622 L131.87099,78.9491014 C133.404195,79.3009518 134.543107,80.5892656 134.543107,82.1211682 L134.543107,85.2945883 C134.543107,86.91716 133.265437,88.2650177 131.594849,88.5180793 C130.896939,91.3816004 128.904872,93.8229009 126.078886,95.2709007 L126.078886,98.1966722 L129.253827,98.1966722 C135.333064,98.1966722 140.278884,102.692238 140.278884,108.220349 L140.278884,114.835137 C140.278884,115.469821 139.756826,115.984064 139.111121,115.984064 L139.111121,115.984064 Z" fill="#7692C4"></path><path d="M30.7735056,126.12401 L26.3645,126.12401 L26.3645,121.080812 C29.4812809,119.680537 31.7311606,116.878607 32.1659657,113.547776 C32.3014191,113.56849 32.4341633,113.585061 32.5723257,113.585061 C33.8902865,113.585061 34.9617223,112.586641 34.9617223,111.358984 L34.9617223,108.022629 C34.9617223,106.794972 33.8902865,105.799313 32.5723257,105.799313 C32.4626085,105.799313 32.3528913,105.80898 32.2458832,105.821408 L32.2458832,104.521942 C32.2458832,99.1832223 27.5998343,94.8525896 21.8660952,94.8525896 C16.1364197,94.8525896 11.4903708,99.1832223 11.4903708,104.521942 L11.4903708,105.826932 C11.3752355,105.810361 11.2560366,105.799313 11.1354831,105.799313 C9.8175223,105.799313 8.74744106,106.794972 8.74744106,108.022629 L8.74744106,111.358984 C8.74744106,112.586641 9.8175223,113.585061 11.1354831,113.585061 C11.2831272,113.585061 11.4280623,113.56849 11.5675792,113.545014 C12.0037389,116.864798 14.2427823,119.665347 17.3446633,121.068384 L17.3446633,126.12401 L12.9356577,126.12401 C7.40780772,126.12401 2.92430279,130.298597 2.92430279,135.448128 L2.92430279,142.398406 L40.7848606,142.398406 L40.7848606,135.448128 C40.7848606,130.298597 36.3000011,126.12401 30.7735056,126.12401" fill="#D3E6FA"></path><path d="M68.6350598,126.12401 L64.2258964,126.12401 L64.2258964,121.080812 C67.3427888,119.680537 69.5913944,116.878607 70.0275697,113.547776 C70.1630279,113.56849 70.2957769,113.585061 70.4352988,113.585061 C71.7533068,113.585061 72.8220717,112.586641 72.8220717,111.358984 L72.8220717,108.022629 C72.8220717,106.794972 71.7533068,105.799313 70.4352988,105.799313 C70.3242231,105.799313 70.2131474,105.80898 70.10749,105.821408 L70.10749,104.521942 C70.10749,99.1832223 65.4612749,94.8525896 59.7286853,94.8525896 C53.9960956,94.8525896 49.3498805,99.1832223 49.3498805,104.521942 L49.3498805,105.826932 C49.2333865,105.810361 49.1155378,105.799313 48.9976892,105.799313 C47.6796813,105.799313 46.6095618,106.794972 46.6095618,108.022629 L46.6095618,111.358984 C46.6095618,112.586641 47.6796813,113.585061 48.9976892,113.585061 C49.1426295,113.585061 49.2902789,113.56849 49.4298008,113.545014 C49.8646215,116.864798 52.1023904,119.665347 55.2043825,121.068384 L55.2043825,126.12401 L50.7952191,126.12401 C45.2658167,126.12401 40.7848606,130.298597 40.7848606,135.448128 L40.7848606,142.398406 L78.6454183,142.398406 L78.6454183,135.448128 C78.6454183,130.298597 74.161753,126.12401 68.6350598,126.12401" fill="#FFFFFF"></path><path d="M107.375737,126.12401 L102.967771,126.12401 L102.967771,121.080812 C106.082066,119.680537 108.334816,116.878607 108.769652,113.547776 C108.902406,113.56849 109.037869,113.585061 109.174686,113.585061 C110.495451,113.585061 111.562899,112.586641 111.562899,111.358984 L111.562899,108.022629 C111.562899,106.794972 110.495451,105.799313 109.174686,105.799313 C109.064961,105.799313 108.956591,105.80898 108.84822,105.821408 L108.84822,104.521942 C108.84822,99.1832223 104.204548,94.8525896 98.4717535,94.8525896 C92.7362495,94.8525896 88.0925774,99.1832223 88.0925774,104.521942 L88.0925774,105.826932 C87.9747246,105.810361 87.8582264,105.799313 87.7376643,105.799313 C86.4168999,105.799313 85.3494514,106.794972 85.3494514,108.022629 L85.3494514,111.358984 C85.3494514,112.586641 86.4168999,113.585061 87.7376643,113.585061 C87.885319,113.585061 88.0302644,113.56849 88.1697913,113.545014 C88.603273,116.864798 90.8438312,119.665347 93.9459342,121.068384 L93.9459342,126.12401 L89.5366131,126.12401 C84.0083675,126.12401 79.5258964,130.298597 79.5258964,135.448128 L79.5258964,142.398406 L117.386454,142.398406 L117.386454,135.448128 C117.386454,130.298597 112.905338,126.12401 107.375737,126.12401" fill="#FFFFFF"></path><path d="M3.53471889,140.960187 L40.1744445,140.960187 L40.1744445,135.250106 C40.1744445,130.810599 36.0779302,127.195397 31.0448705,127.195397 L26.5017176,127.195397 C25.8457171,127.195397 25.3153336,126.676795 25.3153336,126.035366 L25.3153336,121.051327 C25.3153336,120.591409 25.5930871,120.176528 26.0229768,119.989558 C28.944273,118.73263 30.9178577,116.288377 31.3044793,113.453807 C31.3463517,113.144011 31.5138412,112.864239 31.7692627,112.677269 C32.0274756,112.491664 32.349893,112.415238 32.6639358,112.460275 C33.4218258,112.576278 34.1741328,112.082241 34.1741328,111.443542 L34.1741328,108.146325 C34.1741328,107.518543 33.4511365,107.050437 32.6932464,107.124133 C32.3582674,107.16371 32.0218927,107.054531 31.7706584,106.836172 C31.5194241,106.615084 31.3756623,106.301193 31.3756623,105.970925 L31.3756623,104.688068 C31.3756623,100.057497 27.1102629,96.2921734 21.8664455,96.2921734 C16.6254197,96.2921734 12.3600202,100.057497 12.3600202,104.688068 L12.3600202,105.976384 C12.3600202,106.312111 12.2134669,106.631461 11.9538581,106.851184 C11.6942494,107.072272 11.3508959,107.175993 11.0117297,107.125497 C10.2859418,107.039519 9.53503051,107.517178 9.53503051,108.146325 L9.53503051,111.443542 C9.53503051,112.086335 10.3082737,112.588561 11.0563935,112.460275 C11.3760193,112.405685 11.7012281,112.483475 11.9580454,112.670445 C12.2176541,112.85605 12.3879351,113.138552 12.4312032,113.451078 C12.8164291,116.278824 14.7830351,118.718983 17.688978,119.97864 C18.117472,120.16561 18.3938297,120.580491 18.3938297,121.039045 L18.3938297,126.035366 C18.3938297,126.676795 17.8634463,127.195397 17.2074457,127.195397 L12.6642928,127.195397 C7.6312331,127.195397 3.53471889,130.810599 3.53471889,135.250106 L3.53471889,140.960187 Z M41.3608285,143.278884 L2.34833488,143.278884 C1.69373005,143.278884 1.16334661,142.760282 1.16334661,142.120218 L1.16334661,135.250106 C1.16334661,129.530471 6.32202345,124.8767 12.6642928,124.8767 L16.0210617,124.8767 L16.0210617,121.767817 C13.0732464,120.266601 10.9963765,117.732274 10.2705886,114.768054 C8.51334451,114.527859 7.16365823,113.127634 7.16365823,111.443542 L7.16365823,108.146325 C7.16365823,106.555035 8.37237417,105.220317 9.98864792,104.876402 L9.98864792,104.688068 C9.98864792,98.7800985 15.31621,93.9721116 21.8664455,93.9721116 C28.4180768,93.9721116 33.7470346,98.7800985 33.7470346,104.688068 L33.7470346,104.881861 C35.3521424,105.235329 36.5455051,106.564588 36.5455051,108.146325 L36.5455051,111.443542 C36.5455051,113.119445 35.2083805,114.511482 33.4650939,114.76396 C32.7407018,117.739098 30.6540617,120.281613 27.6881017,121.781464 L27.6881017,124.8767 L31.0448705,124.8767 C37.3871399,124.8767 42.5458167,129.530471 42.5458167,135.250106 L42.5458167,142.120218 C42.5458167,142.760282 42.0154333,143.278884 41.3608285,143.278884 L41.3608285,143.278884 Z" fill="#7692C4"></path><path d="M41.3953566,140.960187 L78.0349222,140.960187 L78.0349222,135.250106 C78.0349222,130.810599 73.9396656,127.195397 68.9064362,127.195397 L64.36313,127.195397 C63.7071074,127.195397 63.176706,126.676795 63.176706,126.035366 L63.176706,121.051327 C63.176706,120.591409 63.4544688,120.176528 63.8843731,119.989558 C66.804372,118.73263 68.7780232,116.288377 69.1660537,113.453807 C69.2079275,113.144011 69.3768184,112.864239 69.6308527,112.675904 C69.8890744,112.491664 70.2128984,112.415238 70.525556,112.460275 C71.2681179,112.576278 72.0344082,112.083606 72.0344082,111.443542 L72.0344082,108.146325 C72.0344082,107.517178 71.294638,107.039519 70.5562635,107.124133 C70.222669,107.16371 69.8834913,107.054531 69.6322485,106.836172 C69.3810058,106.616449 69.2372391,106.301193 69.2372391,105.970925 L69.2372391,104.688068 C69.2372391,100.057497 64.9716958,96.2921734 59.7290974,96.2921734 C54.486499,96.2921734 50.2195598,100.057497 50.2195598,104.688068 L50.2195598,105.976384 C50.2195598,106.310746 50.0730016,106.630096 49.8133841,106.851184 C49.557954,107.070908 49.2201721,107.177358 48.8726196,107.125497 C48.1160998,107.029965 47.3972664,107.518543 47.3972664,108.146325 L47.3972664,111.443542 C47.3972664,112.084971 48.162161,112.592655 48.9186808,112.460275 C49.2397132,112.405685 49.5635371,112.483475 49.820363,112.670445 C50.0813763,112.85605 50.2516631,113.138552 50.2935369,113.451078 C50.6773799,116.278824 52.6440522,118.718983 55.5486974,119.97864 C55.9772059,120.16561 56.2535729,120.580491 56.2535729,121.039045 L56.2535729,126.035366 C56.2535729,126.676795 55.7231715,127.195397 55.0671488,127.195397 L50.5238427,127.195397 C45.4906132,127.195397 41.3953566,130.810599 41.3953566,135.250106 L41.3953566,140.960187 Z M79.2213463,143.278884 L40.2089326,143.278884 C39.5543057,143.278884 39.0239044,142.760282 39.0239044,142.120218 L39.0239044,135.250106 C39.0239044,129.530471 44.1827552,124.8767 50.5238427,124.8767 L53.8807248,124.8767 L53.8807248,121.767817 C50.93281,120.266601 48.8572659,117.732274 48.1328493,114.768054 C46.375546,114.526495 45.0258142,113.127634 45.0258142,111.443542 L45.0258142,108.146325 C45.0258142,106.5564 46.2331751,105.221682 47.8481076,104.876402 L47.8481076,104.688068 C47.8481076,98.7800985 53.1772451,93.9721116 59.7290974,93.9721116 C66.2795538,93.9721116 71.6086914,98.7800985 71.6086914,104.688068 L71.6086914,104.880496 C73.2124575,105.233965 74.4058605,106.564588 74.4058605,108.146325 L74.4058605,111.443542 C74.4058605,113.119445 73.0686908,114.512847 71.3267412,114.76396 C70.6009289,117.740463 68.5142184,120.281613 65.5495541,121.781464 L65.5495541,124.8767 L68.9064362,124.8767 C75.2475237,124.8767 80.4063745,129.530471 80.4063745,135.250106 L80.4063745,142.120218 C80.4063745,142.760282 79.8759732,143.278884 79.2213463,143.278884 L79.2213463,143.278884 Z" fill="#7692C4"></path><path d="M80.1364725,140.960187 L116.775878,140.960187 L116.775878,135.250106 C116.775878,130.810599 112.680483,127.195397 107.647084,127.195397 L103.105021,127.195397 C102.448976,127.195397 101.918557,126.676795 101.918557,126.035366 L101.918557,121.051327 C101.918557,120.591409 102.196329,120.176528 102.626247,119.990923 C105.547741,118.731266 107.521459,116.287012 107.908106,113.453807 C107.949981,113.142646 108.118878,112.862874 108.374317,112.675904 C108.631151,112.488934 108.961965,112.408415 109.270446,112.46164 C110.031179,112.56536 110.775162,112.079512 110.775162,111.443542 L110.775162,108.146325 C110.775162,107.517178 110.047929,107.053166 109.294175,107.124133 C108.957778,107.16371 108.624172,107.054531 108.372921,106.834807 C108.12167,106.615084 107.977898,106.301193 107.977898,105.970925 L107.977898,104.688068 C107.977898,100.057497 103.713607,96.2921734 98.4722275,96.2921734 C93.2294522,96.2921734 88.9623692,100.057497 88.9623692,104.688068 L88.9623692,105.976384 C88.9623692,106.310746 88.815806,106.630096 88.5575755,106.849819 C88.2993451,107.070908 87.951781,107.171899 87.6181752,107.126862 C86.8588382,107.025871 86.1371889,107.517178 86.1371889,108.146325 L86.1371889,111.443542 C86.1371889,112.086335 86.9104843,112.588561 87.6586546,112.460275 C87.9824894,112.405685 88.3035327,112.483475 88.5603672,112.670445 C88.8213893,112.857415 88.9916818,113.138552 89.033557,113.451078 C89.417413,116.277459 91.3827558,118.717618 94.2902907,119.97864 C94.7188136,120.16561 94.9951899,120.580491 94.9951899,121.039045 L94.9951899,126.035366 C94.9951899,126.676795 94.4647707,127.195397 93.8087258,127.195397 L89.2652665,127.195397 C84.2318672,127.195397 80.1364725,130.810599 80.1364725,135.250106 L80.1364725,140.960187 Z M117.962342,143.278884 L78.9500084,143.278884 C78.2953595,143.278884 77.7649402,142.760282 77.7649402,142.120218 L77.7649402,135.250106 C77.7649402,129.530471 82.9239651,124.8767 89.2652665,124.8767 L92.6222618,124.8767 L92.6222618,121.767817 C89.6728518,120.266601 87.5958417,117.732274 86.8727966,114.768054 C85.115434,114.526495 83.7656566,113.127634 83.7656566,111.443542 L83.7656566,108.146325 C83.7656566,106.555035 84.9744541,105.220317 86.5908369,104.876402 L86.5908369,104.688068 C86.5908369,98.7800985 91.9201542,93.9721116 98.4722275,93.9721116 C105.021509,93.9721116 110.350826,98.7800985 110.350826,104.688068 L110.350826,104.881861 C111.953251,105.235329 113.146694,106.564588 113.146694,108.146325 L113.146694,111.443542 C113.146694,113.119445 111.810875,114.510118 110.068867,114.76396 C109.345821,117.739098 107.257645,120.280248 104.291485,121.781464 L104.291485,124.8767 L107.647084,124.8767 C113.988386,124.8767 119.14741,129.530471 119.14741,135.250106 L119.14741,142.120218 C119.14741,142.760282 118.616991,143.278884 117.962342,143.278884 L117.962342,143.278884 Z" fill="#7692C4"></path><path d="M94.248763,36.4813883 C94.1133169,36.4813883 93.9835144,36.4937458 93.8537118,36.5102224 L93.8537118,34.8666797 C93.8537118,28.1208776 88.2355201,22.6533865 81.3023725,22.6533865 C74.3706357,22.6533865 68.752444,28.1208776 68.752444,34.8666797 L68.752444,36.5143415 C68.6113543,36.4951188 68.4702646,36.4813883 68.3235313,36.4813883 C66.7292177,36.4813883 65.438247,37.7404765 65.438247,39.2892786 L65.438247,43.5031738 C65.438247,45.056095 66.7292177,46.3124372 68.3235313,46.3124372 C68.5041261,46.3124372 68.6776664,46.2932144 68.8497959,46.2643804 C69.6032148,52.3071801 74.8884349,56.9920319 81.3023725,56.9920319 C87.71631,56.9920319 93.0001192,52.3071801 93.7563599,46.2684995 C93.9186131,46.2945875 94.0794553,46.3124372 94.248763,46.3124372 C95.8430765,46.3124372 97.1354582,45.056095 97.1354582,43.5031738 L97.1354582,39.2892786 C97.1354582,37.7404765 95.8430765,36.4813883 94.248763,36.4813883" fill="#FFFFFF"></path><path d="M70.7244312,44.7021296 C70.9684437,44.7021296 71.2070637,44.7824368 71.4065877,44.933359 C71.658689,45.1258193 71.8231615,45.4165868 71.8622574,45.7364309 C72.5214956,51.3122427 77.1482959,55.5186783 82.6230733,55.5186783 C88.0978507,55.5186783 92.7233029,51.3150119 93.3865854,45.7405848 C93.4243332,45.4207406 93.5874576,45.1313578 93.8395589,44.9388974 C94.090312,44.746437 94.4071238,44.6730529 94.7171949,44.7228987 C95.6501046,44.8918208 96.6059325,44.1053641 96.6059325,43.0946011 L96.6059325,38.8452427 C96.6059325,37.8510949 95.694593,37.0992534 94.7603353,37.2086374 C94.4327384,37.2501756 94.1064897,37.1477147 93.8584328,36.924793 C93.611724,36.7018713 93.4701698,36.3792579 93.4701698,36.0414138 L93.4701698,34.385424 C93.4701698,28.2419234 88.6047496,23.2448773 82.6230733,23.2448773 C76.6427451,23.2448773 71.7759767,28.2419234 71.7759767,34.385424 L71.7759767,36.0469522 C71.7759767,36.3889501 71.6317263,36.7129481 71.379625,36.938639 C71.1288718,37.1615607 70.8012749,37.2598678 70.4642411,37.2114066 C69.5353759,37.0687921 68.6105551,37.8469411 68.6105551,38.8452427 L68.6105551,43.0946011 C68.6105551,44.1136717 69.5690793,44.8835131 70.5262553,44.7201295 C70.5909658,44.7076681 70.6583726,44.7021296 70.7244312,44.7021296 M82.6230733,57.87251 C76.3394147,57.87251 70.9792288,53.3005381 69.7524257,47.0753458 C67.8218959,46.8371934 66.3187251,45.1424346 66.3187251,43.0946011 L66.3187251,38.8452427 C66.3187251,36.892947 67.683038,35.2632647 69.4854949,34.9088054 L69.4854949,34.385424 C69.4854949,26.9445468 75.3781942,20.8924303 82.6230733,20.8924303 C89.8679523,20.8924303 95.7606517,26.9445468 95.7606517,34.385424 L95.7606517,34.9143438 C97.5469309,35.2812646 98.8964143,36.9040239 98.8964143,38.8452427 L98.8964143,43.0946011 C98.8964143,45.1313578 97.4121174,46.8164243 95.4964171,47.0711919 C94.2709622,53.2977689 88.9067319,57.87251 82.6230733,57.87251" fill="#0071DC"></path><path d="M104.768941,74.6015936 C104.121282,74.6015936 103.597642,74.0947185 103.597642,73.467794 C103.597642,67.7841229 98.8201234,63.1582202 92.9457179,63.1582202 L87.7410194,63.1582202 C87.0933604,63.1582202 86.5697211,62.6513451 86.5697211,62.0244206 L86.5697211,55.4843973 C86.5697211,54.8574728 87.0933604,54.3505976 87.7410194,54.3505976 C88.3873005,54.3505976 88.9109397,54.8574728 88.9109397,55.4843973 L88.9109397,60.8919548 L92.9457179,60.8919548 C100.111307,60.8919548 105.940239,66.5329416 105.940239,73.467794 C105.940239,74.0947185 105.4166,74.6015936 104.768941,74.6015936" fill="#0071DC"></path><path d="M60.4461154,74.6015936 C59.7985024,74.6015936 59.2749004,74.0947185 59.2749004,73.467794 C59.2749004,66.5329416 65.1034173,60.8919548 72.2657414,60.8919548 L76.3043663,60.8919548 L76.3043663,55.4843973 C76.3043663,54.8574728 76.8279683,54.3505976 77.4742033,54.3505976 C78.1218163,54.3505976 78.6454183,54.8574728 78.6454183,55.4843973 L78.6454183,62.0244206 C78.6454183,62.6513451 78.1218163,63.1582202 77.4742033,63.1582202 L72.2657414,63.1582202 C66.3931317,63.1582202 61.6173304,67.7841229 61.6173304,73.467794 C61.6173304,74.0947185 61.0937284,74.6015936 60.4461154,74.6015936" fill="#0071DC"></path><path d="M52.2329145,26.4985563 C50.4688937,26.4985563 49.032179,27.9342116 49.032179,29.6984372 C49.032179,31.4614367 50.4688937,32.8958661 52.2329145,32.8958661 C53.9957095,32.8958661 55.4299724,31.4614367 55.4299724,29.6984372 C55.4299724,27.9342116 53.9957095,26.4985563 52.2329145,26.4985563 M52.2329145,34.9800797 C49.3190316,34.9800797 46.9482072,32.6102062 46.9482072,29.6984372 C46.9482072,26.7842161 49.3190316,24.4143426 52.2329145,24.4143426 C55.1443457,24.4143426 57.5139442,26.7842161 57.5139442,29.6984372 C57.5139442,32.6102062 55.1443457,34.9800797 52.2329145,34.9800797" fill="#99A9C6"></path><path d="M117.386454,24.8551491 C117.386454,26.5574175 116.006736,27.936255 114.303646,27.936255 C112.601691,27.936255 111.223108,26.5574175 111.223108,24.8551491 C111.223108,23.1540155 112.601691,21.7729084 114.303646,21.7729084 C116.006736,21.7729084 117.386454,23.1540155 117.386454,24.8551491" fill="#FFFFFF"></path><path d="M111.223108,33.6615124 C111.223108,34.3910241 110.631186,34.9800797 109.903107,34.9800797 C109.173595,34.9800797 108.581673,34.3910241 108.581673,33.6615124 C108.581673,32.9320007 109.173595,32.3386454 109.903107,32.3386454 C110.631186,32.3386454 111.223108,32.9320007 111.223108,33.6615124" fill="#FFFFFF"></path><path d="M14.3705179,38.9428904 C14.3705179,41.1306785 12.5947675,42.9043825 10.4077074,42.9043825 C8.21932897,42.9043825 6.44621514,41.1306785 6.44621514,38.9428904 C6.44621514,36.7537837 8.21932897,34.9800797 10.4077074,34.9800797 C12.5947675,34.9800797 14.3705179,36.7537837 14.3705179,38.9428904" fill="#FFFFFF"></path><path d="M149.685873,123.908367 L123.826707,123.908367 C123.187351,123.908367 122.669323,123.317581 122.669323,122.586872 C122.669323,121.857718 123.187351,121.266932 123.826707,121.266932 L149.685873,121.266932 C150.326593,121.266932 150.844622,121.857718 150.844622,122.586872 C150.844622,123.317581 150.326593,123.908367 149.685873,123.908367" fill="#D3E6FA"></path><path d="M139.105374,131.832669 L127.363365,131.832669 C126.714483,131.832669 126.191235,131.241884 126.191235,130.511175 C126.191235,129.782021 126.714483,129.191235 127.363365,129.191235 L139.105374,129.191235 C139.754256,129.191235 140.278884,129.782021 140.278884,130.511175 C140.278884,131.241884 139.754256,131.832669 139.105374,131.832669" fill="#D3E6FA"></path><path d="M153.230372,93.9721116 L143.176003,93.9721116 C142.547772,93.9721116 142.039841,93.3813258 142.039841,92.6506171 C142.039841,91.9214631 142.547772,91.3306773 143.176003,91.3306773 L153.230372,91.3306773 C153.858602,91.3306773 154.366534,91.9214631 154.366534,92.6506171 C154.366534,93.3813258 153.858602,93.9721116 153.230372,93.9721116" fill="#D3E6FA"></path><path d="M13.1967773,82.5258964 L1.45660916,82.5258964 C0.807599635,82.5258964 0.282868526,81.9351106 0.282868526,81.2044019 C0.282868526,80.4752479 0.807599635,79.8844622 1.45660916,79.8844622 L13.1967773,79.8844622 C13.8457868,79.8844622 14.3705179,80.4752479 14.3705179,81.2044019 C14.3705179,81.9351106 13.8457868,82.5258964 13.1967773,82.5258964" fill="#7692C4"></path><path d="M7.76693227,88.689243 C7.03665339,88.689243 6.44621514,88.1645633 6.44621514,87.5156174 L6.44621514,75.7738385 C6.44621514,75.1262733 7.03665339,74.6015936 7.76693227,74.6015936 C8.49721116,74.6015936 9.0876494,75.1262733 9.0876494,75.7738385 L9.0876494,87.5156174 C9.0876494,88.1645633 8.49721116,88.689243 7.76693227,88.689243" fill="#7692C4"></path><path d="M30.8011494,4.16334661 L13.7871051,4.16334661 C13.1366129,4.16334661 12.6095618,3.57256085 12.6095618,2.84185213 C12.6095618,2.11269812 13.1366129,1.52191235 13.7871051,1.52191235 L30.8011494,1.52191235 C31.4530285,1.52191235 31.9800797,2.11269812 31.9800797,2.84185213 C31.9800797,3.57256085 31.4530285,4.16334661 30.8011494,4.16334661" fill="#7692C4"></path><path d="M45.7878872,4.16334661 L38.4219031,4.16334661 C37.7816795,4.16334661 37.2629482,3.57256085 37.2629482,2.84185213 C37.2629482,2.11269812 37.7816795,1.52191235 38.4219031,1.52191235 L45.7878872,1.52191235 C46.4294759,1.52191235 46.9482072,2.11269812 46.9482072,2.84185213 C46.9482072,3.57256085 46.4294759,4.16334661 45.7878872,4.16334661" fill="#7692C4"></path><path d="M86.5697211,47.3067729 C86.5697211,49.7384563 84.4019434,51.7091633 81.7285446,51.7091633 C79.0522399,51.7091633 76.8844622,49.7384563 76.8844622,47.3067729 L86.5697211,47.3067729 Z" fill="#0071DC"></path><path d="M121.741455,0.641434263 L149.964143,0.641434263 L149.964143,10.6608174 L149.964143,19.9653942 C149.964143,25.4984262 144.861023,29.986121 138.566676,29.986121 L125.152138,29.986121 L115.466125,38.501992 L115.466125,29.986121 L110.342629,29.986121 L110.342629,19.9653942 L110.342629,10.6608174 C110.342629,5.1277854 115.44575,0.641434263 121.741455,0.641434263" fill="#0071DC"></path><path d="M139.047488,14.7290837 L121.259285,14.7290837 C120.577912,14.7290837 120.027888,14.1382979 120.027888,13.4075892 C120.027888,12.6784352 120.577912,12.0876494 121.259285,12.0876494 L139.047488,12.0876494 C139.728861,12.0876494 140.278884,12.6784352 140.278884,13.4075892 C140.278884,14.1382979 139.728861,14.7290837 139.047488,14.7290837" fill="#FFFFFF"></path><path d="M139.047488,20.0119522 L121.259285,20.0119522 C120.577912,20.0119522 120.027888,19.4211664 120.027888,18.6904577 C120.027888,17.9613037 120.577912,17.3705179 121.259285,17.3705179 L139.047488,17.3705179 C139.728861,17.3705179 140.278884,17.9613037 140.278884,18.6904577 C140.278884,19.4211664 139.728861,20.0119522 139.047488,20.0119522" fill="#FFFFFF"></path><path d="M30.8011494,4.16334661 L13.7871051,4.16334661 C13.1366129,4.16334661 12.6095618,3.57256085 12.6095618,2.84185213 C12.6095618,2.11269812 13.1366129,1.52191235 13.7871051,1.52191235 L30.8011494,1.52191235 C31.4530285,1.52191235 31.9800797,2.11269812 31.9800797,2.84185213 C31.9800797,3.57256085 31.4530285,4.16334661 30.8011494,4.16334661" fill="#7692C4"></path></svg>