<svg xmlns="http://www.w3.org/2000/svg" xmlns:xlink="http://www.w3.org/1999/xlink" width="60px" height="63px" viewBox="0 0 60 63"><path d="M3.35025381,36.4203046 C3.35025381,36.0845178 3.69944162,35.786802 4.03553299,35.786802 L8.50812183,35.786802 C8.80232768,35.7915389 9.08036245,35.6525215 9.25309645,35.4143147 C11.2860914,32.5513706 14.3642132,30.2061929 18.1547208,28.6195431 C18.3760964,28.5281588 18.552398,28.3530066 18.6452284,28.1322335 C19.6160059,25.8113079 19.7749926,23.2306576 19.0964467,20.8081218 C21.2170922,21.0878625 23.1853939,22.0620265 24.6939594,23.5784772 C25.4184678,24.2852514 26.025132,25.1034769 26.4909137,26.0020812 C26.6553126,26.326685 26.996795,26.522647 27.36,26.5008122 C27.7694924,26.4762944 31.8814721,26.4883249 34.5501015,26.5024873 C40.3735605,26.5052186 45.7886088,29.4947346 48.8937563,34.421269 C46.3924736,27.8282744 40.0787786,23.4655288 33.0272589,23.4575635 C30.3586294,23.443401 26.2466497,23.4313706 25.8371574,23.4558883 C25.4739524,23.4777231 25.1324699,23.2817612 24.9680711,22.9571574 C24.5022894,22.058553 23.8956252,21.2403276 23.1711168,20.5335533 C21.6627447,19.0165999 19.694422,18.0419436 17.5736041,17.7618274 C18.2523271,20.1846001 18.0933385,22.7655492 17.1223858,25.0867005 C17.0295554,25.3074736 16.8532538,25.4826258 16.6318782,25.5740102 C12.8413706,27.1600508 9.76385787,29.5056853 7.73025381,32.3687817 C7.5574556,32.6069755 7.27935851,32.7459388 6.9851269,32.7411168 L2.51269036,32.7411168 C2.17675127,32.7411168 1.82741117,33.0388325 1.82741117,33.3746193 L1.82741117,44.5659898 C1.85885334,44.9267145 2.15110736,45.2092267 2.51269036,45.2284264 L3.35025381,45.2284264 L3.35025381,36.4203046 Z" fill="#D3E6FA"></path><path d="M34.5685279,16.7558376 C31.4379999,16.7580401 28.5781757,14.9812873 27.1932874,12.1737448 C25.8083991,9.36620231 26.1390628,6.01566407 28.0460406,3.53299492 C25.5075338,5.47582624 24.325775,8.71426533 25.0163447,11.8354388 C25.7069143,14.9566123 28.1445243,17.3942545 31.2656886,18.0848654 C34.386853,18.7754763 37.6253077,17.5937603 39.5681726,15.0552792 C38.1354858,16.1593265 36.3772594,16.7573623 34.5685279,16.7558376 Z" fill="#D3E6FA"></path><path d="M2.51269036,47.0558376 L4.99796954,47.0558376 C6.26817259,49.4923858 8.22335025,51.7082741 10.6598985,53.5493909 L10.6598985,59.6908629 C10.6598985,61.0343147 11.8289848,62.1319797 13.1725888,62.1319797 L19.2639594,62.1319797 C20.6075635,62.1319797 21.6243655,61.0343147 21.6243655,59.6908629 L21.6243655,58.2456853 C21.655409,57.0397707 22.6265311,56.0699882 23.8324873,56.0406091 L32.6299492,56.0406091 C33.8055838,56.0406091 34.7209645,57.0700508 34.7209645,58.2456853 L34.7209645,59.6908629 C34.7414277,61.044618 35.8444153,62.1314689 37.1983249,62.1319797 L43.2896954,62.1319797 C43.9319164,62.1285871 44.5461854,61.8688441 44.9960154,61.4104641 C45.4458455,60.9520841 45.6939779,60.333034 45.6852792,59.6908629 L45.6852792,52.4878173 C49.3401015,49.3825888 51.4394924,45.5329949 51.7714721,41.2690355 L52.4262944,41.2690355 C52.9908059,41.2961179 53.4384467,41.7547934 53.4517766,42.319797 L53.4517766,43.2587817 C53.4517766,44.8104061 54.6761421,46.142132 56.2279188,46.142132 L59.0101523,46.142132 C59.5147779,46.142132 59.9238579,45.7330521 59.9238579,45.2284264 C59.9238579,44.7238007 59.5147779,44.3147208 59.0101523,44.3147208 L56.2279188,44.3147208 C55.6838071,44.3147208 55.2791878,43.8027411 55.2791878,43.2584772 L55.2791878,42.319797 C55.2647647,40.7462237 54.0001315,39.4701804 52.4267513,39.4416244 L51.7956853,39.4416244 C51.3179695,29.5431472 43.0824365,21.5971066 33.0324365,21.5971066 C32.4496447,21.5940609 28.0003553,21.5873604 26.3203553,21.6027411 C24.2126373,18.0577259 20.40337,15.8743167 16.2791878,15.8473096 C15.9825053,15.8481791 15.7046053,15.9926405 15.5334427,16.2349722 C15.3622801,16.4773038 15.3190413,16.7875101 15.4174112,17.0674112 L15.6266497,17.6623858 C16.3569216,19.726959 16.3367573,21.9827706 15.5696954,24.0339594 C11.7933503,25.6771066 8.68020305,28.0203046 6.52096447,30.9137056 L2.51269036,30.9137056 C1.16923858,30.9137056 0,32.0311675 0,33.3746193 L0,44.5659898 C0.0329740573,45.9360613 1.14237492,47.0353767 2.51269036,47.0558376 Z M1.82741117,33.3746193 C1.82741117,33.0388325 2.17659898,32.7411168 2.51269036,32.7411168 L6.98527919,32.7411168 C7.27948504,32.7458537 7.55751982,32.6068363 7.73025381,32.3686294 C9.76324873,29.5056853 12.8413706,27.1605076 16.6318782,25.5738579 C16.8532538,25.4824735 17.0295554,25.3073214 17.1223858,25.0865482 C18.0931632,22.7656227 18.25215,20.1849724 17.5736041,17.7624365 C19.6942496,18.0421773 21.6625513,19.0163412 23.1711168,20.5327919 C23.8956252,21.2395662 24.5022894,22.0577916 24.9680711,22.9563959 C25.1324699,23.2809997 25.4739524,23.4769617 25.8371574,23.4551269 C26.2466497,23.4306091 30.3586294,23.4426396 33.0272589,23.456802 C42.3408192,23.4669696 49.9083197,30.9767901 49.9897462,40.29 C49.9539594,44.3824873 47.8909645,48.3100508 44.2090355,51.361066 C43.9942393,51.5324859 43.8657931,51.7897683 43.857868,52.064467 L43.857868,59.6908629 C43.8670519,59.8484027 43.8116522,60.0028842 43.7044442,60.1186839 C43.5972361,60.2344835 43.4474748,60.3016044 43.2896954,60.3045696 L37.1983249,60.3045696 C36.8529995,60.3051867 36.5674795,60.0356515 36.5482234,59.6908629 L36.5482234,58.2456853 C36.5482234,56.0625381 34.8129442,54.213198 32.629797,54.213198 L23.8324873,54.213198 C21.6177348,54.2438683 19.8292968,56.0309565 19.7969543,58.2456853 L19.7969543,59.6908629 C19.7969543,60.026802 19.5997462,60.3045696 19.2639594,60.3045696 L13.1725888,60.3045696 C12.8366497,60.3045696 12.4873096,60.026802 12.4873096,59.6908629 L12.4873096,53.0817259 C12.5016779,52.7904797 12.3708485,52.5110271 12.1379695,52.335533 C9.53299492,50.4992893 7.55208122,48.2314721 6.3735533,45.7263959 C6.22812866,45.4140983 5.91079506,45.2183095 5.5664467,45.2284264 L2.51269036,45.2284264 C2.15110736,45.2092267 1.85885334,44.9267145 1.82741117,44.5659898 L1.82741117,33.3746193 Z" fill="#0071DC" class="primary-fill-color"></path><path d="M13.6891371,38.9320812 C15.6226309,38.9298992 17.1894931,37.363037 17.1916751,35.4295431 C17.1916751,34.9249175 16.7825952,34.5158376 16.2779695,34.5158376 C15.7733439,34.5158376 15.364264,34.9249175 15.364264,35.4295431 C15.364264,36.3546902 14.6142841,37.1046701 13.6891371,37.1046701 C12.76399,37.1046701 12.0140102,36.3546902 12.0140102,35.4295431 C12.0140102,34.9249175 11.6049302,34.5158376 11.1003046,34.5158376 C10.5956789,34.5158376 10.186599,34.9249175 10.186599,35.4295431 C10.188781,37.363037 11.7556432,38.9298992 13.6891371,38.9320812 L13.6891371,38.9320812 Z" fill="#0071DC" class="primary-fill-color"></path><path d="M28.4771574,29.3908629 L36.6009137,29.3908629 C37.1055394,29.3908629 37.5146193,28.981783 37.5146193,28.4771574 C37.5146193,27.9725317 37.1055394,27.5634518 36.6009137,27.5634518 L28.4771574,27.5634518 C27.9725317,27.5634518 27.5634518,27.9725317 27.5634518,28.4771574 C27.5634518,28.981783 27.9725317,29.3908629 28.4771574,29.3908629 L28.4771574,29.3908629 Z" fill="#0071DC" class="primary-fill-color"></path><path d="M33.0456853,20.1060914 C38.5965675,20.1060914 43.0964467,15.6062122 43.0964467,10.0553299 C43.0964467,4.50444769 38.5965675,0.00456852792 33.0456853,0.00456852792 C27.494803,0.00456852792 22.9949239,4.50444769 22.9949239,10.0553299 C23.001218,15.603603 27.4974122,20.0997972 33.0456853,20.1060914 Z M33.0456853,1.8319797 C37.5873162,1.8319797 41.2690355,5.51369901 41.2690355,10.0553299 C41.2690355,14.5969609 37.5873162,18.2786802 33.0456853,18.2786802 C28.5040543,18.2786802 24.822335,14.5969609 24.822335,10.0553299 C24.8274543,5.51582118 28.5061765,1.83709899 33.0456853,1.8319797 L33.0456853,1.8319797 Z" fill="#FFC221" class="secondary-fill-color"></path><path d="M33.0609137,13.3905076 C33.0560406,13.3905076 33.0513198,13.3897462 33.0456853,13.3897462 C33.0400508,13.3897462 33.0359391,13.3897462 33.0304569,13.3905076 C32.3542905,13.3819317 31.8103865,12.8318546 31.8094416,12.1556345 C31.8094416,11.6510089 31.4003617,11.2419289 30.895736,11.2419289 C30.3911104,11.2419289 29.9820305,11.6510089 29.9820305,12.1556345 C29.9837917,13.4949408 30.8540608,14.678354 32.1319797,15.0791878 L32.1319797,15.5837056 C32.1319797,16.0883312 32.5410596,16.4974112 33.0456853,16.4974112 C33.5503109,16.4974112 33.9593909,16.0883312 33.9593909,15.5837056 L33.9593909,15.0791878 C35.4038299,14.6279445 36.3022272,13.1894583 36.0739005,11.6934999 C35.8455738,10.1975415 34.558968,9.09255021 33.0456853,9.09274112 C32.5459039,9.09274111 32.0953371,8.79167195 31.9040933,8.32992828 C31.7128495,7.86818461 31.818593,7.33670423 32.1720136,6.98332721 C32.5254342,6.62995019 33.0569276,6.52427214 33.5186477,6.71557287 C33.9803678,6.9068736 34.2813814,7.35747752 34.2813198,7.85725888 C34.2813198,8.36188454 34.6903997,8.77096447 35.1950254,8.77096447 C35.699651,8.77096447 36.108731,8.36188454 36.108731,7.85725888 C36.1068232,6.51826214 35.236902,5.33511016 33.9593909,4.93401015 L33.9593909,4.5271066 C33.9593909,4.02248094 33.5503109,3.61340102 33.0456853,3.61340102 C32.5410596,3.61340102 32.1319797,4.02248094 32.1319797,4.5271066 L32.1319797,4.93401015 C30.6877212,5.38544932 29.7895246,6.8238629 30.0178284,8.31970954 C30.2461322,9.81555618 31.5325165,10.9205478 33.0456853,10.9206091 C33.7278551,10.9164039 34.2842719,11.4660028 34.2884772,12.1481726 C34.2926824,12.8303424 33.7430835,13.3867593 33.0609137,13.3909645 L33.0609137,13.3905076 Z" fill="#FFC221" class="secondary-fill-color"></path></svg>