<svg xmlns="http://www.w3.org/2000/svg" xmlns:xlink="http://www.w3.org/1999/xlink" width="48px" height="47px" viewBox="0 0 48 47"><polygon id="Path" fill="#D3E6FA" points="20.8246375 38.6238406 7.29179283 25.090996 13.1658645 17.4353785 12.3796016 13.4753785 3.46709163 25.090996 24 45.6239044"></polygon><path d="M44.9873785,24.7421833 L44.988239,24.7415139 L36.076494,13.1261833 C35.9679099,12.9847002 35.7997024,12.9017689 35.6213546,12.9017689 L12.3791235,12.9017689 C12.2007756,12.9017689 12.0325682,12.9847002 11.9239841,13.1261833 L3.01195219,24.7415139 L3.01281275,24.7421833 C2.83538105,24.9694949 2.85625965,25.2936476 3.06138645,25.4963187 L23.5942948,46.0295139 C23.7018882,46.1371256 23.8478271,46.1975827 24,46.1975827 C24.1521729,46.1975827 24.2981118,46.1371256 24.4057052,46.0295139 L44.9388048,25.4963187 C45.1439316,25.2936476 45.1648102,24.9694949 44.9873785,24.7421833 Z M34.922008,14.0491793 L32.991012,23.770996 L25.1952191,14.0491793 L34.922008,14.0491793 Z M32.1184064,24.517004 L15.8820717,24.517004 L24,14.3924462 L32.1184064,24.517004 Z M22.8047809,14.0491793 L15.008988,23.770996 L13.077992,14.0491793 L22.8047809,14.0491793 Z M12.0633944,14.8296096 L13.987506,24.517004 L4.63018327,24.517004 L12.0633944,14.8296096 Z M4.85192032,25.6644143 L14.3164303,25.6644143 L22.1737052,42.986008 L4.85192032,25.6644143 Z M24,44.2350598 L15.5760956,25.6644143 L32.4239044,25.6644143 L24,44.2350598 Z M25.8262948,42.986008 L33.6833785,25.6644143 L43.1478884,25.6644143 L25.8262948,42.986008 Z M34.012494,24.517004 L35.9366056,14.8296096 L43.3696255,24.517004 L34.012494,24.517004 Z" fill="#0071DC" class="primary-fill-color"></path><g fill="#FFC221" class="secondary-fill-color"><path d="M20.8241594,3.77163347 L21.3421195,0.752031873 C21.3789614,0.536873141 21.2905082,0.319448846 21.1139261,0.191115861 C20.937344,0.062782876 20.7032325,0.0457798182 20.5099602,0.147250996 L17.7978645,1.57290837 L15.0859602,0.147250996 C14.8926741,0.0456705635 14.6584819,0.0626179174 14.4818348,0.190968622 C14.3051877,0.319319326 14.216715,0.536818271 14.2536096,0.752031873 L14.7714741,3.77163347 L12.5776255,5.91021514 C12.4212596,6.06264184 12.364984,6.29062044 12.432459,6.49830129 C12.499934,6.70598215 12.6794582,6.85735003 12.8955538,6.88876494 L15.92749,7.32937052 L17.2833466,10.0768446 C17.3800177,10.2726662 17.579481,10.3965896 17.7978645,10.3965896 C18.0162137,10.3965896 18.215631,10.2726353 18.3122869,10.0768446 L19.6685259,7.32937052 L22.7004622,6.88876494 C22.9165578,6.85735003 23.096082,6.70598215 23.1635569,6.49830129 C23.2310319,6.29062044 23.1747564,6.06264184 23.0183904,5.91021514 L20.8241594,3.77163347 Z M19.2047809,6.23722709 C19.0178911,6.26438368 18.8563368,6.38177693 18.7727809,6.55113944 L17.7974821,8.52659761 L16.8221833,6.55113944 C16.7386459,6.38180221 16.5771331,6.26441314 16.3902789,6.23722709 L14.2101992,5.92044622 L15.7878884,4.38282072 C15.9231544,4.25100207 15.984874,4.06105152 15.9529243,3.8749004 L15.5800159,1.70371315 L17.5299442,2.72882869 C17.6970514,2.81679253 17.8967653,2.81679253 18.0638725,2.72882869 L20.0138008,1.70371315 L19.6408924,3.8749004 C19.6089185,4.06103537 19.6706015,4.25098335 19.8058327,4.38282072 L21.3835219,5.92044622 L19.2047809,6.23722709 Z"></path><path d="M8.41988845,8.63885259 L8.93784861,5.61915538 C8.97481336,5.40389863 8.88634891,5.18632502 8.70966045,5.05793871 C8.53297198,4.9295524 8.298712,4.91262627 8.10540239,5.01427888 L5.39349801,6.44012749 L2.68168924,5.01427888 C2.48837963,4.91262627 2.25411965,4.9295524 2.07743118,5.05793871 C1.90074272,5.18632502 1.81227827,5.40389863 1.84924303,5.61915538 L2.36720319,8.63885259 L0.173258964,10.7773386 C0.0168930182,10.9297653 -0.0393825033,11.1577439 0.0280924662,11.3654248 C0.0955674357,11.5731057 0.275091643,11.7244735 0.491187251,11.7558884 L3.52312351,12.1965896 L4.8790757,14.9438725 C4.97570466,15.1397003 5.17512747,15.2637131 5.39349801,15.2637131 C5.61190302,15.2637131 5.81137172,15.1397312 5.90801594,14.9438725 L7.26396813,12.1965896 L10.2958088,11.7558884 C10.5118714,11.7244137 10.6913377,11.5730225 10.7587685,11.3653526 C10.8261993,11.1576827 10.7699038,10.9297391 10.6135458,10.7773386 L8.41988845,8.63885259 Z M6.80041434,11.1044462 C6.61357989,11.1316123 6.45207129,11.2489626 6.36850996,11.4182629 L5.39321116,13.3936255 L4.41791235,11.4182629 C4.33435102,11.2489626 4.17284242,11.1316123 3.98600797,11.1044462 L1.80592829,10.7875697 L3.38361753,9.24994422 C3.51881817,9.11812759 3.58049862,8.92822331 3.54855777,8.74211952 L3.1767012,6.57093227 L5.12653386,7.59595219 C5.29364103,7.68391604 5.49335499,7.68391604 5.66046215,7.59595219 L7.61039044,6.57093227 L7.23824701,8.74211952 C7.20633044,8.92823946 7.26804749,9.11814631 7.40328287,9.24994422 L8.98097211,10.7875697 L6.80041434,11.1044462 Z"></path><path d="M33.2285259,3.77163347 L33.7463904,0.752031873 C33.7831535,0.5369554 33.6947296,0.319642944 33.5182448,0.191336499 C33.3417601,0.0630300544 33.1077696,0.045943541 32.9145179,0.147250996 L30.2021355,1.57290837 L27.4900398,0.147250996 C27.2967469,0.0456159043 27.0625143,0.0625353861 26.8858347,0.190894958 C26.7091551,0.319254529 26.6206728,0.536790827 26.6575936,0.752031873 L27.1755538,3.77163347 L24.9818964,5.91021514 C24.8255305,6.06264184 24.7692549,6.29062044 24.8367299,6.49830129 C24.9042049,6.70598215 25.0837291,6.85735003 25.2998247,6.88876494 L28.3314741,7.32937052 L29.6874263,10.0768446 C29.7840689,10.2726795 29.9835135,10.3966637 30.2018964,10.3966637 C30.4202794,10.3966637 30.6197239,10.2726795 30.7163665,10.0768446 L32.0722231,7.32937052 L35.1041594,6.88876494 C35.320255,6.85735003 35.4997792,6.70598215 35.5672541,6.49830129 C35.6347291,6.29062044 35.5784536,6.06264184 35.4220876,5.91021514 L33.2285259,3.77163347 Z M31.6090518,6.23722709 C31.4221976,6.26441314 31.2606848,6.38180221 31.1771474,6.55113944 L30.2018486,8.52659761 L29.2265498,6.55113944 C29.1429938,6.38177693 28.9814396,6.26438368 28.7945498,6.23722709 L26.6144701,5.92044622 L28.1921594,4.38282072 C28.3273905,4.25098335 28.3890736,4.06103537 28.3570996,3.8749004 L27.9841912,1.70371315 L29.9341195,2.72882869 C30.1012267,2.81679253 30.3009406,2.81679253 30.4680478,2.72882869 L32.4179761,1.70371315 L32.0455458,3.8749004 C32.0135961,4.06105152 32.0753158,4.25100207 32.2105817,4.38282072 L33.7882709,5.92044622 L31.6090518,6.23722709 Z"></path><path d="M45.6327968,8.63885259 L46.150757,5.61915538 C46.1877217,5.40389863 46.0992573,5.18632502 45.9225688,5.05793871 C45.7458803,4.9295524 45.5116204,4.91262627 45.3183108,5.01427888 L42.606502,6.44012749 L39.8945976,5.01427888 C39.701288,4.91262627 39.467028,4.9295524 39.2903396,5.05793871 C39.1136511,5.18632502 39.0251866,5.40389863 39.0621514,5.61915538 L39.5801116,8.63885259 L37.3864542,10.7773386 C37.2300842,10.9297785 37.1738187,11.1577746 37.2413158,11.3654609 C37.3088128,11.5731473 37.488366,11.7245035 37.7044781,11.7558884 L40.7363187,12.1965896 L42.0922709,14.9438725 C42.1889136,15.1397074 42.3883581,15.2636916 42.606741,15.2636916 C42.825124,15.2636916 43.0245685,15.1397074 43.1212112,14.9438725 L44.4771633,12.1965896 L47.5090996,11.7558884 C47.7251952,11.7244735 47.9047194,11.5731057 47.9721944,11.3654248 C48.0396694,11.1577439 47.9833938,10.9297653 47.8270279,10.7773386 L45.6327968,8.63885259 Z M44.0133227,11.1044462 C43.8264883,11.1316123 43.6649797,11.2489626 43.5814183,11.4182629 L42.6061195,13.3936255 L41.6308207,11.4182629 C41.5472594,11.2489626 41.3857508,11.1316123 41.1989163,11.1044462 L39.0188367,10.7875697 L40.5965259,9.24994422 C40.7317613,9.11814631 40.7934783,8.92823946 40.7615618,8.74211952 L40.3891315,6.57093227 L42.3394422,7.59595219 C42.5065494,7.68391604 42.7062634,7.68391604 42.8733705,7.59595219 L44.8232032,6.57093227 L44.4508685,8.74211952 C44.4189277,8.92822331 44.4806081,9.11812759 44.6158088,9.24994422 L46.193498,10.7875697 L44.0133227,11.1044462 Z"></path></g></svg>