<svg xmlns="http://www.w3.org/2000/svg" xmlns:xlink="http://www.w3.org/1999/xlink" width="80px" height="77px" viewBox="0 0 80 77"><path d="M55.5948498,40.4245494 L34.2719313,31.5464378 C34.2523605,31.5381974 34.2336481,31.5303004 34.2161373,31.5224034 C34.2333047,31.5145064 34.2523605,31.5064378 34.2719313,31.4983691 L55.5948498,22.6199142 C55.6672961,22.5898712 55.744206,22.5622318 55.8238627,22.536309 C54.7649785,22.191073 53.1251502,22.2187124 52.1613734,22.6199142 L30.8384549,31.4983691 C30.8188841,31.5064378 30.8001717,31.5145064 30.7826609,31.5224034 C30.7998283,31.5303004 30.8188841,31.5381974 30.8384549,31.5464378 L52.1613734,40.4245494 C53.1253219,40.8259227 54.7653219,40.8537339 55.8238627,40.5081545 C55.744206,40.4822318 55.6672961,40.4547639 55.5948498,40.4245494 L55.5948498,40.4245494 Z" fill="#D3E6FA"></path><path d="M55.0995708,53.2494421 C52.1424893,50.5509013 47.6738197,46.4729614 42.8369099,46.4729614 L42.703691,46.4729614 L42.703691,38.7182833 L39.2702146,37.2887554 L39.2702146,46.4733047 L39.4034335,46.4733047 C44.2403433,46.4733047 48.7090129,50.5512446 51.6660944,53.2497854 C52.4777682,53.9903863 53.4686695,54.8947639 53.9179399,55.1505579 C54.2702146,54.9454077 54.9575966,54.3397425 55.6278112,53.7303004 C55.4482403,53.5675536 55.2700429,53.4048069 55.0995708,53.2494421 Z" fill="#D3E6FA"></path><g fill="#0071DC" class="primary-fill-color"><path d="M5.96549356,76.104206 L44.4204292,76.104206 C47.2826183,76.1003679 49.7210976,74.0246707 50.1819742,71.1998283 C52.9966842,70.7296462 55.0604625,68.2957681 55.0642062,65.4420601 L55.0642062,56.2918455 C55.0642062,55.7229685 54.6030401,55.2618026 54.0341631,55.2618026 C53.4652861,55.2618026 53.0041202,55.7229685 53.0041202,56.2918455 L53.0041202,65.4420601 C53.001755,67.5269619 51.312198,69.2165189 49.2272961,69.2188841 L10.9440343,69.2188841 C8.85913249,69.2165189 7.16957548,67.5269619 7.1672103,65.4420601 L7.1672103,5.95587983 C7.16957548,3.87097799 8.85913249,2.18142097 10.9440343,2.17905579 L39.9569099,2.17905579 L39.9569099,10.984206 C39.9596536,13.4482023 41.9564329,15.4449816 44.4204292,15.4477253 L53.0041202,15.4477253 L53.0041202,20.9658369 C53.0041202,21.5347139 53.4652861,21.9958798 54.0341631,21.9958798 C54.6030401,21.9958798 55.0642062,21.5347139 55.0642062,20.9658369 L55.0642062,14.4176824 C55.0642062,14.3832827 55.0625097,14.348904 55.0590558,14.3146781 C55.0569957,14.2944206 55.0533906,14.2746781 55.0501288,14.2547639 C55.0480687,14.2417167 55.0466953,14.2284979 55.0441202,14.2154506 C55.0393133,14.1914163 55.0329614,14.1680687 55.0269528,14.1445494 C55.0245494,14.1359657 55.0228326,14.127382 55.0202575,14.1186266 C55.0130472,14.0949356 55.0044635,14.072103 54.9957082,14.0499571 C54.992618,14.0417167 54.9898712,14.0327897 54.9866094,14.0250644 C54.9778541,14.0037768 54.9677253,13.9833476 54.9574249,13.9627468 C54.9527897,13.9533047 54.9486695,13.9435193 54.943691,13.9340773 C54.9339056,13.9157082 54.9227468,13.8980258 54.9119313,13.8803433 C54.9052361,13.8695279 54.8992275,13.8583691 54.8921888,13.847897 C54.8817167,13.8319313 54.8698712,13.816824 54.8578541,13.8015451 C54.8492704,13.7900429 54.8406867,13.7783691 54.8319313,13.7672103 C54.8202575,13.7529614 54.8075536,13.7395708 54.7950215,13.7258369 C54.7860944,13.7158798 54.7778541,13.7054077 54.7682403,13.695794 L41.72103,0.427124464 L41.7174249,0.423862661 C41.703691,0.409957082 41.688927,0.397253219 41.6745064,0.384206009 C41.6640343,0.374935622 41.6540773,0.364806867 41.6432618,0.355879828 C41.6185408,0.335507868 41.5928469,0.316280401 41.5661803,0.298197425 L41.5634335,0.295965665 C41.4224204,0.200224686 41.2597302,0.141214806 41.0901288,0.124291845 C41.055794,0.120858369 41.0214592,0.118969957 40.9871245,0.118969957 L10.944206,0.118969957 C7.95728463,0.122700432 5.45373891,2.37785355 5.13905579,5.34815451 C2.26605055,5.76266032 0.132511685,8.22274335 0.128583691,11.1254936 L0.128583691,70.2671245 C0.132178708,73.4892983 2.74331984,76.1005162 5.96549356,76.104206 L5.96549356,76.104206 Z M42.0169957,10.984206 L42.0169957,3.6655794 L51.576824,13.3876395 L44.4204292,13.3876395 C43.0936379,13.3862202 42.018415,12.3109973 42.0169957,10.984206 Z M2.18866953,11.1254936 C2.19122056,9.37133752 3.39937433,7.84906377 5.10712446,7.44824034 L5.10712446,65.4420601 C5.11071966,68.664206 7.72188838,71.2753748 10.9440343,71.27897 L48.0583691,71.27897 C47.6023416,72.9117216 46.1156677,74.0416527 44.4204292,74.0439485 L5.96549356,74.0439485 C3.88059172,74.0415833 2.19103471,72.3520263 2.18866953,70.2671245 L2.18866953,11.1254936 Z"></path><path d="M38.2401717,20.3320172 L22.1886695,20.3320172 C21.6197925,20.3320172 21.1586266,20.7931831 21.1586266,21.3620601 C21.1586266,21.9309371 21.6197925,22.392103 22.1886695,22.392103 L38.2401717,22.392103 C38.8090487,22.392103 39.2702146,21.9309371 39.2702146,21.3620601 C39.2702146,20.7931831 38.8090487,20.3320172 38.2401717,20.3320172 L38.2401717,20.3320172 Z"></path><path d="M14.3392275,22.392103 L18.0381116,22.392103 C18.6069886,22.392103 19.0681545,21.9309371 19.0681545,21.3620601 C19.0681545,20.7931831 18.6069886,20.3320172 18.0381116,20.3320172 L14.3392275,20.3320172 C13.7703505,20.3320172 13.3091845,20.7931831 13.3091845,21.3620601 C13.3091845,21.9309371 13.7703505,22.392103 14.3392275,22.392103 L14.3392275,22.392103 Z"></path><path d="M14.3392275,33.4660944 L24.5062661,33.4660944 C25.0751431,33.4660944 25.536309,33.0049285 25.536309,32.4360515 C25.536309,31.8671745 25.0751431,31.4060086 24.5062661,31.4060086 L14.3392275,31.4060086 C13.7703505,31.4060086 13.3091845,31.8671745 13.3091845,32.4360515 C13.3091845,33.0049285 13.7703505,33.4660944 14.3392275,33.4660944 Z"></path><path d="M34.12,43.5103863 C34.12,42.9415093 33.6588341,42.4803433 33.0899571,42.4803433 L21.7967382,42.4803433 C21.2278612,42.4803433 20.7666953,42.9415093 20.7666953,43.5103863 C20.7666953,44.0792633 21.2278612,44.5404292 21.7967382,44.5404292 L33.0899571,44.5404292 C33.6588341,44.5404292 34.12,44.0792633 34.12,43.5103863 L34.12,43.5103863 Z"></path><path d="M14.3392275,44.5404292 L17.671588,44.5404292 C18.240465,44.5404292 18.7016309,44.0792633 18.7016309,43.5103863 C18.7016309,42.9415093 18.240465,42.4803433 17.671588,42.4803433 L14.3392275,42.4803433 C13.7703505,42.4803433 13.3091845,42.9415093 13.3091845,43.5103863 C13.3091845,44.0792633 13.7703505,44.5404292 14.3392275,44.5404292 L14.3392275,44.5404292 Z"></path><path d="M34.5006009,55.6145923 L38.2401717,55.6145923 C38.8090487,55.6145923 39.2702146,55.1534264 39.2702146,54.5845494 C39.2702146,54.0156724 38.8090487,53.5545064 38.2401717,53.5545064 L34.5006009,53.5545064 C33.9317239,53.5545064 33.4705579,54.0156724 33.4705579,54.5845494 C33.4705579,55.1534264 33.9317239,55.6145923 34.5006009,55.6145923 Z"></path><path d="M14.3392275,55.6145923 L30.1217167,55.6145923 C30.6905937,55.6145923 31.1517597,55.1534264 31.1517597,54.5845494 C31.1517597,54.0156724 30.6905937,53.5545064 30.1217167,53.5545064 L14.3392275,53.5545064 C13.7703505,53.5545064 13.3091845,54.0156724 13.3091845,54.5845494 C13.3091845,55.1534264 13.7703505,55.6145923 14.3392275,55.6145923 L14.3392275,55.6145923 Z"></path></g><path d="M76.6951073,47.2648927 L76.6951073,34.0612876 L78.1675536,33.4482403 C79.5598283,32.8684979 79.7675536,31.9927897 79.7675536,31.5224034 C79.7675536,31.0520172 79.5598283,30.1761373 78.1675536,29.5965665 L56.8446352,20.7181116 C55.3091845,20.07897 52.9045494,20.07897 51.3694421,20.7181116 L30.0465236,29.5965665 C28.6542489,30.1761373 28.4463519,31.0518455 28.4463519,31.5224034 C28.4463519,31.9929614 28.6542489,32.8684979 30.0465236,33.4482403 L37.2101288,36.4309013 L37.2101288,47.5030043 C37.2101288,48.0718813 37.6712947,48.5330472 38.2401717,48.5330472 L39.4034335,48.5330472 C43.4417167,48.5330472 47.5553648,52.2870386 50.2774249,54.7711588 C52.1642918,56.4930472 53.0360515,57.2544206 53.9230901,57.2544206 C54.7986266,57.2544206 55.616309,56.5371674 57.5435193,54.7697854 C60.2521888,52.2861803 64.3452361,48.5330472 68.2590558,48.5330472 L69.4848069,48.5330472 C70.0536839,48.5330472 70.5148498,48.0718813 70.5148498,47.5030043 L70.5148498,36.6351931 L74.6350215,34.9198283 L74.6350215,47.1618884 C72.4318288,47.5751284 70.8862554,49.5713939 71.0379543,51.8078671 C71.1896531,54.0443404 72.990641,55.8136103 75.2294564,55.9255511 C77.4682717,56.0374919 79.4367629,54.4566959 79.8107947,52.2465092 C80.1848266,50.0363225 78.8460905,47.8958415 76.6951073,47.2648927 L76.6951073,47.2648927 Z M30.7826609,31.5224034 C30.7998283,31.5145064 30.8188841,31.5064378 30.8384549,31.4983691 L52.1613734,22.6199142 C53.1974249,22.1884979 55.0159657,22.1883262 56.0527039,22.6199142 L77.3756223,31.4983691 C77.3951931,31.5064378 77.4137339,31.5145064 77.4314163,31.5224034 C77.4142489,31.5303004 77.3951931,31.5381974 77.3756223,31.5464378 L56.0528755,40.4245494 C55.0164807,40.8559657 53.1977682,40.8559657 52.1613734,40.4245494 L30.8384549,31.5464378 C30.8188841,31.5381974 30.8001717,31.5303004 30.7826609,31.5224034 L30.7826609,31.5224034 Z M68.4547639,46.4729614 L68.2590558,46.4729614 C63.543691,46.4729614 59.0951073,50.552103 56.1512446,53.2515021 C55.3464378,53.9896996 54.3636052,54.8906438 53.9179399,55.1502146 C53.4686695,54.8944206 52.4777682,53.9900429 51.6660944,53.2494421 C48.7090129,50.5509013 44.2403433,46.4729614 39.4034335,46.4729614 L39.2702146,46.4729614 L39.2702146,37.288412 L51.3696137,42.3260086 C53.1386711,42.9650979 55.0755778,42.9650979 56.8446352,42.3260086 L68.4547639,37.4920172 L68.4547639,46.4729614 Z M75.4492704,53.8947639 C74.1726621,53.8885945 73.1294959,52.8739679 73.0879251,51.5980217 C73.0463544,50.3220755 74.0212645,49.2416992 75.2947639,49.1524464 C75.4916129,49.229866 75.7078328,49.2433798 75.9127897,49.191073 C77.1049094,49.435368 77.9197921,50.540825 77.8004573,51.751853 C77.6811224,52.9628809 76.6661441,53.8880232 75.4492704,53.8949356 L75.4492704,53.8947639 Z" fill="#FFC221" class="secondary-fill-color"></path></svg>