<svg xmlns="http://www.w3.org/2000/svg" xmlns:xlink="http://www.w3.org/1999/xlink" width="48px" height="56px" viewBox="0 0 48 56"><path d="M27.9776119,43.0797575 L8.12360072,43.1590485 C5.90065301,43.1697761 4.09001863,41.3768657 4.07929099,39.1539179 L3.90718281,3.22574627 C3.90485075,2.74486937 3.98833958,2.26725743 4.15438436,1.8157649 C2.56529851,2.40251869 1.51259331,3.91977612 1.5190929,5.61380597 L1.69123128,41.5419776 C1.70195893,43.7649254 3.51259331,45.5583022 5.73554101,45.5476226 L26.4104478,45.4542911 C26.3311568,44.8763993 27.9678172,43.2854478 27.9776119,43.0797575 L27.9776119,43.0797575 Z" fill="#D3E6FA"></path><g fill="#0071DC" class="primary-fill-color"><path d="M5.77565301,47.0429104 L5.80270519,47.0429104 L25.4883396,46.9449626 L25.4813433,45.5121268 L5.7957089,45.6100746 C3.5069963,45.6212687 1.64272382,43.7747201 1.63152979,41.4860074 L1.45942161,5.67770519 C1.44869397,3.38899248 3.29524251,1.52472012 5.58395522,1.51352609 L22.15625,1.43470149 L22.1888992,8.16277982 C22.2033582,11.2322761 24.6954291,13.7126866 27.7649254,13.713153 L27.7924441,13.713153 L34.5205224,13.6809701 L34.613806,36.2714553 L36.0466418,36.2653918 L35.9510261,13.1371269 L35.9500933,12.9314365 C35.9491605,12.741138 35.8726679,12.5592351 35.7374067,12.4253731 L23.3987873,0.229944 C23.28125,0.114272358 23.1273321,0.0424440597 22.9626866,0.0270521791 L22.7061567,0.00326493134 C22.6823694,0.000932835821 22.6599814,0.000932835821 22.6347947,3.46323302e-15 L5.57649254,0.0820895522 C2.49720143,0.0970149254 0.0125933134,2.60541039 0.0265269795,5.68470149 L0.19869397,41.4930037 C0.216884299,44.5611008 2.70755594,47.0396455 5.77565301,47.0429104 Z M27.7854478,12.2798973 C25.496735,12.2905784 23.6324627,10.4440299 23.621735,8.15531713 L23.59375,2.43749994 L33.5237873,12.2523321 L27.7854478,12.2798973 Z"></path><path d="M17.3367537,26.4496269 C16.9412313,26.4496269 16.6203358,26.7705224 16.6203358,27.1660448 C16.6203358,27.5615672 16.9412313,27.8824627 17.3367537,27.8824627 L19.7663247,27.8824627 C20.161847,27.8824627 20.4827426,27.5615672 20.4827426,27.1660448 C20.4827426,26.7705224 20.161847,26.4496269 19.7663247,26.4496269 L17.3367537,26.4496269 Z"></path><path d="M28.8586753,21.0900186 C28.8586753,20.6944962 28.5382462,20.3736007 28.1422574,20.3736007 L7.97014925,20.3736007 C7.57462687,20.3736007 7.25373134,20.6944962 7.25373134,21.0900186 C7.25373134,21.4860074 7.57462687,21.8064365 7.97014925,21.8064365 L28.1422574,21.8064365 C28.5382462,21.8064365 28.8586753,21.4860074 28.8586753,21.0900186 Z"></path><path d="M7.97014925,26.4496269 C7.57462687,26.4496269 7.25373134,26.7705224 7.25373134,27.1660448 C7.25373134,27.5615672 7.57462687,27.8824627 7.97014925,27.8824627 L14.2579291,27.8824627 C14.6534515,27.8824627 14.974347,27.5615672 14.974347,27.1660448 C14.974347,26.7705224 14.6534515,26.4496269 14.2579291,26.4496269 L7.97014925,26.4496269 Z"></path></g><path d="M22.1842351,55.9342351 C22.261194,55.9342351 22.3376866,55.9216418 22.4109141,55.8973881 L30.9034515,53.0666978 C30.9081157,53.0648321 30.9127798,53.0625001 30.9179104,53.0606343 C30.9370336,53.0536381 30.9561567,53.0461754 30.9748134,53.0373134 C30.9827426,53.0335821 30.9906716,53.0303171 30.9986007,53.0261194 C31.0186567,53.0163247 31.0377798,53.0051306 31.0569029,52.9934701 C31.0611008,52.9906716 31.0662314,52.9878732 31.0708955,52.9850746 C31.09375,52.9701493 31.1152053,52.9538246 31.136194,52.9361008 C31.141791,52.9314365 31.1469217,52.9263059 31.1525187,52.9211754 C31.1627798,52.9123134 31.1735075,52.9034515 31.1833022,52.8936567 L47.0354478,37.0405784 C47.3152985,36.7607276 47.3152985,36.3073694 47.0354478,36.0275187 L41.3736007,30.366138 C41.0942164,30.0862873 40.6403918,30.0862873 40.360541,30.366138 L24.5083955,46.21875 C24.5041977,46.2224813 24.5018657,46.2271456 24.4981343,46.2308769 C24.4696829,46.2597947 24.4440299,46.2915112 24.4211754,46.3250933 C24.4193097,46.3274254 24.4169777,46.3302239 24.4155784,46.3325559 C24.3936567,46.3666044 24.3745336,46.4025187 24.3586753,46.4402985 C24.3540112,46.4505598 24.3498135,46.4612873 24.3460821,46.4720149 C24.3418843,46.4827426 24.338153,46.4892724 24.3348881,46.4981343 L21.5041977,54.9906716 C21.4314365,55.2094216 21.4678172,55.4496269 21.6026119,55.636194 C21.7374067,55.8232276 21.9538246,55.9342351 22.1842351,55.9337686 L22.1842351,55.9342351 Z M40.8670709,31.886194 L45.5158581,36.5349814 L43.4146455,38.6352611 L38.7663247,33.9869403 L40.8670709,31.886194 Z M37.753265,35 L42.4015858,39.648321 L30.6763059,51.3736007 L28.3526119,49.0494402 L26.0279851,46.7252799 L37.753265,35 Z M25.3278918,48.0517724 L27.3390859,50.0629664 L29.3498135,52.0732276 L23.3166978,54.0844216 L25.3278918,48.0517724 Z" fill="#FFC221" class="secondary-fill-color"></path></svg>