<svg xmlns="http://www.w3.org/2000/svg" xmlns:xlink="http://www.w3.org/1999/xlink" width="60px" height="70px" viewBox="0 0 60 70"><path d="M27.6919533,53.2664696 L9.96064953,53.3643657 C7.21610108,53.3776106 4.98061268,51.1640049 4.96736786,48.4194563 L4.75487558,4.06096437 C4.75199631,3.46725273 4.85507528,2.87757214 5.05950545,2.32013971 C3.09812654,3.0445716 1.79841066,4.91784398 1.80643534,7.00936732 L2.01896491,51.3678593 C2.03220973,54.1124079 4.26769813,56.3265893 7.01224658,56.3134038 L27.8209459,56.1987485 C27.721898,55.4800753 27.6723742,54.7562194 27.6723742,54.0312116 C27.6723742,53.774954 27.6798603,53.5204238 27.6919533,53.2664696 Z" fill="#D3E6FA"></path><g fill="#0071DC" class="primary-fill-color"><path d="M2.29019499,56.0887592 C3.57666619,57.3700476 5.3197943,58.0869933 7.13548069,58.0818384 L7.16945631,58.0818384 L28.5257985,57.96088 L28.5160089,56.1918382 L7.16024256,56.3127687 L7.13490486,56.3127687 C4.31894963,56.3121929 2.03336152,54.0369702 2.01954088,51.2210151 L1.80647263,7.01051912 C1.79322781,4.1847743 4.0730574,1.88306211 6.89880221,1.86924147 L27.3596822,1.77134521 L27.3994165,10.078125 C27.417844,13.8678593 30.4946637,16.9302826 34.284398,16.9308584 L34.3183738,16.9308584 L42.6257294,16.8911241 L42.7403256,37.7067338 L44.5093673,37.6969442 L44.3913161,16.2196714 L44.3901643,15.9657171 C44.3890126,15.7307662 44.2945716,15.5061809 44.1269963,15.3409091 L28.8937731,0.285050713 C28.7486564,0.141661622 28.5586225,0.0524032924 28.3559198,0.0333998034 L28.0386209,0.00403102703 C28.0092522,0.0011517199 27.9798833,8.26938845e-15 27.9505144,8.26938845e-15 L6.88958845,0.101351351 C3.08718516,0.11977887 0.0195791646,3.21675361 0.0373533388,7.0191569 L0.249923145,51.2296529 C0.253954201,53.0568566 0.988751499,54.8063191 2.29019499,56.0887592 L2.29019499,56.0887592 Z M34.3097359,15.161874 C31.4839911,15.1750614 29.1822789,12.8958077 29.1684582,10.070063 L29.1350583,3.01059582 L41.3945409,15.127841 L34.3097359,15.161874 Z"></path><path d="M21.4093212,32.6564419 C20.9209919,32.6564419 20.5248003,33.0520577 20.5248003,33.5409628 C20.5248003,34.029292 20.9209919,34.4254837 21.4093212,34.4254837 L24.4089758,34.4254837 C24.897305,34.4254837 25.2934967,34.029292 25.2934967,33.5409628 C25.2934967,33.0520577 24.897305,32.6564419 24.4089758,32.6564419 L21.4093212,32.6564419 Z"></path><path d="M35.6347896,26.0392352 C35.6347896,25.5509059 35.2385979,25.1547143 34.7502687,25.1547143 L9.84490172,25.1547143 C9.35657248,25.1547143 8.96038084,25.5509059 8.96038084,26.0392352 C8.96038084,26.5281404 9.35657248,26.9237561 9.84490172,26.9237561 L34.7502687,26.9237561 C35.2385979,26.9237561 35.6347896,26.5281404 35.6347896,26.0392352 Z"></path><path d="M9.84490172,32.6564419 C9.35657248,32.6564419 8.96038084,33.0520577 8.96038084,33.5409628 C8.96038084,34.029292 9.35657248,34.4254837 9.84490172,34.4254837 L17.6080697,34.4254837 C18.0963989,34.4254837 18.4925906,34.029292 18.4925906,33.5409628 C18.4925906,33.0520577 18.0963989,32.6564419 17.6080697,32.6564419 L9.84490172,32.6564419 Z"></path></g><path d="M40.5699094,57.0734798 C40.8820255,57.4385749 41.4279407,57.488099 41.8005221,57.1851966 L50.0416539,50.4810351 C50.2898494,50.2829393 50.4125077,49.9662162 50.3629837,49.6523726 C50.3134598,49.3385289 50.0992399,49.0753608 49.8020962,48.9630681 C49.5043766,48.8507755 49.1698019,48.9060581 48.9250614,49.1093366 L41.3548066,55.267583 L38.3770347,51.780751 C38.0597359,51.4093212 37.5017276,51.365556 37.130298,51.6828547 C36.7582924,52.0001536 36.714527,52.5581618 37.0318259,52.9295914 L40.5699094,57.0734798 Z" fill="#FFC221" class="secondary-fill-color"></path><path d="M43.5937501,69.5097512 C50.5875691,69.502841 56.8022497,65.0462608 59.0532862,58.4238714 C61.3043228,51.8014819 59.0924447,44.4811502 53.5515202,40.2128763 C48.01002,35.9451781 40.3677826,35.6750999 34.539504,39.5419993 C28.7112254,43.4088989 25.9885595,50.555321 27.766815,57.3193719 C29.6683047,64.5014972 36.1640049,69.5051443 43.5937501,69.5097512 L43.5937501,69.5097512 Z M43.5937501,38.5515147 C51.6644272,38.54461 58.2113791,45.0840755 58.213683,53.1547527 C58.2159859,61.22543 51.6730651,67.7689266 43.601812,67.7666238 C35.5311348,67.7643198 28.9916692,61.2173679 28.9991491,53.1461148 C29.0077933,45.0898342 35.5368935,38.560734 43.5937501,38.5515147 L43.5937501,38.5515147 Z" fill="#FFC221" class="secondary-fill-color"></path></svg>