<svg xmlns="http://www.w3.org/2000/svg" xmlns:xlink="http://www.w3.org/1999/xlink" width="48px" height="49px" viewBox="0 0 48 49"><path d="M11.5882514,37.283438 C10.2104401,35.9073224 9.0471858,34.3320215 8.13743371,32.6102755 C7.64145666,31.6726048 7.22393466,30.695494 6.88914292,29.6889483 C4.98734728,23.9947374 5.81901915,17.7415821 9.14303902,12.7424065 C12.4670589,7.74323084 17.9116048,4.55723825 23.898186,4.10811633 C14.7133036,3.44185126 6.31750177,9.30101636 3.77434429,18.1519103 C1.23118681,27.0028043 5.23611098,36.4251122 13.3737205,40.7361777 C13.8620818,40.4879289 14.3613341,40.2182827 14.8714772,39.9272391 C13.6848556,39.167054 12.5840316,38.2806211 11.5882514,37.283438 L11.5882514,37.283438 Z" fill="#D3E6FA"></path><g transform="translate(2.306311, 0.000000)" fill="#0071DC" class="primary-fill-color"><path d="M38.4732062,16.939085 C38.3277513,16.9863048 38.2070139,17.0893757 38.1375578,17.2256207 C38.0681017,17.3618656 38.0556172,17.5201226 38.1028511,17.6655729 C40.308771,24.4227628 38.5334483,31.8462475 33.5090887,36.8743197 C28.4847291,41.9023918 21.0625578,43.6831974 14.3037403,41.4822692 C14.0009086,41.3837932 13.6755843,41.5494562 13.5771083,41.852288 C13.4786322,42.1551198 13.6442953,42.480444 13.947127,42.5789201 C21.117788,44.9086928 28.9892579,43.0174496 34.3187855,37.684312 C39.648313,32.3511745 41.5342257,24.4784258 39.199598,17.309344 C39.1012257,17.0065369 38.7760349,16.8407796 38.4732062,16.939085 Z"></path><path d="M11.3369596,40.226579 C9.66776211,39.3425157 8.14069752,38.212944 6.8067884,36.8756054 C-0.552745851,29.510978 -0.552745851,17.5275786 6.8067884,10.1629513 C11.0468845,5.92780296 17.0454226,3.95647564 22.9712269,4.85075712 C28.8970312,5.74503861 34.046674,9.39877245 36.8481218,14.696582 C36.9998424,14.971938 37.3441857,15.0749914 37.6222287,14.928253 C37.9002717,14.7815147 38.0095081,14.4390826 37.8677995,14.1584428 C34.8992925,8.53236485 29.4344154,4.65123426 23.1444463,3.70198491 C16.8544771,2.75273556 10.4876308,4.84828415 5.99102701,9.34776646 C-1.8175652,17.1620284 -1.8175652,29.8765283 5.99102701,37.6907902 C7.4064561,39.1097193 9.02676978,40.308248 10.7978595,41.2463528 C11.0793561,41.3952212 11.4282358,41.2877048 11.5771042,41.0062082 C11.7259726,40.7247116 11.6184562,40.3758318 11.3369596,40.2269634 L11.3369596,40.226579 Z"></path><path d="M6.21224067,31.3658286 C5.94059259,31.5319747 5.85506212,31.8868745 6.02120124,32.1585268 C6.70547262,33.2757639 7.51927692,34.3082923 8.4457106,35.2346651 C8.59132934,35.3803697 8.80361908,35.4373196 9.00261232,35.3840624 C9.20160556,35.3308052 9.3570705,35.1754318 9.41044498,34.97647 C9.46381947,34.7775081 9.40699466,34.5651849 9.2613759,34.4194803 C8.39921497,33.5574088 7.64185837,32.5965529 7.00503505,31.556868 C6.92524816,31.4263913 6.79689153,31.3329595 6.64820911,31.2971316 C6.49952668,31.2613036 6.34270109,31.2860151 6.21224067,31.3658286 L6.21224067,31.3658286 Z"></path><path d="M5.21005247,17.812408 C5.06526486,17.7631883 4.90685459,17.773504 4.76967308,17.8410856 C4.63249157,17.9086671 4.52777707,18.0279781 4.47856752,18.1727691 C3.42523883,21.2654289 3.3092306,24.6003812 4.1451134,27.7587583 C4.23252277,28.0589657 4.54328356,28.2347952 4.84563441,28.1551153 C5.14798526,28.0754354 5.33172829,27.7692872 5.25983035,27.4649919 C4.48185761,24.5256972 4.58977561,21.4220517 5.57002917,18.543893 C5.67255878,18.242498 5.51141189,17.915042 5.21005247,17.812408 L5.21005247,17.812408 Z"></path><path d="M0.42849335,5.93058244 C1.28633523,6.21916346 1.95950252,6.89286422 2.2474039,7.75093444 C2.3258487,7.98643446 2.54621065,8.1452977 2.79443202,8.1452977 C3.04265339,8.1452977 3.26301534,7.98643446 3.34146014,7.75093444 C3.62934846,6.89285614 4.30252072,6.21915041 5.16037069,5.93058244 C5.39572326,5.85204895 5.55444571,5.63175995 5.55444571,5.38365042 C5.55444571,5.13554088 5.39572326,4.91525188 5.16037069,4.83671839 C4.30252881,4.54813737 3.62936152,3.87443661 3.34146014,3.0163664 C3.26301534,2.78086638 3.04265339,2.62200314 2.79443202,2.62200314 C2.54621065,2.62200314 2.3258487,2.78086638 2.2474039,3.0163664 C1.95946334,3.87441236 1.28631094,4.54809822 0.42849335,4.83671839 C0.193140781,4.91525188 0.0344183285,5.13554088 0.0344183285,5.38365042 C0.0344183285,5.63175995 0.193140781,5.85204895 0.42849335,5.93058244 L0.42849335,5.93058244 Z M2.79448007,4.4506996 C3.05242171,4.81018085 3.36726579,5.12518722 3.72661407,5.38331408 C3.36726259,5.64147515 3.05241887,5.95651361 2.79448007,6.31602466 C2.53648359,5.95656256 2.22164856,5.64153279 1.86234607,5.38331408 C2.22164466,5.12524263 2.5364827,4.81033968 2.79448007,4.45098789 L2.79448007,4.4506996 Z"></path><path d="M38.8949728,41.6541855 C38.0371891,41.365599 37.3640652,40.6919417 37.0761583,39.8339296 C36.9977135,39.5984296 36.7773516,39.4395663 36.5291302,39.4395663 C36.2809088,39.4395663 36.0605469,39.5984296 35.9821021,39.8339296 C35.6942145,40.6919874 35.0210362,41.3656635 34.1631915,41.6541855 C33.9277652,41.7326747 33.7689724,41.9530001 33.7689724,42.2011656 C33.7689724,42.449331 33.9277652,42.6696565 34.1631915,42.7481456 C35.02102,43.0366937 35.6941883,43.7103599 35.9821021,44.5684015 C36.0605469,44.8039016 36.2809088,44.9627648 36.5291302,44.9627648 C36.7773516,44.9627648 36.9977135,44.8039016 37.0761583,44.5684015 C37.3640529,43.7103609 38.0371757,43.036669 38.8949728,42.7480495 C39.130399,42.6695604 39.2891918,42.4492349 39.2891918,42.2010695 C39.2891918,41.952904 39.130399,41.7325786 38.8949728,41.6540894 L38.8949728,41.6541855 Z M36.5290821,43.1340683 C36.2711156,42.7746082 35.9562753,42.4596056 35.5969481,42.2014539 C35.9562804,41.943498 36.2711263,41.6286521 36.5290821,41.2693199 C36.7870957,41.6286031 37.1019328,41.9434403 37.4612161,42.2014539 C37.1019609,42.4595763 36.7871306,42.7744716 36.5290821,43.13378 L36.5290821,43.1340683 Z"></path><path d="M31.5071862,45.9946625 C31.0529691,45.9944683 30.643371,46.2679376 30.4694239,46.6875274 C30.2954768,47.1071172 30.3914451,47.5901764 30.7125701,47.9114114 C31.0336951,48.2326464 31.5167215,48.3287801 31.9363708,48.1549767 C32.3560201,47.9811733 32.6296297,47.5716688 32.6295909,47.1174517 C32.6287444,46.4978534 32.1267842,45.9957212 31.5071862,45.9946625 L31.5071862,45.9946625 Z"></path><path d="M7.45822514,1.12288513 C7.45843742,1.7427876 7.9611116,2.24516065 8.58101409,2.24500149 C9.20091658,2.24484225 9.70333267,1.74221109 9.70322657,1.12230859 C9.70312044,0.502406094 9.2005323,-5.30329547e-05 8.58062979,-8.53506496e-17 C7.96099435,0.00105869936 7.45901864,0.503249289 7.45822514,1.12288513 Z"></path><path d="M42.2422948,0.209682101 C42.0171452,0.434846618 42.0171452,0.799894592 42.2422948,1.02505911 C43.6104176,2.39423903 44.3191278,4.2538944 44.3486293,6.53224131 C44.3519842,6.84965447 44.6078098,7.10650334 44.9252071,7.11112535 L44.9327987,7.11112535 C45.2536802,7.10377417 45.5081599,6.8382507 45.5018809,6.51734638 C45.4682472,3.9276475 44.6460473,1.80391953 43.0580562,0.214775205 C42.9505896,0.105858632 42.8042374,0.0441248088 42.651231,0.0431582798 C42.4982246,0.0422142563 42.3511129,0.102115874 42.2422948,0.209682101 L42.2422948,0.209682101 Z"></path><path d="M44.535921,10.0626268 C44.3875011,10.0257805 44.2305229,10.0494058 44.0995227,10.128305 C43.9685226,10.2072043 43.8742326,10.3349137 43.8373971,10.4833363 C43.7020935,11.0287788 43.5380571,11.5969962 43.3497084,12.1722286 C43.2793235,12.3696198 43.3215824,12.5896587 43.4600814,12.7469335 C43.5985805,12.9042082 43.8115095,12.9739518 44.0162165,12.9290921 C44.2209234,12.8842324 44.3851719,12.7318337 44.4452061,12.5310521 C44.6422035,11.929105 44.8142158,11.3335963 44.9562462,10.7610546 C45.0329373,10.4521352 44.8447931,10.1395079 44.535921,10.0626268 L44.535921,10.0626268 Z"></path></g><path d="M28.19763,4.50931834 C27.9240211,4.66979594 27.831422,5.02114174 27.9903937,5.29562832 C28.1493655,5.5701149 28.5001971,5.66464322 28.7755531,5.5071822 C31.7924961,3.75957509 34.4682011,2.70165105 36.7280015,2.36262335 C39.105808,2.00610612 40.9547967,2.46938633 42.2242287,3.73977926 C43.8698776,5.38658135 44.1591274,7.97762558 43.0840983,11.4422812 C42.1478321,14.4589359 40.1723807,18.0679281 37.3567595,21.9119718 C37.0121707,21.5722423 36.6148639,21.2905287 36.1802526,21.0777599 C38.7146961,17.6145458 40.5561893,14.3469837 41.5212843,11.5930562 C42.6283136,8.43658145 42.518956,6.07328543 41.2060885,4.75984136 C40.3004771,3.85346117 38.9197656,3.51712416 37.1019121,3.75803755 C35.4624133,3.97579174 33.5047397,4.65874807 31.2830897,5.78797555 C30.9991517,5.93227972 30.8859562,6.27943855 31.0302603,6.5633765 C31.1745645,6.84731446 31.5217233,6.96051001 31.8056613,6.81620584 C35.9462582,4.71169712 39.0753455,4.25927579 40.3904232,5.57521837 C42.4073882,7.59324043 40.2524289,13.648748 35.0272893,20.6993327 C34.770889,20.6525142 34.5107984,20.6288433 34.2501587,20.6286059 C32.8002189,20.6291418 31.4427732,21.340878 30.6176992,22.5331777 C29.7926253,23.7254774 29.6048896,25.2466555 30.1153276,26.603777 C29.390185,27.3894602 28.6385198,28.173702 27.8740738,28.9389168 C23.0164064,33.8001397 17.8560357,37.7655531 13.3436423,40.1047289 C9.08446263,42.3127334 5.87138713,42.8081097 4.5283454,41.4640109 C3.2130755,40.1474918 3.66501635,37.0161942 5.76798752,32.8721379 C5.86242625,32.6883222 5.85126703,32.4680213 5.73873721,32.2946894 C5.62620738,32.1213576 5.42951828,32.0215057 5.22317948,32.0329596 C5.01684067,32.0444134 4.8324115,32.1654212 4.73975724,32.3501428 C3.61139462,34.5732344 2.92891878,36.5323494 2.71126068,38.1728092 C2.470059,39.9915275 2.80678039,41.3728156 3.71229572,42.2791958 C4.42581066,42.9931912 5.44894785,43.3475943 6.73769517,43.3474982 C8.60551873,43.3474982 11.0306047,42.6024637 13.8739977,41.1284427 C18.4886376,38.7363178 23.7501977,34.6968142 28.6894508,29.7541016 C29.3717345,29.071818 30.0444085,28.3736784 30.6969984,27.6729443 C30.9845591,28.0614677 31.333432,28.4006037 31.7299374,28.6770544 C31.0695637,29.3858606 30.3920849,30.0891894 29.707591,30.7740676 C24.6166018,35.8686123 18.9897798,40.1607531 14.2697223,42.549899 C11.9685044,43.7146821 9.17171806,44.7937473 6.70800142,44.7936512 C5.17430465,44.7936512 3.76937692,44.3753441 2.69405945,43.2992579 C1.45153444,42.0550031 0.981335298,40.2547352 1.29729989,37.9463102 C1.59779299,35.7488764 2.59123642,33.1453396 4.25014665,30.2081566 C4.40375948,29.9311861 4.30520801,29.5821608 4.02941883,29.4264372 C3.75362964,29.2707136 3.40386186,29.3665966 3.24603653,29.6411885 C-0.49374273,36.2620306 -0.966440373,41.2667253 1.87877854,44.1139622 C3.09699119,45.3329436 4.72140285,45.9413292 6.70386928,45.9413292 C8.96049842,45.9413292 11.6807922,45.1525709 14.7908524,43.5782254 C19.6863818,41.1002865 25.2738044,36.8418756 30.5237368,31.5887719 C31.2948134,30.8170227 32.0571453,30.0224024 32.7966062,29.2222087 C34.4213052,29.7863336 36.2257088,29.3570623 37.4223164,28.1217429 C38.6189239,26.8864234 38.9905464,25.0692709 38.3749957,23.4633503 C38.2952834,23.2559132 38.1997716,23.0548984 38.0893015,22.8620758 C41.0847189,18.8158455 43.1899964,14.9917898 44.1854578,11.7839996 C45.3974242,7.8788386 45.0118859,4.89812392 43.0399901,2.92469054 C40.1362485,0.0192192577 35.0038418,0.566968102 28.19763,4.50931834 L28.19763,4.50931834 Z M34.2501587,28.3161212 C32.9268492,28.3182941 31.7326805,27.5226835 31.2250139,26.3006249 C30.7173473,25.0785662 30.9962752,23.671003 31.931612,22.7348953 C32.8669489,21.7987875 34.2742818,21.5187001 35.4967582,22.0253597 C36.7192347,22.5320194 37.5158289,23.7255321 37.5147429,25.0488429 C37.5134193,26.8517102 36.0530242,28.3133089 34.2501587,28.3161212 L34.2501587,28.3161212 Z" fill="#FFC221" class="secondary-fill-color"></path></svg>