<svg xmlns="http://www.w3.org/2000/svg" xmlns:xlink="http://www.w3.org/1999/xlink" width="48px" height="36px" viewBox="0 0 48 36"><path d="M0.711942223,14.5201234 L7.87574134,18.0089145 L7.87574134,23.8166485 C7.87574134,24.3050772 8.152468,24.7503704 8.58768357,24.9623857 L22.2925965,31.6366966 C22.4628589,31.7195087 22.649423,31.7625425 22.8385027,31.7625425 L25.1414723,31.7625425 C25.3305521,31.7625425 25.5170155,31.7195087 25.6874792,31.6366966 L39.3544554,24.9806979 C39.6194086,24.8514948 39.8312303,24.632765 39.9531913,24.3622522 C39.9703986,24.3241016 39.986801,24.2855441 40.0032033,24.2468849 C40.0699196,24.0889925 40.1043343,23.9189937 40.1043343,23.7473671 L40.1043343,18.0088128 L42.0584271,17.0571855 L42.0584271,24.9326791 C41.6355887,25.2176383 41.309655,25.6446192 41.1517699,26.1645857 L40.0399325,29.8272416 C39.902978,30.2789441 39.9067012,30.7554698 40.0509009,31.2049341 L41.0819342,34.4175153 C41.3759688,35.3338406 42.2134946,35.9693778 43.1658368,35.9989827 C43.1721764,35.9991861 43.1784153,35.9992879 43.1847549,35.9993896 L43.2161508,36 C43.2226916,36 43.2292324,36 43.2358738,36 C44.1721156,36 44.9988742,35.4308956 45.3421159,34.549974 L46.5342544,31.4906054 C46.7182021,31.0188612 46.7414472,30.4911628 46.5996625,30.0047688 L45.488127,26.189409 C45.3332607,25.6574378 45.0045094,25.2206903 44.574124,24.9311531 L44.574124,15.8321969 L47.2880578,14.5104585 C47.7232733,14.2984432 48,13.8532518 48,13.3647213 L48,12.3519515 C48,11.8635228 47.7232733,11.4182296 47.2880578,11.2062143 L24.5357931,0.125973104 C24.1907401,-0.0419910346 23.788933,-0.0419910346 23.4439807,0.125973104 L0.711942223,11.1965495 C0.276726659,11.4084631 0,11.8537562 0,12.3422867 L0,13.3744879 C0,13.8629166 0.276726659,14.3081081 0.711942223,14.5201234 Z M43.2585151,32.9587402 L42.4682844,30.4965548 L43.3111435,27.7197037 L44.1620528,30.6398991 L43.2585151,32.9587402 Z M37.5886374,23.0177252 L24.8542804,29.2193762 L23.1255941,29.2193762 L10.3914382,23.0177252 L10.3914382,19.2342083 L23.4440813,25.5909032 C23.6165575,25.6749362 23.8032222,25.7168509 23.9899875,25.7168509 C24.1767529,25.7168509 24.3633169,25.6749362 24.5358938,25.5909032 L37.5886374,19.2343101 L37.5886374,23.0177252 L37.5886374,23.0177252 Z M23.9898869,2.68317879 L44.8834541,12.8583873 L38.4671188,15.9831714 C38.4105659,16.0012802 38.3548181,16.0225427 38.300479,16.048892 L23.9898869,23.0183356 L9.67939539,16.048892 C9.62515697,16.0225427 9.56940913,16.0012802 9.51295689,15.9831714 L3.096521,12.8582856 L23.9898869,2.68317879 Z"></path></svg>