<svg xmlns="http://www.w3.org/2000/svg" xmlns:xlink="http://www.w3.org/1999/xlink" width="48px" height="35px" viewBox="0 0 48 35"><path d="M10.3990315,24.6751574 L10.3990315,4.96377724 C10.3992988,4.73562649 10.58444,4.55087551 10.8125908,4.5510894 L7.90702179,4.5510894 C7.67887099,4.55087551 7.49372978,4.73562649 7.49346246,4.96377724 L7.49346246,24.6751574 C7.49346246,24.7847503 7.5370333,24.8898466 7.61462711,24.9672405 C7.69222091,25.0446344 7.79742927,25.0879602 7.90702179,25.087653 L10.8125908,25.087653 C10.7029983,25.0879602 10.5977899,25.0446344 10.5201961,24.9672405 C10.4426023,24.8898466 10.3990053,24.7847503 10.3990315,24.6751574 L10.3990315,24.6751574 Z" fill="#D3E6FA"></path><path d="M7.9072155,25.6691525 L40.3596126,25.6691525 C40.908492,25.6687796 41.3535184,25.2242298 41.3544794,24.6753511 L41.3544794,4.96387409 C41.3535716,4.41497326 40.9085141,3.97039232 40.3596126,3.97007264 L38.5012107,3.97007264 C38.2935987,3.97007264 38.1017573,4.08083229 37.9979513,4.26062953 C37.8941453,4.44042677 37.8941453,4.66194611 37.9979513,4.84174335 C38.1017573,5.02154059 38.2935987,5.13230025 38.5012107,5.13230024 L40.1922518,5.13230024 L40.1922518,24.5069249 L8.07467312,24.5069249 L8.07467312,5.13230024 L33.8515254,5.13230024 C34.1724657,5.13230024 34.4326392,4.87212673 34.4326392,4.55118644 C34.4326392,4.23024615 34.1724657,3.97007264 33.8515254,3.97007264 L7.9072155,3.97007264 C7.35835182,3.9704457 6.91335322,4.41501104 6.91244552,4.96387409 L6.91244552,24.6753511 C6.91340646,25.224192 7.35837389,25.6687262 7.9072155,25.6691525 Z" fill="#0071DC" class="primary-fill-color"></path><path d="M35.7966102,5.13230024 L36.408523,5.13230024 C36.7294633,5.13230024 36.9896368,4.87212673 36.9896368,4.55118644 C36.9896368,4.23024615 36.7294633,3.97007264 36.408523,3.97007264 L35.7966102,3.97007264 C35.5889982,3.97007264 35.3971568,4.08083229 35.2933508,4.26062953 C35.1895448,4.44042677 35.1895448,4.66194611 35.2933508,4.84174335 C35.3971568,5.02154059 35.5889982,5.13230024 35.7966102,5.13230024 L35.7966102,5.13230024 Z" fill="#0071DC" class="primary-fill-color"></path><path d="M45.1648426,28.1009201 L45.1648426,2.87263923 C45.161478,1.28525131 43.8737837,-5.50541587e-15 42.2863923,-5.50541587e-15 L5.98053269,-5.50541587e-15 C4.39314121,-5.50541587e-15 3.10544691,1.28525131 3.10208232,2.87263923 L3.10208232,28.056368 C1.40227461,28.1161872 0.0645510577,29.5281755 0.0965697213,31.2287341 C0.128588385,32.9292926 1.51851572,34.2899239 3.21937046,34.285724 L44.6256659,34.285724 C45.4535062,34.2865882 46.2477396,33.9583424 46.8334202,33.3732794 C47.4191008,32.7882165 47.748184,31.9943299 47.748184,31.1664891 C47.7430412,29.6538799 46.6546936,28.3623723 45.1648426,28.1009201 Z M5.98053269,1.16222732 L42.2863923,1.16222732 C43.2321911,1.16168979 43.9999449,1.92684404 44.002615,2.87263923 L44.002615,28.0533656 L30.5426634,28.0533656 C29.5885971,28.0536841 28.8148037,28.8261776 28.8128814,29.7802421 C28.8117601,30.0927583 28.5578447,30.3453738 28.2453269,30.3448917 L19.0561743,30.3448917 C18.7436943,30.3453203 18.4898379,30.0927204 18.4887167,29.7802421 C18.4867943,28.8261776 17.713001,28.0536841 16.7589346,28.0533656 L4.26430993,28.0533656 L4.26430993,2.87263923 C4.26698001,1.92684404 5.03473388,1.16168979 5.98053269,1.16222732 L5.98053269,1.16222732 Z M46.0129782,32.5500242 C45.6455633,32.9186019 45.1460895,33.1250655 44.6256659,33.1234867 L3.21937046,33.1234867 C2.51801502,33.1284246 1.86781268,32.7570881 1.51570178,32.1505061 C1.16359089,31.5439241 1.16359089,30.7951558 1.51570178,30.1885738 C1.86781268,29.5819918 2.51801502,29.2106554 3.21937046,29.2155932 L16.759322,29.2155932 C17.0718179,29.2151638 17.325702,29.4677482 17.3268765,29.7802421 C17.3287456,30.734291 18.1025111,31.5068001 19.0565617,31.5071186 L28.2457143,31.5071186 C29.1998027,31.5068534 29.9736272,30.7343288 29.9754964,29.7802421 C29.9766709,29.4677482 30.230555,29.2151638 30.5430508,29.2155932 L44.6256659,29.2155932 C45.7052073,29.215318 46.5816884,30.0881183 46.5859676,31.1676513 C46.5877159,31.6865651 46.3813216,32.184514 46.0129782,32.5500242 L46.0129782,32.5500242 Z" fill="#0071DC" class="primary-fill-color"></path><g transform="translate(10.266344, 7.941889)" fill="#FFC221" class="secondary-fill-color"><path d="M25.6582082,1.03292978 L7.46547215,1.03292978 C7.14453186,1.03292978 6.88435835,1.29310329 6.88435835,1.61404358 C6.88435835,1.93498387 7.14453186,2.19515738 7.46547215,2.19515738 L25.6582082,2.19515738 C25.9791485,2.19515738 26.239322,1.93498387 26.239322,1.61404358 C26.239322,1.29310329 25.9791485,1.03292978 25.6582082,1.03292978 L25.6582082,1.03292978 Z"></path><path d="M0.330847458,2.57133172 L1.12813559,3.01801453 C1.55795049,3.26011367 2.09980097,3.15593844 2.40920097,2.77171913 L3.81956416,1.02731235 C4.01992891,0.777638997 3.98063017,0.412941122 3.73167464,0.211685171 C3.4827191,0.0104292197 3.11788308,0.0484240639 2.9157385,0.296658596 L1.58547215,1.94208232 L0.898983051,1.55738499 C0.618989392,1.40049868 0.264828201,1.5002969 0.107941889,1.78029056 C-0.0489444234,2.06028422 0.0508537992,2.41444541 0.330847458,2.57133172 L0.330847458,2.57133172 Z"></path><path d="M25.6582082,6.29317191 L7.46547215,6.29317191 C7.14453186,6.29317191 6.88435835,6.55334542 6.88435835,6.87428571 C6.88435835,7.195226 7.14453186,7.45539952 7.46547215,7.45539952 L25.6582082,7.45539952 C25.9791485,7.45539952 26.239322,7.195226 26.239322,6.87428571 C26.239322,6.55334542 25.9791485,6.29317191 25.6582082,6.29317191 L25.6582082,6.29317191 Z"></path><path d="M0.330847458,7.8316707 L1.12813559,8.27835351 C1.55795049,8.52045266 2.09980097,8.41627743 2.40920097,8.03205811 L3.81956416,6.28765133 C4.02135537,6.03806677 3.9826112,5.6721544 3.73302663,5.4703632 C3.48344207,5.26857199 3.11752971,5.30731616 2.9157385,5.55690073 L1.58547215,7.20232446 L0.898983051,6.81772397 C0.618989392,6.66083766 0.264828201,6.76063588 0.107941889,7.04062954 C-0.0489444234,7.3206232 0.0508537992,7.67478439 0.330847458,7.8316707 L0.330847458,7.8316707 Z"></path><path d="M25.6582082,11.5535109 L7.46547215,11.5535109 C7.14453186,11.5535109 6.88435835,11.8136844 6.88435835,12.1346247 C6.88435835,12.455565 7.14453186,12.7157385 7.46547215,12.7157385 L25.6582082,12.7157385 C25.9791485,12.7157385 26.239322,12.455565 26.239322,12.1346247 C26.239322,11.8136844 25.9791485,11.5535109 25.6582082,11.5535109 L25.6582082,11.5535109 Z"></path><path d="M0.330847458,13.0920097 L1.12813559,13.5386925 C1.55797109,13.7806652 2.09973494,13.6765066 2.40920097,13.2923971 L3.81956416,11.5478935 C3.95097248,11.3865234 3.98605745,11.1672026 3.91154777,10.9728916 C3.8370381,10.7785807 3.66430994,10.638947 3.45869971,10.6068087 C3.25308947,10.5746704 3.0459898,10.6549343 2.9157385,10.8172397 L1.58547215,12.4626634 L0.898983051,12.078063 C0.618989392,11.9211766 0.264828201,12.0209749 0.107941889,12.3009685 C-0.0489444234,12.5809622 0.0508537992,12.9351234 0.330847458,13.0920097 L0.330847458,13.0920097 Z"></path></g></svg>