<svg xmlns="http://www.w3.org/2000/svg" xmlns:xlink="http://www.w3.org/1999/xlink" width="50px" height="37px" viewBox="0 0 50 37"><polygon fill="#D3E6FA" points="3.77277689 28.7025282 24.2535657 28.7025282 24.2535657 27.6245293 3.77277689 27.6245293"></polygon><polygon fill="#D3E6FA" points="2.33552855 31.577192 22.8163174 31.577192 22.8163174 30.1398601 2.33552855 30.1398601"></polygon><polygon fill="#FDE5A4" points="32.5177436 23.6718666 47.9681633 23.6718666 47.9681633 3.54922001 32.5177436 3.54922001"></polygon><g><path d="M43.3325445,4.67004901 L32.605525,4.67004901 C32.4571874,4.67004901 32.3372549,4.55040019 32.3372549,4.40311594 C32.3372549,4.2558317 32.4571874,4.13618288 32.605525,4.13618288 L43.3325445,4.13618288 C43.4805666,4.13618288 43.6008147,4.2558317 43.6008147,4.40311594 C43.6008147,4.55040019 43.4805666,4.67004901 43.3325445,4.67004901" fill="#FFFFFF"></path><path d="M43.3325445,7.22177211 L32.605525,7.22177211 C32.4571874,7.22177211 32.3372549,7.10212329 32.3372549,6.95483904 C32.3372549,6.8075548 32.4571874,6.68790598 32.605525,6.68790598 L43.3325445,6.68790598 C43.4805666,6.68790598 43.6008147,6.8075548 43.6008147,6.95483904 C43.6008147,7.10212329 43.4805666,7.22177211 43.3325445,7.22177211" fill="#FFFFFF"></path><path d="M43.3325445,9.77333819 L32.605525,9.77333819 C32.4571874,9.77333819 32.3372549,9.65368937 32.3372549,9.50640512 C32.3372549,9.35912088 32.4571874,9.23947206 32.605525,9.23947206 L43.3325445,9.23947206 C43.4805666,9.23947206 43.6008147,9.35912088 43.6008147,9.50640512 C43.6008147,9.65368937 43.4805666,9.77333819 43.3325445,9.77333819" fill="#FFFFFF"></path><path d="M43.3325445,12.3250613 L32.605525,12.3250613 C32.4571874,12.3250613 32.3372549,12.2054125 32.3372549,12.0581282 C32.3372549,11.910844 32.4571874,11.7911952 32.605525,11.7911952 L43.3325445,11.7911952 C43.4805666,11.7911952 43.6008147,11.910844 43.6008147,12.0581282 C43.6008147,12.2054125 43.4805666,12.3250613 43.3325445,12.3250613" fill="#FFFFFF"></path><polygon fill="#FFFFFF" points="8.32174071 26.3668397 36.4970521 26.3668397 36.4970521 8.27945513 8.32174071 8.27945513"></polygon><path d="M8.58969527,26.0999067 L36.2284664,26.0999067 L36.2284664,8.5463882 L8.58969527,8.5463882 L8.58969527,26.0999067 Z M36.4970521,26.6337728 L8.3214251,26.6337728 C8.17340309,26.6337728 8.05315493,26.514438 8.05315493,26.3668397 L8.05315493,8.27976917 C8.05315493,8.13217089 8.17340309,8.01283611 8.3214251,8.01283611 L36.4970521,8.01283611 C36.6450742,8.01283611 36.7653223,8.13217089 36.7653223,8.27976917 L36.7653223,26.3668397 C36.7653223,26.514438 36.6450742,26.6337728 36.4970521,26.6337728 L36.4970521,26.6337728 Z" fill="#7692C4"></path><polygon fill="#FFFFFF" points="36.4969575 26.3490023 36.4969575 26.3669026 8.32164603 26.3669026 8.32164603 26.3490023 4.00438994 35.468064 12.4937206 35.468064 32.3245673 35.468064 39.9052511 35.468064"></polygon><path d="M4.42718373,35.2011309 L39.5191314,35.2011309 L36.317248,26.6338356 L8.48311311,26.6338356 L4.42718373,35.2011309 Z M39.9051248,35.7349971 L4.0042637,35.7349971 C3.91242062,35.7349971 3.82688977,35.6882053 3.77765431,35.6109517 C3.72873445,35.5340122 3.72242221,35.4369741 3.7615581,35.3543819 L8.07881418,26.2353203 C8.1321526,26.1222663 8.25713494,26.0613427 8.379908,26.08835 C8.3931637,26.0914904 8.40578818,26.0952589 8.41841266,26.0999695 L36.4283434,26.0999695 C36.4352869,26.0980853 36.4422303,26.0965151 36.4494894,26.0952589 C36.5773123,26.0732762 36.7032414,26.1351418 36.748374,26.2560468 L40.1566676,35.3751085 C40.1872819,35.4570726 40.1756043,35.5484579 40.125422,35.6203729 C40.0752397,35.6922878 39.992865,35.7349971 39.9051248,35.7349971 L39.9051248,35.7349971 Z" fill="#7692C4"></path><path d="M11.4751461,28.0147275 C10.9218783,28.0147275 10.4718157,28.462547 10.4718157,29.0130572 C10.4718157,29.5635674 10.9218783,30.0113868 11.4751461,30.0113868 C12.0284139,30.0113868 12.4787922,29.5635674 12.4787922,29.0130572 C12.4787922,28.462547 12.0284139,28.0147275 11.4751461,28.0147275 M11.4751461,30.545253 C10.6261499,30.545253 9.93527533,29.8578218 9.93527533,29.0130572 C9.93527533,28.1682925 10.6261499,27.4808614 11.4751461,27.4808614 C12.3244579,27.4808614 13.0153325,28.1682925 13.0153325,29.0130572 C13.0153325,29.8578218 12.3244579,30.545253 11.4751461,30.545253" fill="#C9D5E9"></path><path d="M15.9470205,28.0147275 C15.3937527,28.0147275 14.9436901,28.462547 14.9436901,29.0130572 C14.9436901,29.5635674 15.3937527,30.0113868 15.9470205,30.0113868 C16.5006039,30.0113868 16.9509822,29.5635674 16.9509822,29.0130572 C16.9509822,28.462547 16.5006039,28.0147275 15.9470205,28.0147275 M15.9470205,30.545253 C15.0980243,30.545253 14.4071497,29.8578218 14.4071497,29.0130572 C14.4071497,28.1682925 15.0980243,27.4808614 15.9470205,27.4808614 C16.7963323,27.4808614 17.4875225,28.1682925 17.4875225,29.0130572 C17.4875225,29.8578218 16.7963323,30.545253 15.9470205,30.545253" fill="#C9D5E9"></path><path d="M20.4192421,28.0147275 C19.8659743,28.0147275 19.4159116,28.462547 19.4159116,29.0130572 C19.4159116,29.5635674 19.8659743,30.0113868 20.4192421,30.0113868 C20.9725098,30.0113868 21.4228881,29.5635674 21.4228881,29.0130572 C21.4228881,28.462547 20.9725098,28.0147275 20.4192421,28.0147275 M20.4192421,30.545253 C19.5702459,30.545253 18.8793713,29.8578218 18.8793713,29.0130572 C18.8793713,28.1682925 19.5702459,27.4808614 20.4192421,27.4808614 C21.2685539,27.4808614 21.9594284,28.1682925 21.9594284,29.0130572 C21.9594284,29.8578218 21.2685539,30.545253 20.4192421,30.545253" fill="#C9D5E9"></path><path d="M24.8911164,28.0147275 C24.3378487,28.0147275 23.887786,28.462547 23.887786,29.0130572 C23.887786,29.5635674 24.3378487,30.0113868 24.8911164,30.0113868 C25.4443842,30.0113868 25.8947625,29.5635674 25.8947625,29.0130572 C25.8947625,28.462547 25.4443842,28.0147275 24.8911164,28.0147275 M24.8911164,30.545253 C24.0421203,30.545253 23.3512457,29.8578218 23.3512457,29.0130572 C23.3512457,28.1682925 24.0421203,27.4808614 24.8911164,27.4808614 C25.7404282,27.4808614 26.4313028,28.1682925 26.4313028,29.0130572 C26.4313028,29.8578218 25.7404282,30.545253 24.8911164,30.545253" fill="#C9D5E9"></path><path d="M29.3633064,28.0147275 C28.8100387,28.0147275 28.359976,28.462547 28.359976,29.0130572 C28.359976,29.5635674 28.8100387,30.0113868 29.3633064,30.0113868 C29.9165742,30.0113868 30.3666369,29.5635674 30.3666369,29.0130572 C30.3666369,28.462547 29.9165742,28.0147275 29.3633064,28.0147275 M29.3633064,30.545253 C28.5143103,30.545253 27.8234357,29.8578218 27.8234357,29.0130572 C27.8234357,28.1682925 28.5143103,27.4808614 29.3633064,27.4808614 C30.2123026,27.4808614 30.9031772,28.1682925 30.9031772,29.0130572 C30.9031772,29.8578218 30.2123026,30.545253 29.3633064,30.545253" fill="#C9D5E9"></path><path d="M33.7356368,28.0147275 C33.182369,28.0147275 32.7323064,28.462547 32.7323064,29.0130572 C32.7323064,29.5635674 33.182369,30.0113868 33.7356368,30.0113868 C34.2892202,30.0113868 34.7395985,29.5635674 34.7395985,29.0130572 C34.7395985,28.462547 34.2892202,28.0147275 33.7356368,28.0147275 M33.7356368,30.545253 C32.8866406,30.545253 32.195766,29.8578218 32.195766,29.0130572 C32.195766,28.1682925 32.8866406,27.4808614 33.7356368,27.4808614 C34.5849486,27.4808614 35.2761388,28.1682925 35.2761388,29.0130572 C35.2761388,29.8578218 34.5849486,30.545253 33.7356368,30.545253" fill="#C9D5E9"></path><path d="M8.59364042,31.9205863 C8.04037264,31.9205863 7.58999437,32.3684058 7.58999437,32.91923 C7.58999437,33.4697402 8.04037264,33.9172457 8.59364042,33.9172457 C9.1469082,33.9172457 9.59697086,33.4697402 9.59697086,32.91923 C9.59697086,32.3684058 9.1469082,31.9205863 8.59364042,31.9205863 M8.59364042,34.4514258 C7.74432862,34.4514258 7.05345402,33.7639947 7.05345402,32.91923 C7.05345402,32.0741514 7.74432862,31.3867202 8.59364042,31.3867202 C9.44263661,31.3867202 10.1335112,32.0741514 10.1335112,32.91923 C10.1335112,33.7639947 9.44263661,34.4514258 8.59364042,34.4514258" fill="#C9D5E9"></path><path d="M13.0658304,31.9205863 C12.512247,31.9205863 12.0618688,32.3684058 12.0618688,32.91923 C12.0618688,33.4697402 12.512247,33.9172457 13.0658304,33.9172457 C13.6190982,33.9172457 14.0691609,33.4697402 14.0691609,32.91923 C14.0691609,32.3684058 13.6190982,31.9205863 13.0658304,31.9205863 M13.0658304,34.4514258 C12.2165186,34.4514258 11.5253284,33.7639947 11.5253284,32.91923 C11.5253284,32.0741514 12.2165186,31.3867202 13.0658304,31.3867202 C13.9148266,31.3867202 14.6057012,32.0741514 14.6057012,32.91923 C14.6057012,33.7639947 13.9148266,34.4514258 13.0658304,34.4514258" fill="#C9D5E9"></path><path d="M17.5371051,31.9205863 C16.984153,31.9205863 16.5340903,32.3684058 16.5340903,32.91923 C16.5340903,33.4697402 16.984153,33.9172457 17.5371051,33.9172457 C18.0903729,33.9172457 18.5407512,33.4697402 18.5407512,32.91923 C18.5407512,32.3684058 18.0903729,31.9205863 17.5371051,31.9205863 M17.5371051,34.4514258 C16.688109,34.4514258 15.99755,33.7639947 15.99755,32.91923 C15.99755,32.0741514 16.688109,31.3867202 17.5371051,31.3867202 C18.3864169,31.3867202 19.0772915,32.0741514 19.0772915,32.91923 C19.0772915,33.7639947 18.3864169,34.4514258 17.5371051,34.4514258" fill="#C9D5E9"></path><path d="M22.0090111,31.9205863 C21.4560589,31.9205863 21.0059963,32.3684058 21.0059963,32.91923 C21.0059963,33.4697402 21.4560589,33.9172457 22.0090111,33.9172457 C22.5622789,33.9172457 23.0126571,33.4697402 23.0126571,32.91923 C23.0126571,32.3684058 22.5622789,31.9205863 22.0090111,31.9205863 M22.0090111,34.4514258 C21.1600149,34.4514258 20.4694559,33.7639947 20.4694559,32.91923 C20.4694559,32.0741514 21.1600149,31.3867202 22.0090111,31.3867202 C22.8583229,31.3867202 23.5491975,32.0741514 23.5491975,32.91923 C23.5491975,33.7639947 22.8583229,34.4514258 22.0090111,34.4514258" fill="#C9D5E9"></path><path d="M26.4815167,31.9205863 C25.9282489,31.9205863 25.4781863,32.3684058 25.4781863,32.91923 C25.4781863,33.4697402 25.9282489,33.9172457 26.4815167,33.9172457 C27.0347845,33.9172457 27.4848471,33.4697402 27.4848471,32.91923 C27.4848471,32.3684058 27.0347845,31.9205863 26.4815167,31.9205863 M26.4815167,34.4514258 C25.6325205,34.4514258 24.9416459,33.7639947 24.9416459,32.91923 C24.9416459,32.0741514 25.6325205,31.3867202 26.4815167,31.3867202 C27.3305129,31.3867202 28.0213875,32.0741514 28.0213875,32.91923 C28.0213875,33.7639947 27.3305129,34.4514258 26.4815167,34.4514258" fill="#C9D5E9"></path><path d="M30.9533911,31.9205863 C30.4001233,31.9205863 29.9500606,32.3684058 29.9500606,32.91923 C29.9500606,33.4697402 30.4001233,33.9172457 30.9533911,33.9172457 C31.5063433,33.9172457 31.9564059,33.4697402 31.9564059,32.91923 C31.9564059,32.3684058 31.5063433,31.9205863 30.9533911,31.9205863 M30.9533911,34.4514258 C30.1043949,34.4514258 29.4135203,33.7639947 29.4135203,32.91923 C29.4135203,32.0741514 30.1043949,31.3867202 30.9533911,31.3867202 C31.8023873,31.3867202 32.4929463,32.0741514 32.4929463,32.91923 C32.4929463,33.7639947 31.8023873,34.4514258 30.9533911,34.4514258" fill="#C9D5E9"></path><path d="M35.4249814,31.9205863 C34.8717136,31.9205863 34.4213354,32.3684058 34.4213354,32.91923 C34.4213354,33.4697402 34.8717136,33.9172457 35.4249814,33.9172457 C35.9782492,33.9172457 36.4286275,33.4697402 36.4286275,32.91923 C36.4286275,32.3684058 35.9782492,31.9205863 35.4249814,31.9205863 M35.4249814,34.4514258 C34.5756696,34.4514258 33.884795,33.7639947 33.884795,32.91923 C33.884795,32.0741514 34.5756696,31.3867202 35.4249814,31.3867202 C36.2742932,31.3867202 36.9651678,32.0741514 36.9651678,32.91923 C36.9651678,33.7639947 36.2742932,34.4514258 35.4249814,34.4514258" fill="#C9D5E9"></path><path d="M40.0719258,37.1468531 L3.97254469,37.1468531 C3.82452268,37.1468531 3.70427452,37.0272043 3.70427452,36.8799201 L3.70427452,35.3012465 C3.70427452,35.1536482 3.82452268,35.0339994 3.97254469,35.0339994 C4.12056671,35.0339994 4.24081487,35.1536482 4.24081487,35.3012465 L4.24081487,36.612987 L39.8036556,36.612987 L39.8036556,35.3012465 C39.8036556,35.1536482 39.9239038,35.0339994 40.0719258,35.0339994 C40.2199478,35.0339994 40.3401959,35.1536482 40.3401959,35.3012465 L40.3401959,36.8799201 C40.3401959,37.0272043 40.2199478,37.1468531 40.0719258,37.1468531" fill="#7692C4"></path><path d="M40.2352865,23.8779558 C39.7811209,23.8779558 39.4112237,24.2456954 39.4112237,24.6975974 C39.4112237,25.1491853 39.7811209,25.5166108 40.2352865,25.5166108 C40.6891365,25.5166108 41.0584025,25.1491853 41.0584025,24.6975974 C41.0584025,24.2456954 40.6891365,23.8779558 40.2352865,23.8779558 M40.2352865,26.050477 C39.4850769,26.050477 38.8746833,25.4434398 38.8746833,24.6975974 C38.8746833,23.9511269 39.4850769,23.3440897 40.2352865,23.3440897 C40.9848649,23.3440897 41.5949429,23.9511269 41.5949429,24.6975974 C41.5949429,25.4434398 40.9848649,26.050477 40.2352865,26.050477" fill="#99A9C6"></path><path d="M4.75235874,11.4629931 C4.42727842,11.4629931 4.16279559,11.7261577 4.16279559,12.0496178 C4.16279559,12.3727638 4.42727842,12.6359284 4.75235874,12.6359284 C5.07743907,12.6359284 5.34223751,12.3727638 5.34223751,12.0496178 C5.34223751,11.7261577 5.07743907,11.4629931 4.75235874,11.4629931 M4.75235874,13.1701086 C4.13155,13.1701086 3.62625525,12.6673323 3.62625525,12.0496178 C3.62625525,11.4315892 4.13155,10.929127 4.75235874,10.929127 C5.37348309,10.929127 5.87877785,11.4315892 5.87877785,12.0496178 C5.87877785,12.6673323 5.37348309,13.1701086 4.75235874,13.1701086" fill="#99A9C6"></path><polygon fill="#FDE5A4" points="11.3077455 23.8312897 26.1247805 23.8312897 26.1247805 13.5113432 11.3077455 13.5113432"></polygon><polygon fill="#D3E6FA" points="23.1611841 18.7099432 34.2350612 18.7099432 34.2350612 9.71681119 23.1611841 9.71681119"></polygon><polygon fill="#FFFFFF" points="12.6333158 17.2358446 23.3177277 17.2358446 23.3177277 15.2960263 12.6333158 15.2960263"></polygon><polygon fill="#FFFFFF" points="23.5121446 11.7957487 33.4356161 11.7957487 33.4356161 11.2606264 23.5121446 11.2606264"></polygon><polygon fill="#FFFFFF" points="23.5121446 13.0264672 33.4356161 13.0264672 33.4356161 12.4913449 23.5121446 12.4913449"></polygon><path d="M27.7605973,11.7334748 C27.7605973,8.94700763 25.4913473,6.68843984 22.6912379,6.68843984 C19.8901817,6.68843984 17.6209317,8.94700763 17.6209317,11.7334748 C17.6209317,13.374014 18.411224,14.8277001 19.6304331,15.7490903 C20.0779708,16.3002285 20.5873685,17.1368282 20.5873685,18.088366 L20.5873685,18.8524227 L24.7944761,18.8524227 L24.7944761,18.088366 C24.7944761,17.1368282 25.3038738,16.3002285 25.7510959,15.7490903 C26.970305,14.8277001 27.7605973,13.374014 27.7605973,11.7334748" fill="#FFC221"></path><path d="M20.8558281,18.5854268 L24.5260796,18.5854268 L24.5260796,18.0883032 C24.5260796,17.0519748 25.0787162,16.1528815 25.5423502,15.5813307 C25.5559215,15.5643726 25.5713865,15.5496127 25.5887451,15.5364231 C26.7984858,14.6222559 27.4922009,13.2360881 27.4922009,11.733412 C27.4922009,9.09893965 25.3384648,6.9553101 22.6911117,6.9553101 C20.0434429,6.9553101 17.8893912,9.09893965 17.8893912,11.733412 C17.8893912,13.2360881 18.5831063,14.6222559 19.792847,15.5364231 C19.8102056,15.5496127 19.8256706,15.5643726 19.8392419,15.5813307 C20.3031915,16.1525674 20.8558281,17.0513468 20.8558281,18.0883032 L20.8558281,18.5854268 Z M24.7943498,19.1192929 L20.5875579,19.1192929 C20.4395359,19.1192929 20.3192877,18.9996441 20.3192877,18.8523599 L20.3192877,18.0883032 C20.3192877,17.2215559 19.8468166,16.4465078 19.4418865,15.9415333 C18.1137913,14.9253034 17.3525353,13.3934216 17.3525353,11.733412 C17.3525353,8.80437116 19.7473989,6.42144397 22.6911117,6.42144397 C25.6345089,6.42144397 28.0290569,8.80437116 28.0290569,11.733412 C28.0290569,13.3934216 27.2678008,14.9253034 25.9397056,15.9415333 C25.5347755,16.4468219 25.06262,17.2218699 25.06262,18.0883032 L25.06262,18.8523599 C25.06262,18.9996441 24.9423718,19.1192929 24.7943498,19.1192929 L24.7943498,19.1192929 Z" fill="#0071DC"></path><path d="M22.5520846,13.2884698 C22.4640289,13.2884698 22.3816541,13.2454465 22.3314718,13.1735316 L21.6551154,12.2018952 L20.9768653,13.1738456 C20.926683,13.2454465 20.8443083,13.2884698 20.7565681,13.2884698 C20.6685124,13.2884698 20.5861377,13.2454465 20.5359554,13.1735316 L19.6383549,11.8856581 C19.5540865,11.764439 19.5843853,11.5979984 19.7058959,11.51415 C19.8280377,11.4303017 19.9946808,11.4601353 20.0795805,11.5813544 L20.7565681,12.5533048 L21.4348182,11.5810403 C21.4850005,11.5094395 21.5673753,11.4664161 21.6551154,11.4664161 C21.7431711,11.4664161 21.8255459,11.5094395 21.8757282,11.5813544 L22.5524002,12.5533048 L23.2309659,11.5810403 C23.2814639,11.5094395 23.363523,11.4664161 23.4512631,11.4664161 C23.5393188,11.4664161 23.6216936,11.5091254 23.6715602,11.5810403 L24.3520196,12.5542469 L25.032479,11.5810403 C25.1167474,11.4601353 25.2840218,11.4299876 25.405848,11.5144641 C25.5273586,11.5986265 25.5573417,11.7647531 25.4727577,11.8859721 L24.5723168,13.1738456 C24.4719522,13.3173614 24.2320871,13.3173614 24.1317225,13.1738456 L23.4515787,12.2012672 L22.7723818,13.1738456 C22.7221994,13.2457605 22.6398247,13.2884698 22.5520846,13.2884698" fill="#FFFFFF"></path><path d="M22.6910801,5.1131893 C22.5430581,5.1131893 22.4228099,4.99354048 22.4228099,4.84625624 L22.4228099,2.45547807 C22.4228099,2.30819383 22.5430581,2.18854501 22.6910801,2.18854501 C22.8391021,2.18854501 22.9593503,2.30819383 22.9593503,2.45547807 L22.9593503,4.84625624 C22.9593503,4.99354048 22.8391021,5.1131893 22.6910801,5.1131893" fill="#0071DC"></path><path d="M16.5868922,10.5746713 L14.1838227,10.5746713 C14.0358007,10.5746713 13.9155525,10.4550224 13.9155525,10.3077382 C13.9155525,10.1604539 14.0358007,10.0408051 14.1838227,10.0408051 L16.5868922,10.0408051 C16.7349142,10.0408051 16.8551624,10.1604539 16.8551624,10.3077382 C16.8551624,10.4550224 16.7349142,10.5746713 16.5868922,10.5746713" fill="#0071DC"></path><path d="M18.4022607,6.40385779 C18.3337729,6.40385779 18.2649695,6.37779256 18.2125779,6.3256621 L16.5130074,4.63519069 C16.4082243,4.53092978 16.4082243,4.36197685 16.5130074,4.25771593 C16.617475,4.15314098 16.7872742,4.15314098 16.892373,4.25771593 L18.5919435,5.94818734 C18.6967266,6.05244826 18.6967266,6.22140119 18.5919435,6.3256621 C18.5395519,6.37779256 18.4710641,6.40385779 18.4022607,6.40385779" fill="#0071DC"></path><path d="M31.1719208,10.5746713 L28.7688513,10.5746713 C28.6208293,10.5746713 28.5005811,10.4550224 28.5005811,10.3077382 C28.5005811,10.1604539 28.6208293,10.0408051 28.7688513,10.0408051 L31.1719208,10.0408051 C31.3199428,10.0408051 31.440191,10.1604539 31.440191,10.3077382 C31.440191,10.4550224 31.3199428,10.5746713 31.1719208,10.5746713" fill="#0071DC"></path><path d="M26.9533881,6.40385779 C26.8845847,6.40385779 26.8160969,6.37779256 26.7637054,6.3256621 C26.6589222,6.22140119 26.6589222,6.05244826 26.7637054,5.94818734 L28.4626446,4.25771593 C28.5674277,4.15314098 28.737227,4.15314098 28.8420102,4.25771593 C28.9467933,4.36197685 28.9467933,4.53092978 28.8420102,4.63519069 L27.1430709,6.3256621 C27.0906794,6.37779256 27.0221916,6.40385779 26.9533881,6.40385779" fill="#0071DC"></path><path d="M21.4150609,21.9690076 L23.9582622,21.9690076 C24.4689223,21.5780291 24.8053647,20.9656533 24.8053647,20.2728834 L24.8053647,18.7877935 L20.568274,18.7877935 L20.568274,20.2728834 C20.568274,20.9656533 20.905032,21.5780291 21.4150609,21.9690076" fill="#FFFFFF"></path><path d="M21.5096814,21.7020431 L23.8635154,21.7020431 C24.2927477,21.3421545 24.5370314,20.8258745 24.5370314,20.272852 L24.5370314,19.0546951 L20.8367967,19.0546951 L20.8367967,20.272852 C20.8367967,20.8258745 21.0807647,21.3421545 21.5096814,21.7020431 M23.958199,22.2359092 L21.4149978,22.2359092 C21.3559784,22.2359092 21.2982214,22.2164388 21.2515108,22.1803243 C20.6467983,21.717117 20.2999407,21.0218348 20.2999407,20.272852 L20.2999407,18.7877621 C20.2999407,18.6404778 20.4201889,18.520829 20.5685265,18.520829 L24.8053015,18.520829 C24.9536392,18.520829 25.0735717,18.6404778 25.0735717,18.7877621 L25.0735717,20.272852 C25.0735717,21.0221489 24.7267142,21.717431 24.121686,22.1806384 C24.0746598,22.2164388 24.0172185,22.2359092 23.958199,22.2359092" fill="#0071DC"></path><path d="M23.5513121,20.1409243 L20.6656719,20.1409243 C20.5176499,20.1409243 20.3974017,20.0212755 20.3974017,19.8739912 C20.3974017,19.726707 20.5176499,19.6070582 20.6656719,19.6070582 L23.5513121,19.6070582 C23.6993341,19.6070582 23.8195823,19.726707 23.8195823,19.8739912 C23.8195823,20.0212755 23.6993341,20.1409243 23.5513121,20.1409243" fill="#0071DC"></path><path d="M24.5262059,21.0721439 L21.7185218,21.0721439 C21.5704998,21.0721439 21.4502517,20.952495 21.4502517,20.8052108 C21.4502517,20.6579265 21.5704998,20.5382777 21.7185218,20.5382777 L24.5262059,20.5382777 C24.6742279,20.5382777 24.7944761,20.6579265 24.7944761,20.8052108 C24.7944761,20.952495 24.6742279,21.0721439 24.5262059,21.0721439" fill="#0071DC"></path><path d="M8.8174093,2.45783337 L2.25962387,2.45783337 L2.25962387,4.79962146 L2.25962387,6.97434086 C2.25962387,8.26755306 3.44537803,9.31612895 4.90792388,9.31612895 L8.02490766,9.31612895 L10.2755366,11.3068216 L10.2755366,9.31612895 L11.4660249,9.31612895 L11.4660249,6.97434086 L11.4660249,4.79962146 C11.4660249,3.50640926 10.2802708,2.45783337 8.8174093,2.45783337" fill="#0071DC"></path><path d="M9.12964422,5.46067335 L4.60660913,5.46067335 C4.45858712,5.46067335 4.33833896,5.34102453 4.33833896,5.19374028 C4.33833896,5.04645604 4.45858712,4.92680722 4.60660913,4.92680722 L9.12964422,4.92680722 C9.27766623,4.92680722 9.39791439,5.04645604 9.39791439,5.19374028 C9.39791439,5.34102453 9.27766623,5.46067335 9.12964422,5.46067335" fill="#FFFFFF"></path><path d="M9.12964422,7.01965667 L4.60660913,7.01965667 C4.45858712,7.01965667 4.33833896,6.90000785 4.33833896,6.75272361 C4.33833896,6.60543936 4.45858712,6.48579054 4.60660913,6.48579054 L9.12964422,6.48579054 C9.27766623,6.48579054 9.39791439,6.60543936 9.39791439,6.75272361 C9.39791439,6.90000785 9.27766623,7.01965667 9.12964422,7.01965667" fill="#FFFFFF"></path><path d="M46.2839898,28.1958337 L40.0607531,28.1958337 C39.9127311,28.1958337 39.7924829,28.0761849 39.7924829,27.9289007 C39.7924829,27.7816164 39.9127311,27.6619676 40.0607531,27.6619676 L46.2839898,27.6619676 C46.4320119,27.6619676 46.55226,27.7816164 46.55226,27.9289007 C46.55226,28.0761849 46.4320119,28.1958337 46.2839898,28.1958337" fill="#99A9C6"></path><path d="M42.777604,33.0591344 L42.1681573,33.0591344 C42.0201353,33.0591344 41.8998872,32.9394855 41.8998872,32.7922013 C41.8998872,32.6449171 42.0201353,32.5252682 42.1681573,32.5252682 L42.777604,32.5252682 C42.925626,32.5252682 43.0458742,32.6449171 43.0458742,32.7922013 C43.0458742,32.9394855 42.925626,33.0591344 42.777604,33.0591344" fill="#99A9C6"></path><path d="M45.1138585,33.0591344 L44.5044118,33.0591344 C44.3563898,33.0591344 44.2361416,32.9394855 44.2361416,32.7922013 C44.2361416,32.6449171 44.3563898,32.5252682 44.5044118,32.5252682 L45.1138585,32.5252682 C45.2618805,32.5252682 45.3821287,32.6449171 45.3821287,32.7922013 C45.3821287,32.9394855 45.2618805,33.0591344 45.1138585,33.0591344" fill="#99A9C6"></path><path d="M43.6408974,32.2001124 C43.4928754,32.2001124 43.3726273,32.0804635 43.3726273,31.9331793 L43.3726273,31.3267702 C43.3726273,31.1794859 43.4928754,31.0598371 43.6408974,31.0598371 C43.7889195,31.0598371 43.9091676,31.1794859 43.9091676,31.3267702 L43.9091676,31.9331793 C43.9091676,32.0804635 43.7889195,32.2001124 43.6408974,32.2001124" fill="#99A9C6"></path><path d="M43.6408974,34.5242829 C43.4928754,34.5242829 43.3726273,34.404634 43.3726273,34.2573498 L43.3726273,33.6509407 C43.3726273,33.5036564 43.4928754,33.3840076 43.6408974,33.3840076 C43.7889195,33.3840076 43.9091676,33.5036564 43.9091676,33.6509407 L43.9091676,34.2573498 C43.9091676,34.404634 43.7889195,34.5242829 43.6408974,34.5242829" fill="#99A9C6"></path><path d="M12.0579867,2.073858 L11.44854,2.073858 C11.300518,2.073858 11.1802698,1.95420918 11.1802698,1.80692493 C11.1802698,1.65964069 11.300518,1.53999187 11.44854,1.53999187 L12.0579867,1.53999187 C12.2060087,1.53999187 12.3262569,1.65964069 12.3262569,1.80692493 C12.3262569,1.95420918 12.2060087,2.073858 12.0579867,2.073858" fill="#99A9C6"></path><path d="M14.3942412,2.073858 L13.7847945,2.073858 C13.6367725,2.073858 13.5165243,1.95420918 13.5165243,1.80692493 C13.5165243,1.65964069 13.6367725,1.53999187 13.7847945,1.53999187 L14.3942412,1.53999187 C14.5422632,1.53999187 14.6625114,1.65964069 14.6625114,1.80692493 C14.6625114,1.95420918 14.5422632,2.073858 14.3942412,2.073858" fill="#99A9C6"></path><path d="M12.9212801,1.21486739 C12.7732581,1.21486739 12.65301,1.09521857 12.65301,0.947934324 L12.65301,0.341525204 C12.65301,0.194240959 12.7732581,0.0745921373 12.9212801,0.0745921373 C13.0693021,0.0745921373 13.1895503,0.194240959 13.1895503,0.341525204 L13.1895503,0.947934324 C13.1895503,1.09521857 13.0693021,1.21486739 12.9212801,1.21486739" fill="#99A9C6"></path><path d="M12.9212801,3.5390065 C12.7732581,3.5390065 12.65301,3.41935768 12.65301,3.27207343 L12.65301,2.66566431 C12.65301,2.51838007 12.7732581,2.39873125 12.9212801,2.39873125 C13.0693021,2.39873125 13.1895503,2.51838007 13.1895503,2.66566431 L13.1895503,3.27207343 C13.1895503,3.41935768 13.0693021,3.5390065 12.9212801,3.5390065" fill="#99A9C6"></path></g></svg>