<svg xmlns="http://www.w3.org/2000/svg" xmlns:xlink="http://www.w3.org/1999/xlink" width="171px" height="156px" viewBox="0 0 171 156"><path d="M65.6639004,34.5823286 C65.6639004,52.7157758 50.9637156,67.4149378 32.8293146,67.4149378 C14.698867,67.4149378 0,52.7157758 0,34.5823286 C0,16.4501993 14.698867,1.75103734 32.8293146,1.75103734 C50.9637156,1.75103734 65.6639004,16.4501993 65.6639004,34.5823286" fill="#0071DC"></path><g transform="translate(15.759336, 0.000000)"><path d="M17.0100956,2.81474297 C9.07854495,2.81474297 2.37661165,17.4269844 2.37661165,34.7232688 C2.37661165,52.01691 9.07854495,66.6291515 17.0100956,66.6291515 C24.9429433,66.6291515 31.6461737,52.01691 31.6461737,34.7232688 C31.6461737,17.4269844 24.9429433,2.81474297 17.0100956,2.81474297 M17.0100956,68.877087 C7.56876164,68.877087 0.172898724,53.8749919 0.172898724,34.7232688 C0.172898724,15.5702241 7.56876164,0.568129022 17.0100956,0.568129022 C26.4527266,0.568129022 33.8498866,15.5702241 33.8498866,34.7232688 C33.8498866,53.8749919 26.4527266,68.877087 17.0100956,68.877087" fill="#FFFFFF"></path></g><g transform="translate(0.000000, 16.634855)"><path d="M67.6136557,2.4021168 L1.10861313,2.4021168 C0.495254482,2.4021168 -0.000652509199,1.90175788 -0.000652509199,1.28451722 C-0.000652509199,0.669903112 0.495254482,0.169544191 1.10861313,0.169544191 L67.6136557,0.169544191 C68.2270144,0.169544191 68.7229214,0.669903112 68.7229214,1.28451722 C68.7229214,1.90175788 68.2270144,2.4021168 67.6136557,2.4021168" fill="#FFFFFF"></path></g><g transform="translate(0.000000, 43.775934)"><path d="M67.6136557,2.70973029 L1.10861313,2.70973029 C0.495254482,2.70973029 -0.000652509198,2.15377593 -0.000652509198,1.46941217 C-0.000652509198,0.785048409 0.495254482,0.229094053 1.10861313,0.229094053 L67.6136557,0.229094053 C68.2270144,0.229094053 68.7229214,0.785048409 68.7229214,1.46941217 C68.7229214,2.15377593 68.2270144,2.70973029 67.6136557,2.70973029" fill="#FFFFFF"></path></g><polygon fill="#FFFFFF" points="30.6431535 108.564315 147.962656 108.564315 147.962656 32.3941909 30.6431535 32.3941909"></polygon><path d="M31.9950004,107.21848 L147.486327,107.21848 L147.486327,33.7426391 L31.9950004,33.7426391 L31.9950004,107.21848 Z M148.600666,109.439834 L30.8819731,109.439834 C30.2658096,109.439834 29.7676349,108.941989 29.7676349,108.329157 L29.7676349,32.6306556 C29.7676349,32.0165167 30.2658096,31.5186722 30.8819731,31.5186722 L148.600666,31.5186722 C149.215518,31.5186722 149.713693,32.0165167 149.713693,32.6306556 L149.713693,108.329157 C149.713693,108.941989 149.215518,109.439834 148.600666,109.439834 L148.600666,109.439834 Z" fill="#7692C4"></path><polygon fill="#D3E6FA" points="147.756561 108.564315 147.756561 108.642134 30.2598047 108.642134 30.2598047 108.564315 12.2572614 147.087137 47.6578142 147.087137 130.354626 147.087137 161.970954 147.087137"></polygon><path d="M14.2543843,145.747466 L161.003248,145.747466 L147.607935,109.97997 L31.2182816,109.97997 L14.2543843,145.747466 Z M162.606487,147.962656 L12.4963316,147.962656 C12.1145455,147.962656 11.760311,147.768501 11.5543301,147.44795 C11.3496613,147.128702 11.3260457,146.726059 11.4887312,146.383356 L29.5376356,108.32379 C29.7580482,107.854691 30.2749682,107.603202 30.7905762,107.715264 C30.8456794,107.726992 30.9007825,107.745235 30.9519497,107.76478 L148.065816,107.76478 C148.095991,107.756962 148.126167,107.750447 148.157655,107.743932 C148.689006,107.654021 149.211174,107.908116 149.400099,108.409791 L163.652135,146.469357 C163.779397,146.808151 163.730853,147.188642 163.522249,147.487041 C163.313644,147.78544 162.972529,147.962656 162.606487,147.962656 L162.606487,147.962656 Z" fill="#7692C4"></path><path d="M49.0290456,119.946058 C49.0290456,122.84674 46.67561,125.19917 43.7739897,125.19917 C40.8749613,125.19917 38.5228216,122.84674 38.5228216,119.946058 C38.5228216,117.046672 40.8749613,114.692946 43.7739897,114.692946 C46.67561,114.692946 49.0290456,117.046672 49.0290456,119.946058" fill="#FFFFFF"></path><path d="M67.4149378,119.946058 C67.4149378,122.84674 65.062798,125.19917 62.1598818,125.19917 C59.2621494,125.19917 56.9087137,122.84674 56.9087137,119.946058 C56.9087137,117.046672 59.2621494,114.692946 62.1598818,114.692946 C65.062798,114.692946 67.4149378,117.046672 67.4149378,119.946058" fill="#FFFFFF"></path><path d="M86.6763485,119.946058 C86.6763485,122.84674 84.3255048,125.19917 81.4225885,125.19917 C78.5222642,125.19917 76.1701245,122.84674 76.1701245,119.946058 C76.1701245,117.046672 78.5222642,114.692946 81.4225885,114.692946 C84.3255048,114.692946 86.6763485,117.046672 86.6763485,119.946058" fill="#FFFFFF"></path><path d="M105.062241,119.946058 C105.062241,122.84674 102.707219,125.19917 99.8052403,125.19917 C96.9058543,125.19917 94.5560166,122.84674 94.5560166,119.946058 C94.5560166,117.046672 96.9058543,114.692946 99.8052403,114.692946 C102.707219,114.692946 105.062241,117.046672 105.062241,119.946058" fill="#FFFFFF"></path><path d="M123.448133,119.946058 C123.448133,122.84674 121.096709,125.19917 118.194373,125.19917 C115.292036,125.19917 112.941909,122.84674 112.941909,119.946058 C112.941909,117.046672 115.292036,114.692946 118.194373,114.692946 C121.096709,114.692946 123.448133,117.046672 123.448133,119.946058" fill="#FFFFFF"></path><path d="M141.834025,119.946058 C141.834025,122.84674 139.483181,125.19917 136.580265,125.19917 C133.679941,125.19917 131.327801,122.84674 131.327801,119.946058 C131.327801,117.046672 133.679941,114.692946 136.580265,114.692946 C139.483181,114.692946 141.834025,117.046672 141.834025,119.946058" fill="#FFFFFF"></path><path d="M36.7717842,136.578321 C36.7717842,139.480299 34.4170526,141.834025 31.5167283,141.834025 C28.6164039,141.834025 26.2655602,139.480299 26.2655602,136.578321 C26.2655602,133.678935 28.6164039,131.327801 31.5167283,131.327801 C34.4170526,131.327801 36.7717842,133.678935 36.7717842,136.578321" fill="#FFFFFF"></path><path d="M55.1576763,136.578321 C55.1576763,139.480299 52.8075487,141.834025 49.9026199,141.834025 C47.0054687,141.834025 44.6514523,139.480299 44.6514523,136.578321 C44.6514523,133.678935 47.0054687,131.327801 49.9026199,131.327801 C52.8075487,131.327801 55.1576763,133.678935 55.1576763,136.578321" fill="#FFFFFF"></path><path d="M74.4190871,136.578321 C74.4190871,139.480299 72.0695393,141.834025 69.1666231,141.834025 C66.2662987,141.834025 63.9128631,139.480299 63.9128631,136.578321 C63.9128631,133.678935 66.2662987,131.327801 69.1666231,131.327801 C72.0695393,131.327801 74.4190871,133.678935 74.4190871,136.578321" fill="#FFFFFF"></path><path d="M92.8049793,136.578321 C92.8049793,139.480299 90.4522591,141.834025 87.5512191,141.834025 C84.6501791,141.834025 82.2987552,139.480299 82.2987552,136.578321 C82.2987552,133.678935 84.6501791,131.327801 87.5512191,131.327801 C90.4522591,131.327801 92.8049793,133.678935 92.8049793,136.578321" fill="#FFFFFF"></path><path d="M111.190871,136.578321 C111.190871,139.480299 108.838151,141.834025 105.935815,141.834025 C103.036071,141.834025 100.684647,139.480299 100.684647,136.578321 C100.684647,133.678935 103.036071,131.327801 105.935815,131.327801 C108.838151,131.327801 111.190871,133.678935 111.190871,136.578321" fill="#FFFFFF"></path><path d="M130.452282,136.578321 C130.452282,139.480299 128.103741,141.834025 125.19917,141.834025 C122.298488,141.834025 119.946058,139.480299 119.946058,136.578321 C119.946058,133.678935 122.298488,131.327801 125.19917,131.327801 C128.103741,131.327801 130.452282,133.678935 130.452282,136.578321" fill="#FFFFFF"></path><path d="M148.838174,136.578321 C148.838174,139.480299 146.488626,141.834025 143.581822,141.834025 C140.685386,141.834025 138.33195,139.480299 138.33195,136.578321 C138.33195,133.678935 140.685386,131.327801 143.581822,131.327801 C146.488626,131.327801 148.838174,133.678935 148.838174,136.578321" fill="#FFFFFF"></path><path d="M162.606936,155.842324 L12.4954868,155.842324 C11.8802383,155.842324 11.3817427,155.348727 11.3817427,154.741124 L11.3817427,148.188337 C11.3817427,147.580734 11.8802383,147.087137 12.4954868,147.087137 C13.1120471,147.087137 13.6105427,147.580734 13.6105427,148.188337 L13.6105427,153.639924 L161.49188,153.639924 L161.49188,148.188337 C161.49188,147.580734 161.990375,147.087137 162.606936,147.087137 C163.223496,147.087137 163.721992,147.580734 163.721992,148.188337 L163.721992,154.741124 C163.721992,155.348727 163.223496,155.842324 162.606936,155.842324" fill="#7692C4"></path><path d="M124.097159,21.8879668 L88.6525822,21.8879668 C88.0432347,21.8879668 87.5518672,21.2993093 87.5518672,20.5746888 C87.5518672,19.8500683 88.0432347,19.2614108 88.6525822,19.2614108 L124.097159,19.2614108 C124.706506,19.2614108 125.19917,19.8500683 125.19917,20.5746888 C125.19917,21.2993093 124.706506,21.8879668 124.097159,21.8879668" fill="#7692C4"></path><path d="M95.1871616,28.0165975 L75.5389795,28.0165975 C74.9197449,28.0165975 74.4190871,27.42794 74.4190871,26.7017745 C74.4190871,25.978699 74.9197449,25.3900415 75.5389795,25.3900415 L95.1871616,25.3900415 C95.8063962,25.3900415 96.3070539,25.978699 96.3070539,26.7017745 C96.3070539,27.42794 95.8063962,28.0165975 95.1871616,28.0165975" fill="#7692C4"></path><path d="M164.159094,98.5418614 C162.254029,98.5418614 160.70263,100.093081 160.70263,101.997925 C160.70263,103.90277 162.254029,105.453989 164.159094,105.453989 C166.065473,105.453989 167.616872,103.90277 167.616872,101.997925 C167.616872,100.093081 166.065473,98.5418614 164.159094,98.5418614 M164.159094,107.688797 C161.020799,107.688797 158.46888,105.135858 158.46888,101.997925 C158.46888,98.8599928 161.020799,96.3070539 164.159094,96.3070539 C167.298703,96.3070539 169.850622,98.8599928 169.850622,101.997925 C169.850622,105.135858 167.298703,107.688797 164.159094,107.688797" fill="#7692C4"></path><path d="M17.9474609,79.3297111 C16.5526413,79.3297111 15.415823,80.4650273 15.415823,81.8596523 C15.415823,83.2556209 16.5526413,84.390937 17.9474609,84.390937 C19.3436243,84.390937 20.4804426,83.2556209 20.4804426,81.8596523 C20.4804426,80.4650273 19.3436243,79.3297111 17.9474609,79.3297111 M17.9474609,86.6763485 C15.2921974,86.6763485 13.1327801,84.5145454 13.1327801,81.8596523 C13.1327801,79.2047592 15.2921974,77.0456432 17.9474609,77.0456432 C20.6040682,77.0456432 22.7634855,79.2047592 22.7634855,81.8596523 C22.7634855,84.5145454 20.6040682,86.6763485 17.9474609,86.6763485" fill="#7692C4"></path><path d="M80.5477178,57.346473 C80.5477178,64.3564471 74.8636954,70.0414938 67.8507175,70.0414938 C60.8390594,70.0414938 55.1576763,64.3564471 55.1576763,57.346473 C55.1576763,50.3351793 60.8390594,44.6514523 67.8507175,44.6514523 C74.8636954,44.6514523 80.5477178,50.3351793 80.5477178,57.346473" fill="#FDE5A4"></path><path d="M83.1289782,80.5477178 L83.1289782,86.238876 L77.5187445,86.238876 C70.488661,86.238876 64.7883817,91.9641208 64.7883817,99.0292328 L64.7883817,108.564315 L112.941909,108.564315 L112.941909,99.0292328 C112.941909,91.9641208 107.241629,86.238876 100.212851,86.238876 L94.6039223,86.238876 L94.6039223,80.5477178 L83.1289782,80.5477178 Z" fill="#FFFFFF"></path><path d="M99.7990353,84.9253112 L98.4336819,84.9253112 L88.8644944,100.335421 L79.2940054,84.9253112 L77.9325568,84.9253112 C71.1565516,84.9253112 65.6639004,90.9892704 65.6639004,98.468867 L65.6639004,108.564315 L112.06639,108.564315 L112.06639,98.468867 C112.06639,90.9892704 106.572437,84.9253112 99.7990353,84.9253112" fill="#FDE5A4"></path><path d="M102.034407,58.9370587 C101.896364,58.9370587 101.757018,58.9489736 101.618975,58.9661841 L101.618975,57.1670251 C101.618975,49.7691586 95.7221868,43.7759336 88.4475715,43.7759336 C81.1703515,43.7759336 75.2735635,49.7691586 75.2735635,57.1670251 L75.2735635,58.9714796 C75.1264042,58.9502975 74.979245,58.9370587 74.8229697,58.9370587 C73.1521262,58.9370587 71.7925311,60.3138985 71.7925311,62.0150901 L71.7925311,66.634123 C71.7925311,68.3366384 73.1521262,69.7161261 74.8229697,69.7161261 C75.0131046,69.7161261 75.1954258,69.6962678 75.3738401,69.6618468 C76.1682396,76.2905364 81.7160128,81.4232365 88.4475715,81.4232365 C95.1765255,81.4232365 100.726903,76.2905364 101.517396,69.6671423 C101.689299,69.6989156 101.858597,69.7161261 102.034407,69.7161261 C103.707855,69.7161261 105.062241,68.3366384 105.062241,66.634123 L105.062241,62.0150901 C105.062241,60.3138985 103.707855,58.9370587 102.034407,58.9370587" fill="#FFFFFF"></path><path d="M75.6599676,68.4626668 C75.8957979,68.4626668 76.1263582,68.5371808 76.3200289,68.6757509 C76.5703515,68.8574607 76.7337199,69.1346008 76.7719271,69.4391934 C77.5149901,75.5049011 82.7230183,80.0777126 88.886225,80.0777126 C95.0494317,80.0777126 100.256143,75.5075156 100.995253,69.4457297 C101.03346,69.1437516 101.194194,68.869226 101.440564,68.6875163 C101.686934,68.5058065 101.997861,68.4325997 102.302201,68.4861975 C103.46686,68.6901308 104.574867,67.7606657 104.574867,66.5841275 L104.574867,62.0230814 C104.574867,60.8713813 103.522194,59.9471452 102.364123,60.1144751 C102.037386,60.1563075 101.718554,60.0621845 101.474818,59.8504076 C101.229766,59.6412453 101.09143,59.3353454 101.09143,59.012451 L101.09143,57.2358784 C101.09143,50.5570636 95.6146339,45.1227647 88.886225,45.1227647 C82.1551812,45.1227647 76.677068,50.5570636 76.677068,57.2358784 L76.677068,59.0176801 C76.677068,59.3418817 76.5360968,59.6503961 76.2897266,59.8608657 C76.042039,60.0713353 75.7113496,60.1667657 75.3912001,60.1170896 C75.2976585,60.1027097 75.2014819,60.0961734 75.1026704,60.0961734 C74.0302355,60.0961734 73.1567413,60.9615825 73.1567413,62.0230814 L73.1567413,66.5841275 C73.1567413,67.6495482 74.0302355,68.5149573 75.1026704,68.5149573 C75.2225617,68.5149573 75.3371832,68.503192 75.4491696,68.4822757 C75.5203139,68.4678958 75.5888233,68.4626668 75.6599676,68.4626668 M88.886225,82.2987552 C81.9404307,82.2987552 76.0170067,77.3886694 74.7087416,70.7203127 C72.5849517,70.5216085 70.9170124,68.7437286 70.9170124,66.5841275 L70.9170124,62.0230814 C70.9170124,59.9589106 72.445298,58.2424722 74.4386566,57.9248069 L74.4386566,57.2358784 C74.4386566,49.3308495 80.9193779,42.9004149 88.886225,42.9004149 C96.8504372,42.9004149 103.329841,49.3308495 103.329841,57.2358784 L103.329841,57.9300359 C105.304755,58.2620811 106.813278,59.970676 106.813278,62.0230814 L106.813278,66.5841275 C106.813278,68.730656 105.166419,70.5033068 103.061073,70.7163909 C101.760713,77.3860549 95.8372893,82.2987552 88.886225,82.2987552" fill="#0071DC"></path><path d="M112.699155,109.439834 L64.1556166,109.439834 C63.5372779,109.439834 63.0373444,108.933764 63.0373444,108.310806 L63.0373444,98.6503093 C63.0373444,90.8825953 69.2957219,84.5626939 76.988119,84.5626939 L81.5269886,84.5626939 L81.5269886,79.9257087 C81.5269886,79.3027508 82.026922,78.7966805 82.6439452,78.7966805 C83.2622839,78.7966805 83.7622174,79.3027508 83.7622174,79.9257087 L83.7622174,85.6917221 C83.7622174,86.31468 83.2622839,86.8207503 82.6439452,86.8207503 L76.988119,86.8207503 C70.5284526,86.8207503 65.2725732,92.1271828 65.2725732,98.6503093 L65.2725732,107.181778 L111.580883,107.181778 L111.580883,98.6503093 C111.580883,92.1271828 106.325004,86.8207503 99.8666527,86.8207503 L94.2121422,86.8207503 C93.5951191,86.8207503 93.0951856,86.31468 93.0951856,85.6917221 L93.0951856,79.9257087 C93.0951856,79.3027508 93.5951191,78.7966805 94.2121422,78.7966805 C94.830481,78.7966805 95.3304144,79.3027508 95.3304144,79.9257087 L95.3304144,84.5626939 L99.8666527,84.5626939 C107.55905,84.5626939 113.817427,90.8825953 113.817427,98.6503093 L113.817427,108.310806 C113.817427,108.933764 113.317494,109.439834 112.699155,109.439834" fill="#0071DC"></path><path d="M76.7597022,61.2863071 C76.3374839,61.2863071 75.910053,61.2754991 75.4708938,61.2538832 C74.8597197,61.2201084 74.3892851,60.6810618 74.4205605,60.0474457 C74.4518359,59.4138296 74.9770026,58.9369288 75.5829641,58.9571937 C87.2356689,59.5678429 92.265801,50.8498798 92.475607,50.4797075 C92.6932319,50.0919722 93.1102377,49.8582503 93.541578,49.9122901 C93.9729184,49.9555219 94.3417078,50.2554425 94.4824473,50.6810055 C94.507207,50.7566612 97.0209699,58.1871272 101.49466,58.893697 C102.099318,58.9896176 102.516324,59.5745979 102.422498,60.201459 C102.332581,60.8296711 101.760501,61.2579362 101.162358,61.1633666 C97.0392139,60.5121876 94.4055618,56.052557 93.1832137,53.3951521 C90.9952366,56.1917093 85.7709362,61.2863071 76.7597022,61.2863071" fill="#0071DC"></path><path d="M124.323651,85.8014589 C124.323651,88.218288 122.361564,90.1784232 119.946687,90.1784232 C117.529295,90.1784232 115.568465,88.218288 115.568465,85.8014589 C115.568465,83.3821136 117.529295,81.4232365 119.946687,81.4232365 C122.361564,81.4232365 124.323651,83.3821136 124.323651,85.8014589" fill="#D3E6FA"></path><path d="M128.688497,14.0082988 L169.850622,14.0082988 L169.850622,28.8364752 L169.850622,42.608315 C169.850622,50.7972254 162.408416,57.4391224 153.228515,57.4391224 L133.663073,57.4391224 L119.537427,70.0414938 L119.537427,57.4391224 L112.06639,57.4391224 L112.06639,42.608315 L112.06639,28.8364752 C112.06639,20.6488802 119.507286,14.0082988 128.688497,14.0082988" fill="#FFC221"></path><path d="M112.556698,56.2009224 L118.956207,56.2009224 C119.574919,56.2009224 120.076221,56.6979378 120.076221,57.3110538 L120.076221,67.3387627 L132.430664,56.4813904 C132.636462,56.3013691 132.901624,56.2009224 133.17602,56.2009224 L152.871892,56.2009224 C161.479767,56.2009224 168.484796,50.1023743 168.484796,42.6040953 L168.484796,15.3530429 L128.168282,15.3530429 C119.560408,15.3530429 112.556698,21.4502865 112.556698,28.9472611 L112.556698,56.2009224 Z M118.956207,70.9170124 C118.799221,70.9170124 118.643554,70.8857044 118.495802,70.8191748 C118.093441,70.640458 117.834875,70.2451938 117.834875,69.8081855 L117.834875,58.4185762 L111.435366,58.4185762 C110.816654,58.4185762 110.315353,57.9215609 110.315353,57.3110538 L110.315353,28.9472611 C110.315353,20.2279679 118.322985,13.1327801 128.168282,13.1327801 L169.604809,13.1327801 C170.22484,13.1327801 170.726141,13.6297954 170.726141,14.2429115 L170.726141,42.6040953 C170.726141,51.3259974 162.715871,58.4185762 152.871892,58.4185762 L133.602127,58.4185762 L119.700244,70.6365445 C119.491809,70.8217838 119.225327,70.9170124 118.956207,70.9170124 L118.956207,70.9170124 Z" fill="#FFC221"></path><path d="M154.727359,32.3941909 L126.314134,32.3941909 C125.697625,32.3941909 125.19917,31.8051868 125.19917,31.0801399 C125.19917,30.3566389 125.697625,29.7676349 126.314134,29.7676349 L154.727359,29.7676349 C155.343869,29.7676349 155.842324,30.3566389 155.842324,31.0801399 C155.842324,31.8051868 155.343869,32.3941909 154.727359,32.3941909" fill="#FFFFFF"></path><path d="M154.727359,42.0248963 L126.314134,42.0248963 C125.697625,42.0248963 125.19917,41.4365848 125.19917,40.7108462 C125.19917,39.9866517 125.697625,39.3983402 126.314134,39.3983402 L154.727359,39.3983402 C155.343869,39.3983402 155.842324,39.9866517 155.842324,40.7108462 C155.842324,41.4365848 155.343869,42.0248963 154.727359,42.0248963" fill="#FFFFFF"></path><path d="M160.868123,123.448133 L158.694895,123.448133 C158.085094,123.448133 157.593361,122.859129 157.593361,122.134082 C157.593361,121.410581 158.085094,120.821577 158.694895,120.821577 L160.868123,120.821577 C161.477924,120.821577 161.970954,121.410581 161.970954,122.134082 C161.970954,122.859129 161.477924,123.448133 160.868123,123.448133" fill="#7692C4"></path><path d="M169.623309,123.448133 L167.450082,123.448133 C166.840281,123.448133 166.348548,122.859129 166.348548,122.134082 C166.348548,121.410581 166.840281,120.821577 167.450082,120.821577 L169.623309,120.821577 C170.23311,120.821577 170.726141,121.410581 170.726141,122.134082 C170.726141,122.859129 170.23311,123.448133 169.623309,123.448133" fill="#7692C4"></path><path d="M164.159751,119.946058 C163.433586,119.946058 162.846473,119.451876 162.846473,118.842256 L162.846473,116.672267 C162.846473,116.062646 163.433586,115.568465 164.159751,115.568465 C164.885917,115.568465 165.473029,116.062646 165.473029,116.672267 L165.473029,118.842256 C165.473029,119.451876 164.885917,119.946058 164.159751,119.946058" fill="#7692C4"></path><path d="M164.159751,127.825726 C163.433586,127.825726 162.846473,127.331544 162.846473,126.723221 L162.846473,124.551935 C162.846473,123.942314 163.433586,123.448133 164.159751,123.448133 C164.885917,123.448133 165.473029,123.942314 165.473029,124.551935 L165.473029,126.723221 C165.473029,127.331544 164.885917,127.825726 164.159751,127.825726" fill="#7692C4"></path><path d="M66.312106,13.1327801 L64.1388787,13.1327801 C63.5290776,13.1327801 63.0373444,12.5444686 63.0373444,11.81873 C63.0373444,11.0945356 63.5290776,10.5062241 64.1388787,10.5062241 L66.312106,10.5062241 C66.9219071,10.5062241 67.4149378,11.0945356 67.4149378,11.81873 C67.4149378,12.5444686 66.9219071,13.1327801 66.312106,13.1327801" fill="#7692C4"></path><path d="M75.0672927,13.1327801 L72.8940654,13.1327801 C72.2842643,13.1327801 71.7925311,12.5444686 71.7925311,11.81873 C71.7925311,11.0945356 72.2842643,10.5062241 72.8940654,10.5062241 L75.0672927,10.5062241 C75.6770938,10.5062241 76.1701245,11.0945356 76.1701245,11.81873 C76.1701245,12.5444686 75.6770938,13.1327801 75.0672927,13.1327801" fill="#7692C4"></path><path d="M69.6037344,10.5062241 C68.877569,10.5062241 68.2904564,10.0120424 68.2904564,9.40242201 L68.2904564,7.2311357 C68.2904564,6.62281236 68.877569,6.12863071 69.6037344,6.12863071 C70.3298999,6.12863071 70.9170124,6.62281236 70.9170124,7.2311357 L70.9170124,9.40242201 C70.9170124,10.0120424 70.3298999,10.5062241 69.6037344,10.5062241" fill="#7692C4"></path><path d="M69.6037344,18.3858921 C68.877569,18.3858921 68.2904564,17.891564 68.2904564,17.2817629 L68.2904564,15.1111305 C68.2904564,14.5026269 68.877569,14.0082988 69.6037344,14.0082988 C70.3298999,14.0082988 70.9170124,14.5026269 70.9170124,15.1111305 L70.9170124,17.2817629 C70.9170124,17.891564 70.3298999,18.3858921 69.6037344,18.3858921" fill="#7692C4"></path></svg>