<svg xmlns="http://www.w3.org/2000/svg" xmlns:xlink="http://www.w3.org/1999/xlink" width="60px" height="61px" viewBox="0 0 60 61"><polygon fill="#D3E6FA" points="3.95294845 37.3025567 9.70973196 37.3025567 9.70973196 35.1684124 1.81892784 35.1684124 1.81892784 57.6882062 3.95294845 57.6882062"></polygon><path d="M36.7793814,44.002268 L35.3047423,44.002268 C34.8959856,44.0075288 34.5673859,44.3403848 34.5673859,44.7491753 C34.5673859,45.1579658 34.8959856,45.4908218 35.3047423,45.4960825 L38.7293196,45.4960825 C38.7346392,45.4374433 38.7382268,45.378433 38.7382268,45.318433 C38.7380539,44.8253212 38.5507661,44.3506466 38.2141856,43.990268 L36.9084124,43.990268 C36.8651348,43.9905051 36.8219605,43.9945203 36.7793814,44.002268 L36.7793814,44.002268 Z" fill="#D3E6FA"></path><path d="M35.3047423,49.4090722 C34.8959856,49.4143329 34.5673859,49.7471889 34.5673859,50.1559794 C34.5673859,50.5647699 34.8959856,50.8976259 35.3047423,50.9028866 L38.7181856,50.9028866 C38.7987052,50.3631748 38.6346939,49.8156389 38.2707216,49.4090722 L35.3047423,49.4090722 L35.3047423,49.4090722 Z" fill="#D3E6FA"></path><path d="M26.9835464,39.0242474 C27.2540675,40.3048165 28.3849844,41.2205763 29.6938144,41.2188889 L38.6816907,41.2188889 C38.8168987,40.7079702 38.7066916,40.1632301 38.3835169,39.7450496 C38.0603422,39.3268692 37.5609953,39.0828608 37.0324948,39.084866 L27.5596701,39.084866 C27.3660466,39.0846893 27.1729665,39.0643738 26.9835464,39.0242474 Z" fill="#D4E1F4"></path><path d="M13.3376907,40.7445773 L14.9390103,40.7445773 C17.2592076,40.7409321 19.4382268,39.629727 20.8036701,37.7538557 C22.9175496,34.8108211 24.3073136,31.4106061 24.8600412,27.8294845 L25.2517113,25.272866 C25.4794836,25.312846 25.7029269,25.3744441 25.9190103,25.4568247 C25.4581178,24.2451014 24.3942634,23.3648047 23.1176907,23.1388454 L22.7257732,25.6954639 C22.1729092,29.2765686 20.7831116,32.6767621 18.6692784,35.6198351 C17.3039895,37.4954799 15.1252838,38.6066198 12.8053608,38.610433 L11.2035464,38.610433 L11.2259381,40.7445773 L13.3376907,40.7445773 Z" fill="#D3E6FA"></path><path d="M37.0696082,54.652701 L33.6742268,54.652701 C33.4050918,54.6492372 33.1549053,54.7908345 33.019328,55.0233521 C32.8837507,55.2558697 32.8837507,55.5433468 33.019328,55.7758644 C33.1549053,56.0083819 33.4050918,56.1499792 33.6742268,56.1465155 L37.5092784,56.1465155 C37.5935913,55.6079387 37.4324236,55.059896 37.0699794,54.652701 L37.0696082,54.652701 Z" fill="#D3E6FA"></path><path d="M48.4598351,30.7317526 C48.6763299,29.5906392 49.2707629,28.7542268 50.0969072,28.3547629 C49.6831161,28.1880138 49.2421531,28.0988986 48.7960825,28.0918763 C47.3714227,28.0918763 46.2945155,29.1033402 45.9856082,30.7317526 C45.4783918,33.3780619 47.160866,36.9173196 52.0508041,38.9127835 C52.4855258,38.7316701 52.8936495,38.538433 53.2783918,38.3355464 C49.3499381,36.2845361 47.9980206,33.1389278 48.4598351,30.7317526 Z" fill="#D3E6FA"></path><path d="M32.4515876,17.5874227 C32.6680825,16.4463093 33.2625155,15.6098969 34.0886598,15.210433 C33.6748687,15.0436839 33.2339057,14.9545687 32.7878351,14.9475464 C31.3631753,14.9475464 30.286268,15.9590103 29.9773608,17.5874227 C29.4701443,20.233732 31.1526186,23.7729897 36.0425567,25.7684536 C36.4772784,25.5873402 36.8854021,25.3941031 37.2701443,25.1912165 C33.3416907,23.1402062 31.9897732,19.9945979 32.4515876,17.5874227 Z" fill="#D3E6FA"></path><path d="M48.4598351,4.452 C48.6763299,3.3108866 49.2707629,2.47447423 50.0969072,2.07513402 C49.6831225,1.90834803 49.2421603,1.81919104 48.7960825,1.81212371 C47.3714227,1.81212371 46.2945155,2.82371134 45.9856082,4.452 C45.4783918,7.09830928 47.160866,10.637567 52.0508041,12.6330309 C52.4855258,12.4520412 52.8936495,12.2586804 53.2783918,12.0557938 C49.3499381,10.0049072 47.9980206,6.85917526 48.4598351,4.452 Z" fill="#D3E6FA"></path><path d="M12.8115464,4.452 C13.0280412,3.3108866 13.6224742,2.47447423 14.4486186,2.07513402 C14.0347943,1.90833587 13.5937893,1.81917871 13.1476701,1.81212371 C11.723134,1.81212371 10.6462268,2.82371134 10.3373196,4.452 C9.83010309,7.09830928 11.5125773,10.637567 16.4025155,12.6330309 C16.8372371,12.4520412 17.2452371,12.2586804 17.6301031,12.0557938 C13.7016495,10.0049072 12.349732,6.85917526 12.8115464,4.452 Z" fill="#D3E6FA"></path><path d="M40.4009273,40.7197113 C40.3985464,38.8808985 38.9084211,37.3907732 37.0696082,37.3886598 L27.5490309,37.3886598 C26.9526364,37.3893713 26.4517595,36.9400977 26.3878763,36.347134 C26.2331748,34.9145813 26.4155981,33.4657008 26.9205773,32.1162062 C27.4738428,30.6462451 27.7567852,29.0883647 27.7557526,27.517732 L27.7557526,26.6146392 C27.75248,23.684901 25.3782742,21.3106952 22.4485361,21.3074227 C22.020918,21.3074227 21.6573309,21.6195811 21.5925773,22.042268 L21.0927835,25.3035464 C20.5765658,28.6490698 19.2785376,31.8256679 17.3041237,34.5753402 C16.2364172,36.0411424 14.5331929,36.909278 12.7197526,36.912 L11.2258144,36.912 L11.2258144,34.3185155 C11.2258144,33.8402483 10.8381023,33.4525361 10.3598351,33.4525361 L0.927835052,33.4525361 C0.449567846,33.4525361 0.0618556701,33.8402483 0.0618556701,34.3185155 L0.0618556701,58.4536082 C0.0618556701,58.9318755 0.449567846,59.3195876 0.927835052,59.3195876 L10.3598351,59.3195876 C10.8381023,59.3195876 11.2258144,58.9318755 11.2258144,58.4536082 L11.2258144,56.2576082 L12.5364124,56.2576082 C15.1108387,56.257004 17.6341699,56.9761071 19.8215258,58.333732 C22.3233402,59.8859381 25.1270103,60.0144753 28.0196289,60.0144753 L35.6975258,60.0144753 C37.0272417,60.0155219 38.2418014,59.2602101 38.8289092,58.0671259 C39.416017,56.8740417 39.2734572,55.4509015 38.4613608,54.3979794 C39.5123716,53.8752404 40.2309742,52.8600265 40.374609,51.6950162 C40.5182438,50.530006 40.0677449,49.3706529 39.1751753,48.6082887 C39.9456191,47.936197 40.3916063,46.9665203 40.4004966,45.9441643 C40.4093868,44.9218083 39.9803301,43.9445224 39.2216907,43.259134 C39.9693452,42.627488 40.4009273,41.6984677 40.4009273,40.7197113 Z M9.49385567,57.5876289 L1.79381443,57.5876289 L1.79381443,35.1844948 L9.49385567,35.1844948 L9.49385567,57.5876289 Z M36.8996289,49.4969072 C37.8766604,49.4969072 38.668701,50.2889478 38.668701,51.2659794 C38.668701,52.243011 37.8766604,53.0350515 36.8996289,53.0350515 L31.5489897,53.0350515 C31.0707225,53.0350515 30.6830103,53.4227637 30.6830103,53.9010309 C30.6830103,54.3792981 31.0707225,54.7670103 31.5489897,54.7670103 L35.6975258,54.7670103 C36.662552,54.7751063 37.4405938,55.5597027 37.4405938,56.5247629 C37.4405938,57.4898231 36.662552,58.2744195 35.6975258,58.2825155 L28.0196289,58.2825155 C25.3871753,58.2825155 22.8484948,58.1738969 20.7345155,56.8620619 C18.2730619,55.3342215 15.4334884,54.5249593 12.5364124,54.5256495 L11.2258144,54.5256495 L11.2258144,38.6439588 L12.72,38.6439588 C15.0888636,38.6400529 17.3135283,37.5054739 18.7076289,35.590268 C20.8427804,32.6175504 22.2464913,29.1830404 22.804701,25.5658144 L23.1802887,23.1147216 C24.835706,23.463412 26.0213614,24.9228985 26.0235464,26.6146392 L26.0235464,27.517732 C26.024428,28.8803762 25.7789981,30.2319594 25.2990928,31.507299 C24.6988398,33.1109505 24.4819714,34.8327641 24.6658144,36.5351753 C24.8245465,38.0070946 26.0678361,39.12232 27.5482887,39.1207423 L37.068866,39.1207423 C37.9465669,39.1284621 38.654017,39.842162 38.654017,40.7198969 C38.654017,41.5976318 37.9465669,42.3113317 37.068866,42.3190515 L34.8,42.3190515 C34.7538478,42.3195213 34.707806,42.3236581 34.6623093,42.3314227 L33.1884124,42.3314227 C32.7101452,42.3314227 32.322433,42.7191349 32.322433,43.1974021 C32.322433,43.6756693 32.7101452,44.0633814 33.1884124,44.0633814 L36.8176082,44.0633814 C37.8399386,44.0633814 38.668701,44.8921439 38.668701,45.9144742 C38.668701,46.9368045 37.8399386,47.765567 36.8176082,47.765567 L33.1884124,47.765567 C32.7101452,47.765567 32.322433,48.1532792 32.322433,48.6315464 C32.322433,49.1098136 32.7101452,49.4975258 33.1884124,49.4975258 L36.8997526,49.4975258 L36.8996289,49.4969072 Z" fill="#0071DC" class="primary-fill-color"></path><path d="M59.8187629,4.10313402 C59.3281237,1.67084536 57.5505155,0.0989690722 55.2911753,0.0989690722 C54.2494021,0.0989690722 53.1423093,0.453649485 52.0599588,1.13010309 C50.964866,0.422103093 49.8691546,0.0637113402 48.7960825,0.0637113402 C46.5216495,0.0637113402 44.7507216,1.65303093 44.2843299,4.11092784 C43.637567,7.48206186 45.6355052,11.935299 51.5569485,14.2848247 C51.5720412,14.2908866 51.5873814,14.2963299 51.6028454,14.3015258 C51.8931743,14.4075825 52.2116504,14.4075825 52.5019794,14.3015258 C52.519299,14.2957113 52.5366186,14.2891546 52.5536907,14.2824742 C58.4719175,11.884701 60.4676289,7.44519588 59.8201237,4.10907216 L59.8187629,4.10313402 Z M52.0508041,12.6168247 C47.1611134,10.6212371 45.4778969,7.08210309 45.9856082,4.4356701 C46.2948866,2.80738144 47.3711753,1.79591753 48.7960825,1.79591753 C49.642268,1.79591753 50.5898969,2.16865979 51.5345567,2.87381443 C51.8384485,3.1006064 52.2545438,3.10331353 52.5613608,2.88049485 C53.507134,2.19402062 54.4511753,1.83117526 55.2914227,1.83117526 C56.7107629,1.83117526 57.7947216,2.83175258 58.1208247,4.44272165 C58.6256907,7.05562887 56.9406186,10.5799175 52.0508041,12.6168247 Z" fill="#FFC221" class="secondary-fill-color"></path><path d="M35.6623918,27.5296082 C35.9532281,27.6361622 36.2724214,27.6361622 36.5632577,27.5296082 C36.5803299,27.5239175 36.5972784,27.5172371 36.6141031,27.5109278 C42.5319588,25.1134021 44.5281649,20.6736495 43.8804124,17.3375258 L43.8790515,17.3313402 C43.3885361,14.8990515 41.6111753,13.3274227 39.3512165,13.3274227 C38.309567,13.3274227 37.2024742,13.6822268 36.12,14.3585567 C35.0247835,13.6505567 33.9291959,13.2921649 32.8561237,13.2921649 C30.581567,13.2921649 28.8107629,14.8814845 28.3443711,17.3393814 C27.697732,20.7105155 29.6955464,25.1637526 35.616866,27.5131546 C35.6322062,27.5190928 35.6471753,27.5245361 35.6623918,27.5296082 Z M30.0458969,17.6638763 C30.3551753,16.0357113 31.4314639,15.0241237 32.8562474,15.0241237 C33.7025567,15.0241237 34.6500619,15.396866 35.5947216,16.1020206 C35.8985332,16.3290516 36.3147859,16.3317598 36.6215258,16.108701 C37.5675464,15.4222268 38.5117113,15.0593814 39.3518351,15.0593814 C40.7710515,15.0593814 41.8550103,16.0599588 42.1811134,17.6709278 C42.6862268,20.2838351 41.0010309,23.8081237 36.1113402,25.8450309 C31.2216495,23.849567 29.5385567,20.3103093 30.046268,17.6638763 L30.0458969,17.6638763 Z" fill="#FFC221" class="secondary-fill-color"></path><path d="M24.1703505,4.10313402 C23.6797113,1.67084536 21.9024742,0.0989690722 19.6427629,0.0989690722 C18.6009897,0.0989690722 17.4940206,0.453649485 16.4116701,1.13010309 C15.3165773,0.422103093 14.220866,0.0637113402 13.1476701,0.0637113402 C10.8732371,0.0637113402 9.10230928,1.65303093 8.63604124,4.11092784 C7.98927835,7.48206186 9.98709278,11.935299 15.9086598,14.2848247 C15.9237526,14.2908866 15.9390928,14.2963299 15.9545567,14.3015258 C16.2448428,14.4075843 16.5632809,14.4075843 16.853567,14.3015258 C16.8710103,14.2957113 16.8883299,14.2891546 16.9052784,14.2824742 C22.8235052,11.884701 24.8192165,7.44519588 24.1717113,4.10907216 L24.1703505,4.10313402 Z M16.4025155,12.6168247 C11.5128247,10.6212371 9.82960825,7.08210309 10.3373196,4.4356701 C10.6465979,2.80738144 11.7228866,1.79591753 13.1476701,1.79591753 C13.9939794,1.79591753 14.9414845,2.16865979 15.886268,2.87381443 C16.1901599,3.1006064 16.6062552,3.10331353 16.9130722,2.88049485 C17.8587216,2.19402062 18.8027629,1.83117526 19.6430103,1.83117526 C21.0623505,1.83117526 22.1463093,2.83175258 22.4722887,4.44272165 C22.9771546,7.05562887 21.2920825,10.5799175 16.4025155,12.6168247 L16.4025155,12.6168247 Z" fill="#FFC221" class="secondary-fill-color"></path><path d="M59.8187629,30.3990928 C59.3281237,27.9668041 57.5508866,26.3951753 55.2909278,26.3951753 C54.2491546,26.3951753 53.1420619,26.7499794 52.0597113,27.4263093 C50.9646186,26.7183093 49.8689072,26.3599175 48.7958351,26.3599175 C46.5214021,26.3599175 44.7504742,27.9492371 44.2840825,30.407134 C43.6373196,33.778268 45.6352577,38.2315052 51.556701,40.5809072 C51.5715464,40.5868454 51.5865155,40.5922887 51.601732,40.5973608 C51.8925254,40.7039167 52.2116808,40.7039167 52.5024742,40.5973608 C52.5196701,40.5916701 52.5366186,40.5849897 52.5534433,40.5786804 C58.4716701,38.1809072 60.4673814,33.7414021 59.8198763,30.4052784 L59.8187629,30.3990928 Z M52.0508041,38.9127835 C47.1611134,36.9171959 45.4778969,33.3780619 45.9856082,30.7317526 C46.2948866,29.1033402 47.3711753,28.0918763 48.7960825,28.0918763 C49.642268,28.0918763 50.5898969,28.4646186 51.5345567,29.1697732 C51.8384485,29.3965652 52.2545438,29.3992723 52.5613608,29.1764536 C53.507134,28.4899794 54.4511753,28.127134 55.2914227,28.127134 C56.7107629,28.127134 57.7947216,29.1277113 58.1208247,30.7386804 C58.6256907,33.3515876 56.9404948,36.8758763 52.0508041,38.9127835 Z" fill="#FFC221" class="secondary-fill-color"></path></svg>