<svg xmlns="http://www.w3.org/2000/svg" xmlns:xlink="http://www.w3.org/1999/xlink" width="40px" height="71px" viewBox="0 0 40 71"><path d="M6.66666667,7.3015873 C6.6699908,4.32238092 9.08428569,1.90808604 12.0634921,1.9047619 L7.3015873,1.9047619 C4.32238092,1.90808604 1.90808604,4.32238092 1.9047619,7.3015873 L1.9047619,9.52380952 L6.66666667,9.52380952 L6.66666667,7.3015873 Z" fill="#D3E6FA"></path><rect fill="#D3E6FA" x="1.9047619" y="11.4285714" width="4.76190476" height="45.3968254"></rect><path d="M6.66666667,62.8571429 L6.66666667,58.7301587 L1.9047619,58.7301587 L1.9047619,62.8571429 C1.90808604,65.8363492 4.32238092,68.2506441 7.3015873,68.2539683 L12.0634921,68.2539683 C9.08428569,68.2506441 6.6699908,65.8363492 6.66666667,62.8571429 L6.66666667,62.8571429 Z" fill="#D3E6FA"></path><path d="M32.6984127,0 L7.3015873,0 C3.27091762,0.00454870054 0.00454870054,3.27091762 0,7.3015873 L0,62.8571429 C0.00454870054,66.8878125 3.27091762,70.1541815 7.3015873,70.1587302 L32.6984127,70.1587302 C36.7290824,70.1541815 39.9954513,66.8878125 40,62.8571429 L40,7.3015873 C39.9954513,3.27091762 36.7290824,0.00454870054 32.6984127,0 Z M32.6984127,68.2539683 L7.3015873,68.2539683 C4.32238092,68.2506441 1.90808604,65.8363492 1.9047619,62.8571429 L1.9047619,58.7301587 L38.0952381,58.7301587 L38.0952381,62.8571429 C38.091914,65.8363492 35.6776191,68.2506441 32.6984127,68.2539683 Z M38.0952381,9.52380952 L35.8730159,9.52380952 C35.3470304,9.52380952 34.9206349,9.950205 34.9206349,10.4761905 C34.9206349,11.002176 35.3470304,11.4285714 35.8730159,11.4285714 L38.0952381,11.4285714 L38.0952381,56.8253968 L1.9047619,56.8253968 L1.9047619,11.4285714 L27.7777778,11.4285714 C28.3037633,11.4285714 28.7301587,11.002176 28.7301587,10.4761905 C28.7301587,9.950205 28.3037633,9.52380952 27.7777778,9.52380952 L1.9047619,9.52380952 L1.9047619,7.3015873 C1.90808604,4.32238092 4.32238092,1.90808604 7.3015873,1.9047619 L32.6984127,1.9047619 C35.6776191,1.90808604 38.091914,4.32238092 38.0952381,7.3015873 L38.0952381,9.52380952 Z" fill="#0071DC" class="primary-fill-color"></path><path d="M32.668254,9.52380952 L30.9047619,9.52380952 C30.3787764,9.52380952 29.952381,9.950205 29.952381,10.4761905 C29.952381,11.002176 30.3787764,11.4285714 30.9047619,11.4285714 L32.668254,11.4285714 C33.1942394,11.4285714 33.6206349,11.002176 33.6206349,10.4761905 C33.6206349,9.950205 33.1942394,9.52380952 32.668254,9.52380952 Z" fill="#0071DC" class="primary-fill-color"></path><path d="M20,66.8253968 C21.8409492,66.8253968 23.3333333,65.3330127 23.3333333,63.4920635 C23.3333333,61.6511143 21.8409492,60.1587302 20,60.1587302 C18.1590508,60.1587302 16.6666667,61.6511143 16.6666667,63.4920635 C16.668766,65.3321424 18.1599211,66.8232975 20,66.8253968 Z M20,62.0634921 C20.7889782,62.0634921 21.4285714,62.7030853 21.4285714,63.4920635 C21.4285714,64.2810417 20.7889782,64.9206349 20,64.9206349 C19.2110218,64.9206349 18.5714286,64.2810417 18.5714286,63.4920635 C18.5723034,62.7034479 19.2113844,62.0643668 20,62.0634921 Z" fill="#FFC221" class="secondary-fill-color"></path></svg>