<svg xmlns="http://www.w3.org/2000/svg" xmlns:xlink="http://www.w3.org/1999/xlink" width="70px" height="46px" viewBox="0 0 70 46"><path d="M5.01992032,40.8161355 L5.01992032,16.8292829 C5.01999733,14.4203851 6.97277555,12.4675299 9.38167331,12.4675299 L5.19840637,12.4675299 C2.78950861,12.4675299 0.836653306,14.4203851 0.836653306,16.8292829 L0.836653306,40.8161355 C0.836431415,41.9730123 1.29590065,43.0825702 2.11393613,43.9006057 C2.93197161,44.7186412 4.04152952,45.1778885 5.19840637,45.1778885 L9.38167331,45.1778885 C8.22479646,45.1778885 7.11523854,44.7186412 6.29720306,43.9006057 C5.47916758,43.0825702 5.01969835,41.9730123 5.01992032,40.8161355 L5.01992032,40.8161355 Z" fill="#D3E6FA"></path><path d="M64.8021514,0.00153386454 L21.1892231,0.00153386454 C18.3198685,0.00476140159 15.994602,2.33002791 15.9913745,5.19938247 L15.9913745,5.81655378 L12.4661355,5.81655378 C9.59678089,5.81978132 7.27151439,8.14504783 7.26828685,11.0144024 L7.26828685,12.4682271 L8.94159363,12.4682271 L8.94159363,11.0144024 C8.94343856,9.06861639 10.5203495,7.49170549 12.4661355,7.48986056 L20.3237052,7.48986056 C20.2194227,9.09261611 19.7966189,10.6584929 19.0800199,12.0959163 L20.5784661,12.8406773 C21.4106636,11.1720321 21.8945861,9.35148693 22.0007769,7.48986056 L28.5397809,7.48986056 L28.5505179,7.48986056 C28.5505179,7.48986056 28.5563745,7.48986056 28.5593028,7.48986056 L46.5448406,7.48986056 C46.6521146,9.36652921 47.1432195,11.2012437 47.9877888,12.8805578 L49.4837251,12.1314741 C48.7565398,10.684551 48.327581,9.10623291 48.2223307,7.49027888 L56.0794821,7.49027888 C58.0251634,7.49243051 59.6019347,9.06913945 59.6041633,11.0148207 L59.6041633,18.8714143 C57.4535888,18.7285878 55.3795485,18.017062 53.5942032,16.8096215 L52.6575697,18.1962351 C54.7195808,19.59054 57.119596,20.4026527 59.6045817,20.5469522 L59.6045817,25.4692629 C57.1195933,25.6137684 54.7196077,26.4259675 52.6575697,27.820259 L53.1266534,29.3502191 C53.2933441,29.3502138 53.4562051,29.3002335 53.5942032,29.2067331 C55.3795695,27.9993348 57.4535981,27.2878131 59.6041633,27.1449402 L59.6041633,35.0015339 C59.6019347,36.9472151 58.0251634,38.5239241 56.0794821,38.5260757 L53.1719721,38.5260757 L53.1719721,40.1993825 L56.0794821,40.1993825 C58.9488593,40.1961551 61.2741658,37.870911 61.2774701,35.0015339 L61.2774701,34.3843625 L64.8021514,34.3843625 C67.671506,34.381135 69.9967725,32.0558685 70,29.1865139 L70,5.19938247 C69.9967725,2.33002791 67.671506,0.00476140159 64.8021514,0.00153386454 L64.8021514,0.00153386454 Z M28.0200797,5.8162749 L17.6646813,5.8162749 L17.6646813,5.19910359 C17.6665262,3.25331759 19.2434371,1.67640668 21.1892231,1.67456175 L29.0458167,1.67456175 C28.9526112,3.10518722 28.6052719,4.5077656 28.0200797,5.81655378 L28.0200797,5.8162749 Z M56.0794821,5.8162749 L29.8315737,5.8162749 C30.3414827,4.49027019 30.6425413,3.09317048 30.724004,1.67484064 L55.2682072,1.67484064 C55.3542596,3.09351455 55.6558925,4.49080607 56.1627291,5.81864542 C56.1348406,5.81822709 56.1073705,5.81655378 56.0794821,5.81655378 L56.0794821,5.8162749 Z M68.3266932,29.1865139 C68.3248483,31.1322999 66.7479374,32.7092108 64.8021514,32.7110558 L61.2774701,32.7110558 L61.2774701,24.1806773 C63.2643999,22.5055247 65.7337762,21.5076725 68.3266932,21.3321514 L68.3266932,29.1865139 Z M68.3266932,19.6553586 C65.8000802,19.805538 63.3625432,20.6433162 61.2774701,22.0781673 L61.2774701,12.3063347 C63.3631799,13.7400858 65.8002972,14.5781055 68.3266932,14.730259 L68.3266932,19.6553586 Z M68.3266932,13.0536056 C65.7014865,12.8750895 63.20368,11.8553911 61.2035657,10.1456773 C60.9089157,8.42677574 59.7742253,6.96908429 58.1801793,6.26165339 C57.4740346,4.8276579 57.0547393,3.26955806 56.9458367,1.67484064 L64.8021514,1.67484064 C66.7479374,1.67668557 68.3248483,3.25359647 68.3266932,5.19938247 L68.3266932,13.0536056 Z" fill="#D3E6FA"></path><g transform="translate(0.000000, 11.573705)"><path d="M48.8107769,0.0578685259 L5.19784861,0.0578685259 C2.32849404,0.0610960629 0.00322753705,2.38636257 6.19247902e-16,5.25571713 L6.19247902e-16,29.2428486 C0.00322753705,32.1122032 2.32849404,34.4374697 5.19784861,34.4406972 L48.8107769,34.4406972 C51.6801633,34.4375464 54.0054746,32.112235 54.0086255,29.2428486 L54.0086255,5.25571713 C54.005398,2.38636257 51.6801315,0.0610960629 48.8107769,0.0578685259 Z M1.67330677,14.789243 C8.69834907,14.3572084 14.2993399,8.75621759 14.7313745,1.7311753 L39.2773904,1.7311753 C39.709357,8.75619514 45.3103035,14.3572015 52.3353187,14.789243 L52.3353187,19.7094622 C45.3102986,20.1413749 39.7093032,25.7423703 39.2773904,32.7673904 L14.7313745,32.7673904 C14.2993936,25.7423479 8.69835396,20.141368 1.67330677,19.7094622 L1.67330677,14.789243 Z M52.3353187,5.25571713 L52.3353187,13.1125896 C46.2346947,12.6866945 41.3799289,7.83180971 40.9541833,1.7311753 L48.8110558,1.7311753 C50.7567329,1.73317394 52.333474,3.31003989 52.3353187,5.25571713 L52.3353187,5.25571713 Z M5.19784861,1.7311753 L13.0547211,1.7311753 C12.6290176,7.83193485 7.77406632,12.6868861 1.67330677,13.1125896 L1.67330677,5.25571713 C1.6751517,3.30993113 3.25206261,1.73302023 5.19784861,1.7311753 L5.19784861,1.7311753 Z M1.67330677,29.2428486 L1.67330677,21.3859761 C7.77406632,21.8116796 12.6290176,26.6666309 13.0547211,32.7673904 L5.19784861,32.7673904 C3.25206261,32.7655455 1.6751517,31.1886346 1.67330677,29.2428486 L1.67330677,29.2428486 Z M48.8107769,32.7673904 L40.9541833,32.7673904 C41.3799455,26.6666577 46.2348648,21.8117384 52.3355976,21.3859761 L52.3355976,29.2428486 C52.3337524,31.1887434 50.7566718,32.7656992 48.8107769,32.7673904 L48.8107769,32.7673904 Z" fill="#0071DC" class="primary-fill-color"></path><path d="M27.004243,27.8987649 C32.8857533,27.8987649 37.6537251,23.1308861 37.6537251,17.2493758 C37.6537251,11.3678656 32.8859392,6.5998008 27.0044289,6.5998008 C21.1229187,6.5998008 16.354761,11.3674937 16.354761,17.249004 C16.3613694,23.1278562 21.125391,27.8920025 27.004243,27.8987649 L27.004243,27.8987649 Z M27.004243,8.27310757 C30.6347924,8.27310757 33.9078493,10.4601126 35.2971743,13.8143137 C36.6864994,17.1685148 35.9184848,21.0293497 33.3512588,23.5964959 C30.7840329,26.1636421 26.9231741,26.9315367 23.5690162,25.5421075 C20.2148583,24.1526782 18.0280677,20.8795534 18.0280677,17.249004 C18.0339077,12.2940654 22.0493043,8.27879363 27.004243,8.27310757 Z" fill="#FFC221" class="secondary-fill-color"></path><path d="M27.0230677,21.8975896 C27.0167928,21.8975896 27.0106574,21.8966135 27.004243,21.8966135 C26.9978287,21.8966135 26.9916932,21.8974502 26.9854183,21.8975896 C25.9233064,21.8862883 25.0678682,21.0227689 25.0665538,19.9605976 C25.0665538,19.4985267 24.6919713,19.1239442 24.2299004,19.1239442 C23.7678295,19.1239442 23.393247,19.4985267 23.393247,19.9605976 C23.3955949,21.6319029 24.5427542,23.083953 26.1681474,23.473008 L26.1681474,24.3859363 C26.1681474,24.8480072 26.5427299,25.2225896 27.0048008,25.2225896 C27.4668717,25.2225896 27.8414542,24.8480072 27.8414542,24.3859363 L27.8414542,23.473008 C29.6231051,23.0488629 30.8050524,21.3580616 30.5914197,19.5391223 C30.3777871,17.720183 28.8362426,16.3492531 27.0048008,16.3494622 C25.9343365,16.3494622 25.0665538,15.4816794 25.0665538,14.4112151 C25.0665538,13.3407509 25.9343365,12.4729681 27.0048008,12.4729681 C28.0752651,12.4729681 28.9430478,13.3407509 28.9430478,14.4112151 C28.9430478,14.873286 29.3176303,15.2478685 29.7797012,15.2478685 C30.2417721,15.2478685 30.6163546,14.873286 30.6163546,14.4112151 C30.6140067,12.7399099 29.4668474,11.2878598 27.8414542,10.8988048 L27.8414542,10.1120717 C27.8414542,9.65000081 27.4668717,9.27541833 27.0048008,9.27541833 C26.5427299,9.27541833 26.1681474,9.65000081 26.1681474,10.1120717 L26.1681474,10.8988048 C24.3867876,11.3231944 23.2051581,13.0138454 23.4187684,14.8325591 C23.6323787,16.6512729 25.1735856,18.0221232 27.0048008,18.0222112 C28.074803,18.0170129 28.9464252,18.880207 28.9516235,19.9502092 C28.9568218,21.0202113 28.0936277,21.8918335 27.0236255,21.8970319 L27.0230677,21.8975896 Z" fill="#FFC221" class="secondary-fill-color"></path></g></svg>