<svg xmlns="http://www.w3.org/2000/svg" xmlns:xlink="http://www.w3.org/1999/xlink" width="80px" height="74px" viewBox="0 0 80 74"><path d="M11.4472881,61.5311864 C13.4932137,59.4400791 15.8065172,57.6285204 18.3271186,56.1435593 C20.9684746,62.5235593 25.1191525,67.7723729 30.5064407,71.4020339 C23.25808,70.2442888 16.5752082,66.7831901 11.4472881,61.5311864 L11.4472881,61.5311864 Z" fill="#D3E6FA"></path><path d="M17.5877966,22.9491525 C16.0135593,27.3874576 15.1355932,32.2033898 15.0350847,37.6271186 L2.05084746,37.6271186 C2.28591981,30.0837483 5.11888136,22.8530117 10.070678,17.1576271 C12.3032017,19.4189076 14.8319263,21.3671505 17.5877966,22.9491525 L17.5877966,22.9491525 Z" fill="#D3E6FA"></path><path d="M15.0350847,39.6610169 C15.1352542,44.9152542 16.0135593,49.8191525 17.5877966,54.2584746 C14.8308685,55.8544571 12.3022783,57.8157094 10.070678,60.0889831 C5.14692274,54.3929482 2.31732754,47.1854549 2.05084746,39.6610169 L15.0350847,39.6610169 Z" fill="#D3E6FA"></path><path d="M30.5066102,5.72322034 C25.119322,9.35305085 20.9684746,14.6018644 18.3271186,20.9816949 C15.8065183,19.4967994 13.4932136,17.6852968 11.4472881,15.5942373 C16.575273,10.3421982 23.2581909,6.88104695 30.5066102,5.72322034 L30.5066102,5.72322034 Z" fill="#D3E6FA"></path><path d="M36.0142373,73.8755932 C36.2645763,73.8755932 36.5138983,73.8710169 36.7628814,73.8661017 C36.8078232,73.8722242 36.853118,73.8755932 36.8984746,73.8755932 C36.9571028,73.8755932 37.0155693,73.8693206 37.0732203,73.8586441 C56.4435593,73.3071186 72.0284746,57.6864407 72.0284746,38.5623729 C72.0284746,37.1047458 71.9437288,33.8018644 71.7762712,32.4137288 L69.7569492,32.6577966 C69.9108475,33.9289831 69.9942373,37.2247458 69.9942373,38.5623729 C69.9903251,46.4964594 67.1047518,54.1590573 61.8742373,60.1249153 C59.6598591,57.8550749 57.1505809,55.8930071 54.4137288,54.2913559 C56.1057627,49.5488136 57.0038983,44.2454237 57.0038983,38.5625424 C57.0038983,37.5964407 56.9769492,36.6222034 56.9237288,35.6689831 C56.8924017,35.1082342 56.4124455,34.6790433 55.8516949,34.710339 C55.2838482,34.7610258 54.8591716,35.253954 54.8930508,35.8230508 C54.9254237,36.4049153 54.9466102,36.9489831 54.9586441,37.6269492 L36.9491525,37.6269492 L36.9491525,27.7859322 C40.4572595,27.6994527 43.9347292,27.1092383 47.2749153,26.0333898 C47.6066102,25.9259322 47.96,25.8130508 48.2850847,25.6971186 L47.4432203,23.9505085 C47.1367797,24.0598305 46.9562712,23.9969492 46.6433898,24.0983051 C43.5080125,25.1124805 40.2427723,25.6692268 36.9484746,25.7513559 L36.9484746,5.46152542 C40.4372802,7.14690807 43.5418592,9.53232971 46.0689831,12.469322 L47.6205085,11.130339 C45.8254267,9.06739484 43.7689264,7.24740945 41.5030508,5.71644068 C43.8586772,6.09085819 46.1688104,6.71002932 48.3959322,7.56389831 L48.5874576,7.63711864 L49.3272881,5.7420339 L49.1288136,5.66491525 C44.9424969,4.06078624 40.4963461,3.24207901 36.0132203,3.24977598 C16.1555932,3.24977598 0,19.0911864 0,38.5627119 C0,58.0342373 16.1559322,73.8755932 36.0142373,73.8755932 Z M11.4472881,61.5311864 C13.4932137,59.4400791 15.8065172,57.6285204 18.3271186,56.1435593 C20.9684746,62.5235593 25.1191525,67.7723729 30.5064407,71.4020339 C23.25808,70.2442888 16.5752082,66.7831901 11.4472881,61.5311864 L11.4472881,61.5311864 Z M17.5877966,22.9491525 C16.0135593,27.3874576 15.1355932,32.2033898 15.0350847,37.6271186 L2.05084746,37.6271186 C2.28591981,30.0837483 5.11888136,22.8530117 10.070678,17.1576271 C12.3032017,19.4189076 14.8319263,21.3671505 17.5877966,22.9491525 L17.5877966,22.9491525 Z M34.9152542,71.6650847 C28.3050847,68.3184746 23.0467797,62.5359322 20.0410169,55.1540678 C24.6570396,52.8054225 29.7380016,51.5137889 34.9152542,51.3728814 L34.9152542,71.6650847 Z M36.9491525,51.3740678 C42.1248951,51.5194788 47.2008651,52.8326362 51.7977966,55.2154237 C48.7888136,62.5677966 43.7288136,68.3277966 36.9491525,71.6650847 L36.9491525,51.3740678 Z M34.9152542,49.3389831 C29.5052556,49.5021517 24.1965247,50.8474128 19.3616949,53.280339 C17.9274576,49.1316949 17.1666102,44.5762712 17.069322,39.6610169 L34.9152542,39.6610169 L34.9152542,49.3389831 Z M15.0350847,39.6610169 C15.1352542,44.9152542 16.0135593,49.8191525 17.5877966,54.2584746 C14.8308685,55.8544571 12.3022783,57.8157094 10.070678,60.0889831 C5.14692274,54.3929482 2.31732754,47.1854549 2.05084746,39.6610169 L15.0350847,39.6610169 Z M60.4915254,61.6211864 C55.3747881,66.8231332 48.7272798,70.2506507 41.5220339,71.4020339 C46.8889831,67.7861017 51.0283051,62.5633898 53.6710169,56.2155932 C56.1708914,57.7117807 58.4639167,59.5291176 60.4915254,61.6211864 Z M54.959322,39.6610169 C54.8849507,44.3178959 54.0766612,48.9339148 52.5642373,53.3389831 C47.724815,50.8521051 42.3881993,49.485064 36.9491525,49.3389831 L36.9491525,39.6610169 L54.959322,39.6610169 Z M17.069322,37.6271186 C17.1666102,32.7118644 17.9274576,28.0750847 19.3616949,23.9271186 C24.202038,26.3344014 29.5110278,27.6519584 34.9152542,27.7871186 L34.9152542,37.6271186 L17.069322,37.6271186 Z M20.0410169,21.9711864 C23.0469492,14.5894915 28.3050847,8.80694915 34.9152542,5.46033898 L34.9152542,25.7518644 C29.7380305,25.6111882 24.6570546,24.3197248 20.0410169,21.9711864 L20.0410169,21.9711864 Z M30.5066102,5.72322034 C25.119322,9.35305085 20.9684746,14.6018644 18.3271186,20.9816949 C15.8065183,19.4967994 13.4932136,17.6852968 11.4472881,15.5942373 C16.575273,10.3421982 23.2581909,6.88104695 30.5066102,5.72322034 L30.5066102,5.72322034 Z" fill="#0071DC" class="primary-fill-color"></path><path d="M74.5676271,5.07847458 C67.6567868,-1.66263363 56.6310098,-1.66263363 49.7201695,5.07847458 C46.549123,8.19013003 44.6295848,12.3568486 44.3252542,16.7891525 C44.1675155,19.2103273 44.5307056,21.6371814 45.390339,23.9061017 C46.2322034,26.1679661 47.6008475,28.2976271 49.4581356,30.2361017 L61.409322,42.710678 C61.6011409,42.9109402 61.8664214,43.024184 62.1437288,43.024184 C62.4210363,43.024184 62.6863167,42.9109402 62.8781356,42.710678 L74.8294915,30.2361017 C76.6864407,28.2977966 78.0549153,26.1683051 78.8972881,23.9062712 C79.7568589,21.6373985 80.1199354,19.2105889 79.9620339,16.7894915 C79.6578743,12.3571494 77.7385224,8.19032184 74.5676271,5.07847458 Z M76.9913559,23.1971186 C76.2455932,25.1971186 75.0252542,27.0925424 73.3610169,28.829661 L62.1440678,40.5377966 L50.9271186,28.829661 C49.2628814,27.0925424 48.0415254,25.1976271 47.2969492,23.1971186 C46.5384866,21.1989258 46.2173121,19.0613269 46.3550847,16.9284746 C46.6255491,12.9924173 48.3304737,9.29231295 51.1467797,6.52932203 C57.2660344,0.566841452 67.0221012,0.566841452 73.1413559,6.52932203 C75.9576357,9.29233141 77.6625554,12.9924252 77.9330508,16.9284746 C78.0706952,19.0610856 77.7495829,21.1984247 76.9913559,23.1964407 L76.9913559,23.1971186 Z" fill="#FFC221" class="secondary-fill-color"></path><path d="M62.1440678,4.74576271 C55.6116949,4.74576271 50.2966102,10.090678 50.2966102,16.6610169 C50.2966102,23.2313559 55.6110169,28.5762712 62.1440678,28.5762712 C68.6771186,28.5762712 73.9915254,23.2313559 73.9915254,16.6610169 C73.9915254,10.090678 68.6762712,4.74576271 62.1440678,4.74576271 Z M62.1440678,26.5413559 C56.7333898,26.5413559 52.3305085,22.1088136 52.3305085,16.66 C52.3305085,11.2111864 56.7333898,6.77966102 62.1440678,6.77966102 C67.5547458,6.77966102 71.9576271,11.2122034 71.9576271,16.6610169 C71.9576271,22.1098305 67.5549153,26.5413559 62.1440678,26.5413559 Z" fill="#FFC221" class="secondary-fill-color"></path><path d="M66.0681469,12.8891176 C66.582281,12.8891176 66.9990691,12.4662242 66.9990691,11.9445588 C66.9990691,11.4228934 66.582281,11 66.0681469,11 L58.9310773,11 C58.4169432,11 58.0001552,11.4228934 58.0001552,11.9445588 C58.0001552,12.4662242 58.4169432,12.8891176 58.9310773,12.8891176 L60.9732101,12.8891176 C61.8031819,12.8788413 62.5579928,13.3754728 62.8873412,14.1485294 L58.9309221,14.1485294 C58.416788,14.1485294 58,14.5714228 58,15.0930882 C58,15.6147536 58.416788,16.037647 58.9309221,16.037647 L62.8873412,16.037647 C62.4887293,16.7252172 61.7592246,17.1451667 60.973055,17.1396323 L58.9310773,17.1396323 C58.5447808,17.1573131 58.2054826,17.4054589 58.0668091,17.7717151 C57.9281355,18.1379712 58.0164199,18.5527881 58.2916889,18.828346 L63.3962453,23.7321805 C63.6355621,23.9692158 63.98207,24.0572556 64.3032395,23.9626274 C64.624409,23.8679991 64.870551,23.6053429 64.9475231,23.2751173 C65.0244953,22.9448918 64.920389,22.5981871 64.675022,22.3676079 L61.2616408,19.1142325 C63.0148775,18.9870319 64.4578068,17.6119117 64.8573276,16.037647 L66.0690779,16.037647 C66.583212,16.037647 67,15.6147536 67,15.0930882 C67,14.5714228 66.583212,14.1485294 66.0690779,14.1485294 L64.8565518,14.1485294 C64.7709356,13.6987841 64.5982821,13.2707265 64.3485786,12.8891176 L66.0681469,12.8891176 Z" fill="#FFC221" class="secondary-fill-color"></path></svg>