<svg xmlns="http://www.w3.org/2000/svg" xmlns:xlink="http://www.w3.org/1999/xlink" width="60px" height="49px" viewBox="0 0 60 49"><path d="M4.3902439,45.0853659 L4.3902439,3.45121951 C4.39056726,2.74580831 4.67110093,2.06941738 5.17013067,1.57084504 C5.66916042,1.0722727 6.34580831,0.792682647 7.05121951,0.792682647 L3.39268293,0.792682647 C2.68727173,0.792682647 2.01062383,1.0722727 1.51159409,1.57084504 C1.01256434,2.06941738 0.732030678,2.74580831 0.731707317,3.45121951 L0.731707317,45.0853659 C0.732448014,46.5542807 1.923768,47.7445088 3.39268293,47.7439027 L7.05121951,47.7439027 C5.58230458,47.7445088 4.3909846,46.5542807 4.3902439,45.0853659 Z" fill="#D3E6FA"></path><path d="M6.16719512,8.9504878 C7.72460165,8.94947768 8.98640475,7.68630994 8.98573171,6.12890323 C8.98505814,4.57149652 7.72216331,3.30942027 6.16475649,3.30975669 C4.60734968,3.31009325 3.345,4.5727151 3.345,6.13012195 C3.34728574,7.68753332 4.6097826,8.94921187 6.16719512,8.9504878 Z M6.16719512,4.77329268 C6.9163955,4.77430266 7.52301202,5.38230168 7.52231708,6.13150242 C7.52162095,6.88070317 6.91387658,7.48757481 6.16467561,7.48719389 C5.41547464,7.48681262 4.80834798,6.87932301 4.80841463,6.13012195 C4.80982662,5.38058974 5.41766165,4.77362756 6.16719512,4.77329268 L6.16719512,4.77329268 Z" fill="#0071DC" class="primary-fill-color"></path><path d="M13.6934146,8.9504878 C15.2508052,8.94941035 16.5125471,7.68621284 16.5118293,6.12882204 C16.5111108,4.57143124 15.2482044,3.30939794 13.6908135,3.30975677 C12.1334225,3.31011575 10.8710976,4.57273098 10.8710976,6.13012195 C10.8733834,7.68758088 12.1359545,8.94927907 13.6934146,8.9504878 L13.6934146,8.9504878 Z M13.6934146,4.77329268 C14.442599,4.77436997 15.0491543,5.3823987 15.0484146,6.1315835 C15.0476736,6.8807683 14.4399177,7.48759699 13.6907326,7.48719372 C12.9415476,7.48679006 12.3344456,6.87930712 12.3345122,6.13012195 C12.3359913,5.38057002 12.9438613,4.77362741 13.6934146,4.77329268 L13.6934146,4.77329268 Z" fill="#0071DC" class="primary-fill-color"></path><path d="M21.080122,8.9504878 C22.6375125,8.94941035 23.8992545,7.68621284 23.8985366,6.12882204 C23.8978181,4.57143124 22.6349117,3.30939794 21.0775208,3.30975677 C19.5201298,3.31011575 18.2578049,4.57273098 18.2578049,6.13012195 C18.2600907,7.68758088 19.5226618,8.94927907 21.080122,8.9504878 L21.080122,8.9504878 Z M21.080122,4.77329268 C21.8293063,4.77436997 22.4358617,5.3823987 22.435122,6.1315835 C22.4343809,6.8807683 21.826625,7.48759699 21.07744,7.48719372 C20.3282549,7.48679006 19.721153,6.87930712 19.7212195,6.13012195 C19.7226986,5.38057002 20.3305686,4.77362741 21.080122,4.77329268 L21.080122,4.77329268 Z" fill="#0071DC" class="primary-fill-color"></path><path d="M32.0906098,6.72268293 L56.0626829,6.72268293 C56.4667937,6.72268293 56.7943902,6.3950864 56.7943902,5.99097561 C56.7943902,5.58686482 56.4667937,5.25926829 56.0626829,5.25926829 L32.0906098,5.25926829 C31.686499,5.25926829 31.3589024,5.58686482 31.3589024,5.99097561 C31.3589024,6.3950864 31.686499,6.72268293 32.0906098,6.72268293 L32.0906098,6.72268293 Z" fill="#0071DC" class="primary-fill-color"></path><g id="Group" transform="translate(0.731707, 16.341463)"><path d="M26.5487805,0.13902439 C26.2469107,-0.0352601884 25.8749897,-0.0352509292 25.5731287,0.13904868 C25.2712676,0.313348288 25.0853659,0.635455238 25.0853659,0.98402439 L25.0853659,13.0243902 C25.0857078,13.3728001 25.2717098,13.6946188 25.573433,13.8688388 C25.8751563,14.0430588 26.2468604,14.043269 26.5487805,13.8693902 L36.9763415,7.84902439 C37.2782315,7.67475796 37.464209,7.35266302 37.464209,7.00408537 C37.464209,6.65550771 37.2782315,6.33341277 36.9763415,6.15914634 L26.5487805,0.13902439 Z M26.5487805,12.1797561 L26.5487805,1.82926829 L35.5129268,7.00463415 L26.5487805,12.1797561 Z" fill="#FFC221" class="secondary-fill-color"></path><polygon fill="#0071DC" class="primary-fill-color" points="0 20.1439024 58.5365854 20.1439024 58.5365854 21.6073171 0 21.6073171"></polygon><path d="M4.56731707,25.1935366 L3.84646341,25.1935366 C3.44235262,25.1935366 3.1147561,25.5211331 3.1147561,25.9252439 C3.1147561,26.3293547 3.44235262,26.6569512 3.84646341,26.6569512 L4.56731707,26.6569512 C4.97142787,26.6569512 5.29902439,26.3293547 5.29902439,25.9252439 C5.29902439,25.5211331 4.97142787,25.1935366 4.56731707,25.1935366 L4.56731707,25.1935366 Z" fill="#FFC221" class="secondary-fill-color"></path><path d="M8.22585366,25.1935366 L7.505,25.1935366 C7.10088921,25.1935366 6.77329268,25.5211331 6.77329268,25.9252439 C6.77329268,26.3293547 7.10088921,26.6569512 7.505,26.6569512 L8.22585366,26.6569512 C8.62996445,26.6569512 8.95756098,26.3293547 8.95756098,25.9252439 C8.95756098,25.5211331 8.62996445,25.1935366 8.22585366,25.1935366 Z" fill="#FFC221" class="secondary-fill-color"></path><path d="M54.5673171,25.1935366 L14.9268293,25.1935366 L14.9268293,24.8963415 C14.9268293,24.4922307 14.5992327,24.1646341 14.195122,24.1646341 C13.7910112,24.1646341 13.4634146,24.4922307 13.4634146,24.8963415 L13.4634146,25.1935366 L12.3835366,25.1935366 C11.9794258,25.1935366 11.6518293,25.5211331 11.6518293,25.9252439 C11.6518293,26.3293547 11.9794258,26.6569512 12.3835366,26.6569512 L13.4634146,26.6569512 L13.4634146,26.9462195 C13.4634146,27.3503303 13.7910112,27.6779268 14.195122,27.6779268 C14.5992327,27.6779268 14.9268293,27.3503303 14.9268293,26.9462195 L14.9268293,26.6569512 L54.5673171,26.6569512 C54.9714279,26.6569512 55.2990244,26.3293547 55.2990244,25.9252439 C55.2990244,25.5211331 54.9714279,25.1935366 54.5673171,25.1935366 L54.5673171,25.1935366 Z" fill="#FFC221" class="secondary-fill-color"></path></g><path d="M56.607561,0.0609756098 L3.39243902,0.0609756098 C1.52026021,0.0623189192 0.00255511882,1.57904196 6.93212425e-15,3.45121951 L6.93212425e-15,45.0853659 C0.00262218903,46.9575156 1.52028801,48.4741994 3.39243902,48.4756098 L56.607561,48.4756098 C58.479712,48.4741994 59.9973778,46.9575156 60,45.0853659 L60,3.45121951 C59.9974449,1.57904196 58.4797398,0.0623189192 56.607561,0.0609756098 Z M3.39243902,1.52439024 L56.607561,1.52439024 C57.6718526,1.5249268 58.534837,2.38692916 58.5365854,3.45121951 L58.5365854,10.9219512 L1.46341463,10.9219512 L1.46341463,3.45121951 C1.46516299,2.38692916 2.32814737,1.5249268 3.39243902,1.52439024 Z M56.607561,47.0121951 L3.39243902,47.0121951 C2.32814737,47.0116586 1.46516299,46.1496562 1.46341463,45.0853659 L1.46341463,12.385 L58.5365854,12.385 L58.5365854,45.0853659 C58.534837,46.1496562 57.6718526,47.0116586 56.607561,47.0121951 L56.607561,47.0121951 Z" fill="#0071DC" class="primary-fill-color"></path></svg>