<svg xmlns="http://www.w3.org/2000/svg" xmlns:xlink="http://www.w3.org/1999/xlink" width="48px" height="58px" viewBox="0 0 48 58"><path d="M43.7333333,9.50527536 C41.8482196,8.08467644 40.8125273,5.80473906 40.9828406,3.45043478 C41.1296232,3.43037681 41.2769855,3.4115942 41.4250435,3.39501449 L45.6877681,2.91802899 L45.4645797,1.40730435 L38.0627246,2.2355942 C37.9146667,2.25217391 37.7673043,2.27037681 37.6205217,2.29101449 C37.4502085,4.64531877 38.4859007,6.92525615 40.3710145,8.34585507 C41.4736342,9.20435929 42.8039754,9.7203704 44.1971014,9.82991304 C44.0403478,9.72753623 43.8851014,9.62098551 43.7333333,9.50527536 L43.7333333,9.50527536 Z" fill="#D3E6FA"></path><polygon fill="#D4E1F4" points="12.3162899 37.2988986 13.4991304 35.5474783 11.0590145 33.6867246 9.7804058 35.3291594"></polygon><path d="M13.0391884,32.0425507 L31.102029,8.49542029 C32.5821169,6.86043841 34.4005773,5.56747277 36.4309565,4.70643478 C36.2624457,3.99688536 36.1894911,3.26800228 36.214029,2.53913043 C32.8463768,3.27234783 29.8853333,4.93913043 27.7397101,7.336 L9.67686957,30.8831304 L26.1842319,43.4710725 L26.8637681,42.5855072 L13.0391884,32.0425507 Z" fill="#D3E6FA"></path><g transform="translate(0.000000, 14.956522)"><path d="M33.7348406,1.66643478 C30.310029,-0.945043478 25.3762319,-0.311652174 22.7368116,3.0786087 C21.4662046,4.70856995 20.9018742,6.77977855 21.1700354,8.82899923 C21.4381966,10.8782199 22.5164755,12.7344765 24.1637101,13.9826087 C27.6006433,16.5927048 32.4957121,15.9641659 35.1617391,12.5704348 C36.432494,10.9404448 36.9969128,8.86912932 36.7287481,6.81979459 C36.4605834,4.77045986 35.3822118,2.91411096 33.7348406,1.66597101 L33.7348406,1.66643478 Z M34.0638841,11.7162899 C31.8678445,14.5102157 27.8369531,15.0267201 25.0074203,12.8767536 C23.655413,11.8538178 22.770087,10.3314304 22.549658,8.65043886 C22.3292291,6.96944732 22.7921101,5.27026912 23.8346667,3.93333333 C26.0307799,1.13947254 30.0616116,0.622930799 32.8912464,2.77275362 C34.2432256,3.79574516 35.1285084,5.31816935 35.3488932,6.99917799 C35.569278,8.68018662 35.1063558,10.3793641 34.0637681,11.7162899 L34.0638841,11.7162899 Z" fill="#FFC221" class="secondary-fill-color"></path><path d="M31.5530435,4.46898551 C29.6827571,3.04869398 27.0189943,3.39100524 25.5685797,5.23802899 C24.8761569,6.12627456 24.5685486,7.25494619 24.7145311,8.37169087 C24.8605137,9.48843555 25.4479113,10.5001107 26.3453913,11.1805217 C28.2156777,12.6008133 30.8794404,12.258502 32.3298551,10.4114783 C33.0222779,9.52323269 33.3298862,8.39456105 33.1839037,7.27781638 C33.0379211,6.1610717 32.4505235,5.14939659 31.5530435,4.46898551 L31.5530435,4.46898551 Z M31.2321159,9.55675362 C30.2516309,10.803782 28.4522341,11.0340412 27.1893333,10.074087 C26.5871978,9.61892038 26.1928274,8.94122355 26.094579,8.19283122 C25.9963305,7.44443889 26.2024174,6.68791446 26.6666667,6.09275362 C27.6471502,4.84574629 29.446501,4.61544136 30.7094493,5.57530435 C31.3116545,6.03043824 31.7060937,6.70814124 31.8043868,7.45656387 C31.9026799,8.2049865 31.6966092,8.96155671 31.2323478,9.55675362 L31.2321159,9.55675362 Z" fill="#FFC221" class="secondary-fill-color"></path><path d="M9.10272464,20.1107246 C8.79955788,19.8747399 8.36249099,19.9291916 8.12649275,20.2323478 L0.204753623,30.4078841 C0.0481174548,30.6036683 0.00895842673,30.8685956 0.102256127,31.1013227 C0.195553827,31.3340499 0.406871131,31.498564 0.65537237,31.5319332 C0.903873609,31.5653024 1.15110507,31.4623631 1.30249275,31.2624928 L9.22434783,21.0869565 C9.46033259,20.7837898 9.40588091,20.3467229 9.10272464,20.1107246 L9.10272464,20.1107246 Z" fill="#0071DC" class="primary-fill-color"></path><path d="M13.9297391,41.9401739 C14.2328564,42.176106 14.6698298,42.1217114 14.9058551,41.8186667 L22.8277101,31.6431304 C22.9823629,31.4471679 23.0201572,31.1833627 22.9267454,30.951861 C22.8333336,30.7203593 22.6230392,30.5566587 22.3756945,30.5229037 C22.1283498,30.4891486 21.8818818,30.5905149 21.7298551,30.7885217 L13.8086957,40.963942 C13.5725799,41.2669568 13.6267692,41.7040007 13.9297391,41.9401739 L13.9297391,41.9401739 Z" fill="#0071DC" class="primary-fill-color"></path><path d="M15.1914203,36.0553051 C15.4062229,36.0556209 15.6090834,35.9565236 15.7408696,35.7868986 L18.9913043,31.6117101 C19.1459571,31.4157476 19.1837514,31.1519424 19.0903396,30.9204407 C18.9969278,30.688939 18.7866334,30.5252384 18.5392887,30.4914834 C18.291944,30.4577284 18.045476,30.5590947 17.8934493,30.7571014 L14.6434783,34.9322899 C14.4802707,35.1419126 14.450704,35.4261873 14.5672802,35.6649097 C14.6838564,35.9036321 14.9262181,36.0551149 15.1918841,36.0553051 L15.1914203,36.0553051 Z" fill="#0071DC" class="primary-fill-color"></path><path d="M12.3513043,39.0083478 C12.6544711,39.2443326 13.091538,39.1898809 13.3275362,38.8867246 L14.2633043,37.6847536 C14.4961752,37.3814516 14.4405854,36.9470559 14.1388423,36.7121686 C13.8370993,36.4772812 13.4023427,36.5299742 13.1654493,36.8301449 L12.2296812,38.0321159 C11.9936964,38.3352827 12.0481481,38.7723496 12.3513043,39.0083478 L12.3513043,39.0083478 Z" fill="#0071DC" class="primary-fill-color"></path><path d="M13.9568696,27.7552464 L7.6626087,35.8401159 C7.50795591,36.0360785 7.47016165,36.2998837 7.56357345,36.5313854 C7.65698525,36.7628871 7.86727968,36.9265876 8.11462438,36.9603427 C8.36196907,36.9940977 8.60843709,36.8927314 8.76046377,36.6947246 L15.0547246,28.6098551 C15.2875955,28.306553 15.2320057,27.8721574 14.9302626,27.63727 C14.6285196,27.4023827 14.193763,27.4550757 13.9568696,27.7552464 Z" fill="#0071DC" class="primary-fill-color"></path><path d="M9.33971014,25.9414493 C9.6428769,26.177434 10.0799438,26.1229824 10.315942,25.8198261 L10.7181449,25.3030725 C10.8747811,25.1072882 10.9139401,24.8423609 10.8206424,24.6096338 C10.7273447,24.3769067 10.5160274,24.2123925 10.2675262,24.1790233 C10.0190249,24.1456541 9.77179348,24.2485935 9.6204058,24.4484638 L9.21808696,24.9652174 C8.98210219,25.2683842 9.03655387,25.705451 9.33971014,25.9414493 L9.33971014,25.9414493 Z" fill="#0071DC" class="primary-fill-color"></path><path d="M6.78689855,29.2202899 C6.9324633,29.333676 7.11711134,29.384587 7.30021576,29.3618212 C7.48332018,29.3390555 7.64987937,29.2444782 7.76324638,29.0988986 L8.07953623,28.6931014 C8.31559393,28.3899371 8.26119327,27.9528113 7.95802897,27.7167536 C7.65486467,27.4806959 7.21773887,27.5350966 6.98168116,27.8382609 L6.6653913,28.244058 C6.42938036,28.5471943 6.48377956,28.9842566 6.78689855,29.2202899 L6.78689855,29.2202899 Z" fill="#0071DC" class="primary-fill-color"></path><path d="M5.65182609,30.6782609 C5.34868973,30.4422499 4.91162745,30.4966491 4.6755942,30.7997681 L3.97310145,31.7022609 C3.81646528,31.8980451 3.77730625,32.1629724 3.87060395,32.3956996 C3.96390165,32.6284267 4.17521896,32.7929408 4.4237202,32.82631 C4.67222144,32.8596792 4.91945289,32.7567399 5.07084058,32.5568696 L5.77344928,31.6543768 C6.00935515,31.3512292 5.95490807,30.9142511 5.65182609,30.6782609 L5.65182609,30.6782609 Z" fill="#0071DC" class="primary-fill-color"></path></g><path d="M46.8173913,1.04428986 C46.7076804,0.397881159 46.1179088,-0.054447295 45.4651594,0.0071884058 L37.908058,0.852869565 C37.5647536,0.891362319 37.2248116,0.939478261 36.8877681,0.995130435 L36.8857971,0.995130435 C32.8252754,1.66562319 29.232,3.57171014 26.6844058,6.42863768 L17.6496232,18.2054493 L2.95976812,16.179942 C2.54327825,16.122404 2.14026797,16.3525664 1.9782029,16.7405217 C1.81340734,17.1270431 1.93428934,17.576136 2.27084058,17.8277101 L12.156058,25.365913 L7.7235942,31.1433043 L9.95257971,32.8431304 L7.81924638,35.5834203 L22.6182029,46.8685217 L24.7515362,44.1283478 L26.4434783,45.4185507 L30.8771014,39.6418551 L39.9715942,46.5769275 C40.3060369,46.8312922 40.7696216,46.8293426 41.101913,46.5721739 C41.4354684,46.3183146 41.5528347,45.8696623 41.3863188,45.4849855 L36.0611014,32.8875362 L44.4885797,21.9071304 L44.5129275,21.8732754 C47.3613913,17.661913 48.4888116,12.3555942 47.6873043,6.93182609 L46.8173913,1.04428986 Z M38.0627246,2.2355942 L45.4645797,1.40730435 L46.3109565,7.13484058 C46.4310278,7.94715512 46.505502,8.76555789 46.534029,9.5862029 C44.4292174,10.1872464 42.2084638,9.74655072 40.3710145,8.34562319 C38.4859729,6.92507022 37.4502893,4.64523907 37.6205217,2.29101449 C37.7673043,2.27095652 37.9146667,2.25217391 38.0627246,2.2355942 L38.0627246,2.2355942 Z M4.53043478,17.8010435 L16.6751304,19.4755942 L13.0030145,24.261913 L4.53043478,17.8010435 Z M22.3667246,44.9275362 L9.7804058,35.3291594 L11.0590145,33.6867246 L23.6452174,43.2846377 L22.3667246,44.9275362 Z M39.4202899,44.4066087 L31.7245217,38.538087 L35.0868406,34.1565217 L39.4202899,44.4066087 Z M43.3722899,21.0767536 L26.1842319,43.4710725 L9.67686957,30.8831304 L27.7397101,7.336 C29.8853333,4.93913043 32.8463768,3.27234783 36.214029,2.53913043 C36.1335803,5.24407318 37.3683867,7.82041407 39.5273043,9.45205797 C41.0106169,10.5966029 42.8291936,11.2215221 44.7027246,11.2304928 C45.3195405,11.230138 45.9343141,11.159617 46.5351884,11.0202899 C46.4142609,14.692058 45.3342609,18.1681159 43.372058,21.0767536 L43.3722899,21.0767536 Z" fill="#0071DC" class="primary-fill-color"></path></svg>