<svg xmlns="http://www.w3.org/2000/svg" xmlns:xlink="http://www.w3.org/1999/xlink" width="48px" height="61px" viewBox="0 0 48 61"><path d="M20.1714545,37.4843657 C19.8380001,37.485 19.5204546,37.3386364 19.3040909,37.0847273 L13.2802727,30.0306364 C12.8710908,29.5514546 12.9277273,28.8317273 13.4069091,28.4225455 C13.8860909,28.0140001 14.6058182,28.0706364 15.015,28.5491819 L20.3152727,34.7562727 L33.4797273,24.0462728 C33.9684546,23.6485454 34.6869091,23.7223637 35.084,24.211091 C35.4817272,24.6998183 35.4079091,25.4182728 34.9191818,25.8153637 L20.8899091,37.2285455 C20.6875454,37.3939999 20.4336364,37.4843657 20.1714545,37.4843657 Z" fill="#FFC221" class="secondary-fill-color"></path><path d="M19.7953637,59.5031818 L22.8868181,60.8503637 C23.1757273,60.9763636 23.5047273,60.977 23.7942728,60.8516364 L27.2777272,59.3472727 C39.5086363,54.2105455 47.4657272,42.2392727 47.467,28.9736363 L47.467,13.3464545 C47.467,12.9251819 47.2347272,12.5376364 46.8630908,12.3397273 L23.9571819,0.134272768 C23.6173636,-0.0470908276 23.2100909,-0.044545536 22.8728182,0.140636323 L0.600727273,12.3460909 C0.235454464,12.5465455 0.00890909091,12.9296364 0.00890909091,13.3464545 L0.00890909091,29.2899091 C0.022272768,42.3958183 7.78718178,54.2525455 19.7953637,59.5031818 L19.7953637,59.5031818 Z M2.28963645,14.0216363 L23.4283636,2.436 L45.1862728,14.0299091 L45.1862728,28.9736363 C45.1837273,41.3248182 37.7732728,52.4694545 26.3849092,57.2491819 L26.3766363,57.253 L23.3437273,58.5626364 L20.7079091,57.4127273 C9.53018182,52.5254545 2.30172723,41.4896364 2.28899996,29.2899091 L2.28963645,14.0216363 Z" fill="#0071DC" class="primary-fill-color"></path><path d="M31.2721819,50.7321817 L31.2645454,50.7353637 L28.231,52.0456363 L25.5951818,50.8963636 C14.4174545,46.0090909 7.18899996,34.9732728 7.17627269,22.7735455 L7.17627269,11.3431818 L2.28899996,14.0216363 L2.28899996,29.2899091 C2.30172723,41.4896364 9.53018182,52.5254545 20.7079091,57.4127273 L23.3430908,58.5619999 L26.3766363,57.2517273 L26.3842727,57.2485454 C32.697,54.5904545 37.9425455,49.903 41.2904545,43.9281819 C38.4331819,46.835091 35.028,49.1476364 31.2721819,50.7321817 Z" fill="#D3E6FA"></path></svg>