<svg xmlns="http://www.w3.org/2000/svg" xmlns:xlink="http://www.w3.org/1999/xlink" width="64px" height="82px" viewBox="0 0 64 82"><g transform="translate(1.000000, 3.000000)" fill="#D3E6FA"><path d="M5.2776187,48.0755646 C5.2254052,48.0035853 5.21387762,47.9100792 5.24778248,47.8273364 L10.9139499,33.1031604 C10.9593822,32.9867824 10.9824376,32.862332 10.9831156,32.7372087 C10.9885404,30.6033872 11.0048147,27.0811016 11.0278701,26.7070774 C11.8029334,12.7174957 22.7935082,1.40326357 36.8572124,0.118396152 C36.349997,0.0719795218 35.8387127,0.0369988405 35.322682,0.0188357514 C35.0785675,0.0100906242 34.8337749,0.00470898092 34.5869482,0.00134532471 C34.480487,0.000672662356 34.3719918,-9.25820039e-07 34.2648527,-9.25820039e-07 C19.1385724,-0.00269082164 6.64872807,11.7239098 5.81873896,26.7070774 C5.79636185,27.0811016 5.78008755,30.6033872 5.77466279,32.7372087 C5.77466279,32.8630047 5.7509294,32.9867824 5.70617517,33.1038331 L0.0400076884,47.8280091 C0.00813714812,47.9107519 0.0196647312,48.0035853 0.0698438981,48.0762376 C0.120700944,48.1488897 0.204106756,48.1927433 0.292937332,48.1927433 L5.50071213,48.1927433 C5.4112035,48.1946337 5.32711964,48.1502351 5.2776187,48.0755646 L5.2776187,48.0755646 Z"></path><path d="M34.7286702,68.2257826 C34.1421174,65.8955311 32.0298494,64.2622024 29.6090477,64.2648865 L29.5859925,64.2648865 C28.0379001,64.2716203 26.3480856,64.2790199 24.8725494,64.2864197 C27.1102652,64.4821771 28.9763844,66.0637075 29.5208953,68.2257826 C29.5419164,68.3078528 29.5520877,68.3926135 29.5520877,68.4773743 L29.5520877,77.1949637 L34.7598625,77.1949637 L34.7598625,68.4780471 C34.7598625,68.3932862 34.7496912,68.3085254 34.7286702,68.2257826 Z"></path><path d="M16.923912,62.7714871 C15.8477741,61.7429207 15.2422347,60.3235121 15.2483375,58.8408694 L15.2483375,49.2252184 C15.2483375,48.6547642 14.7818077,48.1919429 14.2067826,48.1919429 L8.99900777,48.1919429 C9.57403286,48.1919429 10.0405627,48.6547642 10.0405627,49.2252184 L10.0405627,58.8408694 C10.0398847,60.3214942 10.6440678,61.7388843 11.7141029,62.7701418 C12.7841378,63.8020718 14.2291597,64.3597446 15.7209701,64.3173641 C16.0118732,64.308619 17.8786707,64.2965104 20.1394416,64.2857471 C18.9276846,64.151206 17.7952649,63.6177505 16.923912,62.7714871 L16.923912,62.7714871 Z"></path></g><path d="M37.1274277,0.0203506142 C36.8679939,0.0108549198 36.6078878,0.00475060938 36.3471097,0.00203757865 C20.1291282,-0.185161507 6.641924,12.5491265 5.74869148,28.8910671 C5.71777457,29.404508 5.70500446,33.8050439 5.70231603,34.8956822 L0.153387064,49.5630046 C-0.120161025,50.2867056 -0.0240495828,51.0999366 0.411476784,51.738177 C0.847003185,52.3764176 1.56548728,52.7575984 2.3337075,52.7575984 L9.92987947,52.7575984 L9.92987947,61.41081 C9.92987947,63.4666089 10.7552289,65.435591 12.2170651,66.8680712 C13.6789014,68.3005514 15.6528845,69.0744434 17.6900458,69.0140785 C18.0321493,69.0032264 21.0599986,68.9849134 26.2157441,68.9632091 L26.229186,68.9632091 C27.6372538,68.9618527 28.8772943,69.899883 29.2698058,71.2652158 L29.2698058,80.9581963 C29.2698058,81.5333588 29.7322165,82 30.3021646,82 L56.4169458,82 C56.7019199,82 56.9734518,81.8813051 57.1683634,81.6724017 C57.363947,81.4634983 57.4647633,81.1826996 57.4479606,80.8964749 C57.4372069,80.7228409 56.4324044,63.3146791 57.4452721,52.3336874 C57.7208367,49.35071 60.5389881,42.2059437 60.7930453,41.5683814 C65.294829,32.875831 65.0427882,22.4564363 60.1269856,13.9958501 C55.2837708,5.59155913 46.686157,0.367618548 37.1274277,0.0203506142 Z M58.9386975,40.648664 C58.9232391,40.6785074 58.9091247,40.7090289 58.8970269,40.7395505 C58.7666376,41.0644359 55.7038386,48.7280695 55.3892917,52.1403838 C54.5108457,61.6624435 55.1244808,75.8787245 55.3274578,79.9157142 L31.3338513,79.9157142 L31.3338513,71.1268513 C31.3338513,71.0413907 31.3237698,70.9559303 31.3029344,70.8725046 C30.7215604,68.52302 28.627942,66.8762103 26.228514,66.8789233 L26.2056624,66.8789233 C22.5460307,66.8945233 18.08659,66.9162275 17.6248513,66.9311491 C16.1462123,66.9745576 14.7139487,66.4116038 13.6533614,65.3711565 C12.5927738,64.3313875 11.9939252,62.9022985 11.9945972,61.4094533 L11.9945972,51.7151164 C11.9945972,51.1399539 11.5321865,50.6733125 10.9622384,50.6733125 L2.33303544,50.6733125 C2.24498917,50.6733125 2.16231976,50.629904 2.11191174,50.5559739 C2.06217561,50.4827222 2.05074981,50.3891226 2.08233896,50.3056968 L7.69847879,35.4599926 C7.74283787,35.3426541 7.76636171,35.2171765 7.76636171,35.0910204 C7.77173858,32.9395871 7.7878692,29.3882299 7.81004873,29.0111186 C8.63270971,13.9042853 21.0122788,2.08089737 36.0050064,2.08360946 C36.1105275,2.08360946 36.2180648,2.08360946 36.3242581,2.08564521 C36.5682334,2.08835825 36.8108646,2.09378431 37.0534959,2.10260161 C41.5183136,2.23689655 45.8668565,3.56628161 49.6555329,5.95442704 C61.2191622,13.3230185 65.2551746,28.4074693 58.9386975,40.648664 Z" fill="#0071DC" class="primary-fill-color"></path><path d="M36.0003388,5 C24.9547587,4.99932235 16,13.9540813 16,24.9996612 C16,36.0452413 24.9540812,45 36.0003388,45 C47.0459188,45 56,36.0459188 56,24.9996612 C55.9878048,13.9595014 47.0411763,5.01219524 36.0003388,5 Z M46.8860247,39.2221243 L46.8860247,37.1705993 L49.2817292,34.8988804 C49.4883722,34.7024003 49.6055828,34.4293603 49.6055828,34.1441252 L49.6055828,32.1407037 C51.0453091,31.63392 51.9098224,30.1630279 51.6523655,28.6589374 C51.3949085,27.1548469 50.0913634,26.0545573 48.5649148,26.0545573 C47.0391437,26.0545573 45.7355986,27.1548469 45.4781416,28.6589374 C45.2206847,30.1630279 46.085198,31.63392 47.5242468,32.1407037 L47.5242468,33.6962856 L45.1292197,35.9680043 C44.9218992,36.1644846 44.8046886,36.4375244 44.8046886,36.723437 L44.8046886,40.6008741 C43.581768,41.2946527 42.2816104,41.8407326 40.9299616,42.228273 L40.9299616,34.1319297 L44.4855774,29.255831 C44.6156609,29.0783212 44.6854453,28.8635479 44.6854453,28.642677 L44.6854453,23.156134 C46.1251716,22.6493504 46.9890074,21.1784582 46.732228,19.6743679 C46.4747711,18.1702772 45.1712259,17.0706652 43.6447774,17.0706652 C42.119006,17.0706652 40.8147835,18.1702772 40.558004,19.6743679 C40.3005472,21.1784582 41.1650603,22.6493504 42.6041093,23.156134 L42.6041093,28.3039179 L39.0484935,33.1793392 C38.9190875,33.3575263 38.8486255,33.5722998 38.8486255,33.7924932 L38.8486255,42.6910178 C38.0024053,42.8265215 37.1473772,42.9010486 36.2896392,42.9145989 L36.2896392,31.5783635 L38.2612172,29.6067854 C38.4563424,29.4116601 38.5661005,29.147428 38.5661005,28.8710006 L38.5661005,15.1688714 C40.0051491,14.6620878 40.8696626,13.1911956 40.6122055,11.6871051 C40.3547487,10.1830146 39.0512034,9.08340255 37.5254324,9.08340255 C35.9989837,9.08340255 34.6954385,10.1830146 34.4379816,11.6871051 C34.1805247,13.1911956 35.045038,14.6620878 36.4847644,15.1688714 L36.4847644,28.440099 L34.5131862,30.4109995 C34.3180609,30.6068024 34.208303,30.8710344 34.208303,31.1474619 L34.208303,42.8299092 C33.8702214,42.7960332 33.5348498,42.7533497 33.2028658,42.7005032 L33.2028658,26.7971172 C33.2028658,26.5213673 33.093108,26.2564576 32.8973053,26.0613324 L30.031403,23.1961077 L30.031403,21.5653212 C31.4711294,21.0585376 32.3349649,19.5876455 32.0781857,18.0835548 C31.8207286,16.5794645 30.5171836,15.4798523 28.9907349,15.4798523 C27.4649637,15.4798523 26.1614186,16.5794645 25.9039617,18.0835548 C25.6465047,19.5876455 26.511018,21.0585376 27.9500668,21.5653212 L27.9500668,23.6263318 C27.9500668,23.9020818 28.0598249,24.1669913 28.2549501,24.3621165 L31.1215297,27.2280188 L31.1215297,42.2431783 C30.0381782,41.9362626 28.9873474,41.5270416 27.9819103,41.0209353 L27.9819103,33.1054897 C27.9819103,32.6813632 27.7244533,32.2992429 27.3308152,32.1407037 L24.4757532,30.9882451 L24.4757532,28.7334643 C25.914802,28.2260032 26.7793153,26.7557885 26.5218584,25.2516982 C26.2644014,23.7476075 24.9608563,22.6479955 23.4350852,22.6479955 C21.9093141,22.6479955 20.6050914,23.7476075 20.348312,25.2516982 C20.0908551,26.7557885 20.9553684,28.2260032 22.3944172,28.7334643 L22.3944172,31.6908317 C22.3944172,32.1156354 22.6518741,32.4970783 23.0455122,32.6562951 L25.9005741,33.8080761 L25.9005741,39.7939499 C19.4797337,35.4144719 16.6138314,27.3960434 18.8035704,19.9392774 C20.9939871,12.4825116 27.7413912,7.28730162 35.5098156,7.07523828 C43.2789173,6.86385259 50.298684,11.684395 52.8915465,19.0110775 C55.4844087,26.3377598 53.0588933,34.5004997 46.8860247,39.2221243 L46.8860247,39.2221243 Z M48.5649148,30.2409424 C47.9849591,30.2409424 47.5147616,29.7707448 47.5147616,29.1901117 C47.5147616,28.6101561 47.9849591,28.1399584 48.5655923,28.1399584 C49.1455479,28.1399584 49.6157457,28.6101561 49.6157457,29.1901117 C49.615068,29.7700673 49.1448704,30.2402649 48.5649148,30.2409424 L48.5649148,30.2409424 Z M43.6454548,21.2563729 C43.0648217,21.2563729 42.5946239,20.7861753 42.5946239,20.2062196 C42.5946239,19.6255866 43.0648217,19.1553888 43.6447774,19.1553888 C44.2254104,19.1553888 44.695608,19.6255866 44.695608,20.2055422 C44.6949305,20.7854978 44.224733,21.2556955 43.6454548,21.2563729 Z M37.5254324,13.2691103 C36.9447992,13.2691103 36.4746016,12.7989125 36.4746016,12.2189568 C36.4746016,11.6383238 36.9447992,11.1681262 37.5247548,11.1681262 C38.105388,11.1681262 38.5755857,11.6383238 38.5755857,12.2189568 C38.5749081,12.7989125 38.1047104,13.2684327 37.5254324,13.2691103 Z M28.9914123,19.6655615 C28.4114567,19.6662375 27.9412577,19.1953624 27.9412577,18.6154068 C27.9405817,18.0354512 28.4114567,17.564576 28.9914123,17.564576 C29.5713679,17.564576 30.0422432,18.0347735 30.0422432,18.6154068 C30.0415657,19.1953624 29.5713679,19.6655615 28.9907349,19.6655615 L28.9914123,19.6655615 Z M23.4357627,26.8330256 C22.8558071,26.8330256 22.3856094,26.3621505 22.3856094,25.7821948 C22.3856094,25.2022392 22.8558071,24.7313641 23.4364403,24.7313641 C24.0163959,24.7320416 24.4865935,25.2022392 24.4865935,25.7821948 C24.485916,26.3628281 24.0157183,26.8323482 23.4350852,26.8330256 L23.4357627,26.8330256 Z" fill="#FFC221" class="secondary-fill-color"></path></svg>