<svg xmlns="http://www.w3.org/2000/svg" xmlns:xlink="http://www.w3.org/1999/xlink" width="90px" height="61px" viewBox="0 0 90 61"><g transform="translate(0.037309, 11.586486)"><path d="M20.6001277,26.0310704 C19.6718051,25.8770816 18.7321438,25.7988069 17.7910194,25.7969781 C8.48365339,25.7969781 0.93636944,33.2129509 0.93636944,43.3257409 L6.55458608,43.3257409 C6.55458608,34.2616116 12.6318431,27.3606419 20.6001277,26.0310704 Z" fill="#D3E6FA"></path><path d="M11.4237072,11.9855288 C11.4269991,6.40169456 15.9526628,1.87566504 21.5364971,1.87273888 C21.7146267,1.87273888 21.9019006,1.88224884 22.0796645,1.89139314 C18.3857602,0.160207006 14.0129881,0.818957514 10.9928309,3.56113003 C7.97230784,6.30366829 6.89621457,10.5923135 8.26346031,14.4361832 C9.6310717,18.2796872 13.1742791,20.9249308 17.2482176,21.1432951 C13.6922084,19.4816052 11.4211468,15.9105994 11.4237072,11.9855288 Z" fill="#D3E6FA"></path><path d="M17.7910194,1.11910481e-13 C11.6888899,1.11910481e-13 6.74185997,4.94702993 6.74185997,11.0491594 C6.74185997,17.1512889 11.6888899,22.0983188 17.7910194,22.0983188 C23.8935145,22.0983188 28.8401788,17.1512889 28.8401788,11.0491594 C28.8357894,4.94885875 23.8916857,0.00475499638 17.7910194,1.11910481e-13 Z M17.7910194,19.9680783 C12.8654923,19.9680783 8.87210045,15.9750419 8.87210045,11.0491594 C8.87210045,6.12327688 12.8654923,2.13024048 17.7910194,2.13024048 C22.7169019,2.13024048 26.7099383,6.12327688 26.7099383,11.0491594 C26.7021171,15.9714869 22.7137023,19.9602572 17.7910194,19.9680783 Z" fill="#0071DC" class="primary-fill-color"></path><path d="M17.7910194,23.9606086 C12.9877367,23.9606086 8.52096191,25.8238376 5.20636035,29.2137875 C1.84494032,32.6501902 -5.97921712e-13,37.3411817 -5.97921712e-13,42.4352508 C0.00146298361,42.9517171 0.419903077,43.3701572 0.93636944,43.3716203 L34.6456693,43.3716203 C35.1625013,43.3701572 35.5805756,42.9517171 35.5820387,42.4352508 C35.5820387,37.3506916 33.7374641,32.6501902 30.376044,29.2229318 C27.0610768,25.8333475 22.5946677,23.9606086 17.7910194,23.9606086 Z M2.3224156,41.4005992 C2.52276265,37.22142 4.11699827,33.4026955 6.84072142,30.5732349 C9.71959776,27.5866622 13.6094615,25.9411397 17.7818751,25.9411397 C21.9542886,25.9411397 25.8441524,27.5866622 28.722673,30.5732349 C31.4556483,33.4026955 33.0409875,37.22142 33.2413345,41.4005992 L2.3224156,41.4005992 Z" fill="#0071DC" class="primary-fill-color"></path></g><g transform="translate(27.351351, 0.000000)"><g transform="translate(1.189189, 1.189189)" fill="#D4E1F4"><polygon points="40.2725822 54.5290128 41.3166318 48.4548593 34.0082846 41.3699684 44.1149023 39.917101 46.8848964 34.3272368 44.4487806 29.429214 39.9387039 38.5334177 29.8320861 39.9862851 37.1404334 47.071176 35.4144889 57.0747738"></polygon><path d="M15.8140888,16.0485642 C15.8140888,8.73558172 21.7782222,2.80682314 29.1360531,2.80682314 C29.5678111,2.80682314 29.985431,2.83438874 30.4030508,2.86249481 C25.9359323,-0.620495476 19.7401505,-0.907501694 14.9663424,2.14633064 C10.193078,5.20070344 7.89018746,10.9256931 9.23005112,16.4090786 C10.5699148,21.8924641 15.2578062,25.9300088 20.9087247,26.4678074 C17.6917469,23.9560979 15.8130013,20.1147554 15.8140888,16.0485642 Z"></path><path d="M29.121915,35.3509461 C30.6939709,35.349865 32.2616766,35.5120156 33.7994746,35.8352353 C30.3024523,33.6910666 26.2703545,32.5641215 22.1615842,32.5835795 C9.89780771,32.6116856 -0.0277326025,42.3385467 -0.000115705559,55.5808283 L7.09953732,55.5667753 C8.36653495,43.7638486 17.7352489,35.3790522 29.121915,35.3509461 Z"></path></g><path d="M23.4864865,29.1351351 C31.5317849,29.1351351 38.0540541,22.6129865 38.0540541,14.5672984 C38.0540541,6.52214867 31.5317849,0 23.4864865,0 C15.4411881,0 8.91891892,6.52214867 8.91891892,14.5672984 C8.92645607,22.6097564 15.4438799,29.1270598 23.4864865,29.1351351 Z M23.4864865,2.75636822 C30.0098323,2.75636822 35.2976349,8.04461142 35.2976349,14.5672984 C35.2976349,21.0905237 30.0098323,26.3787669 23.4864865,26.3787669 C16.9631407,26.3787669 11.6753381,21.0905237 11.6753381,14.5672984 C11.6828752,8.04730316 16.9663709,2.76390523 23.4864865,2.75636822 Z" fill="#0071DC" class="primary-fill-color"></path><path d="M23.5711295,32.7027027 C17.186957,32.7166483 11.2628804,35.16087 6.87209431,39.6094931 C2.42577002,44.0994164 -0.0135556368,50.2375937 -5.61949535e-05,56.8971191 C0.00277911914,57.2607756 0.14761412,57.6099501 0.404614499,57.8716969 C0.666515274,58.1302256 1.02315778,58.2734354 1.39395703,58.2703217 L37.0778063,58.2015623 L37.0778063,55.4553662 L2.82978326,55.5240211 C3.1227202,50.1276386 5.24133975,45.1978948 8.8790931,41.5318303 C12.7406327,37.6185009 17.967759,35.4628444 23.5847419,35.4628444 L23.6266678,35.4628444 C28.9447244,35.4354896 34.0645856,37.4500819 37.9005342,41.0786007 L39.8378378,39.1015542 C35.4808103,34.9801145 29.6672657,32.6903662 23.6266678,32.7166483 C23.6130555,32.7027027 23.5988986,32.7027027 23.5711295,32.7027027 Z" fill="#0071DC" class="primary-fill-color"></path><path d="M60.6417808,40.361284 L51.2500949,38.9427513 L47.1056298,30.5009488 C46.8739584,30.0318702 46.392627,29.7333167 45.863871,29.7297297 C45.3318444,29.7214821 44.8428815,30.0162701 44.6079394,30.4875005 L40.3375542,38.8599094 L30.9322404,40.1407308 C30.405665,40.2112003 29.9657619,40.5721542 29.7995036,41.0702812 C29.6332454,41.5684084 29.7695226,42.1165634 30.150554,42.4818208 L36.9050018,49.0785087 L35.2304264,58.3051572 C35.1339421,58.8204982 35.3454443,59.3449841 35.7744453,59.6542963 C36.1990854,59.9700637 36.7714499,60.0130985 37.2396988,59.7645728 L45.6823497,55.4680919 L54.0552266,59.8888356 C54.2569171,59.9964225 54.4820471,60.0529055 54.710993,60.0540541 C55.0026264,60.0561332 55.2866283,59.9641464 55.5204801,59.7920075 C55.9549321,59.4859229 56.1767915,58.9630508 56.0928448,58.4428683 L54.5578173,49.1882473 L61.4092945,42.7023739 C61.7925063,42.340882 61.9331444,41.7959547 61.7723372,41.2978275 C61.5989925,40.8040038 61.1645405,40.4441258 60.6417808,40.361284 Z M52.8022985,48.0063198 C52.4308791,48.350698 52.2615556,48.8562238 52.3519828,49.3510064 L53.6883642,57.3570545 L46.4171632,53.5372612 C46.1926124,53.4178926 45.9419651,53.3546272 45.6870695,53.3540304 C45.4388497,53.3570146 45.1948781,53.4143115 44.9721479,53.5217432 L37.6390438,57.2347016 L39.0992316,49.2590927 C39.1878381,48.7631164 39.0257974,48.2558 38.6640884,47.8994849 L32.8069513,42.200234 L40.9793901,41.1002529 C41.4873608,41.0334065 41.9291798,40.7248389 42.1597997,40.2748194 L45.8576067,33.0327301 L49.4467796,40.3362942 C49.6658686,40.7916853 50.1040462,41.107415 50.6120167,41.1766488 L58.7528972,42.3989826 L52.8022985,48.0063198 Z" fill="#FFC221" class="secondary-fill-color"></path></g></svg>