<svg xmlns="http://www.w3.org/2000/svg" xmlns:xlink="http://www.w3.org/1999/xlink" width="60px" height="69px" viewBox="0 0 60 69"><path d="M24.6278972,2.03565421 C20.8444092,1.63941761 17.0704035,2.8665702 14.243502,5.41223561 C11.4166004,7.95790103 9.80212097,11.5831567 9.80116822,15.3873364 L9.80116822,22.088271 C9.95897387,22.0860494 10.1139157,22.0457991 10.2528505,21.9709346 C10.5477745,21.8146647 10.7369815,21.5129807 10.7492523,21.1794393 L10.9875701,15.9486449 C10.9994308,15.6876472 11.1148819,15.4421545 11.3083431,15.2665606 C11.5018043,15.0909667 11.7573015,14.9997702 12.0182243,15.0131776 C12.026215,15.0131776 12.2357944,15.0238318 12.6098131,15.0302804 C12.7976001,8.30079589 17.9335373,2.74753274 24.6278972,2.03565421 Z" fill="#D3E6FA"></path><path d="M13.797757,31.6251869 C13.7918692,31.593972 13.784486,31.5631308 13.7756075,31.5326636 L13.0543458,29.0513551 C12.9836382,28.6433526 12.6644324,28.3236419 12.2565421,28.2522897 C11.5374915,28.1245449 10.9033372,27.7049927 10.5045432,27.0931793 C10.1057491,26.4813658 9.97785827,25.7318195 10.151215,25.0223832 C10.2904269,24.4142572 10.7513119,23.9310999 11.3521963,23.7633645 C12.2329573,24.1838046 13.2658177,24.1348233 14.1028386,23.632921 C14.9398595,23.1310186 15.4696142,22.2430098 15.5136449,21.2680374 L15.7080841,16.9973832 C16.0285514,17.0003271 16.4203738,16.9999065 16.8716355,16.9919159 C16.8243925,16.9519626 16.7764486,16.913271 16.7293458,16.872757 C15.0891589,16.9893925 13.7493925,17.0053738 12.903785,16.9973832 L12.7093458,21.2680374 C12.6688182,22.2445722 12.1397075,23.1351943 11.301478,23.6378214 C10.4632484,24.1404485 9.42838627,24.1876306 8.5478972,23.7633645 C7.94701283,23.9310999 7.48612779,24.4142572 7.34691589,25.0223832 C7.17355921,25.7318195 7.30145004,26.4813658 7.70024409,27.0931793 C8.09903814,27.7049927 8.73319244,28.1245449 9.45224299,28.2522897 C9.86013329,28.3236419 10.1793392,28.6433526 10.2500467,29.0513551 L10.9713084,31.5326636 C10.9800935,31.5631308 10.9874766,31.593972 10.9934579,31.6251869 C12.1883683,38.0391578 18.142873,42.4347486 24.6242523,41.6873832 C19.1996939,41.0696179 14.8102995,36.9900938 13.797757,31.6251869 L13.797757,31.6251869 Z" fill="#D3E6FA"></path><path d="M20.6004673,46.3422897 L20.6004673,43.4900467 C19.6404266,43.312225 18.7009978,43.0370663 17.796729,42.6688318 L17.796729,46.341729 C19.9209278,47.3544166 22.2862308,47.7521383 24.6248131,47.4898598 C23.2284189,47.3361473 21.8679168,46.9481907 20.6004673,46.3422897 L20.6004673,46.3422897 Z" fill="#D3E6FA"></path><path d="M4.91327103,55.9958411 C4.93261682,55.9132243 4.95350467,55.8309813 4.97593458,55.7491121 C5.54957944,53.6603271 7.17126168,51.9984112 9.31401869,51.303785 L17.8934579,48.5221963 C17.4939252,48.3649065 17.1007477,48.1893458 16.7139252,47.995514 L6.51056075,51.3039252 C4.36780374,51.9985514 2.7461215,53.6603271 2.17247664,55.7492523 C2.14995327,55.831215 2.12906542,55.9134579 2.10981308,55.9959813 C2.00719211,56.4534768 1.95779887,56.9213013 1.96261682,57.3901402 L1.96261682,63.6424766 L4.76635514,63.6424766 L4.76635514,57.3901402 C4.76143437,56.9212653 4.81073358,56.4533933 4.91327103,55.9958411 Z" fill="#D3E6FA"></path><polygon fill="#D3E6FA" transform="translate(43.846825, 52.865862) rotate(-45.000000) translate(-43.846825, -52.865862) " points="36.2352366 52.0728251 51.4584142 52.0728251 51.4584142 53.6588998 36.2352366 53.6588998"></polygon><polygon fill="#D3E6FA" points="38.0663551 60.6256542 36.9448598 59.5041589 34.7442056 66.1064019 36.4264486 65.5456542"></polygon><polygon fill="#D3E6FA" points="51.1774766 46.656729 53.4455607 44.3886449 52.3240654 43.2671495 50.0559813 45.5352336 55.3152336 50.7946262 55.3152336 50.7946262"></polygon><path d="M30.6588785,46.2698131 L30.6588785,41.7391121 C34.1856927,39.6335117 36.645315,36.1218641 37.4188318,32.0878037 L38.0014486,30.083972 C40.2945917,29.337918 41.6246578,26.9499851 41.0517757,24.6075701 C40.7589353,23.3797105 39.8557314,22.3884575 38.6603271,21.9829907 L38.6603271,15.4396262 C38.6603271,6.94143491 31.7711819,0.0522897196 23.2729907,0.0522897196 C14.7747994,0.0522897196 7.88565421,6.94143491 7.88565421,15.4396262 L7.88565421,21.9813084 C6.68748597,22.3856621 5.78176258,23.3781973 5.48845794,24.608271 C4.91596256,26.9506412 6.24597837,29.338313 8.53892523,30.0845327 L9.12168224,32.0883645 C9.89501423,36.1224642 12.3546221,39.634164 15.8814953,41.7396729 L15.8814953,46.2703738 L5.95247664,49.4889252 C3.17929907,50.3882243 1.07635514,52.5536916 0.327336449,55.2813084 C0.297990654,55.3878505 0.270794393,55.4949065 0.245747664,55.6024766 C0.108802573,56.2060752 0.0422839129,56.8235133 0.0472363789,57.4424299 L0.0472363789,64.6760748 C0.0472363789,65.2180364 0.486870105,65.6573832 1.02883178,65.6573832 L34.1866822,65.6573832 L34.1866822,63.6947664 L2.01014019,63.6947664 L2.01014019,57.4424299 C2.00521942,56.973555 2.05451862,56.505683 2.15705607,56.0481308 C2.17630841,55.9656075 2.19719626,55.8833645 2.21971963,55.8014019 C2.79336449,53.7126168 4.41504673,52.0507009 6.55780374,51.3560748 L16.7611682,48.0476636 C20.859771,50.0928898 25.6813038,50.0928898 29.7799065,48.0476636 L39.983271,51.3560748 C40.7066806,51.5897472 41.3857054,51.9432628 41.9920093,52.4018692 L43.1761682,50.8368224 C42.3951291,50.2459225 41.5204571,49.790295 40.5885981,49.4889252 L30.6588785,46.2698131 Z M24.516028,15.7239252 C25.7678972,17.0557009 29.6991589,20.5917757 36.698271,21.3109346 L36.698271,21.8156075 C33.9871963,21.7490187 25.9706075,21.1535047 19.6048598,16.643972 L19.692757,16.6326168 C21.3169197,16.4244228 22.9274505,16.121003 24.516028,15.7239252 L24.516028,15.7239252 Z M9.84869159,15.4396262 C9.84869159,8.02535825 15.8592835,2.01490654 23.2735514,2.01490654 C30.6878193,2.01490654 36.698271,8.02535825 36.698271,15.4396262 L36.698271,19.3345794 C31.5583178,18.7512617 28.2651869,16.4747664 26.7001402,15.0943458 C29.3252804,14.2330374 31.5611215,13.1006075 33.3831308,11.7032243 C33.6613222,11.4898666 33.8045567,11.1443027 33.7588792,10.796703 C33.7132017,10.4491034 33.4855518,10.1522767 33.1616829,10.0180348 C32.8378141,9.88379285 32.4669297,9.93253016 32.1887383,10.1458879 C28.4648131,13.0019159 23.2192991,14.1887383 19.474486,14.6814953 C17.0192177,15.0091566 14.5414449,15.1374264 12.0654673,15.0650467 C11.8045681,15.0516779 11.5491072,15.1428917 11.3556768,15.3184816 C11.1622464,15.4940715 11.0468147,15.7395419 11.0349533,16.000514 L10.7966355,21.2313084 C10.7843568,21.5648831 10.5951592,21.8666054 10.3002336,22.0229439 C10.1613408,22.0977867 10.0064497,22.1380362 9.84869159,22.1402804 L9.84869159,15.4396262 Z M11.0416822,31.6773364 C11.0358263,31.6461373 11.0283868,31.6152562 11.0193925,31.5848131 L10.2981308,29.1035047 C10.2274233,28.6955021 9.90821741,28.3757914 9.5003271,28.3044393 C8.23754511,28.0842866 7.31677083,26.9867795 7.31943347,25.7049533 C7.31943347,25.4924102 7.34471529,25.2806213 7.395,25.0741121 C7.53422262,24.4660996 7.99505283,23.983051 8.59584112,23.8153738 C9.47649438,24.2355812 10.509116,24.1865604 11.3460022,23.6848177 C12.1828885,23.183075 12.7126889,22.295369 12.7570093,21.3206075 L12.9514486,17.0499533 C13.7967757,17.0579439 15.1373832,17.0419626 16.7771495,16.9253271 C21.1530841,20.6779907 26.526028,22.3428505 30.3042056,23.0795327 C34.4774299,23.8933178 37.5870561,23.7849533 37.7168692,23.7804673 C37.7385981,23.7796262 37.7599065,23.7769626 37.7813551,23.7747196 C38.4545065,23.8974545 38.9904943,24.4082155 39.145514,25.0746729 C39.3190496,25.7841141 39.1912751,26.5337401 38.7925169,27.1456333 C38.3937586,27.7575264 37.7595688,28.1771319 37.0404673,28.3048598 C36.6325226,28.3761586 36.3132492,28.6958808 36.2425234,29.1039252 L35.5212617,31.5852336 C35.5122675,31.6156768 35.5048279,31.6465578 35.498972,31.677757 C34.3929669,37.5601549 29.2555869,41.8216256 23.2701168,41.8216256 C17.2846468,41.8216256 12.1472667,37.5601549 11.0412617,31.677757 L11.0416822,31.6773364 Z M17.8442523,46.3945794 L17.8442523,42.7216822 C21.3229571,44.1389746 25.2181176,44.1389746 28.6968224,42.7216822 L28.6968224,46.3945794 C25.2639632,48.0292375 21.2771116,48.0292375 17.8442523,46.3945794 L17.8442523,46.3945794 Z" fill="#0071DC" class="primary-fill-color"></path><path d="M53.0186916,41.1853738 C52.8346577,41.0013211 52.5850429,40.8979198 52.3247664,40.8979198 C52.0644898,40.8979198 51.814875,41.0013211 51.6308411,41.1853738 L35.8221028,56.9935514 C35.8089252,57.006729 35.7972897,57.0215888 35.7849533,57.0346262 C35.7778037,57.042757 35.7702336,57.0503271 35.7632243,57.0585981 C35.7384879,57.0880986 35.7154596,57.1189902 35.6942523,57.1511215 L35.6942523,57.1511215 C35.6735935,57.1832 35.6548686,57.2164836 35.6381776,57.2507944 C35.6343925,57.2585047 35.6308879,57.2663551 35.6273832,57.2740654 C35.6140053,57.3027007 35.6020744,57.3319899 35.5916355,57.3618224 C35.5899533,57.3668692 35.5874299,57.3713551 35.5857477,57.3758411 L32.2621963,67.3463551 C32.1446241,67.6989727 32.2363739,68.0877533 32.499192,68.3506011 C32.7620102,68.6134489 33.1507804,68.7052426 33.5034112,68.5877103 L43.4733645,65.2654206 C43.4786916,65.2635981 43.4837383,65.2609346 43.4889252,65.2591121 C43.5180841,65.2489252 43.546729,65.2372897 43.5748598,65.2242056 C43.5831308,65.2204206 43.5914019,65.2167757 43.5995327,65.2127103 C43.6332646,65.1962278 43.6660281,65.1778334 43.6976636,65.1576168 L43.7003271,65.1560748 C43.7322817,65.1349721 43.7629873,65.1120365 43.7922897,65.0873832 C43.8007009,65.0803738 43.8084112,65.0726636 43.8166822,65.0653738 C43.8307009,65.0531776 43.8447196,65.0415421 43.8576168,65.0283645 L59.6650935,49.2203271 C59.8491461,49.0362932 59.9525474,48.7866784 59.9525474,48.5264019 C59.9525474,48.2661253 59.8491461,48.0165105 59.6650935,47.8324766 L53.0186916,41.1853738 Z M43.1635514,62.9465888 L37.9038785,57.6869159 L48.668271,46.9226636 L53.9275234,52.1819159 L43.1635514,62.9465888 Z M34.7447664,66.1064019 L36.9457009,59.5035981 L41.3475701,63.9054673 L34.7447664,66.1064019 Z M55.3157944,50.7946262 L50.0565421,45.5352336 L52.3246262,43.2671495 L57.5840187,48.5264019 L55.3157944,50.7946262 Z" fill="#FFC221" class="secondary-fill-color"></path></svg>