<svg xmlns="http://www.w3.org/2000/svg" height="512" viewBox="0 0 512 512" width="512"><g fill="#000000"><path d="m370.274 407.522a6 6 0 0 0 6-6v-74.11a6 6 0 1 0 -12 0v74.11a6 6 0 0 0 6 6z"></path><path d="m370.274 303.443a6 6 0 0 0 6-6v-16.4a6 6 0 0 0 -12 0v16.4a6 6 0 0 0 6 6z"></path><path d="m186.875 490.443h200a26.029 26.029 0 0 0 26-26v-265.6a6 6 0 0 0 -6-6h-21.9c1.689-2.1 3.647-4.5 6-7.34a25.9 25.9 0 0 0 -4.862-37.835 6.255 6.255 0 0 0 -.634-.393l-.12-.063a26.353 26.353 0 0 0 -20.115-4.131 27.269 27.269 0 0 0 -17.888 12.223c-1.926 3.1-3.582 5.756-5.039 8.091-7.863 12.611-9.993 16.028-17.253 29.448h-20.788l14.544-51.7c.033-.117.061-.234.087-.351a25.9 25.9 0 0 0 -22.143-31.062 5.968 5.968 0 0 0 -.744-.046h-.137a26.362 26.362 0 0 0 -19.683 5.852 27.269 27.269 0 0 0 -10 19.211l-3.813 58.1h-23.156v-73.261a26 26 0 0 0 -52 0v73.258h-20.356a6 6 0 0 0 -6 6v64.8h-16.2a73.8 73.8 0 0 0 0 147.6h16.2v53.2a26.029 26.029 0 0 0 26 25.999zm165.62-320.7c1.459-2.34 3.119-5 5-8.029a15.327 15.327 0 0 1 10.032-6.854 14.47 14.47 0 0 1 11.222 2.372 6.081 6.081 0 0 0 .634.393l.071.038a13.9 13.9 0 0 1 2.33 20.119c-5.742 6.927-9.225 11.351-12.057 15.06h-31c4.745-8.625 7.181-12.533 13.773-23.097zm-74.328-34.13a15.324 15.324 0 0 1 5.609-10.776 14.451 14.451 0 0 1 11.013-3.2 6.179 6.179 0 0 0 .744.046h.08a13.906 13.906 0 0 1 11.6 16.4l-15.4 54.764h-17.4zm-64.936-30.029a14.015 14.015 0 0 1 14 14v14h-28v-14a14.015 14.015 0 0 1 14-13.998zm-14 40h28v47.258h-28zm-26.356 59.258h228v259.6a14.016 14.016 0 0 1 -14 14h-200a14.015 14.015 0 0 1 -14-14zm-28.2 194.4a61.8 61.8 0 0 1 0-123.6h16.2v123.6z"></path><path d="m266.141 55.185a70.449 70.449 0 0 0 -4.294 7.943c-4.148 9.253-3.387 19.9 1.988 27.79 7.937 11.649 22.547 13.806 32.268 13.806 1.107 0 2.152-.028 3.116-.074a34.047 34.047 0 0 0 27.781-16.217c6.363-10.3 7.013-23.016 1.786-34.914-4.416-10.887-12.525-19.269-24.1-24.914a73.8 73.8 0 0 0 -26.232-6.89c-9.258-.671-11.852.644-13.4 3.3a6.162 6.162 0 0 0 .2 6.441 16.4 16.4 0 0 0 1.5 1.827c1.764 1.969 5.047 5.633 4.8 9.547-.235 3.661-2.867 8.08-5.413 12.355zm6.695 12.76a61.63 61.63 0 0 1 3.614-6.62c3.124-5.243 6.665-11.187 7.075-17.744a20.083 20.083 0 0 0 -1.753-9.4c11.373 1.667 29.216 7.283 35.922 23.912.024.06.05.121.076.18 3.646 8.25 3.289 16.942-.978 23.846a22.208 22.208 0 0 1 -18.135 10.54c-11.95.558-20.788-2.46-24.9-8.5-3.049-4.467-3.416-10.645-.921-16.214z"></path><path d="m440.868 113.229c1.244-11.683-1.949-22.9-9.492-33.341a73.749 73.749 0 0 0 -19.876-18.455c-7.847-4.959-10.752-5.025-13.372-3.414a6.163 6.163 0 0 0 -2.866 5.771 16.318 16.318 0 0 0 .458 2.32c.626 2.568 1.791 7.347-.273 10.683-1.928 3.117-6.334 5.77-10.6 8.336a70.638 70.638 0 0 0 -7.536 4.977c-8.024 6.2-12.379 15.949-11.363 25.44 1.67 15.614 16.2 24.75 24.713 28.806a34.986 34.986 0 0 0 15.054 3.46 33.922 33.922 0 0 0 17.089-4.648c10.479-6.071 17.055-16.979 18.064-29.935zm-24.075 19.557a22.2 22.2 0 0 1 -20.962.733c-10.793-5.143-17.166-11.979-17.944-19.249-.575-5.377 2.018-11 6.847-14.729a61.37 61.37 0 0 1 6.311-4.132c5.228-3.148 11.154-6.717 14.609-12.3a20.092 20.092 0 0 0 2.89-9.111c9.239 6.838 22.32 20.21 20.383 38.035-.007.066-.013.131-.018.2-.68 8.987-5.096 16.481-12.116 20.553z"></path></g></svg>