<svg width="100px" height="96px" viewBox="0 0 100 96" version="1.1" xmlns="http://www.w3.org/2000/svg" xmlns:xlink="http://www.w3.org/1999/xlink">
    <g stroke="none" stroke-width="1" fill="none" fill-rule="nonzero">
        <path d="M33.5425884,3.79746835 C32.7481034,3.79746835 32.0220592,3.28220842 31.7545693,2.53621238 C31.4908816,1.80104992 31.7165465,0.952610095 32.3133134,0.447993668 C32.9376467,-0.0800004689 33.8509528,-0.148993223 34.5467689,0.282068945 C35.2115964,0.693934782 35.5602649,1.501131 35.4074135,2.26746375 C35.2326991,3.14460303 34.4374535,3.79746835 33.5425884,3.79746835 L33.5425884,3.79746835 Z" fill="#C7CCD3"></path>
        <path d="M93.8101563,35.0276385 L67.2208984,35.0276385 L67.2208984,6.18032282 C67.2208984,2.77254898 64.4441406,0 61.0308594,0 L42.5324219,0 C41.4537109,0 40.5792969,0.876860959 40.5792969,1.9581531 C40.5792969,3.03944524 41.4537109,3.9163062 42.5324219,3.9163062 L61.0308594,3.9163062 C62.2900391,3.9163062 63.3146484,4.93200022 63.3146484,6.18032282 L63.3146484,44.0286808 C63.3146484,45.2770034 62.2900391,46.2926975 61.0308594,46.2926975 L33.5082031,46.2926975 C33.1886719,46.2926975 32.8738281,46.3712194 32.5916016,46.5218014 L19.7419922,53.3684837 L19.7419922,48.2508506 C19.7419922,47.1695584 18.8675781,46.2926975 17.7888672,46.2926975 L6.19003906,46.2926975 C4.93085938,46.2926975 3.90625,45.2770034 3.90625,44.0286808 L3.90625,6.18032282 C3.90625,4.93200022 4.93085938,3.9163062 6.19003906,3.9163062 L24.8738281,3.9163062 C25.9525391,3.9163062 26.8269531,3.03944524 26.8269531,1.9581531 C26.8269531,0.876860959 25.9525391,0 24.8738281,0 L6.19003906,0 C2.77675781,0 0,2.77254898 0,6.18032282 L0,44.0286808 C0,47.4364547 2.77675781,50.2088079 6.19003906,50.2088079 L15.8357422,50.2088079 L15.8357422,56.626263 C15.8357422,57.3135747 16.1951172,57.950562 16.7828125,58.304596 C17.0917969,58.4908164 17.4400391,58.5844161 17.7890625,58.5844161 C18.1035156,58.5844161 18.4185547,58.508244 18.7054688,58.3553122 L33.9951172,50.208612 L34.7322266,50.208612 L34.7322266,81.013885 C34.7322266,84.4216588 37.5089844,87.194012 40.9222656,87.194012 L66.0050781,87.194012 L81.2947266,95.3405163 C81.5818359,95.4934481 81.8966797,95.5696203 82.2111328,95.5696203 C82.5599609,95.5696203 82.9083984,95.4758247 83.2173828,95.2898002 C83.8048828,94.9355703 84.1644531,94.2987789 84.1644531,93.6114672 L84.1644531,87.194012 L93.8101563,87.194012 C97.2232422,87.194012 100,84.4216588 100,81.013885 L100,41.2077655 C100,37.7999916 97.2232422,35.0276385 93.8101563,35.0276385 Z M96.09375,81.0142766 C96.09375,82.2625992 95.0693359,83.2780974 93.8101563,83.2780974 L82.2113281,83.2780974 C81.1326172,83.2780974 80.2582031,84.1549584 80.2582031,85.2362505 L80.2582031,90.3538837 L67.4083984,83.5072013 C67.1261719,83.3568152 66.8113281,83.2780974 66.4917969,83.2780974 L40.9220703,83.2780974 C39.6628906,83.2780974 38.6382813,82.2625992 38.6382813,81.0142766 L38.6382813,50.2090037 L61.0308594,50.2090037 C64.4441406,50.2090037 67.2208984,47.4366505 67.2208984,44.0288767 L67.2208984,38.9439447 L93.8099609,38.9439447 C95.0691406,38.9439447 96.09375,39.9596387 96.09375,41.2079613 L96.09375,81.0142766 L96.09375,81.0142766 Z" fill="#C7CCD3"></path>
        <path class="primary-fill-color" d="M77.7216061,76.4290242 L69.4244785,54.1323823 C69.4176318,54.1141312 69.4105896,54.0958802 69.4031561,54.0776291 C69.0218971,53.1382948 68.1285107,52.5316456 67.1269478,52.5316456 C67.1261653,52.5316456 67.1251872,52.5316456 67.1242091,52.5316456 C66.1214724,52.5328359 65.2282817,53.1414689 64.8485876,54.0823903 C64.8425235,54.0974672 64.8366549,54.1125442 64.830982,54.1278195 L56.4577591,76.4234695 C56.0731745,77.4473141 56.5800202,78.5935599 57.5896035,78.9833787 C58.5993824,79.3735942 59.7292706,78.8593905 60.1138551,77.8357442 L61.7192902,73.5606325 L72.4723989,73.5606325 L74.0612064,77.8299912 C74.3567849,78.6243089 75.1011105,79.1139241 75.8916019,79.1139241 C76.1210615,79.1139241 76.3546291,79.0726501 76.581937,78.9853625 C77.592694,78.5989162 78.1030608,77.4542575 77.7216061,76.4290242 L77.7216061,76.4290242 Z M63.2093107,69.5930114 L67.1204924,59.1786012 L70.995876,69.5930114 L63.2093107,69.5930114 Z" fill="#000"></path>
        <path class="primary-fill-color" d="M46.2701383,34.496786 L44.2952754,32.4671032 C45.8393012,30.2779184 46.7505834,27.5880083 46.7505834,24.6836435 C46.7505834,17.3548835 40.9491462,11.3924051 33.8183297,11.3924051 C26.6875131,11.3924051 20.8860759,17.3548835 20.8860759,24.6836435 C20.8860759,32.0122051 26.6875131,37.9746835 33.8183297,37.9746835 C36.7334288,37.9746835 39.4261604,36.9781928 41.5913482,35.2994541 L43.5401524,37.3023548 C43.9171348,37.6896035 44.4110918,37.8834262 44.9050488,37.8834262 C45.3990058,37.8834262 45.8931559,37.6896035 46.2699453,37.3023548 C47.0239101,36.5276592 47.0239101,35.2714817 46.2701383,34.496786 Z M33.8183297,34.006972 C28.8162188,34.006972 24.7466231,29.8246073 24.7466231,24.6836435 C24.7466231,19.5426797 28.8162188,15.3601166 33.8183297,15.3601166 C38.8204406,15.3601166 42.8900363,19.5426797 42.8900363,24.6836435 C42.8900363,26.4915313 42.386814,28.1807844 41.5166466,29.6113428 L39.2308167,27.2620608 C38.4770449,26.4875635 37.2547957,26.4875635 36.5008308,27.2620608 C35.747059,28.0367565 35.747059,29.292934 36.5008308,30.067828 L38.8241081,32.4555968 C37.3885636,33.4354232 35.6671457,34.006972 33.8183297,34.006972 L33.8183297,34.006972 Z" fill="#000"></path>
    </g>
</svg>
