<svg width="28px" height="19px" viewBox="0 0 28 19" version="1.1" xmlns="http://www.w3.org/2000/svg" xmlns:xlink="http://www.w3.org/1999/xlink">
    <path d="M23.5952857,19 L3.54757143,19 C1.59192857,19 0,17.4080714 0,15.4524286 L0,3.54757143 C0,1.59192857 1.59192857,0 3.54757143,0 L23.5939286,0 C25.5509286,0 27.1428571,1.59192857 27.1428571,3.54757143 L27.1428571,15.4510714 C27.1428571,17.4080714 25.5509286,19 23.5952857,19 Z M3.54757143,1.35714286 C2.33971429,1.35714286 1.35714286,2.33971429 1.35714286,3.54757143 L1.35714286,15.4510714 C1.35714286,16.6602857 2.33971429,17.6428571 3.54757143,17.6428571 L23.5939286,17.6428571 C24.8031429,17.6428571 25.7857143,16.6602857 25.7857143,15.4524286 L25.7857143,3.54757143 C25.7857143,2.33971429 24.8031429,1.35714286 23.5952857,1.35714286 L3.54757143,1.35714286 Z"></path>
    <path d="M18.4421875,9.11930319 L10.9109375,4.09840475 C10.7311328,3.978561 10.5,3.96735006 10.3094531,4.06934225 C10.1189453,4.17129538 10,4.36985006 10,4.58594381 L10,14.6275844 C10,14.8436782 10.1189453,15.0422329 10.3094531,15.144186 C10.3960937,15.1905532 10.4910938,15.2135219 10.5858984,15.2135219 C10.6995703,15.2135219 10.8129297,15.1804751 10.9109375,15.1151235 L18.4421875,10.0943423 C18.6051953,9.98567038 18.703125,9.80270163 18.703125,9.60680319 C18.703125,9.41094381 18.6051953,9.22797506 18.4421875,9.11930319 Z M11.1718359,13.5328188 L11.1718359,5.68082663 L17.0608203,9.60684225 L11.1718359,13.5328188 Z"></path>
</svg>