<svg width="23px" height="21px" viewBox="0 0 23 21" version="1.1" xmlns="http://www.w3.org/2000/svg" xmlns:xlink="http://www.w3.org/1999/xlink">
    <path d="M11.5277778,7.07238095 C10.2453968,7.07238095 9.2057672,8.11195767 9.2057672,9.39439153 C9.2057672,10.6767725 10.2453439,11.7164021 11.5277778,11.7164021 C12.8101587,11.7164021 13.8497884,10.6768254 13.8497884,9.39439153 C13.8497884,8.11195767 12.8102116,7.07238095 11.5277778,7.07238095 Z M11.5277778,10.6106349 C10.8560317,10.6106349 10.3114815,10.0660847 10.3114815,9.39433862 C10.3114815,8.72259259 10.8560317,8.17804233 11.5277778,8.17804233 L11.5277778,8.17804233 C12.1995238,8.17804233 12.7440741,8.72259259 12.7440741,9.39433862 C12.7440741,10.0660847 12.1995238,10.6106349 11.5277778,10.6106349 Z"></path>
    <path d="M20.8389275,1.76915741 L5.70909687,0.0511615515 C5.12189882,-0.0323223015 4.52695703,0.139100705 4.07421359,0.522256585 C3.62152319,0.873270651 3.3313452,1.39358615 3.27061521,1.96317516 L2.99353792,4.23543167 L2.13446043,4.23543167 C0.91519308,4.23543167 0.000742565523,5.31610734 0.000742565523,6.53537469 L0.000742565523,17.8688647 C-0.0299671873,19.0315391 0.887665685,19.9990289 2.05039315,20.0297386 C2.0783979,20.0304617 2.10645568,20.0304617 2.13446043,20.0304617 L17.3474037,20.0304617 C18.566671,20.0304617 19.6750862,19.088132 19.6750862,17.8688647 L19.6750862,17.4255092 C20.0530973,17.3524741 20.411696,17.2014712 20.7280754,16.9821537 C21.1770531,16.6041426 21.464526,16.068817 21.5316738,15.4858091 L22.8063672,4.23543167 C22.9363135,3.01335323 22.0593087,1.91400773 20.8389275,1.76915741 Z M18.5667241,17.8688647 C18.5667241,18.4784983 17.9570373,18.9218538 17.3474037,18.9218538 L2.13446043,18.9218538 C1.58375342,18.9380308 1.12422095,18.5046997 1.10804396,17.9539927 C1.10719533,17.9256167 1.1076012,17.8972407 1.10915779,17.8688647 L1.10915779,15.8183124 L5.40428004,12.6593449 C5.92024631,12.2631944 6.64699076,12.2984125 7.12232894,12.7424575 L10.1427578,15.4026434 C10.6014416,15.7877618 11.1788274,16.0030483 11.7776941,16.0122771 C12.245925,16.0180054 12.7064652,15.89331 13.1078136,15.6520342 L18.5667241,12.4930667 L18.5667241,17.8688647 L18.5667241,17.8688647 Z M18.566671,11.1906868 L12.5258134,14.7098972 C12.007089,15.0172069 11.3505156,14.9615686 10.890877,14.5713585 L7.8427617,11.8834331 C6.96915145,11.1327679 5.69228342,11.0867298 4.76690681,11.7725809 L1.10915779,14.4327669 L1.10915779,6.53537469 C1.10915779,5.92574102 1.52482676,5.34384689 2.13446043,5.34384689 L17.3474037,5.34384689 C17.9987262,5.37084389 18.5247169,5.88490076 18.566671,6.53537469 L18.566671,11.1906868 L18.566671,11.1906868 Z M21.6990128,4.08580781 C21.6986415,4.08946752 21.6983233,4.09318028 21.6978989,4.09683999 L20.395519,15.3472174 C20.3977467,15.6389335 20.2647241,15.9152152 20.0352761,16.0953897 C19.924424,16.2062418 19.6750332,16.2616679 19.6750332,16.3170939 L19.6750332,6.53537469 C19.6312758,5.27298639 18.6101632,4.26401985 17.3473506,4.23543167 L4.10190011,4.23543167 L4.35129088,2.07402729 C4.40539096,1.79413892 4.55172638,1.540505 4.76695985,1.35354148 C5.0099859,1.18551299 5.30382361,1.10717395 5.59829778,1.13183722 L20.7004419,2.87757263 C21.3097574,2.93543851 21.7568786,3.47638629 21.6990128,4.08580781 Z"></path>
</svg>