<svg width="19px" height="19px" viewBox="0 0 19 19" version="1.1" xmlns="http://www.w3.org/2000/svg" xmlns:xlink="http://www.w3.org/1999/xlink">
    <path d="M16.2291667,19 C14.70125,19 13.4583333,17.7570833 13.4583333,16.2291667 L13.4583333,12.0729167 C13.4583333,11.09125 14.2579167,10.2916667 15.2395833,10.2916667 C16.22125,10.2916667 17.0208333,11.09125 17.0208333,12.0729167 L17.0208333,16.03125 C17.0208333,16.359 16.7548333,16.625 16.4270833,16.625 C16.0993333,16.625 15.8333333,16.359 15.8333333,16.03125 L15.8333333,12.0729167 C15.8333333,11.7459583 15.5665417,11.4791667 15.2395833,11.4791667 C14.912625,11.4791667 14.6458333,11.7459583 14.6458333,12.0729167 L14.6458333,16.2291667 C14.6458333,17.102375 15.3559583,17.8125 16.2291667,17.8125 C17.102375,17.8125 17.8125,17.102375 17.8125,16.2291667 L17.8125,10.8854167 C17.8125,10.5576667 18.0785,10.2916667 18.40625,10.2916667 C18.734,10.2916667 19,10.5576667 19,10.8854167 L19,16.2291667 C19,17.7570833 17.7570833,19 16.2291667,19 Z"></path>
    <path d="M11.7245833,17.4166667 L2.17708333,17.4166667 C0.976125,17.4166667 0,16.4405417 0,15.2395833 L0,2.17708333 C0,0.976125 0.976125,0 2.17708333,0 L12.0729167,0 C13.273875,0 14.25,0.976125 14.25,2.17708333 L14.25,8.89041667 C14.25,9.21816667 13.984,9.48416667 13.65625,9.48416667 C13.3285,9.48416667 13.0625,9.21816667 13.0625,8.89041667 L13.0625,2.17708333 C13.0625,1.631625 12.618375,1.1875 12.0729167,1.1875 L2.17708333,1.1875 C1.631625,1.1875 1.1875,1.631625 1.1875,2.17708333 L1.1875,15.2395833 C1.1875,15.7850417 1.631625,16.2291667 2.17708333,16.2291667 L11.7245833,16.2291667 C12.0523333,16.2291667 12.3183333,16.4951667 12.3183333,16.8229167 C12.3183333,17.1506667 12.0523333,17.4166667 11.7245833,17.4166667 Z"></path>
    <path d="M11.28125,11.875 L2.96875,11.875 C2.641,11.875 2.375,11.609 2.375,11.28125 C2.375,10.9535 2.641,10.6875 2.96875,10.6875 L11.28125,10.6875 C11.609,10.6875 11.875,10.9535 11.875,11.28125 C11.875,11.609 11.609,11.875 11.28125,11.875 Z"></path>
    <path d="M11.28125,8.70833333 L2.96875,8.70833333 C2.641,8.70833333 2.375,8.44233333 2.375,8.11458333 C2.375,7.78683333 2.641,7.52083333 2.96875,7.52083333 L11.28125,7.52083333 C11.609,7.52083333 11.875,7.78683333 11.875,8.11458333 C11.875,8.44233333 11.609,8.70833333 11.28125,8.70833333 Z"></path>
    <path d="M7.32291667,5.54166667 L2.96875,5.54166667 C2.641,5.54166667 2.375,5.27566667 2.375,4.94791667 C2.375,4.62016667 2.641,4.35416667 2.96875,4.35416667 L7.32291667,4.35416667 C7.65066667,4.35416667 7.91666667,4.62016667 7.91666667,4.94791667 C7.91666667,5.27566667 7.65066667,5.54166667 7.32291667,5.54166667 Z"></path>
</svg>