<svg width="20px" height="20px" viewBox="0 0 20 20" version="1.1" xmlns="http://www.w3.org/2000/svg" xmlns:xlink="http://www.w3.org/1999/xlink">
    <path d="M19.7897266,0.136289062 C19.6564844,0.0249609375 19.4807812,-0.0215625 19.3098437,0.0093359375 L6.34109375,2.35308594 C6.06222656,2.40351562 5.859375,2.64628906 5.859375,2.9296875 L5.859375,13.8664063 C5.23691406,13.3085938 4.41527344,12.96875 3.515625,12.96875 C1.57710938,12.96875 0,14.5458594 0,16.484375 C0,18.4228906 1.57710938,20 3.515625,20 C5.45414062,20 7.03125,18.4228906 7.03125,16.484375 L7.03125,7.71609375 L18.828125,5.58414063 L18.828125,12.1086328 C18.2056641,11.5507812 17.3840234,11.2109375 16.484375,11.2109375 C14.5458594,11.2109375 12.96875,12.7880469 12.96875,14.7265625 C12.96875,16.6650781 14.5458594,18.2421875 16.484375,18.2421875 C18.4228906,18.2421875 20,16.6650781 20,14.7265625 L20,0.5859375 C20,0.412304687 19.9230078,0.247617187 19.7897266,0.136289062 Z M3.515625,18.828125 C2.22328125,18.828125 1.171875,17.7767187 1.171875,16.484375 C1.171875,15.1920312 2.22328125,14.140625 3.515625,14.140625 C4.80796875,14.140625 5.859375,15.1920312 5.859375,16.484375 C5.859375,17.7767187 4.80796875,18.828125 3.515625,18.828125 Z M7.03125,6.52527344 L7.03125,3.41925781 L18.828125,1.28726563 L18.828125,4.39328125 L7.03125,6.52527344 Z M16.484375,17.0703125 C15.1920312,17.0703125 14.140625,16.0189062 14.140625,14.7265625 C14.140625,13.4342187 15.1920312,12.3828125 16.484375,12.3828125 C17.7767188,12.3828125 18.828125,13.4342187 18.828125,14.7265625 C18.828125,16.0189062 17.7767188,17.0703125 16.484375,17.0703125 Z"></path>
</svg>