<svg xmlns="http://www.w3.org/2000/svg" width="44" height="51" viewBox="0 0 44 51" fill="none"><path fill-rule="evenodd" clip-rule="evenodd" d="M26.3938 26.8878C26.0699 26.6376 25.6759 26.4449 25.2684 26.285C24.9842 26.1722 24.6885 26.0828 24.3879 26.0053C24.3923 26.3638 24.3977 26.7223 24.4051 27.0806L24.4238 28.0208L24.4246 28.08L24.4254 28.1096L24.4246 28.1527C24.4238 28.1823 24.4229 28.2127 24.4204 28.2415L24.4069 28.3268C24.3849 28.4393 24.3485 28.545 24.3004 28.638C24.2048 28.8274 24.0737 28.9813 23.9309 29.1098C23.6433 29.3659 23.2984 29.5224 22.9552 29.6154C22.622 29.7058 22.2796 29.7549 21.9364 29.765C21.5923 29.7744 21.2465 29.743 20.9015 29.6652C20.729 29.6238 20.5566 29.5722 20.3866 29.4961C20.2167 29.4218 20.0458 29.3313 19.8869 29.1977C19.7237 29.07 19.5504 28.8637 19.4836 28.5966C19.4666 28.5307 19.4566 28.4613 19.454 28.3928L19.4532 28.3429L19.454 28.3133L19.4549 28.2541L19.4591 28.0191L19.4743 27.0781L19.4959 26.1787C19.2316 26.2744 18.9735 26.3813 18.7278 26.5074C18.3396 26.7018 17.9778 26.9411 17.6802 27.227C17.3825 27.5093 17.1526 27.8449 17.0621 28.1882C16.9751 28.5315 17.0409 28.868 17.2523 29.1622C17.3589 29.3085 17.489 29.443 17.6573 29.5706C17.6718 29.5817 17.6857 29.5935 17.6997 29.6054C17.7249 29.6267 17.7503 29.6481 17.779 29.6661L17.9102 29.7533L18.0404 29.842L18.1799 29.9206C18.5519 30.1303 18.9586 30.3011 19.3838 30.4245C19.4686 30.4542 19.5568 30.4759 19.6448 30.4976C19.6646 30.5025 19.6844 30.5074 19.7042 30.5124C19.7366 30.5203 19.7687 30.5286 19.8009 30.5368C19.8764 30.5563 19.9518 30.5757 20.0289 30.5894L20.3578 30.6545C20.425 30.6652 20.4923 30.6741 20.5597 30.6831C20.6033 30.6889 20.6471 30.6947 20.6909 30.701C20.7145 30.7039 20.7379 30.7072 20.7612 30.7105C20.7932 30.715 20.8252 30.7195 20.8575 30.7229L21.0249 30.7373C21.0595 30.7399 21.0942 30.743 21.1289 30.746C21.2061 30.7527 21.2835 30.7595 21.3605 30.7618C21.4134 30.763 21.4663 30.7646 21.5192 30.7662C21.6913 30.7713 21.8633 30.7764 22.0353 30.7686C22.0744 30.7668 22.1135 30.7659 22.1526 30.7649C22.226 30.7632 22.2993 30.7614 22.3726 30.7542L22.7091 30.7272C22.7845 30.7221 22.8591 30.7109 22.9335 30.6997C22.97 30.6943 23.0066 30.6888 23.0431 30.6841C23.0813 30.6779 23.1197 30.6728 23.158 30.6677C23.2309 30.658 23.3039 30.6483 23.3753 30.6316C23.4063 30.6252 23.4374 30.6188 23.4684 30.6124C23.6572 30.5737 23.8454 30.535 24.0298 30.482C24.2479 30.4262 24.4567 30.3653 24.6588 30.2867C25.0637 30.1337 25.4451 29.9299 25.7867 29.6855C26.1258 29.4396 26.4267 29.1461 26.6423 28.813C26.8554 28.4816 26.978 28.1036 26.9382 27.7621C26.9188 27.5921 26.8663 27.4298 26.7734 27.2861C26.6821 27.1398 26.5603 27.0163 26.3938 26.8878ZM28.7932 29.1004L28.6309 28.9381L27.968 28.2871C27.9287 28.2484 27.8895 28.2095 27.8503 28.1705C27.8221 28.1424 27.7938 28.1143 27.7655 28.0863C27.7526 28.2344 27.7251 28.3793 27.6865 28.5179C27.6113 28.7867 27.4945 29.0345 27.3524 29.261C27.0693 29.7143 26.6871 30.0778 26.2695 30.3696C25.8483 30.6578 25.3885 30.87 24.9149 31.0214C24.679 31.0991 24.4373 31.1566 24.2023 31.204C23.9915 31.2531 23.7786 31.2853 23.5655 31.3176C23.5402 31.3214 23.5149 31.3252 23.4895 31.3291C23.0126 31.3917 22.5332 31.4399 22.0538 31.4449C21.8722 31.4545 21.6905 31.4506 21.5088 31.4466C21.4503 31.4453 21.3919 31.4441 21.3334 31.4432C21.2649 31.4408 21.1964 31.4362 21.1278 31.4316C21.0763 31.4281 21.0248 31.4246 20.9734 31.4221L20.7932 31.4111C20.7563 31.408 20.7193 31.4039 20.6826 31.3999C20.6597 31.3973 20.6368 31.3948 20.614 31.3925C20.1345 31.3494 19.6568 31.264 19.1843 31.1456C18.7117 31.029 18.2457 30.8582 17.7985 30.629L17.6303 30.5428L17.468 30.4422L17.3065 30.3399C17.2711 30.3184 17.2377 30.2918 17.2044 30.2654C17.1866 30.2513 17.1689 30.2373 17.1509 30.2241C16.9455 30.0744 16.7375 29.8825 16.5718 29.6525C16.4044 29.4234 16.2741 29.1494 16.2183 28.8561C16.2053 28.7896 16.1966 28.7225 16.191 28.6553C15.9878 28.8693 15.7862 29.0854 15.591 29.3008C15.4878 29.4141 15.3898 29.5257 15.3018 29.639C15.2313 29.7215 15.1701 29.8087 15.1089 29.8961C15.0879 29.926 15.0669 29.956 15.0456 29.9857C14.8918 30.225 14.7633 30.4735 14.6753 30.7289C14.5849 30.9841 14.5476 31.2454 14.5594 31.4982C14.5806 32.003 14.8308 32.4764 15.2384 32.8467C15.4379 33.037 15.6746 33.212 15.9165 33.3684C16.1617 33.5248 16.4212 33.6636 16.6884 33.7886C17.2236 34.0398 17.7917 34.235 18.3726 34.3881C19.536 34.6924 20.7526 34.8396 21.9692 34.8345C22.5781 34.8345 23.1868 34.794 23.7897 34.7119C24.3925 34.6324 24.9935 34.5081 25.5719 34.3416C25.8602 34.2588 26.1417 34.1565 26.4157 34.0406C26.6897 33.923 26.9542 33.7869 27.2096 33.6373C27.4615 33.4826 27.7034 33.3144 27.9299 33.13C28.1549 32.944 28.3636 32.7411 28.5513 32.5238C28.9268 32.0917 29.21 31.5878 29.3343 31.0662C29.3935 30.8058 29.4147 30.542 29.3834 30.2875C29.3521 30.0338 29.2752 29.7895 29.15 29.5654C29.1308 29.5326 29.1101 29.5004 29.0893 29.4681C29.0753 29.4463 29.0613 29.4244 29.0476 29.4022L28.9276 29.2484C28.9072 29.2265 28.8881 29.205 28.8687 29.1833C28.8447 29.1563 28.8204 29.129 28.7932 29.1004ZM23.7716 16.2697C23.0729 16.413 22.3547 16.4632 21.6455 16.4123C21.1479 16.3806 20.6515 16.3064 20.1646 16.1896C20.2138 18.5658 20.2411 20.94 20.2682 23.3157C20.2722 23.6671 20.277 24.0185 20.2819 24.3699C20.2943 25.2749 20.3066 26.1799 20.3055 27.0848L20.2995 28.0302L20.2987 28.266V28.3632C20.2987 28.3725 20.3003 28.3827 20.3021 28.3919C20.3114 28.4308 20.3401 28.4875 20.4229 28.5518C20.5033 28.6211 20.6098 28.6854 20.7257 28.7387C20.8406 28.7944 20.97 28.835 21.1002 28.8739C21.3649 28.9449 21.6472 28.9846 21.9313 28.9897C22.2154 28.9939 22.5012 28.9669 22.7768 28.906C23.0423 28.8493 23.2858 28.7428 23.4743 28.5856C23.5682 28.5086 23.6426 28.4173 23.6908 28.3268C23.7162 28.282 23.7313 28.2372 23.7407 28.1966C23.7423 28.1865 23.7441 28.1763 23.7465 28.1662L23.7483 28.1374C23.7483 28.1339 23.7486 28.1319 23.749 28.1291C23.7492 28.1271 23.7496 28.1248 23.7499 28.1214L23.7491 28.0918L23.7483 28.0326L23.7339 27.09L23.6908 23.3199L23.6807 21.4353L23.6883 19.5507C23.7015 18.4571 23.718 17.3634 23.7716 16.2697ZM42.928 31.7968C43.0379 31.927 43.1317 32.0715 43.2053 32.2254C43.35 32.529 43.4108 32.8686 43.3894 33.1998C43.3895 33.2017 43.3897 33.2036 43.39 33.2054C43.3903 33.2079 43.3906 33.2104 43.3905 33.2129C43.3449 35.9202 43.2095 38.6232 43.0616 41.3255L43.0337 41.8327C43.0218 42.0254 42.9922 42.2174 42.9399 42.4034C42.8384 42.7762 42.655 43.1254 42.4115 43.4239C42.167 43.7223 41.8576 43.9667 41.5118 44.1391C41.4247 44.1814 41.3369 44.2203 41.2463 44.2534C41.2015 44.2702 41.155 44.2854 41.1093 44.2998L40.9758 44.3387L40.4862 44.4731L36.5725 45.5519L20.9183 49.8656L18.9602 50.4L17.9812 50.6663L17.49 50.7999C17.3116 50.8481 17.1306 50.8862 16.9489 50.9157C16.2191 51.0341 15.4659 51.0019 14.7489 50.8185C14.0319 50.6375 13.3529 50.3078 12.7678 49.8538C12.7014 49.8034 12.637 49.7496 12.5729 49.696L12.5523 49.6788L12.4483 49.5874L12.3527 49.5004L11.9783 49.1579L11.2299 48.4722L9.73265 47.1017L8.23605 45.7312L6.74377 44.3556L3.76268 41.601L2.27539 40.2203L1.53136 39.5296L1.16019 39.1838C1.12013 39.1456 1.08103 39.1095 1.04163 39.0732C0.957954 38.9959 0.872946 38.9174 0.774651 38.8151C0.505871 38.5302 0.296952 38.1895 0.165986 37.8217C0.099954 37.6382 0.0535369 37.4472 0.0272423 37.2544C0.0137146 37.158 0.00525975 37.0607 0.00187781 36.9635C0.00168912 36.9531 0.00145831 36.9423 0.00122392 36.9314C0.000408095 36.8932 -0.000451075 36.853 0.000271392 36.8215L0.00187781 36.6946L0.0263969 34.6646L0.0449975 33.6501C0.0490937 33.524 0.0524853 33.398 0.0558769 33.2719C0.0615861 33.0598 0.0672953 32.8476 0.076365 32.6355C0.0991931 31.9591 0.13631 31.2819 0.187884 30.6055C0.194648 30.5125 0.27666 30.4423 0.369664 30.4491C0.454297 30.4558 0.520244 30.5226 0.526078 30.6046C0.580189 31.281 0.620773 31.9574 0.646137 32.6338C0.656938 32.86 0.66392 33.0862 0.6709 33.3124C0.674356 33.4244 0.677812 33.5364 0.681732 33.6484L0.70456 34.6629L0.737449 36.6921L0.73914 36.8189C0.73914 36.8456 0.740339 36.8669 0.741506 36.8876C0.742298 36.9017 0.743076 36.9155 0.743452 36.9305C0.747595 37.0024 0.755205 37.0735 0.76628 37.1444C0.789108 37.2856 0.82631 37.4251 0.877884 37.5587C0.980103 37.8259 1.13736 38.0711 1.33774 38.274L4.33583 40.972L7.34922 43.6919L8.8541 45.054L10.3548 46.4211L11.8548 47.7882L12.6048 48.4714L12.9802 48.813L13.1585 48.9737C13.1739 48.9864 13.1891 48.9991 13.2043 49.0119C13.2478 49.0483 13.2911 49.0847 13.3369 49.119C14.3024 49.8783 15.5901 50.2097 16.8043 50.0119C16.9556 49.9874 17.106 49.9561 17.2549 49.9172L17.7436 49.7861L18.7234 49.5233L20.6841 48.9998L36.3832 44.8502L40.3079 43.8136L40.7983 43.6843C40.8261 43.6773 40.8481 43.6707 40.8698 43.6642C40.8824 43.6604 40.8948 43.6567 40.9081 43.653C40.9429 43.6412 40.9775 43.631 41.0113 43.6175C41.0798 43.593 41.1457 43.5634 41.2116 43.5321C41.4721 43.4027 41.7054 43.2193 41.8898 42.9944C42.0749 42.7703 42.2118 42.5065 42.2863 42.225C42.3251 42.0846 42.3454 41.94 42.3539 41.7955L42.3784 41.2899C42.4872 39.0318 42.605 36.7739 42.7766 34.5192C42.6448 34.6447 42.496 34.7522 42.3345 34.8346C42.1873 34.9115 42.0242 34.9673 41.8703 35.0045L41.44 35.1085C40.9386 35.2312 40.4366 35.3492 39.9346 35.4672C39.8617 35.4843 39.7889 35.5014 39.7161 35.5186C39.6248 35.5397 39.5342 35.4839 39.5123 35.3926C39.4912 35.3064 39.5436 35.2184 39.629 35.1931C39.7118 35.1689 39.7946 35.1447 39.8774 35.1205C40.3617 34.9788 40.8457 34.8373 41.3309 34.7001L41.7571 34.5784C41.888 34.5404 42.0047 34.4939 42.118 34.4314C42.3429 34.3087 42.5307 34.1252 42.6617 33.9079C42.9271 33.4734 42.955 32.9027 42.7285 32.4579C42.6719 32.3472 42.6017 32.2432 42.5188 32.1502C42.4985 32.1265 42.4773 32.1037 42.4546 32.0818C42.4317 32.0597 42.4105 32.0369 42.3861 32.0174C42.3607 31.9963 42.3405 31.9777 42.3125 31.9549L42.2262 31.8855L41.5339 31.3326L35.9942 26.9115L30.4664 22.4761L29.7757 21.9215C29.5651 21.7541 29.3436 21.6095 29.1077 21.4869C28.6377 21.24 28.1168 21.0963 27.59 21.0557C27.3272 21.0363 27.0616 21.038 26.7995 21.0718C26.7602 21.0748 26.7214 21.0814 26.6825 21.0881C26.6563 21.0926 26.63 21.0971 26.6034 21.1005C26.5375 21.109 26.4732 21.1234 26.4089 21.1377L26.3118 21.158L26.2061 21.1834L25.9904 21.2358L25.1281 21.4379C24.8752 21.4943 24.6221 21.5507 24.3686 21.6038L24.3714 23.3174C24.3731 23.9747 24.3753 24.632 24.3806 25.2891C24.7654 25.3581 25.1473 25.4524 25.5245 25.5791C25.9888 25.738 26.4453 25.9452 26.8705 26.2495C27.0769 26.3966 27.3 26.597 27.4608 26.8422C27.465 26.8484 27.469 26.8548 27.4729 26.8613C27.4777 26.869 27.4824 26.8767 27.4871 26.8843C27.8242 27.1599 28.1582 27.4387 28.4871 27.7241C28.723 27.9304 28.9581 28.1367 29.1898 28.3514L29.3639 28.5137C29.4179 28.5663 29.4762 28.6271 29.5323 28.6856L29.5507 28.7048C29.5956 28.7567 29.6385 28.8109 29.6812 28.8651C29.695 28.8824 29.7087 28.8998 29.7224 28.917C29.7347 28.9355 29.7471 28.9539 29.7595 28.9723C29.7982 29.0299 29.837 29.0875 29.8729 29.1471C30.0589 29.4641 30.1798 29.8235 30.2212 30.1886C30.2644 30.5539 30.2356 30.9208 30.1468 31.2658C29.9727 31.9591 29.588 32.5543 29.1322 33.0455C28.9031 33.2924 28.6537 33.5157 28.3908 33.7169C28.1262 33.9155 27.848 34.0939 27.5622 34.2546C26.9872 34.5683 26.3819 34.816 25.7588 34.9927C25.1391 35.1712 24.5167 35.3004 23.8844 35.396C23.2536 35.4898 22.617 35.5524 21.9786 35.571C21.3403 35.5905 20.7003 35.5744 20.0628 35.5127C19.744 35.4848 19.4253 35.4408 19.1082 35.3909C18.7912 35.3369 18.4757 35.2735 18.162 35.1957C17.8493 35.117 17.5381 35.0282 17.2312 34.9191C16.9243 34.8118 16.6199 34.6942 16.3248 34.5505C15.733 34.2673 15.1623 33.9223 14.6617 33.448C14.4064 33.2113 14.1799 32.9239 14.0149 32.5958C13.8485 32.2686 13.7495 31.8983 13.7368 31.5288C13.7241 31.1585 13.791 30.7932 13.9135 30.4626C14.0353 30.1303 14.2018 29.8269 14.3913 29.5453C14.4102 29.5196 14.4291 29.4937 14.448 29.4677C14.5284 29.3574 14.6091 29.2467 14.6981 29.1453C14.8046 29.0151 14.9146 28.8942 15.0237 28.7792C15.2417 28.5467 15.4642 28.3252 15.6874 28.1037C15.9969 27.7977 16.309 27.4964 16.6233 27.1971C16.7727 26.9855 16.9414 26.7938 17.1264 26.6275C17.8302 26.0089 18.6658 25.6503 19.5138 25.4357L19.5648 23.314C19.5666 23.2206 19.5681 23.1273 19.5696 23.034C19.5708 22.9561 19.5721 22.8781 19.5735 22.8002C18.9924 22.941 18.4112 23.0815 17.83 23.222C15.9495 23.6766 14.0692 24.1311 12.1913 24.5958L8.3764 25.5343L4.5642 26.4838L2.65847 26.958L1.70561 27.1957L1.46972 27.2548C1.40969 27.2717 1.34966 27.2904 1.29378 27.3165C1.18133 27.3664 1.07996 27.4374 0.994477 27.5237C0.822928 27.6962 0.71386 27.938 0.700248 28.1865C0.683423 28.4343 0.759517 28.6811 0.910858 28.8731C0.949751 28.9204 0.990334 28.9678 1.03768 29.0083C1.05182 29.0219 1.07446 29.0412 1.09744 29.0608C1.10605 29.0682 1.11471 29.0756 1.12299 29.0828L1.21684 29.1622L1.59139 29.4801L2.33973 30.116C3.74643 31.3156 5.16038 32.5072 6.57402 33.6986C7.16293 34.1949 7.75179 34.6912 8.34005 35.188L11.3432 37.7211L12.8415 38.9918L13.5897 39.6277L13.9642 39.9455C14.0851 40.0453 14.195 40.1341 14.3194 40.2178C14.8064 40.5517 15.3711 40.7707 15.9554 40.8537C16.247 40.895 16.5439 40.9061 16.8381 40.8806C16.8645 40.8776 16.891 40.875 16.9174 40.8724C16.9644 40.8678 17.0113 40.8632 17.0579 40.8561C17.0852 40.8514 17.1124 40.847 17.1397 40.8426C17.1851 40.8352 17.2306 40.8279 17.2761 40.8189L17.4924 40.7691L17.73 40.7065L21.5305 39.7123L23.4312 39.2151L25.3343 38.7272C26.6025 38.4008 27.8725 38.0796 29.1424 37.76C31.6814 37.1158 34.222 36.4783 36.7881 35.9405C36.8794 35.9211 36.9691 35.9802 36.9884 36.0715C37.0062 36.1569 36.9555 36.2415 36.8744 36.2677C34.376 37.065 31.8513 37.7633 29.325 38.4541C28.0628 38.8024 26.7995 39.1491 25.5355 39.4898L23.6399 40.0039L21.7419 40.5079L17.9448 41.5164L17.7072 41.5799L17.4452 41.6407C17.382 41.6535 17.3183 41.6641 17.2546 41.6747C17.2296 41.6788 17.2046 41.6829 17.1797 41.6872C17.1172 41.6967 17.0544 41.7033 16.9914 41.7099C16.9649 41.7127 16.9383 41.7155 16.9117 41.7185C16.5531 41.7498 16.1913 41.7405 15.8354 41.6881C15.1234 41.5841 14.4369 41.3135 13.8458 40.9043C13.822 40.8869 13.7979 40.87 13.7737 40.8531C13.7242 40.8184 13.6747 40.7838 13.6286 40.7446C13.6014 40.7221 13.5727 40.6991 13.5441 40.6762C13.5017 40.6422 13.4595 40.6085 13.4231 40.5771L13.0502 40.2575L12.3045 39.6183L10.8148 38.3384L7.84214 35.7697C7.29046 35.2935 6.73917 34.8169 6.18788 34.3403C4.75785 33.104 3.32779 31.8677 1.89069 30.6393L1.14506 30.0001L0.772199 29.6805L0.679111 29.6002C0.668973 29.5914 0.659325 29.5831 0.649588 29.5748C0.628548 29.5569 0.607087 29.5385 0.579344 29.5131C0.50325 29.4463 0.435696 29.3694 0.372285 29.2899C0.246223 29.1284 0.151613 28.9416 0.0906537 28.7454C0.0331607 28.5485 0.00864169 28.3421 0.0238604 28.1392C0.0500704 27.7334 0.222634 27.3385 0.511705 27.0451C0.655522 26.8989 0.827071 26.778 1.01316 26.6951C1.10524 26.6511 1.20247 26.6199 1.2997 26.5936L1.5399 26.5328L2.49183 26.2927L4.39679 25.8124L8.20646 24.8519L12.0128 23.8805C13.9189 23.3968 15.8221 22.9032 17.7253 22.4095C18.3462 22.2484 18.9672 22.0874 19.5883 21.9267C19.6196 19.9668 19.6384 18.0063 19.6477 16.0467C19.3243 15.9471 19.006 15.8296 18.6965 15.6903C17.763 15.2743 16.9124 14.6681 16.2081 13.9249C15.8556 13.5529 15.5385 13.1471 15.263 12.715C14.9882 12.2821 14.7581 11.8213 14.5713 11.3453C14.1967 10.3916 14.0074 9.37028 13.9938 8.35316C13.9736 7.33604 14.1333 6.313 14.4648 5.34746C14.7946 4.38107 15.3103 3.47725 15.9773 2.70194C16.6427 1.92663 17.4595 1.2773 18.3743 0.821582C19.2875 0.363329 20.291 0.0927742 21.3031 0.0209081C22.3143 -0.0526491 23.3373 0.0682552 24.2978 0.377703C25.2583 0.68715 26.1469 1.19529 26.8968 1.84715C26.967 1.90888 26.9746 2.01541 26.9137 2.08643C26.8579 2.15068 26.7632 2.16252 26.6931 2.11686L26.6897 2.11433C26.4901 1.98412 26.2906 1.85561 26.0842 1.73978L26.0582 1.72526C25.9638 1.67252 25.8691 1.61961 25.7714 1.57237L25.6133 1.4929L25.4527 1.41849C25.0248 1.22234 24.5835 1.05832 24.1303 0.942486C23.2266 0.702369 22.2847 0.62543 21.3597 0.709132C20.4355 0.793681 19.5317 1.05916 18.7167 1.48951C17.9025 1.92071 17.1729 2.50917 16.5835 3.21684C15.9934 3.92366 15.5419 4.74378 15.2426 5.61548C14.9459 6.48886 14.8038 7.41552 14.8258 8.34048C14.841 9.26459 15.0151 10.1845 15.3542 11.0393C15.6933 11.8932 16.1879 12.6846 16.8143 13.355C17.4408 14.0264 18.1993 14.5717 19.0312 14.9674C19.8641 15.3622 20.7737 15.5981 21.6996 15.6751C22.6237 15.7579 23.5596 15.6615 24.4407 15.3758C25.3208 15.0917 26.146 14.6309 26.8503 14.0264C27.5571 13.4235 28.1295 12.6685 28.5471 11.8433C28.9649 11.0173 29.2321 10.1219 29.3503 9.21048C29.413 8.75476 29.4333 8.29228 29.4198 7.83234C29.4185 7.80466 29.4174 7.77698 29.4163 7.7493C29.4129 7.662 29.4095 7.57469 29.4012 7.48738L29.3868 7.3149L29.3673 7.14327C29.3436 6.91414 29.3047 6.68586 29.26 6.45927C29.1677 6.00609 29.0367 5.55968 28.8736 5.12256C28.7061 4.68629 28.5023 4.2627 28.2732 3.84673L28.2716 3.84419C28.2149 3.74189 28.2521 3.61253 28.3544 3.55588C28.4448 3.50346 28.5565 3.52629 28.6199 3.60323C28.9411 3.98792 29.2168 4.41235 29.4493 4.86215C29.6793 5.3128 29.8619 5.78965 29.998 6.28088C30.2652 7.26502 30.3286 8.30666 30.1967 9.31955C30.064 10.3341 29.7232 11.3183 29.2228 12.2043C28.723 13.0921 28.061 13.8809 27.2908 14.5404C26.5197 15.199 25.6234 15.7173 24.6563 16.0352C24.5434 16.0723 24.4297 16.1065 24.3152 16.1385C24.3516 17.2639 24.3584 18.39 24.3651 19.5154L24.3654 19.5533L24.3672 20.7163C24.529 20.6701 24.6909 20.6247 24.8526 20.5794L24.909 20.5636L25.7646 20.3354L25.9794 20.2804L26.0885 20.2534L26.2077 20.2263C26.2156 20.2245 26.2235 20.2228 26.2314 20.221C26.303 20.2049 26.3747 20.1889 26.4478 20.179C26.4727 20.1753 26.4977 20.1711 26.5226 20.1669C26.5782 20.1577 26.6339 20.1484 26.6904 20.1443C27.0151 20.1054 27.3432 20.1029 27.6679 20.1341C28.3172 20.1959 28.9547 20.3844 29.5254 20.6972C29.8111 20.852 30.0825 21.0363 30.3312 21.2409L31.0118 21.8074L36.4592 26.3417L41.8948 30.8904L42.5746 31.4586L42.6591 31.5296C42.6875 31.5531 42.721 31.5838 42.7511 31.6115L42.7521 31.6124C42.7772 31.6335 42.8002 31.6577 42.8232 31.6818C42.8296 31.6886 42.8361 31.6954 42.8426 31.7021C42.8731 31.7317 42.901 31.7638 42.928 31.7968ZM32.4449 29.7302C32.3265 29.8241 32.2183 29.9272 32.1379 30.0405C31.9722 30.2654 31.908 30.5175 31.9959 30.7381C32.0366 30.8505 32.1143 30.957 32.2166 31.0517C32.2468 31.0799 32.2829 31.1078 32.3194 31.1359C32.3442 31.155 32.3692 31.1743 32.3925 31.1939C32.4575 31.2369 32.5243 31.2784 32.5911 31.3197C32.8685 31.477 33.1838 31.5861 33.5076 31.6639C33.8324 31.7408 34.1689 31.7814 34.5053 31.7983C35.1808 31.839 35.8572 31.7484 36.5066 31.603C36.8237 31.5328 37.1212 31.417 37.391 31.2589C37.4382 31.2336 37.4815 31.2039 37.5249 31.1742C37.5452 31.1603 37.5655 31.1464 37.5862 31.1329C37.6012 31.1211 37.6165 31.1094 37.6317 31.0977C37.6773 31.0627 37.723 31.0276 37.7629 30.9883C37.8762 30.8878 37.9769 30.7769 38.0546 30.6569C38.2128 30.4193 38.2871 30.1487 38.2255 29.9272C38.1958 29.8166 38.1358 29.7116 38.0411 29.6245C38.0281 29.611 38.0084 29.5963 37.9888 29.5818C37.9779 29.5737 37.9671 29.5656 37.9574 29.5578C37.9468 29.5501 37.9364 29.5421 37.9261 29.5342C37.907 29.5196 37.8879 29.505 37.867 29.4918C37.8403 29.477 37.8147 29.4613 37.7891 29.4456C37.7488 29.421 37.7085 29.3963 37.664 29.3751C37.3809 29.2306 37.062 29.1257 36.7358 29.053C36.4086 28.9786 36.0704 28.9414 35.733 28.9236C35.0574 28.8899 34.3776 28.9608 33.7393 29.1299C33.4215 29.217 33.1162 29.3338 32.8355 29.4791C32.696 29.5527 32.5625 29.6347 32.4449 29.7302ZM38.3909 31.4398C38.3579 31.4754 38.3243 31.5102 38.2898 31.5438C38.2306 31.605 38.1664 31.659 38.1022 31.713C38.0875 31.7253 38.0728 31.7377 38.0582 31.7501C38.0362 31.7662 38.0143 31.7826 37.9925 31.7991C37.9327 31.8441 37.8727 31.8892 37.8095 31.9276C37.4688 32.1484 37.0951 32.3098 36.7155 32.4121C36.3452 32.5161 35.9656 32.5769 35.5851 32.6006C35.2046 32.6268 34.8233 32.621 34.4445 32.5821C33.6895 32.5 32.9345 32.3182 32.2437 31.9132C32.1591 31.8591 32.0746 31.8034 31.9918 31.745L31.9866 31.7408C31.9875 31.7635 31.9885 31.7861 31.9895 31.8088C31.9915 31.8538 31.9934 31.8987 31.9952 31.9437C31.9968 31.9897 31.9988 32.0359 32.0008 32.0821C32.0039 32.1555 32.0071 32.229 32.0087 32.3022L32.0112 32.3919C32.0112 32.402 32.0117 32.4077 32.0122 32.4126C32.0126 32.4163 32.0129 32.4195 32.0129 32.4239C32.0129 32.4324 32.0137 32.4417 32.0155 32.4501C32.0197 32.4848 32.0272 32.5187 32.0382 32.5524C32.0813 32.6852 32.1726 32.812 32.313 32.9271C32.6089 33.1747 33.0098 33.3548 33.4265 33.4799C33.8459 33.6067 34.2915 33.6786 34.7404 33.7024C35.1894 33.7243 35.6434 33.7073 36.0882 33.638C36.5379 33.5662 36.9616 33.4605 37.3386 33.2567C37.5271 33.1569 37.7014 33.0343 37.8543 32.894C38.0073 32.7536 38.1358 32.5922 38.2221 32.4164C38.2653 32.3292 38.2974 32.2379 38.3152 32.1474C38.3253 32.1009 38.3295 32.0595 38.3337 32.0088L38.3506 31.8295C38.3625 31.6996 38.3762 31.5697 38.3909 31.4398ZM31.2113 32.392L31.2138 32.3023C31.2154 32.2291 31.2186 32.1556 31.2218 32.0822C31.2238 32.036 31.2258 31.9898 31.2274 31.9438C31.2421 31.5477 31.2643 31.1516 31.2953 30.7554C31.2641 30.5956 31.2616 30.4297 31.2866 30.2723C31.3247 30.0372 31.4142 29.8225 31.5301 29.6356C31.646 29.4471 31.7897 29.2898 31.9419 29.1486C32.094 29.0057 32.2597 28.8874 32.4306 28.78C32.7721 28.5686 33.1407 28.4207 33.5136 28.315C33.8881 28.2161 34.2686 28.1518 34.649 28.1223L34.9348 28.1053L35.2207 28.1045C35.2849 28.1028 35.3488 28.1064 35.4125 28.11C35.4435 28.1118 35.4745 28.1135 35.5055 28.1147L35.6476 28.1214L35.7896 28.1349C36.1675 28.1695 36.5438 28.2338 36.9125 28.3361C37.281 28.4393 37.6463 28.5703 37.9955 28.7673C38.0546 28.7986 38.1119 28.8368 38.169 28.8749C38.1968 28.8934 38.2246 28.912 38.2525 28.9296C38.2817 28.9501 38.3101 28.9733 38.3382 28.9963C38.3508 29.0067 38.3634 29.0169 38.3759 29.0269C38.3902 29.0388 38.4043 29.0497 38.4183 29.0606C38.4451 29.0815 38.4719 29.1023 38.5002 29.13C38.6693 29.2864 38.814 29.4919 38.8875 29.7253C38.9644 29.9578 38.967 30.2055 38.9247 30.4304C38.8851 30.6384 38.8067 30.8292 38.7093 31.0024C38.7423 31.0295 38.7646 31.068 38.7699 31.111C38.8013 31.3503 38.8284 31.5895 38.8495 31.8288L38.8663 32.0081C38.8697 32.0774 38.8672 32.1552 38.8587 32.227C38.8427 32.3733 38.8038 32.5136 38.7514 32.6447C38.6465 32.9085 38.4858 33.1385 38.3015 33.3363C38.1165 33.535 37.9025 33.6999 37.6768 33.8385C37.4501 33.9773 37.21 34.0888 36.9631 34.1759C36.7129 34.263 36.472 34.3222 36.2217 34.3729C35.7245 34.4709 35.2181 34.5183 34.7108 34.5048C34.2036 34.4921 33.6953 34.4261 33.194 34.2909C32.6961 34.1488 32.1963 33.9418 31.7618 33.5646C31.5393 33.3711 31.3323 33.0963 31.252 32.7639C31.2308 32.6819 31.2181 32.5974 31.2138 32.5128C31.2122 32.4917 31.2113 32.4705 31.2113 32.4494C31.2113 32.4429 31.2112 32.4356 31.2111 32.4284C31.2109 32.414 31.2107 32.3998 31.2113 32.392Z" fill="#070615"></path></svg>