<svg xmlns="http://www.w3.org/2000/svg" width="57" height="53" viewBox="0 0 57 53" fill="none"><path fill-rule="evenodd" clip-rule="evenodd" d="M32.4922 39.0294C32.3308 39.2797 32.1059 39.4953 31.8471 39.6653C31.3264 40.0017 30.6897 40.1759 30.0818 40.1717C29.4688 40.1852 28.8414 40.0262 28.3984 39.6534C27.9469 39.2882 27.7026 38.7115 27.7 38.1019C27.7 37.8136 27.7728 37.5269 27.9089 37.2683C28.0433 37.0087 28.2378 36.7778 28.4711 36.591C28.9387 36.2164 29.5533 36.0279 30.1629 36.0601C30.7988 36.0931 31.4405 36.2537 31.9326 36.6215C32.177 36.8041 32.3815 37.0358 32.5168 37.308C32.6547 37.5761 32.7247 37.8905 32.7324 38.195C32.7374 38.4891 32.6521 38.7775 32.4922 39.0294ZM45.6771 32.4188L45.6763 32.4195L45.0985 32.8929L43.2494 34.4088L41.4063 35.9323L37.7224 38.9828L37.5117 39.1578C36.7647 39.3394 36.002 39.4531 35.2343 39.4893C34.4912 39.5258 33.745 39.4894 33.0081 39.388C33.0117 39.3817 33.0154 39.3756 33.0191 39.3694L33.0193 39.3691C33.0238 39.3617 33.0284 39.3542 33.0326 39.3465C33.2296 38.9973 33.3387 38.5864 33.3251 38.1814C33.3184 37.9802 33.2946 37.7942 33.2499 37.6013C33.2051 37.412 33.1424 37.2235 33.0579 37.045C32.8896 36.6874 32.6412 36.3644 32.3367 36.1142C32.034 35.8622 31.6866 35.6737 31.3255 35.5426C30.9628 35.4116 30.5882 35.3371 30.2095 35.3075C29.4249 35.2459 28.609 35.4842 27.9867 35.9891C27.6748 36.2392 27.4109 36.5554 27.2257 36.9182C27.0398 37.2801 26.9374 37.691 26.9391 38.1018C26.935 38.4958 27.0035 38.9001 27.1623 39.2763C27.318 39.6534 27.5666 39.9974 27.8776 40.2646C28.1871 40.5335 28.5541 40.7271 28.9336 40.8463C29.123 40.9063 29.3166 40.9495 29.5102 40.9774C29.7039 41.0044 29.8976 41.0205 30.0971 41.0163C30.4919 41.0062 30.8766 40.9191 31.2401 40.7889C31.6046 40.657 31.9486 40.471 32.2565 40.2317C32.3767 40.1379 32.4918 40.0357 32.5994 39.9253C33.4783 40.0694 34.3723 40.1243 35.2622 40.0811C35.6958 40.0605 36.1281 40.0154 36.5572 39.9496L35.8819 40.5099L34.0488 42.0453L33.4816 42.5204L33.4807 42.5212L33.4798 42.522L33.4789 42.5227C32.4469 43.3872 31.4148 44.2518 30.3887 45.1236C30.3596 45.1484 30.3382 45.1787 30.3233 45.2116C30.1399 45.3641 29.9795 45.5418 29.8468 45.7383C29.6777 45.9844 29.5525 46.2608 29.473 46.5508C29.3928 46.8416 29.3623 47.146 29.3818 47.4538C29.4029 47.7633 29.4875 48.0929 29.6617 48.3872C29.6676 48.3982 29.6752 48.4091 29.6828 48.4201C29.8239 48.618 30.0987 48.6636 30.2965 48.5224L30.2975 48.5217L32.773 46.7521C32.8939 46.6657 32.9337 46.5 32.8593 46.3664C32.7797 46.2236 32.5989 46.1728 32.4559 46.2524L30.239 47.4907C30.227 47.4487 30.2164 47.4056 30.2086 47.3607C30.1715 47.1561 30.1757 46.9389 30.2162 46.7292C30.2569 46.5186 30.3381 46.314 30.4487 46.1289C30.5621 45.9455 30.7091 45.7822 30.8782 45.6529C31.0483 45.5243 31.2435 45.433 31.4465 45.3858C31.5496 45.362 31.6451 45.3503 31.7685 45.3469C31.8861 45.3409 32.0037 45.3435 32.1203 45.3503C32.5879 45.3782 33.0495 45.5058 33.4621 45.7222C33.8755 45.9387 34.239 46.2439 34.5096 46.6133C34.781 46.982 34.9602 47.4107 35.022 47.857C35.0542 48.0803 35.0575 48.3061 35.033 48.5267C35.0067 48.7473 34.9509 48.9638 34.8698 49.1709C34.7084 49.586 34.4344 49.9564 34.1005 50.2591C33.764 50.561 33.3614 50.7917 32.9337 50.9321C32.7197 51.0022 32.5 51.0505 32.2776 51.0717C32.0561 51.0944 31.8405 51.0928 31.6206 51.0607C31.1818 51.0006 30.7464 50.8324 30.3304 50.6058C29.9135 50.3791 29.5145 50.0926 29.1298 49.7814C28.7452 49.4694 28.3723 49.1329 28.0027 48.7828L26.8842 47.721L24.8622 45.7872L26.2163 41.6191L26.2197 41.609C26.2459 41.526 26.2408 41.4339 26.1986 41.3511C26.1131 41.1854 25.9102 41.1195 25.7437 41.2048L21.9706 43.0901L19.0974 40.608L18.1859 37.3933L18.1816 37.3782C18.1579 37.2979 18.1004 37.2284 18.0176 37.1929L17.0017 36.7031C17.0141 36.6421 17.0268 36.5811 17.042 36.5199C17.0765 36.3754 17.1188 36.2316 17.1654 36.0896C17.2609 35.8055 17.3734 35.5249 17.5027 35.2517C17.7606 34.7048 18.0836 34.1872 18.448 33.7011C19.1861 32.7322 20.095 31.8951 21.0918 31.1808C21.1344 31.151 21.1765 31.1206 21.2185 31.0902C21.3007 31.0307 21.3828 30.9712 21.4689 30.917L21.8545 30.665C21.9337 30.6142 22.0149 30.566 22.096 30.5177C22.1473 30.4872 22.1985 30.4568 22.2493 30.4257L22.4471 30.3074C22.4841 30.2859 22.5216 30.2653 22.5591 30.2449C22.5893 30.2284 22.6194 30.2119 22.6492 30.1949L23.0533 29.97C23.1464 29.9203 23.2406 29.8726 23.3347 29.8249C23.3782 29.8029 23.4217 29.7809 23.465 29.7587C23.6612 29.6548 23.8627 29.5619 24.0643 29.4688C24.1434 29.4323 24.2225 29.3958 24.3013 29.3587C24.4819 29.2755 24.6658 29.1985 24.8497 29.1215L24.8497 29.1215C24.9515 29.0789 25.0532 29.0363 25.1543 28.9927L26.0252 28.6587C26.5543 28.4578 27.0782 28.2278 27.5742 27.9428C28.1484 28.3071 28.8274 28.4872 29.5069 28.4675C29.8976 28.4541 30.2848 28.3855 30.6567 28.2537C31.028 28.1209 31.3805 27.9247 31.6882 27.6669C31.996 27.4098 32.2555 27.086 32.4332 26.7175C32.6124 26.3505 32.7062 25.9396 32.7062 25.5346C32.7113 25.122 32.6056 24.7043 32.4129 24.3383C32.2234 23.9712 31.9512 23.6559 31.6367 23.4049C31.6142 23.387 31.5913 23.3699 31.5683 23.3528L31.5549 23.3428C31.6727 22.9518 31.7649 22.556 31.8396 22.1612C31.9237 21.7162 31.9867 21.2714 32.0437 20.8286C32.1817 20.7865 32.3188 20.742 32.4561 20.6975L32.5997 20.651C33.0129 20.5113 33.4195 20.3653 33.8284 20.1952C34.102 20.4791 34.3951 20.7443 34.705 20.9875C35.711 21.784 36.8913 22.3497 38.1267 22.6651C38.7446 22.8223 39.3763 22.9187 40.0086 22.9634C40.6411 23.0083 41.2761 22.9999 41.9076 22.9365C42.2875 22.8982 42.6658 22.84 43.04 22.7622L45.2374 25.0803L46.3 27.5367L46.3075 27.5537C46.3438 27.6356 46.4132 27.7024 46.5053 27.732L50.0418 28.8678L49.7343 29.1152L48.8043 29.8677C47.758 30.7136 46.7176 31.5661 45.6773 32.4187L45.6771 32.4188ZM27.7652 27.1225C27.5225 26.9474 27.3171 26.7267 27.175 26.473C27.0321 26.2203 26.9561 25.9345 26.9543 25.6403C26.952 25.5701 26.9637 25.4952 26.9751 25.4225L26.9763 25.4146C26.9891 25.3392 27.0051 25.2648 27.0246 25.1913C27.0642 25.0451 27.1176 24.9047 27.1852 24.7728C27.3205 24.5082 27.5132 24.2808 27.7433 24.1024C27.9724 23.9214 28.2403 23.7896 28.5252 23.7067C28.8102 23.6213 29.1121 23.5806 29.4173 23.5824C29.72 23.5824 30.0218 23.6263 30.3109 23.7108C30.6001 23.7937 30.8782 23.9198 31.1201 24.0905C31.3628 24.2604 31.5715 24.4735 31.7179 24.7204C31.8641 24.9681 31.9427 25.2479 31.9452 25.5346C31.9461 25.8288 31.8793 26.1171 31.7432 26.375C31.6097 26.6338 31.4134 26.8603 31.1793 27.0437C30.7083 27.4125 30.0919 27.5959 29.4756 27.623C29.1747 27.6374 28.8686 27.6009 28.5777 27.5139C28.286 27.4294 28.007 27.2992 27.7652 27.1225ZM11.7087 32.3957C10.7444 31.3669 9.78138 30.3366 8.82928 29.3005L9.74368 26.8315L9.74968 26.8155C9.7665 26.7681 9.77335 26.7157 9.76743 26.6624C9.7463 26.479 9.58058 26.3471 9.39703 26.3683L6.38144 26.5446C5.64519 25.7562 4.92027 24.9577 4.1973 24.1581C3.81015 23.7295 3.42537 23.2999 3.05589 22.8663C2.6865 22.4308 2.32793 21.9894 1.99997 21.5329C1.67268 21.0764 1.37507 20.6046 1.1511 20.1091C0.924426 19.6136 0.78416 19.0929 0.727428 18.5518C0.714746 18.4139 0.702993 18.2854 0.703839 18.1544C0.701218 18.0233 0.709673 17.8923 0.7232 17.762C0.753638 17.5016 0.808679 17.2429 0.897455 16.996C1.07069 16.5006 1.36154 16.0465 1.7437 15.6966C2.12417 15.3448 2.59688 15.103 3.10493 15.0007C3.14346 14.9915 3.18261 14.9857 3.22162 14.9799L3.22164 14.9799L3.22166 14.9799L3.22168 14.9799L3.2217 14.9799L3.22173 14.9799L3.22175 14.9799L3.22177 14.9799L3.22179 14.9799L3.22181 14.9798L3.22183 14.9798L3.22185 14.9798L3.22187 14.9798C3.24699 14.9761 3.27205 14.9724 3.29686 14.9678C3.36196 14.9601 3.4263 14.9534 3.49132 14.9474C3.62414 14.9407 3.75604 14.9356 3.88793 14.9423C4.15164 14.9517 4.41129 14.9923 4.65817 15.0667C4.90497 15.141 5.13841 15.2493 5.34716 15.3896C5.42595 15.4406 5.49824 15.4999 5.56808 15.5615C5.05589 15.8339 4.55832 16.1281 4.06633 16.4296C3.50823 16.7729 2.95528 17.1237 2.41764 17.4965C2.3051 17.5761 2.23154 17.7105 2.23746 17.8575V17.8592C2.23915 17.9168 2.24085 17.9514 2.24423 17.9954C2.24685 18.0368 2.25099 18.0782 2.25522 18.1189C2.26536 18.2 2.2772 18.2812 2.2925 18.3614C2.32201 18.5221 2.36268 18.6828 2.41764 18.8417C2.52746 19.1579 2.69487 19.4749 2.95274 19.7455C3.20816 20.0161 3.56242 20.2174 3.92683 20.2951C4.10768 20.3357 4.2903 20.3517 4.46532 20.3483C4.64211 20.3459 4.80782 20.3247 4.97692 20.2926C5.31249 20.2275 5.64223 20.0981 5.93561 19.9078C6.05804 19.8285 6.17269 19.7379 6.27939 19.6391C7.79835 18.7077 9.28576 17.7286 10.7734 16.7494L10.7739 16.7491C11.3166 16.3918 11.8593 16.0346 12.4036 15.6797C13.0834 15.2351 13.7593 14.7851 14.4352 14.335C14.811 14.0848 15.1868 13.8346 15.5632 13.5854L16.6076 12.8912C16.7638 13.6201 16.9921 14.3254 17.2711 15.0167C17.4452 15.4496 17.6473 15.8723 17.8689 16.2858C18.087 16.701 18.3363 17.1 18.6027 17.4889C18.8657 17.8796 19.1624 18.2481 19.4736 18.6058L19.5354 18.6722L19.5806 18.7211L19.5807 18.7211C19.7062 18.8569 19.8316 18.9926 19.9673 19.1191C19.9971 19.1474 20.0264 19.1763 20.0557 19.2051C20.1112 19.2597 20.1666 19.3142 20.2252 19.365L20.494 19.6002C20.5625 19.6627 20.6362 19.7197 20.7098 19.7765L20.7104 19.777L20.745 19.8038L20.7722 19.825C20.7969 19.844 20.8216 19.8631 20.8462 19.8822C20.9158 19.9363 20.9854 19.9903 21.0572 20.0414L21.354 20.2419L21.5028 20.3417L21.6575 20.4329L21.9669 20.6147C22.0316 20.6497 22.0976 20.6827 22.1638 20.7158C22.2047 20.7363 22.2457 20.7568 22.2865 20.7778C22.4666 20.8744 22.6552 20.9525 22.8436 21.0305L22.9418 21.0713C23.043 21.1168 23.1487 21.1522 23.2539 21.1874L23.2783 21.1955L23.6182 21.3106C23.6929 21.3338 23.7686 21.3534 23.8443 21.373L23.8443 21.373C23.8843 21.3833 23.9242 21.3936 23.9639 21.4044C24.0063 21.4149 24.0487 21.4264 24.091 21.4378L24.0912 21.4378C24.1643 21.4576 24.2375 21.4773 24.3114 21.4924L24.6631 21.5592C24.6992 21.5654 24.7353 21.5724 24.7714 21.5794C24.8526 21.5952 24.9337 21.611 25.0157 21.6175L25.1925 21.6374L25.1929 21.6374L25.1929 21.6374L25.193 21.6374L25.193 21.6374L25.1931 21.6374L25.1931 21.6374L25.1931 21.6374L25.1932 21.6374L25.1932 21.6374L25.1933 21.6374L25.1933 21.6375L25.1933 21.6375L25.1934 21.6375C25.37 21.6574 25.5467 21.6773 25.7233 21.6944C26.6677 21.7594 27.6079 21.7105 28.5346 21.5971C29.4612 21.4804 30.3727 21.2885 31.2689 21.0509L31.4863 20.9929C31.3546 21.6791 31.2016 22.354 30.9806 22.9966C30.8524 22.9354 30.7208 22.8817 30.5866 22.8366C30.2086 22.7107 29.8113 22.6506 29.4148 22.6515C29.0207 22.6549 28.6225 22.7174 28.2429 22.8519C27.865 22.9888 27.5057 23.1952 27.2038 23.4707C26.9029 23.7473 26.6644 24.0897 26.5088 24.4617C26.4302 24.6476 26.3728 24.8405 26.3355 25.0349C26.3169 25.133 26.3033 25.2302 26.294 25.3282C26.2885 25.3874 26.2857 25.4461 26.2828 25.5057L26.2828 25.5059C26.2809 25.545 26.279 25.5846 26.2763 25.6251C26.2568 26.0291 26.3448 26.4461 26.5282 26.8112C26.632 27.0196 26.764 27.2104 26.9151 27.3826C26.527 27.5567 26.1333 27.7201 25.731 27.8665C25.4368 27.9781 25.1349 28.0964 24.8382 28.213C24.7323 28.2594 24.6258 28.3046 24.5194 28.3498L24.5193 28.3498L24.5193 28.3498L24.5193 28.3498L24.5193 28.3498L24.5193 28.3499L24.5193 28.3499L24.5192 28.3499L24.5192 28.3499L24.5192 28.3499L24.5192 28.3499L24.5192 28.3499L24.5192 28.3499L24.5191 28.3499C24.3307 28.4299 24.1421 28.51 23.9564 28.5969C23.8776 28.6346 23.7986 28.6716 23.7197 28.7086L23.7197 28.7087C23.508 28.808 23.2966 28.9072 23.0897 29.018C23.0335 29.0475 22.977 29.0765 22.9205 29.1056L22.9201 29.1058C22.8339 29.1501 22.7476 29.1944 22.6618 29.2404L22.2408 29.4779C22.0997 29.5557 21.9626 29.6402 21.8266 29.7265C21.778 29.7573 21.7292 29.7875 21.6803 29.8177L21.6803 29.8177L21.6803 29.8177L21.6802 29.8177L21.6802 29.8177L21.6802 29.8177L21.6802 29.8178C21.592 29.8723 21.5038 29.9268 21.4174 29.9844L21.0166 30.2557C20.9284 30.314 20.8435 30.3774 20.7584 30.4408L20.7584 30.4409L20.7583 30.4409L20.7582 30.441L20.7582 30.441L20.7581 30.4411C20.7137 30.4742 20.6692 30.5074 20.6242 30.5399C20.106 30.9262 19.6079 31.3422 19.1446 31.798C18.6839 32.2562 18.2561 32.7499 17.8756 33.2792C17.4976 33.811 17.1645 34.3775 16.9008 34.9778C16.7672 35.2771 16.6548 35.5865 16.5642 35.9045C16.5185 36.0634 16.478 36.224 16.4458 36.3881C16.4445 36.3948 16.4433 36.4017 16.4422 36.4086C16.4409 36.4162 16.4397 36.4239 16.4382 36.4314L14.7322 35.6088L11.7087 32.3957ZM5.83804 15.8428C5.84403 15.8503 5.85018 15.8577 5.85633 15.8651L5.85634 15.8651L5.85635 15.8651L5.85636 15.8651L5.85637 15.8651C5.8667 15.8775 5.87704 15.8899 5.88657 15.9029C6.18511 16.2994 6.33815 16.7931 6.34745 17.2996C6.36173 17.806 6.22815 18.2997 5.95337 18.6761C5.68027 19.0531 5.27021 19.3033 4.80613 19.3828C4.69114 19.4032 4.56846 19.4142 4.45601 19.4159C4.3428 19.4175 4.23542 19.4056 4.13481 19.3828C3.93359 19.3364 3.76356 19.2433 3.61814 19.0971C3.47195 18.9516 3.35274 18.7521 3.26312 18.5281C3.21831 18.4156 3.17933 18.2981 3.14889 18.1763C3.13672 18.1277 3.12674 18.0787 3.1171 18.0296C3.57536 17.6969 4.02389 17.3503 4.46793 16.9977C4.9338 16.6263 5.39391 16.2461 5.83804 15.8428ZM5.29395 13.3748L8.48481 11.3313L14.8554 7.22559L21.2136 3.10056L22.803 2.06907L23.1995 1.8112C23.3264 1.7258 23.449 1.6514 23.5776 1.577C23.8329 1.43157 24.0974 1.30306 24.3672 1.19983C24.9058 0.991836 25.473 0.886151 26.0007 0.943728C26.2637 0.97332 26.5164 1.04519 26.7506 1.15848C26.8673 1.21682 26.9806 1.28361 27.088 1.36224C27.124 1.3857 27.1577 1.41307 27.1913 1.44046C27.2097 1.45543 27.2281 1.47041 27.2469 1.48475C27.2614 1.49799 27.2761 1.51106 27.2909 1.52418L27.291 1.52419L27.291 1.5242L27.291 1.52422L27.291 1.52426C27.3264 1.5556 27.3621 1.58719 27.3948 1.62181C27.7762 1.99974 28.0289 2.50618 28.0755 3.04552C28.1009 3.31447 28.0755 3.58832 27.9994 3.84873C27.9208 4.10745 27.7964 4.35433 27.624 4.56494C27.5386 4.67062 27.443 4.76785 27.339 4.85748L27.2639 4.91751L27.2452 4.93272L27.2207 4.94879L27.1716 4.98176L26.9746 5.11357L26.1876 5.63955L24.6123 6.69133L18.2873 10.8621L16.7088 11.908L15.1345 12.9605C14.7409 13.2252 14.3463 13.4887 13.9518 13.7522L13.9509 13.7528C13.2959 14.1902 12.6408 14.6277 11.9893 15.0708C11.4476 15.4403 10.9042 15.8074 10.3609 16.1745L10.3609 16.1745C9.241 16.9312 8.12119 17.6878 7.0151 18.465C7.03793 18.3926 7.05822 18.3197 7.0753 18.2465C7.15232 17.9202 7.17422 17.5879 7.15232 17.264C7.13119 16.9402 7.06609 16.6165 6.95271 16.3069C6.83865 15.9984 6.67539 15.7059 6.46655 15.4496C6.04973 14.9348 5.46474 14.5779 4.84914 14.4081C4.54138 14.3209 4.22517 14.2727 3.9115 14.2643H3.90025L5.29395 13.3748ZM35.1327 7.54866C35.9318 6.9323 36.8601 6.48335 37.8341 6.18988C38.8081 5.89227 39.8312 5.74862 40.8541 5.75108C41.6355 5.74786 42.4171 5.83579 43.1769 6.01326C43.169 6.02907 43.1609 6.04471 43.1531 6.06061C43.0871 6.19834 43.0279 6.33953 42.9754 6.48335C42.923 6.62615 42.8783 6.77242 42.8403 6.92207C42.8039 7.07181 42.7717 7.22391 42.7616 7.38371C42.7573 7.45304 42.7852 7.5249 42.8436 7.57149C42.9383 7.64834 43.0778 7.63321 43.1547 7.53759C43.2545 7.41254 43.3339 7.27971 43.4083 7.14443C43.4819 7.00916 43.547 6.87058 43.6053 6.72939C43.6638 6.58819 43.7161 6.44446 43.7601 6.29726C43.7716 6.25803 43.7826 6.21863 43.7931 6.17889C43.8047 6.18244 43.8164 6.18575 43.8282 6.18906C43.8408 6.19262 43.8533 6.19618 43.8658 6.20003C44.8373 6.50026 45.7664 6.94913 46.5807 7.5528C47.394 8.15394 48.0966 8.90896 48.5869 9.78581C49.0765 10.6617 49.3445 11.6551 49.3479 12.6595C49.3485 13.4403 49.2084 14.2169 48.9366 14.9453C48.8587 14.9045 48.7793 14.8673 48.6994 14.8317C48.5565 14.7699 48.4103 14.7158 48.2623 14.6676C48.1135 14.6194 47.963 14.578 47.8082 14.5467C47.6535 14.5155 47.4963 14.4917 47.3297 14.4901C47.2671 14.4901 47.2037 14.5155 47.159 14.5653C47.0752 14.6583 47.0828 14.8004 47.1759 14.884C47.3002 14.9948 47.432 15.0835 47.5674 15.1655C47.7026 15.2467 47.8412 15.3178 47.9833 15.3828C48.1253 15.448 48.2691 15.5072 48.4162 15.5579C48.4889 15.5821 48.562 15.6055 48.6364 15.6262C48.1856 16.5067 47.5316 17.281 46.7565 17.9049C45.9659 18.5424 45.0503 19.0235 44.0831 19.3525C43.1166 19.6838 42.0928 19.8623 41.0689 19.8995C40.3667 19.9299 39.6609 19.8707 38.9722 19.73C38.9935 19.6699 39.0134 19.6094 39.0322 19.5485C39.0727 19.4146 39.1021 19.2763 39.1314 19.1379L39.1462 19.0684C39.2122 18.7446 39.2681 18.4165 39.2908 18.0783C39.2951 18.0183 39.2672 17.9574 39.2139 17.9211C39.1337 17.867 39.0254 17.8881 38.9713 17.9683C38.7819 18.2499 38.6254 18.5433 38.4784 18.8393L38.4746 18.8471C38.4031 18.9932 38.3319 19.1386 38.2738 19.2891C38.2437 19.3694 38.2149 19.45 38.1898 19.5319C37.1731 19.2229 36.2148 18.7277 35.3906 18.0555C34.6027 17.4154 33.9415 16.6182 33.4731 15.7169C33.003 14.8164 32.7299 13.8145 32.6673 12.7948C32.6188 11.8206 32.7911 10.8457 33.1847 9.96937C33.4384 10.0636 33.6967 10.1468 33.9559 10.2263C34.3016 10.3303 34.65 10.4267 35.0101 10.4952C35.0778 10.5079 35.1505 10.479 35.1886 10.4165C35.2384 10.3354 35.2131 10.2297 35.132 10.1797C34.8199 9.98788 34.497 9.82378 34.1714 9.66745C33.9485 9.56176 33.7242 9.45988 33.4967 9.36586C33.9147 8.66276 34.48 8.04817 35.1327 7.54866ZM56.7054 30.8764C56.6622 30.4113 56.5084 29.9751 56.2978 29.5845C56.0872 29.1921 55.82 28.8413 55.5207 28.5267C55.2206 28.2173 54.88 27.9299 54.475 27.7076C54.0734 27.4852 53.5957 27.3423 53.1137 27.3431C52.6309 27.3423 52.1685 27.4733 51.7635 27.6635C51.5597 27.759 51.3678 27.869 51.186 27.9882C51.0947 28.0474 51.0067 28.11 50.9196 28.1734L50.792 28.2697L50.6737 28.3637L50.6287 28.3993L50.5903 28.4298L50.5315 28.4767L46.8795 27.1482L45.9897 24.6882C45.9711 24.6375 45.9398 24.5876 45.8984 24.548L45.8966 24.5463L43.8317 22.5655C44.4209 22.3945 44.9948 22.1719 45.5424 21.8948C46.1064 21.6056 46.6449 21.2667 47.1403 20.8718C47.6341 20.4753 48.089 20.0296 48.483 19.5342L48.4947 19.5193C48.5887 19.3992 48.6818 19.2804 48.7679 19.1546C48.8475 19.0462 48.9199 18.9331 48.9921 18.8202L49.0308 18.7598C49.1931 18.4884 49.3471 18.2118 49.4697 17.9202C49.7267 17.3436 49.8873 16.7246 49.9482 16.1024C49.9541 16.0407 49.9144 15.9814 49.8526 15.9663C49.785 15.9486 49.7157 15.9899 49.6988 16.0585L49.6979 16.0602C49.4071 17.2252 48.8398 18.2931 48.0645 19.1841C47.2866 20.0728 46.3117 20.7813 45.2439 21.2785C44.5568 21.6025 43.8315 21.8373 43.0884 21.9874C43.0458 21.9877 43.0033 21.996 42.9632 22.0121C41.435 22.3004 39.8366 22.2316 38.3448 21.8364C37.2152 21.5354 36.1372 21.0409 35.208 20.3383C34.2779 19.6391 33.5052 18.731 32.9784 17.6911C32.4476 16.6537 32.1634 15.4895 32.1406 14.3116C32.1396 14.2331 32.1409 14.1537 32.1433 14.0738C32.2819 14.7563 32.5091 15.4222 32.8229 16.0466C33.3226 17.0477 34.0371 17.938 34.8927 18.6558C35.7492 19.3745 36.7434 19.9232 37.8029 20.2749C38.8631 20.6275 39.985 20.7813 41.0985 20.7441C42.2044 20.701 43.3053 20.5065 44.3561 20.1438C45.4046 19.7778 46.3997 19.2383 47.2638 18.5273C48.1279 17.8179 48.8542 16.9292 49.3512 15.918C49.8535 14.9111 50.1122 13.7824 50.1088 12.6595C50.1182 11.5292 49.8247 10.3954 49.2837 9.40282C48.7477 8.40684 47.9841 7.54867 47.0972 6.86636C46.224 6.19581 45.2353 5.68717 44.1944 5.34559C44.2452 5.17269 44.2914 4.99894 44.3368 4.82443L44.3513 4.76542C44.4195 4.77819 44.4882 4.78926 44.5573 4.79822C44.8135 4.82612 45.074 4.82612 45.3336 4.78816C45.5931 4.74927 45.8519 4.67309 46.0928 4.54627C46.3329 4.42038 46.557 4.24283 46.7219 4.01446C46.8039 3.9004 46.8714 3.77612 46.9189 3.64583L46.931 3.61009C46.9492 3.55671 46.9671 3.50393 46.9789 3.44714C46.9933 3.37789 47.0025 3.30856 47.0068 3.23915C47.0228 2.96099 46.9492 2.68958 46.8132 2.47483C46.7785 2.41988 46.7125 2.3869 46.6416 2.39798C46.5468 2.41142 46.4808 2.49859 46.4944 2.59328V2.59489C46.6086 3.41087 46.0074 3.99172 45.2423 4.02461C45.0545 4.03822 44.8618 4.02723 44.6716 3.99425C44.6246 3.98605 44.5776 3.97641 44.5311 3.96542C44.5459 3.88916 44.5602 3.81273 44.5727 3.73553C44.5895 3.63061 44.5396 3.52154 44.4415 3.46828C44.3165 3.40148 44.1609 3.44807 44.0933 3.5732C44.0575 3.63949 44.024 3.70636 43.9905 3.77341C43.6996 3.62697 43.4493 3.41324 43.2765 3.16145C43.1792 3.01687 43.1074 2.85961 43.0744 2.69897C43.0415 2.53824 43.0406 2.37515 43.0777 2.21535C43.1133 2.05885 43.1826 1.92358 43.2857 1.80944C43.3872 1.69445 43.5276 1.60069 43.6925 1.53643C44.0231 1.40529 44.4315 1.38416 44.8271 1.45442C45.2261 1.52028 45.6126 1.67593 45.9524 1.91351L45.9566 1.91605C46.0379 1.97261 46.1494 1.96678 46.2238 1.89661C46.3092 1.8162 46.3127 1.68185 46.2323 1.59646C45.895 1.23966 45.4511 0.981791 44.9743 0.843131C44.7366 0.77042 44.4856 0.725524 44.2285 0.71969C43.9715 0.712927 43.706 0.7366 43.4447 0.820303C43.1852 0.902315 42.9256 1.04089 42.7134 1.24888C42.5012 1.45518 42.3499 1.72996 42.2754 2.00905C42.1985 2.2846 42.1858 2.58314 42.2408 2.86375C42.2932 3.14539 42.4074 3.40918 42.5603 3.63737C42.7134 3.86743 42.9028 4.06443 43.115 4.22752C43.2767 4.35308 43.4519 4.45885 43.6354 4.54306L43.6189 4.58102C43.547 4.75181 43.4751 4.92259 43.4101 5.09507L43.3999 5.12196C42.5653 4.92166 41.7077 4.82029 40.85 4.82029C39.7399 4.82875 38.6288 4.99522 37.5652 5.33096C36.5041 5.67161 35.4921 6.18913 34.6153 6.89511C34.1782 7.24844 33.7766 7.64928 33.4266 8.09232C33.0765 8.53442 32.7814 9.0232 32.5524 9.5397C32.3431 10.0099 32.1911 10.5047 32.096 11.0078C31.968 11.4827 31.8524 11.9583 31.7508 12.4415C31.6874 12.745 31.6282 13.0494 31.5825 13.3604C31.5369 13.67 31.5006 13.9887 31.498 14.3159C31.487 15.5832 31.7534 16.8658 32.3106 18.0208C32.6145 18.6539 33.0024 19.2463 33.4564 19.783C33.119 19.8971 32.7728 20.0042 32.4289 20.1049C32.371 20.1208 32.3132 20.137 32.2553 20.1532L32.2552 20.1532L32.2551 20.1532L32.255 20.1532L32.255 20.1533L32.2549 20.1533L32.2548 20.1533L32.2547 20.1533L32.2546 20.1533L32.2545 20.1534L32.2544 20.1534L32.2543 20.1534L32.2542 20.1534L32.2541 20.1535C32.0945 20.1981 31.9348 20.2428 31.7736 20.2825L31.4456 20.3671L31.1159 20.4448C30.2365 20.652 29.3462 20.805 28.4534 20.8996C27.5615 20.9943 26.6644 21.0257 25.7817 20.9504L25.1257 20.8684C25.047 20.8605 24.9705 20.8449 24.8937 20.8292L24.8937 20.8292L24.8936 20.8292C24.8631 20.8229 24.8326 20.8167 24.8018 20.8109L24.4789 20.7475C24.4103 20.7335 24.3428 20.7146 24.2754 20.6958C24.2372 20.6851 24.1991 20.6744 24.1609 20.6647C24.1233 20.6541 24.0857 20.6441 24.0481 20.6342C23.9799 20.6161 23.9118 20.598 23.8447 20.5767L23.5353 20.4693L23.4888 20.4532L23.4887 20.4531C23.4003 20.4226 23.3125 20.3923 23.2284 20.3534C22.4192 20.0237 21.6592 19.5748 20.9835 19.0126C20.3055 18.4537 19.7026 17.7985 19.1784 17.0806C18.6517 16.3636 18.2088 15.5832 17.8164 14.7759C17.622 14.3709 17.4427 13.9574 17.277 13.538C17.163 13.2487 17.0553 12.9536 16.9577 12.6584L17.1417 12.5361L18.7152 11.4802L24.9997 7.2426L26.5774 6.19251L26.5817 6.18955L28.6429 8.20088L29.4477 10.797L29.463 10.8468C29.4875 10.9238 29.5484 10.988 29.6321 11.0135L31.1083 11.459C31.1616 11.4751 31.2216 11.454 31.2529 11.4049C31.2909 11.3457 31.274 11.2662 31.214 11.2282L30.0691 10.4979L29.4207 7.85981C29.402 7.78625 29.3623 7.71777 29.3015 7.66366L29.3006 7.66281L27.1759 5.79412L27.3662 5.66747L27.5632 5.53633L27.6122 5.50344L27.6367 5.48729L27.6646 5.46616L27.7753 5.38085C27.9131 5.26662 28.0417 5.1398 28.1575 5.00283C28.3884 4.72729 28.5675 4.40854 28.6843 4.06688C28.7958 3.7253 28.855 3.36259 28.8399 3.00081C28.8187 2.27538 28.5134 1.56348 28.0239 1.02829C27.783 0.760274 27.4938 0.527765 27.165 0.354357C27.0018 0.265665 26.8285 0.198026 26.6517 0.140534C26.4751 0.0838861 26.2933 0.0500667 26.1114 0.0263086C25.7479 -0.0193476 25.3844 -0.0032834 25.0377 0.056746C24.6893 0.114239 24.3554 0.213161 24.0367 0.336601C23.717 0.460042 23.4126 0.609693 23.1201 0.778029C22.9755 0.861647 22.8285 0.952199 22.694 1.04351L22.2967 1.30307L20.7114 2.33955L14.371 6.48843L8.04349 10.6558L4.88552 12.7484L1.7519 14.8329C1.58517 14.9405 1.42656 15.0603 1.2813 15.1943C0.337659 16.0575 -0.114675 17.3773 0.0248296 18.6236C0.0806316 19.2332 0.243895 19.842 0.48731 20.4025C0.730048 20.9647 1.04541 21.4805 1.38192 21.9683C1.72011 22.4562 2.08282 22.9178 2.45306 23.3702C2.69842 23.6686 2.94747 23.9603 3.1956 24.2509L3.19569 24.251L3.19582 24.2512L3.19615 24.2516C3.32405 24.4014 3.4517 24.5509 3.57849 24.7009C4.08796 25.3 4.60168 25.8952 5.11547 26.4904L5.11553 26.4905L5.11569 26.4907C5.35813 26.7716 5.60058 27.0524 5.84261 27.3338L5.86637 27.3583C5.95844 27.4539 6.09287 27.5054 6.23407 27.486L8.87748 27.1239L7.9504 29.2404C7.89122 29.3858 7.91574 29.5591 8.02903 29.6825L8.03072 29.6843C9.03596 30.7818 10.0504 31.865 11.0656 32.949L11.0914 32.9765L14.1699 36.2478L14.1876 36.2656C14.2197 36.2984 14.2603 36.3256 14.3059 36.3441L17.64 37.6811L18.3135 40.9478C18.3339 41.0323 18.3795 41.1109 18.4514 41.1701L21.6675 43.836L21.6735 43.841C21.7868 43.9341 21.9491 43.9561 22.087 43.8841L25.259 42.2233L23.892 45.7679C23.8312 45.9277 23.865 46.1162 23.9943 46.2448L24.0062 46.2566C24.7384 46.9828 25.4765 47.7033 26.2214 48.4168L27.3424 49.4838C27.7205 49.8423 28.1111 50.1991 28.5296 50.5313C28.948 50.8637 29.391 51.179 29.8814 51.4412C30.3701 51.7024 30.9113 51.9129 31.4964 51.9889C31.7863 52.0287 32.0898 52.0305 32.3799 51.9957C32.6699 51.9628 32.9548 51.8951 33.2279 51.7996C33.7758 51.6111 34.2779 51.3033 34.6982 50.906C34.7594 50.8479 34.8182 50.7872 34.8757 50.7252C35.4347 50.2873 35.991 49.8464 36.5475 49.4054L36.5485 49.4047L36.6512 49.3232C37.303 48.8088 37.9498 48.2874 38.5964 47.7663L38.5972 47.7656L38.9137 47.5105L41.1628 45.6809L43.4008 43.8376L43.9617 43.37L43.9622 43.3695L43.9624 43.3694L43.9625 43.3693L43.9627 43.3691L43.9628 43.369L43.963 43.3689L43.9631 43.3688L43.9632 43.3686L43.9634 43.3685L43.9635 43.3684L43.9637 43.3683L43.9638 43.3681L43.964 43.368C45.2606 42.2871 46.5578 41.2057 47.8361 40.1023C49.2988 38.8374 50.7471 37.5557 52.1481 36.2191C52.2243 36.1455 52.2361 36.0237 52.1701 35.9375C52.0991 35.8444 51.9663 35.8267 51.8733 35.8978C50.3354 37.0713 48.827 38.277 47.3263 39.4927C46.2951 40.3292 45.2702 41.1734 44.2451 42.0177L44.241 42.0211C43.7766 42.4036 43.3121 42.7861 42.847 43.168L38.3845 46.8645L36.1625 48.7246C36.0775 48.7964 35.9924 48.868 35.9072 48.9396L35.7616 49.062C35.7953 48.9112 35.8195 48.7583 35.8319 48.6045C35.8549 48.3119 35.8379 48.0194 35.7888 47.7345C35.6917 47.1621 35.443 46.6201 35.0897 46.1703C34.9138 45.9446 34.71 45.7434 34.4893 45.565C34.2687 45.3866 34.0311 45.2311 33.7784 45.105C33.2735 44.854 32.7206 44.7026 32.16 44.6721C32.035 44.6661 31.9092 44.665 31.7833 44.6696C32.6763 43.9644 33.5681 43.2572 34.459 42.5492L36.3316 41.0628L38.1976 39.5679L41.9287 36.5775L43.7948 35.0826L45.6556 33.5819L49.3784 30.5822L50.3092 29.8339L50.4424 29.7271L50.4426 29.727C50.7085 29.5139 50.9747 29.3006 51.2384 29.0941L51.3543 29.0028L51.465 28.92C51.5394 28.8659 51.6138 28.8125 51.6899 28.7644C51.8413 28.6663 51.9968 28.5784 52.1541 28.5048C52.4694 28.3577 52.7941 28.2723 53.1103 28.274C53.4266 28.2765 53.7385 28.3586 54.0353 28.52C54.3321 28.6781 54.6119 28.9065 54.868 29.1651C55.1243 29.4205 55.3508 29.7054 55.5251 30.0115C55.6984 30.3176 55.8218 30.6447 55.8682 30.9737C55.9147 31.3025 55.8792 31.6315 55.755 31.9341C55.6932 32.0863 55.6105 32.2317 55.5089 32.3679C55.4583 32.4364 55.4025 32.5015 55.344 32.5657L55.2519 32.6595L55.1428 32.7661L54.2991 33.6174L53.8814 34.0435C53.7428 34.1865 53.604 34.3285 53.4655 34.4655C53.3749 34.5551 53.3648 34.7006 53.4459 34.8029C53.533 34.9128 53.6929 34.9313 53.8028 34.8442C54.275 34.4702 54.7236 34.0803 55.1702 33.6922L55.1703 33.692L55.1705 33.6919L55.1706 33.6918L55.1707 33.6917L55.1709 33.6915L55.171 33.6914L55.1712 33.6913L55.1713 33.6912L55.1715 33.691L55.1716 33.6909L55.1718 33.6908L55.1719 33.6907C55.3254 33.5573 55.4786 33.4242 55.6323 33.292L55.7432 33.1964L55.8675 33.084C55.9478 33.0053 56.0264 32.9242 56.1 32.8362C56.2471 32.6613 56.3764 32.465 56.4771 32.2529C56.6808 31.8275 56.751 31.338 56.7054 30.8764ZM14.8175 30.0081C14.9317 29.9811 15.0018 29.8669 14.9748 29.7536L14.0952 26.0497L16.6797 27.0391L16.715 27.153C16.7569 27.2886 16.7988 27.4242 16.8416 27.5596C17.0116 28.0938 17.1908 28.6266 17.3836 29.1559C17.4106 29.2294 17.4859 29.2775 17.5687 29.2649C17.6617 29.2522 17.7268 29.166 17.7133 29.0729C17.6338 28.515 17.5425 27.9612 17.4411 27.4091C17.3388 26.8578 17.2322 26.3073 17.1172 25.7587L16.9439 24.936C16.8864 24.6621 16.8255 24.389 16.7621 24.1159C16.7307 23.976 16.6982 23.8362 16.6658 23.6963L16.6378 23.5761L16.6805 23.6019L16.6807 23.6021L16.681 23.6022L16.6813 23.6024L16.6815 23.6025L16.6818 23.6027L16.6821 23.6029L16.6823 23.603L16.6826 23.6032L16.6828 23.6033L16.6831 23.6035C16.851 23.7051 17.0189 23.8068 17.1874 23.9071L17.3138 23.9829C17.7782 24.2612 18.2428 24.5398 18.711 24.8126C18.8896 24.9172 19.0681 25.0223 19.2465 25.1274C19.5773 25.3222 19.9082 25.5171 20.2405 25.7087C20.4966 25.8559 20.7545 26.0013 21.0149 26.1417C21.2745 26.2846 21.5357 26.4233 21.8012 26.556C21.8892 26.6008 21.9999 26.578 22.0633 26.4968C22.136 26.4038 22.1191 26.2702 22.027 26.1983C21.7936 26.0156 21.5552 25.8389 21.3151 25.6665C21.0758 25.4915 20.834 25.3215 20.5905 25.1542L20.553 25.1286L20.5202 25.1063L20.0663 22.8724L22.9342 23.5182C23.0153 23.5359 23.0999 23.4928 23.1303 23.4125C23.1633 23.3254 23.1193 23.2273 23.0314 23.1943L19.6435 21.9134C19.5607 21.8813 19.4668 21.8771 19.3755 21.9058C19.1616 21.9742 19.0424 22.2034 19.1109 22.4181L19.1126 22.425L19.8115 24.6244L19.6622 24.5236C19.4825 24.4023 19.3029 24.2809 19.1236 24.159C18.6808 23.858 18.2352 23.5618 17.7894 23.2654L17.6507 23.1732C17.1595 22.8452 16.6641 22.523 16.1686 22.2018C16.0663 22.1358 15.9361 22.1087 15.8084 22.14C15.5599 22.2001 15.4068 22.4503 15.4668 22.6989L15.4685 22.7074C15.6004 23.2518 15.7442 23.793 15.893 24.3332C15.9657 24.6038 16.0401 24.8742 16.1179 25.1432L16.3512 25.9506C16.3638 25.9938 16.3768 26.0369 16.3898 26.08L16.3898 26.0803L16.39 26.081C16.4 26.1139 16.4099 26.1468 16.4196 26.1798L13.66 24.9775L13.6507 24.9732C13.5603 24.9334 13.4546 24.9267 13.354 24.9606C13.1375 25.0333 13.0209 25.2682 13.0936 25.4848L14.5689 29.8686C14.6036 29.9709 14.711 30.0326 14.8175 30.0081ZM25.1924 17.8331C25.1011 17.8111 25.0377 17.7341 25.0284 17.6462C24.9895 17.259 24.9777 16.8743 24.9777 16.4896C24.9777 16.2736 24.9826 16.0581 24.9901 15.8429C24.7292 15.8435 24.4683 15.8395 24.2074 15.8276C23.799 15.8098 23.3907 15.7794 22.9823 15.7134C22.842 15.6906 22.7473 15.5587 22.7692 15.4192C22.7878 15.3085 22.8758 15.2256 22.9823 15.2078C23.3907 15.1419 23.799 15.1123 24.2074 15.0937C24.4816 15.0813 24.7559 15.0776 25.0302 15.0788C25.051 14.7828 25.0784 14.4874 25.1222 14.1924C25.1797 13.8119 25.2516 13.4323 25.3767 13.0561C25.4072 12.9648 25.5061 12.9149 25.5982 12.9453C25.6591 12.9656 25.7022 13.018 25.7141 13.0781C25.7885 13.4678 25.8088 13.8534 25.8155 14.2381C25.8199 14.5244 25.8093 14.8097 25.7917 15.0948C26.0803 15.1054 26.369 15.1205 26.6576 15.1444C27.066 15.1766 27.4744 15.2188 27.8827 15.2915C27.9757 15.3085 28.0383 15.3972 28.0214 15.4911C28.0087 15.5638 27.9512 15.6179 27.8827 15.6297C27.4744 15.7025 27.066 15.7447 26.6576 15.7769C26.3494 15.8024 26.041 15.8187 25.7328 15.8292C25.7103 16.0645 25.6853 16.2996 25.654 16.5344C25.6025 16.9157 25.5399 17.2953 25.4503 17.6741C25.4232 17.7891 25.3074 17.8601 25.1924 17.8331ZM26.1714 34.977C25.7901 34.895 25.408 34.8442 25.0258 34.7977C24.7864 34.7697 24.5465 34.7473 24.3063 34.7287C24.3274 34.4837 24.3425 34.2385 24.3494 33.9921C24.3587 33.6343 24.3562 33.275 24.3139 32.9115C24.3038 32.8295 24.248 32.7567 24.1651 32.7305C24.0518 32.6942 23.9301 32.7567 23.8937 32.8709C23.783 33.2192 23.7111 33.5709 23.6511 33.9244C23.6089 34.1761 23.5752 34.4288 23.5485 34.6819C23.2742 34.6701 22.9993 34.6648 22.7244 34.6685C22.3389 34.676 21.9533 34.6937 21.5661 34.7555C21.4841 34.7681 21.4139 34.829 21.3911 34.9153C21.3606 35.0302 21.43 35.1486 21.5458 35.1782C21.9263 35.2771 22.3084 35.3312 22.6906 35.376C22.9558 35.4054 23.2218 35.4261 23.488 35.4406C23.4768 35.647 23.4695 35.8537 23.4677 36.0609C23.4667 36.4195 23.476 36.7796 23.5217 37.1431C23.5302 37.2074 23.5741 37.264 23.6392 37.2861C23.7305 37.3164 23.8278 37.2674 23.8582 37.1761C23.9723 36.8286 24.051 36.4769 24.1186 36.1243C24.159 35.9054 24.1936 35.6858 24.2239 35.4658C24.4803 35.4711 24.737 35.4733 24.9937 35.4683C25.3792 35.4589 25.7639 35.4445 26.1512 35.3997C26.2399 35.3887 26.3169 35.3237 26.3363 35.2315C26.3608 35.1157 26.2873 35.0015 26.1714 34.977ZM40.0321 11.7211L40.0308 11.7219L38.879 15.3273L41.9132 13.1786L41.9152 13.1726L40.0321 11.7211ZM42.403 13.8594L38.4928 16.3264C38.3532 16.4143 38.1689 16.3729 38.0802 16.2334C38.0345 16.1607 38.0235 16.0753 38.0437 15.9975L39.2697 11.327L39.2706 11.3228C39.2993 11.2137 39.3729 11.1275 39.4651 11.0785L43.3923 9.02225C43.5182 8.9563 43.6738 9.00534 43.7406 9.13131C43.771 9.18965 43.777 9.2556 43.7617 9.31478L42.6969 13.474C42.6907 13.5472 42.666 13.6179 42.6233 13.6793C42.5718 13.7637 42.4943 13.8275 42.403 13.8594ZM29.1552 25.7164C29.2803 25.8626 29.4148 25.9996 29.561 26.1272C29.7081 26.254 29.8637 26.3725 30.0481 26.4662C30.0912 26.4883 30.1436 26.4925 30.1927 26.4748C30.2874 26.4401 30.3355 26.3352 30.3008 26.2414C30.229 26.0478 30.1293 25.8787 30.021 25.7181C29.9111 25.5573 29.7911 25.4078 29.66 25.2666C29.5298 25.1254 29.3895 24.9926 29.2381 24.87C29.085 24.7475 28.9245 24.6332 28.735 24.5445C28.7046 24.5292 28.6682 24.5268 28.6335 24.5395C28.5617 24.5631 28.5219 24.6418 28.5465 24.7136C28.6124 24.9114 28.7071 25.0847 28.8102 25.2504C28.9151 25.4153 29.0302 25.5701 29.1552 25.7164ZM43.7076 29.7941C43.9427 29.6081 44.1363 29.3764 44.269 29.1169C44.4035 28.8573 44.4678 28.5656 44.461 28.2714C44.4542 27.9839 44.3595 27.7092 44.2056 27.4724C44.0518 27.2357 43.8463 27.0319 43.6147 26.8561C43.1487 26.5017 42.5451 26.3014 41.9339 26.2786C41.6244 26.2692 41.3157 26.3014 41.0232 26.385C40.7306 26.468 40.4551 26.605 40.2217 26.7935C39.9883 26.9812 39.7947 27.2188 39.6654 27.4919C39.5352 27.7623 39.4726 28.0753 39.4726 28.3771C39.4726 28.6722 39.5588 28.9563 39.7077 29.2023C39.8547 29.4499 40.0644 29.6605 40.3004 29.8364C40.7738 30.1924 41.3893 30.3817 41.9939 30.3691C42.3024 30.3606 42.6145 30.3141 42.9062 30.2186C43.1987 30.1247 43.4725 29.9801 43.7076 29.7941ZM41.9313 25.4305C42.715 25.4053 43.5207 25.6259 44.1752 26.1146C44.5007 26.359 44.7754 26.6844 44.9581 27.0615C45.1408 27.437 45.2303 27.8597 45.2219 28.2714C45.2168 28.6773 45.1188 29.0848 44.9403 29.45C44.7619 29.8161 44.4998 30.1357 44.193 30.391C43.8861 30.6473 43.5335 30.8375 43.1656 30.9711C42.7962 31.1038 42.4123 31.1782 42.0226 31.1968C41.6269 31.2153 41.2278 31.1689 40.8491 31.0489C40.4711 30.9305 40.1067 30.7537 39.7896 30.5034C39.4718 30.255 39.2062 29.9294 39.0304 29.5574C38.8537 29.1846 38.775 28.7668 38.7928 28.3628C38.8114 27.9662 38.9019 27.5815 39.0625 27.2171C39.1514 27.0167 39.2647 26.8258 39.3977 26.6496C39.0579 26.6403 38.7248 26.6473 38.4082 26.6929C38.1629 26.7276 37.9296 26.7885 37.7343 26.8806C37.6371 26.9271 37.5491 26.9821 37.4764 27.0455C37.3928 27.1165 37.3631 27.152 37.3276 27.2247C37.2608 27.3642 37.2355 27.5824 37.2439 27.8123C37.2516 28.044 37.2828 28.2908 37.3327 28.5386C37.4074 28.9412 37.5191 29.3543 37.6299 29.7636L37.6303 29.7651C37.6562 29.8607 37.682 29.9562 37.7073 30.0512C37.7842 30.189 37.7352 30.364 37.5974 30.441C37.5162 30.4866 37.4231 30.4883 37.3437 30.4544L37.2971 30.4342C37.1982 30.391 37.0867 30.3446 36.9792 30.3031C36.8719 30.2592 36.7629 30.2178 36.6538 30.1772C36.4357 30.096 36.2167 30.0191 35.9959 29.9497C35.7762 29.8787 35.5547 29.8153 35.3323 29.7612C35.1108 29.7062 34.8893 29.6572 34.6677 29.6224C34.2264 29.5523 33.7841 29.5228 33.3817 29.5853C33.1813 29.6149 32.9929 29.6673 32.8254 29.7459C32.7417 29.7848 32.6648 29.8322 32.5937 29.8846C32.5819 29.8926 32.5712 29.9013 32.5604 29.91L32.5505 29.918L32.5413 29.9252C32.5365 29.929 32.5297 29.9341 32.5246 29.9382L32.5206 29.9416L32.5185 29.9438L32.5152 29.9475L32.5116 29.9507L32.5067 29.9548C32.5024 29.9582 32.4986 29.9627 32.4946 29.9672L32.4946 29.9673C32.4907 29.9718 32.4868 29.9764 32.4822 29.9802C32.4789 29.9853 32.4752 29.9899 32.4715 29.9944C32.4668 30.0003 32.462 30.0063 32.4577 30.0139C32.3891 30.1146 32.3342 30.2964 32.3097 30.4942C32.2834 30.6929 32.2792 30.9102 32.2843 31.1308C32.2978 31.5739 32.3604 32.0313 32.4356 32.4887C32.5671 33.2521 32.7471 34.0225 32.9441 34.7819L35.859 32.7026C35.9537 32.6349 36.0865 32.657 36.154 32.7517C36.2191 32.8429 36.2005 32.969 36.1152 33.0383L32.9472 35.6103C32.8051 35.7252 32.5971 35.7032 32.4822 35.562C32.4593 35.5341 32.4424 35.5037 32.4298 35.4716L32.423 35.4521C32.2369 34.9947 32.0822 34.5399 31.9376 34.0732C31.7964 33.6072 31.6688 33.1355 31.569 32.6536C31.4667 32.1717 31.3907 31.6804 31.3635 31.1672C31.35 30.9102 31.3534 30.6473 31.3889 30.3716C31.4076 30.2338 31.4337 30.0926 31.4777 29.9471C31.5225 29.8018 31.5843 29.6496 31.6824 29.4999C31.7026 29.468 31.7273 29.436 31.7516 29.4046L31.7635 29.3892C31.7717 29.3801 31.7797 29.371 31.7877 29.3619L31.7878 29.3619C31.8112 29.3353 31.8345 29.3089 31.8616 29.2843L31.9157 29.2345C31.9283 29.2229 31.9379 29.2157 31.9478 29.2083L31.9479 29.2082C31.9525 29.2047 31.9571 29.2013 31.9621 29.1973L31.9784 29.1847L31.9785 29.1846C32.0027 29.1658 32.0272 29.1468 32.0527 29.1295C32.1753 29.0425 32.3055 28.9681 32.4399 28.9081C32.7079 28.7872 32.9869 28.7187 33.2599 28.6832C33.8078 28.6206 34.3303 28.6781 34.8266 28.7855C35.0753 28.8396 35.3179 28.9064 35.5563 28.9825C35.7939 29.0611 36.0265 29.1473 36.2556 29.2412C36.4269 29.3137 36.5952 29.3888 36.7614 29.4681C36.664 29.2257 36.5828 28.9758 36.516 28.717C36.45 28.4346 36.3959 28.1421 36.39 27.8301C36.3874 27.5207 36.4179 27.1782 36.6073 26.8333C36.6554 26.7487 36.7146 26.6659 36.7856 26.5906C36.8618 26.5119 36.9252 26.4613 36.997 26.4088C37.1407 26.3074 37.2947 26.233 37.4485 26.1771C37.7579 26.0639 38.0674 26.0318 38.3633 26.0301C38.8529 26.0328 39.3168 26.1188 39.7596 26.2538C40.0571 25.9859 40.4087 25.7856 40.7789 25.6487C41.15 25.5126 41.5415 25.4416 41.9313 25.4305ZM42.0446 28.7634C41.9212 28.6391 41.7918 28.5224 41.6574 28.4118C41.5229 28.3018 41.3868 28.1936 41.2346 28.1065C41.0816 28.0212 40.9201 27.9458 40.7265 27.9137C40.6893 27.9069 40.6504 27.9121 40.6149 27.9272C40.5194 27.9729 40.4787 28.0862 40.5236 28.1817C40.6073 28.3594 40.7231 28.4945 40.8474 28.618C40.9725 28.7406 41.1137 28.8421 41.2566 28.9418C41.3995 29.0407 41.5466 29.1338 41.7005 29.2192C41.8544 29.3038 42.0133 29.3815 42.1867 29.4407C42.2382 29.4585 42.2974 29.4517 42.3456 29.4187C42.4259 29.3629 42.4462 29.2521 42.3904 29.1709C42.2856 29.0204 42.1681 28.8885 42.0446 28.7634ZM42.6559 27.4843C42.7895 27.6001 42.9171 27.7227 43.038 27.8538C43.1589 27.9858 43.2739 28.1252 43.3728 28.2858C43.4126 28.3492 43.3923 28.433 43.3289 28.4727C43.2967 28.4947 43.2562 28.4989 43.2207 28.4887C43.0397 28.4355 42.8749 28.3611 42.7159 28.2791C42.5569 28.1971 42.4056 28.1057 42.2585 28.0069C42.1122 27.908 41.9685 27.8064 41.8417 27.6822C41.7157 27.5579 41.599 27.42 41.5153 27.2391C41.4713 27.1427 41.5136 27.0294 41.6092 26.9855C41.6455 26.9686 41.6836 26.9643 41.7199 26.9702C41.9169 27.0032 42.0801 27.0793 42.2331 27.1682C42.3862 27.2577 42.5223 27.3702 42.6559 27.4843ZM31.717 37.6977C31.6358 37.5608 31.5436 37.433 31.4405 37.3139C31.3374 37.1947 31.225 37.0839 31.1006 36.9825C30.9755 36.8819 30.8411 36.7889 30.6779 36.7195C30.6517 36.7086 30.623 36.7052 30.5933 36.711C30.5165 36.7272 30.4665 36.8023 30.4826 36.8801C30.5189 37.0535 30.5849 37.2039 30.6593 37.3461C30.7346 37.4872 30.8216 37.6191 30.9189 37.7433C31.0161 37.8677 31.1234 37.9835 31.2419 38.0892C31.361 38.1949 31.4904 38.2921 31.6485 38.3656C31.6858 38.3826 31.7289 38.3876 31.7719 38.3775C31.8726 38.3529 31.9343 38.2516 31.9097 38.1509C31.8683 37.981 31.7973 37.8356 31.717 37.6977ZM29.3893 38.5001C29.501 38.6201 29.6049 38.7461 29.7005 38.8815C29.7952 39.0175 29.8831 39.1596 29.9491 39.3228C29.9778 39.393 29.944 39.4724 29.8738 39.5011C29.8383 39.5155 29.7986 39.5138 29.7664 39.4995C29.6058 39.4276 29.4671 39.3346 29.3344 39.2349C29.2025 39.135 29.0807 39.026 28.9649 38.9102C28.8491 38.7944 28.7409 38.6725 28.6453 38.5373C28.5506 38.402 28.4635 38.2583 28.4044 38.0883C28.379 38.0157 28.4179 37.9361 28.4906 37.9108C28.5253 37.8981 28.5591 37.8999 28.5887 37.9116C28.7569 37.9768 28.8964 38.0681 29.0283 38.1679C29.1602 38.2676 29.2786 38.38 29.3893 38.5001ZM30.6669 38.227C30.5646 38.0671 30.4521 37.9167 30.3312 37.7738C30.2095 37.631 30.0802 37.4957 29.9364 37.3739C29.7927 37.2513 29.6388 37.138 29.4545 37.0526C29.413 37.0332 29.364 37.0298 29.3166 37.0459C29.2211 37.0789 29.1705 37.1837 29.2034 37.2792C29.2701 37.4712 29.3665 37.636 29.474 37.7916C29.5813 37.9471 29.7023 38.0892 29.8325 38.2245C29.9626 38.3589 30.1005 38.4865 30.2493 38.6041C30.3998 38.7208 30.557 38.8307 30.7404 38.9169C30.7726 38.9313 30.8098 38.9347 30.8453 38.922C30.9171 38.8966 30.9544 38.8189 30.9291 38.7469C30.8614 38.5559 30.7675 38.3885 30.6669 38.227ZM12.6082 18.5755C12.6082 18.8748 12.6995 19.1606 12.8551 19.4032C13.0098 19.6467 13.2203 19.8513 13.4562 20.0246C13.928 20.3747 14.5367 20.5708 15.1421 20.5649C15.7669 20.5556 16.4095 20.3899 16.9126 20.0322C17.1637 19.8564 17.3725 19.6306 17.5171 19.3762C17.6617 19.1234 17.731 18.8367 17.7293 18.5467C17.7234 18.2525 17.6464 17.965 17.507 17.708C17.3674 17.451 17.167 17.2252 16.9286 17.0443C16.6885 16.8659 16.4196 16.7213 16.1305 16.6207C15.8405 16.5209 15.5327 16.4728 15.219 16.4736C14.5883 16.4736 13.9483 16.6596 13.4478 17.0291C13.1983 17.2126 12.9861 17.4425 12.8382 17.7072C12.686 17.9693 12.609 18.2728 12.6082 18.5755ZM16.3291 21.215C15.958 21.3461 15.5724 21.4264 15.1784 21.4509C14.3718 21.5034 13.5449 21.2683 12.8939 20.7568C12.571 20.4998 12.3038 20.159 12.1372 19.7718C11.969 19.3854 11.903 18.9593 11.9318 18.5518C11.9571 18.1476 12.0687 17.7511 12.2547 17.3918C12.4433 17.0341 12.7105 16.723 13.0199 16.4753C13.643 15.9781 14.421 15.7262 15.2004 15.6906C15.5927 15.672 15.996 15.716 16.3807 15.8302C16.7662 15.9418 17.1357 16.1261 17.4502 16.3873C17.7656 16.646 18.0328 16.9707 18.2171 17.3436C18.4006 17.7147 18.497 18.1333 18.4902 18.5467C18.4902 18.9635 18.3727 19.382 18.1723 19.7439C17.9728 20.1083 17.6887 20.4118 17.3725 20.6553C17.0537 20.898 16.6995 21.0831 16.3291 21.215ZM15.2369 19.7287C15.3206 19.6771 15.3468 19.5664 15.2952 19.4827C15.2031 19.3339 15.0965 19.2028 14.9849 19.0777C14.8725 18.9534 14.7541 18.8376 14.6307 18.7268C14.5064 18.6169 14.3813 18.5087 14.2392 18.4207C14.0963 18.3337 13.945 18.2584 13.759 18.2237C13.7243 18.2178 13.6871 18.2204 13.6516 18.2339C13.5527 18.2736 13.5045 18.3861 13.5442 18.485C13.6144 18.6609 13.7184 18.7944 13.8317 18.9179C13.9458 19.0405 14.0769 19.1419 14.2088 19.2417C14.3415 19.3406 14.4793 19.4345 14.6231 19.5199C14.7676 19.6044 14.9173 19.683 15.0813 19.7439C15.1304 19.7625 15.1887 19.7583 15.2369 19.7287ZM15.3687 18.6135C15.2216 18.5442 15.077 18.4681 14.9358 18.3835C14.7955 18.2973 14.6568 18.2068 14.5266 18.0944C14.4522 18.0293 14.4437 17.9168 14.5088 17.8424C14.5469 17.7993 14.601 17.7781 14.6543 17.7807C14.8259 17.79 14.9882 17.8221 15.1497 17.8576C15.3104 17.8948 15.4668 17.9413 15.6207 17.9937C15.6845 18.0155 15.7476 18.0395 15.8103 18.0641C15.8068 18.0533 15.8031 18.0426 15.7994 18.0319C15.793 18.0136 15.7867 17.9954 15.7813 17.9768C15.7399 17.839 15.7086 17.697 15.6891 17.5507C15.6705 17.4044 15.6612 17.2539 15.6824 17.0933C15.6925 17.0147 15.7635 16.9597 15.8422 16.9699C15.8726 16.9741 15.8997 16.9868 15.92 17.0062C16.04 17.1153 16.1305 17.2353 16.2116 17.3588C16.2928 17.4822 16.3605 17.6107 16.4188 17.7426C16.4771 17.8745 16.527 18.0098 16.5659 18.1485C16.6031 18.288 16.6335 18.43 16.6361 18.5822V18.5966C16.6395 18.7648 16.5059 18.9035 16.3385 18.9069C16.3266 18.9069 16.3139 18.9069 16.303 18.9052C16.1339 18.8891 15.9758 18.8468 15.821 18.7961C15.6663 18.7462 15.5158 18.6828 15.3687 18.6135Z" fill="#070615"></path></svg>