<svg xmlns="http://www.w3.org/2000/svg" width="57" height="53" viewBox="0 0 57 53" fill="none"><path fill-rule="evenodd" clip-rule="evenodd" d="M56.773 11.6708C56.8271 12.4427 56.8009 13.2231 56.6741 13.9883C56.5515 14.7543 56.335 15.5034 56.0433 16.2187C55.4583 17.6509 54.5629 18.942 53.4621 20.0073C52.7023 20.7443 51.8459 21.3761 50.924 21.8882L52.2894 44.2499C52.3072 44.539 52.0865 44.7884 51.7973 44.8062L51.7864 44.807H51.7813L48.4395 44.9256C48.4622 45.0863 48.4845 45.2469 48.505 45.4074C48.5506 45.7456 48.5938 46.0829 48.6352 46.4211L48.6352 46.4212L48.6352 46.4213L48.6352 46.4213L48.6352 46.4214L48.6353 46.4215L48.6353 46.4216L48.6353 46.4217L48.6353 46.4217L48.6353 46.4218L48.6353 46.4219L48.6353 46.422L48.6353 46.4221L48.6353 46.4221L48.6354 46.4222L48.6354 46.4223C48.6776 46.7601 48.7198 47.0979 48.7561 47.4357C48.7941 47.7739 48.8254 48.1129 48.8499 48.452C48.866 48.6845 48.6918 48.8857 48.4593 48.9017C48.4517 48.9026 48.4441 48.9026 48.4374 48.9026H48.4348L46.7111 48.9274L46.8241 52.3479C46.8326 52.5965 46.6373 52.8045 46.3887 52.8129H46.3693H46.3541L8.3918 52.3056H8.38081C8.19988 52.3031 8.05445 52.1543 8.05699 51.9725V51.9674L8.13015 49.483L5.63131 49.519H5.62116C5.41655 49.5215 5.2483 49.3583 5.24492 49.1537V49.1503L5.22717 46.2091C4.22167 46.2118 3.21687 46.2044 2.20967 46.1666C2.13696 46.164 2.07947 46.1023 2.082 46.0296C2.08454 45.9628 2.13527 45.9096 2.19953 45.9028C3.22933 45.7912 4.25997 45.7109 5.29146 45.6415C6.32295 45.5697 7.35444 45.5147 8.38678 45.4674L14.58 45.2019L24.1451 44.803L27.2351 32.2473L28.8255 25.7777C28.9887 25.1613 29.3708 24.6067 29.8798 24.2237C30.136 24.0343 30.4226 23.8863 30.7262 23.7866C31.0288 23.686 31.3501 23.6352 31.6706 23.6445C31.7357 23.6418 31.8002 23.6485 31.8646 23.6552L31.9098 23.6598L32.029 23.6716C32.0578 23.6753 32.086 23.6811 32.1142 23.687L32.1466 23.6936L32.2641 23.7172C32.3038 23.7249 32.3436 23.7333 32.3748 23.7418L32.5761 23.7925L33.3818 23.9971L34.9942 24.4055L41.4461 26.0288L43.0575 26.4397L43.8633 26.646L44.2657 26.7492L44.3664 26.7754L44.3795 26.7788L44.3872 26.781C44.4013 26.7851 44.4164 26.7898 44.4317 26.7945L44.4318 26.7945L44.432 26.7946L44.4665 26.8052L44.483 26.81L44.4937 26.8135C44.5076 26.818 44.5214 26.8223 44.5353 26.8266L44.5494 26.8309C44.6071 26.8487 44.6648 26.8664 44.7198 26.892C45.0301 27.0163 45.3184 27.199 45.5619 27.4298C45.8045 27.6606 46.0041 27.9362 46.1461 28.2389C46.2881 28.5416 46.3727 28.8713 46.3938 29.2061L46.4014 29.3313L46.3981 29.4572L46.3938 29.5832C46.3926 29.6122 46.3886 29.6412 46.3845 29.6702C46.3827 29.6826 46.381 29.6951 46.3795 29.7075L46.375 29.7402L46.3719 29.7639L46.3718 29.7639L46.3718 29.764C46.3634 29.8282 46.355 29.8923 46.338 29.9544L46.3084 30.0761L46.3037 30.0951C46.2952 30.1295 46.2867 30.1636 46.2788 30.1886C45.7836 31.8583 45.2669 33.5213 44.7501 35.1844L44.75 35.185L44.7498 35.1855L44.7496 35.1861L44.7495 35.1867L44.7493 35.1872L44.7491 35.1878L44.7489 35.1884L44.7488 35.1889L44.7486 35.1895L44.7484 35.19L44.7483 35.1906C44.6076 35.6434 44.4669 36.0962 44.3266 36.5492L44.3266 36.5494C43.662 38.6656 42.9975 40.7817 42.2983 42.8878C42.2611 42.9985 42.1419 43.0586 42.0311 43.0222C41.9271 42.9875 41.868 42.8759 41.8942 42.7694C42.4217 40.699 42.9822 38.6373 43.5424 36.5766L43.6071 36.3386C43.718 35.937 43.8285 35.5354 43.939 35.1337L43.9394 35.1323L43.9398 35.1308L43.9402 35.1294L43.9406 35.128L43.941 35.1265L43.9414 35.1251L43.9418 35.1236L43.9422 35.1222L43.9426 35.1207C44.4194 33.3882 44.8961 31.656 45.3962 29.9299C45.4036 29.9057 45.4084 29.8859 45.4128 29.8674L45.4128 29.8671L45.4129 29.8669L45.4129 29.8668C45.4149 29.8583 45.4169 29.8501 45.419 29.8419L45.4384 29.7616C45.4502 29.7227 45.4547 29.683 45.4592 29.6429V29.6429L45.4613 29.6248C45.4623 29.616 45.4634 29.6072 45.4646 29.5984C45.4657 29.5873 45.4674 29.5762 45.4692 29.565C45.4717 29.549 45.4743 29.5329 45.4748 29.5164L45.4765 29.4344L45.479 29.3524L45.4723 29.2704C45.457 29.0523 45.4004 28.8358 45.3065 28.6371C45.2135 28.4376 45.0842 28.2558 44.9252 28.1036C44.7663 27.9514 44.5786 27.8314 44.3748 27.7494C44.3428 27.7328 44.3084 27.7224 44.2739 27.712C44.2556 27.7064 44.2372 27.7009 44.2192 27.6944C44.2075 27.6909 44.197 27.6873 44.1863 27.6837L44.1862 27.6837C44.1769 27.6805 44.1675 27.6773 44.157 27.6741C44.1508 27.6721 44.1443 27.6702 44.1372 27.6682L44.0366 27.642L43.6342 27.5371L42.8293 27.3266L41.2212 26.903L34.7929 25.1892L33.1848 24.7631L32.3808 24.5501L32.1795 24.4968C32.1497 24.4883 32.1253 24.4833 32.1012 24.4785L32.0874 24.4756L32.0011 24.4579C31.9916 24.4559 31.982 24.4538 31.9724 24.4516C31.9532 24.4473 31.9341 24.443 31.9149 24.4401L31.8278 24.4308L31.8147 24.4296L31.7963 24.4276L31.7768 24.4254C31.7355 24.4206 31.6941 24.4158 31.6528 24.4182C31.4186 24.408 31.1827 24.4435 30.9595 24.5145C30.7355 24.5856 30.5232 24.6929 30.333 24.8324C30.1428 24.9719 29.9796 25.1461 29.8468 25.3397C29.715 25.5333 29.6084 25.7473 29.5501 25.9772L27.9335 32.4215L24.8514 44.7735L26.9663 44.6853L39.3535 44.2L45.5475 43.9709L51.2064 43.7708L50.0964 22.3076C49.9474 22.3761 49.7971 22.4416 49.6455 22.504C48.2344 23.0874 46.7143 23.4011 45.1898 23.4214C44.4281 23.4323 43.6637 23.3706 42.9138 23.2328C42.163 23.095 41.4266 22.8794 40.7189 22.5945C39.3019 22.0238 38.0125 21.1504 36.9438 20.0639C36.4078 19.522 35.9276 18.9251 35.5099 18.2876C35.0931 17.6492 34.7388 16.9711 34.448 16.266C34.2185 15.708 34.0325 15.1322 33.8902 14.5457C33.6128 14.5877 33.3348 14.6167 33.0563 14.6435C32.6429 14.679 32.2294 14.7001 31.8151 14.7103C31.4009 14.7196 30.9857 14.7179 30.5706 14.6959C30.1546 14.6739 29.7386 14.6384 29.321 14.5606C29.2271 14.5429 29.1645 14.4524 29.1823 14.3586C29.195 14.2909 29.2449 14.2402 29.3066 14.2233C29.7166 14.11 30.1284 14.039 30.5401 13.9815C30.9527 13.924 31.3653 13.8868 31.7788 13.8606C32.1922 13.8352 32.6065 13.8208 33.0208 13.8208C33.2607 13.8228 33.5006 13.827 33.7409 13.8397C33.6196 13.1692 33.554 12.4886 33.5441 11.8078C33.526 10.8168 33.6311 9.82144 33.8558 8.8525L0.916656 9.42562L1.10799 13.328L1.3126 17.6907L1.70152 26.4178L2.06508 35.1457L2.08994 35.7496C2.20167 38.4577 2.31341 41.1661 2.28744 43.8804C2.2866 43.9776 2.20712 44.0554 2.10989 44.0546C2.01858 44.0554 1.94502 43.9861 1.93572 43.8982C1.64931 41.1836 1.50283 38.4631 1.35633 35.7422L1.32613 35.1821L0.857728 26.4592L0.413849 17.7346L0.202477 13.3719L0.000406664 9.00839V9.00669C-0.0105846 8.76066 0.179649 8.55182 0.425685 8.54083C0.429913 8.54083 0.435831 8.54083 0.440059 8.53999L34.0602 8.08644C34.1387 7.82676 34.226 7.56965 34.322 7.31572C34.3686 7.18086 34.4246 7.04929 34.4806 6.91785C34.4997 6.87295 34.5189 6.82806 34.5376 6.78306C34.59 6.65199 34.6517 6.5246 34.7133 6.39716L34.7134 6.397C34.7353 6.35186 34.7571 6.30672 34.7785 6.2614C34.9485 5.91813 35.1379 5.58416 35.3416 5.2595C35.7492 4.61017 36.2218 4.00142 36.7502 3.44593C37.2795 2.8913 37.8629 2.3857 38.4961 1.95281C39.1294 1.51907 39.8066 1.15129 40.5143 0.857905C41.9297 0.267757 43.4642 -0.0146352 44.9869 0.000583503C46.5063 0.0132658 48.0298 0.313413 49.4316 0.910325C50.1317 1.20878 50.8005 1.58079 51.4236 2.01622L51.6544 2.18362L51.6983 2.2153L51.6983 2.21532C51.7608 2.26024 51.8231 2.30511 51.8827 2.35441L52.1059 2.53112L52.2175 2.61989L52.3257 2.7129C52.3725 2.75388 52.42 2.79404 52.4675 2.83418L52.4676 2.83423L52.4676 2.83425C52.5651 2.91668 52.6626 2.99905 52.7535 3.08829C52.7933 3.12582 52.8335 3.16293 52.8737 3.20005L52.8738 3.20009C52.9731 3.29178 53.0726 3.38361 53.1653 3.48229C54.2391 4.56028 55.0922 5.85387 55.6941 7.2523C55.9951 7.95152 56.2378 8.67695 56.4153 9.41759C56.5929 10.1591 56.7104 10.9124 56.773 11.6708ZM55.6789 11.7453C55.6383 11.0393 55.547 10.3376 55.4007 9.64681C55.2553 8.95605 55.06 8.27543 54.8047 7.61765C54.2965 6.30123 53.5533 5.07274 52.5937 4.03195C52.3561 3.76985 52.1 3.52466 51.8336 3.29215C51.5656 3.06133 51.2824 2.84742 50.9898 2.64873C50.4039 2.2522 49.7783 1.91739 49.1239 1.65106C47.815 1.11925 46.3997 0.863916 44.9852 0.874062C43.5732 0.882517 42.1689 1.1666 40.8821 1.72462C39.5944 2.28095 38.4293 3.10699 37.4714 4.12833C36.992 4.63901 36.565 5.19787 36.1964 5.79394C36.0121 6.09155 35.8413 6.39846 35.6883 6.71298C35.6686 6.75376 35.6487 6.79432 35.6287 6.83486L35.6287 6.83491L35.6287 6.83494C35.5713 6.95153 35.514 7.06793 35.465 7.18899C35.4483 7.2284 35.4313 7.26766 35.4143 7.3069L35.4142 7.30716L35.4141 7.30747C35.3615 7.42884 35.3089 7.55007 35.2655 7.67514C34.7616 8.9848 34.519 10.3917 34.513 11.8011C34.5097 13.2105 34.7625 14.6216 35.2748 15.9364C35.7838 17.2519 36.5667 18.4593 37.55 19.4697C38.535 20.4783 39.7331 21.2748 41.0393 21.7981C42.3465 22.324 43.7635 22.5591 45.1721 22.5235C46.5815 22.4889 47.9816 22.1794 49.276 21.6256C50.5705 21.0727 51.7609 20.2762 52.7544 19.287C53.7478 18.2987 54.5443 17.1158 55.0473 15.8205C55.5529 14.5261 55.7601 13.1294 55.6789 11.7453ZM45.5864 45.0269L47.9386 44.9434C47.9377 45.1108 47.9373 45.2782 47.9385 45.4454C47.9385 45.7861 47.9411 46.1269 47.9461 46.4676C47.9495 46.8083 47.9529 47.1491 47.9622 47.4889C47.9665 47.6806 47.9729 47.8726 47.9817 48.0643L5.98395 48.752L5.8348 46.207C6.6943 46.2018 7.55293 46.1858 8.41215 46.164L14.6087 45.9907L27.001 45.6289L39.3915 45.2365L45.5864 45.0269ZM46.0069 48.9376L8.66084 49.4753L8.72433 51.6314L45.9096 51.8799L46.0069 48.9376ZM10.3114 24.2415L10.311 24.2416L10.3109 24.2416C9.1386 24.3143 7.9665 24.3869 6.79556 24.4867C6.66535 24.4985 6.56305 24.6076 6.56305 24.7403C6.56305 24.8807 6.67719 24.994 6.81754 24.994C7.9919 24.9919 9.1651 24.9628 10.3386 24.9337L10.3387 24.9337C10.5888 24.9275 10.8388 24.9213 11.0889 24.9153L13.2238 24.8638C13.8079 24.8492 14.3921 24.8295 14.9757 24.8098L14.9762 24.8098L15.3586 24.797C16.7807 24.7395 18.2028 24.6617 19.6232 24.567C21.0445 24.4706 22.4649 24.3641 23.8828 24.2102C23.9868 24.1992 24.0688 24.1113 24.0713 24.0039C24.0739 23.8864 23.9809 23.79 23.8642 23.7875C22.4379 23.7579 21.0141 23.7748 19.5903 23.8018C18.1665 23.8306 16.7435 23.8771 15.3214 23.943L14.9352 23.9636L14.9352 23.9636L14.9351 23.9636L14.935 23.9636L14.9349 23.9636L14.9348 23.9636L14.9347 23.9636L14.9346 23.9636L14.9346 23.9636L14.9345 23.9636L14.9344 23.9636C14.3524 23.9945 13.7705 24.0254 13.1891 24.0614L11.0576 24.195C10.8089 24.2107 10.5601 24.2261 10.3114 24.2415ZM7.20306 27.8204C8.19312 27.6522 9.18657 27.5482 10.1809 27.4603C11.1751 27.3732 12.172 27.3199 13.1688 27.2734C14.1656 27.2269 15.1633 27.1939 16.1618 27.1736C17.1603 27.1567 18.1588 27.1466 19.1599 27.1745C19.2537 27.177 19.3273 27.2548 19.3248 27.3487C19.3222 27.4324 19.2597 27.5008 19.1793 27.5118C18.1884 27.6539 17.195 27.7587 16.2007 27.8568C15.2064 27.9515 14.2121 28.0335 13.2161 28.1011C12.221 28.1696 11.225 28.2305 10.2265 28.2584C9.22884 28.2854 8.22948 28.2964 7.22758 28.2423C7.11006 28.2364 7.02043 28.1358 7.02635 28.0183C7.03143 27.9177 7.10752 27.8373 7.20306 27.8204ZM15.7104 31.9235C16.637 31.8364 17.5628 31.7451 18.4878 31.631C18.5935 31.6175 18.6755 31.5261 18.6687 31.4188C18.667 31.3021 18.5706 31.2082 18.454 31.2099C17.5222 31.2226 16.5922 31.2581 15.663 31.2987C15.3004 31.3146 14.9374 31.334 14.5746 31.3535L14.2696 31.3697L12.8771 31.4543L11.4846 31.5397C11.1869 31.5576 10.8895 31.5786 10.5921 31.5996L10.5906 31.5997L10.5891 31.5998L10.5877 31.5999C10.4228 31.6116 10.2579 31.6233 10.093 31.6344C9.16546 31.6969 8.23711 31.7671 7.31046 31.8449C7.13291 31.8601 6.99341 32.0106 6.99594 32.1915V32.1949L7.03737 35.5684V35.5752C7.04329 35.8026 7.23352 35.9827 7.46096 35.9759H7.47618C8.19761 35.9558 8.91827 35.9291 9.63894 35.9023L9.63912 35.9023C9.97834 35.8897 10.3176 35.8771 10.6569 35.8652C11.3126 35.8406 11.9681 35.8118 12.6236 35.783C13.0279 35.7653 13.4323 35.7475 13.8368 35.7307L13.8503 35.7302L13.8509 35.7301C14.9056 35.6847 15.9611 35.6392 17.0158 35.5862C18.0752 35.5363 19.1346 35.4822 20.194 35.4264L20.2058 35.4255L20.2134 35.4247C20.4096 35.4095 20.5558 35.2387 20.5406 35.0425L20.467 34.1066C20.4578 33.9931 20.4491 33.8797 20.4403 33.7662L20.4402 33.7658C20.4249 33.5674 20.4095 33.369 20.3918 33.1706C20.3774 33.0142 20.3614 32.8586 20.3419 32.7031C20.325 32.5475 20.3039 32.3919 20.281 32.2364C20.2345 31.9252 20.1821 31.6149 20.1069 31.3063C20.09 31.2378 20.0325 31.1846 19.9589 31.1761C19.8651 31.1651 19.7797 31.2336 19.7695 31.3275C19.7349 31.6437 19.723 31.9582 19.7171 32.2719V32.272C19.7154 32.4292 19.7137 32.5864 19.7171 32.7428C19.7188 32.9001 19.7222 33.0565 19.7281 33.2129C19.736 33.422 19.7469 33.6304 19.7578 33.8387C19.7632 33.9429 19.7687 34.0471 19.7738 34.1514L19.8027 34.7137C18.8634 34.7361 17.9248 34.7612 16.9862 34.7889C15.926 34.8168 14.8657 34.8514 13.8055 34.8878C13.452 34.8999 13.0985 34.9114 12.745 34.9228C12.0383 34.9458 11.3315 34.9687 10.6248 34.9969C10.2882 35.0108 9.95159 35.0241 9.61503 35.0374L9.61343 35.0374L9.61184 35.0375L9.61024 35.0375L9.60863 35.0376L9.60648 35.0377C9.02321 35.0607 8.44003 35.0837 7.85706 35.1102L7.69394 32.5016C8.51118 32.4568 9.32786 32.4062 10.1445 32.3496C10.3115 32.3381 10.4786 32.327 10.6458 32.316C10.9424 32.2964 11.2393 32.2768 11.5362 32.2541L12.9279 32.1484L14.3195 32.0427L14.6184 32.0178C14.9827 31.9876 15.3465 31.9574 15.7104 31.9235ZM10.7973 14.526C10.9224 14.7762 10.9926 15.0612 11.0019 15.3512C11.0103 15.6412 10.9596 15.9354 10.8539 16.2093C10.6451 16.7606 10.2198 17.2256 9.69137 17.5072C9.42673 17.6492 9.13589 17.7414 8.83236 17.7786C8.52968 17.8166 8.21431 17.7972 7.91585 17.7143C7.6174 17.6315 7.3367 17.4877 7.09404 17.3009C6.85223 17.1123 6.64594 16.8824 6.48698 16.6253C6.17331 16.1104 6.0169 15.5152 6.06001 14.9107C6.08284 14.6097 6.1564 14.3104 6.28407 14.0331C6.41005 13.7549 6.59521 13.5013 6.82095 13.2941C7.04585 13.0861 7.31218 12.9263 7.59288 12.8206L7.80594 12.7505C7.82786 12.7454 7.84962 12.7399 7.87135 12.7344C7.9217 12.7217 7.97184 12.7091 8.02323 12.7014C8.16865 12.6718 8.3183 12.6608 8.46795 12.6592C9.06656 12.6566 9.65671 12.9196 10.0279 13.3482C10.0955 13.426 10.0871 13.5444 10.0084 13.6112C9.94924 13.6627 9.86639 13.6695 9.80044 13.6357L9.79198 13.6315C9.68376 13.5748 9.57892 13.5224 9.4707 13.4784C9.36248 13.4353 9.25341 13.3998 9.14434 13.3719C8.92452 13.3186 8.703 13.2983 8.48402 13.3119C8.26673 13.3262 8.04437 13.3719 7.84483 13.4598C7.64445 13.5452 7.46436 13.6644 7.31471 13.8141C7.01541 14.1125 6.84293 14.5277 6.82264 14.9597C6.81081 15.1762 6.84124 15.3951 6.89789 15.6074C6.95454 15.8204 7.04078 16.0242 7.15492 16.2077C7.38235 16.5754 7.73069 16.8561 8.12892 16.9754C8.5246 17.0971 8.97355 17.0531 9.37009 16.8646C9.76324 16.6803 10.1107 16.3683 10.3246 15.9718C10.5402 15.5761 10.6163 15.1043 10.5208 14.6283L10.5199 14.6241C10.5039 14.5437 10.5563 14.4651 10.6366 14.449C10.7026 14.4338 10.7685 14.4676 10.7973 14.526ZM21.6094 14.5285C22.0372 14.4017 22.4675 14.3391 22.8979 14.2926C23.3291 14.247 23.7611 14.2351 24.1932 14.2301C24.6252 14.2258 25.0581 14.2326 25.4918 14.2546C25.7083 14.2656 25.9256 14.2791 26.142 14.3011C26.3593 14.3205 26.5757 14.345 26.7939 14.3806C26.8877 14.3958 26.952 14.4846 26.9359 14.5784C26.9241 14.6494 26.8717 14.7027 26.8057 14.7179C26.591 14.7695 26.3762 14.8092 26.1615 14.8447C25.9467 14.8828 25.7311 14.9115 25.5163 14.9386C25.086 14.9918 24.6548 15.0307 24.2236 15.0578C23.7924 15.0848 23.3604 15.1043 22.9275 15.0908C22.4946 15.0764 22.0609 15.046 21.6246 14.9504C21.5071 14.9251 21.4327 14.8084 21.458 14.6909C21.4758 14.6105 21.5358 14.5505 21.6094 14.5285ZM53.457 8.27366C53.8806 9.25104 54.1486 10.2961 54.2661 11.3571C54.4031 12.4208 54.3118 13.5283 54.0167 14.5717C54.0014 14.6204 53.9868 14.6695 53.9723 14.7185L53.9722 14.7187C53.9481 14.7997 53.924 14.8806 53.8967 14.9606L53.7572 15.3436L53.5965 15.7182C53.5614 15.7958 53.5234 15.872 53.4852 15.9484C53.4627 15.9935 53.4401 16.0387 53.4181 16.0842C53.1687 16.5662 52.8736 17.0253 52.5414 17.4531C52.2082 17.8817 51.8388 18.2817 51.4363 18.6452C51.033 19.0079 50.5993 19.3368 50.1419 19.6277C49.6845 19.9185 49.2025 20.1722 48.7029 20.3861C48.2023 20.5966 47.6832 20.764 47.1531 20.8883C46.0945 21.1394 44.992 21.207 43.9073 21.0853C42.8217 20.9678 41.758 20.638 40.7857 20.1367C39.8143 19.6327 38.9384 18.9462 38.2163 18.1269C37.4926 17.3085 36.9168 16.3633 36.516 15.3504C36.1161 14.3358 35.8963 13.2561 35.8456 12.1713C35.8033 11.0866 35.9343 9.99507 36.2413 8.95259C36.5516 7.91179 37.0369 6.92342 37.6777 6.04666C38.3169 5.16904 39.1201 4.41233 40.0273 3.82049C40.4814 3.52373 40.9641 3.27347 41.4647 3.06801C41.9652 2.86171 42.4852 2.70445 43.0136 2.59623C43.542 2.48886 44.0797 2.4246 44.6166 2.41361C44.667 2.41361 44.7175 2.41325 44.7679 2.41289H44.7679C44.8519 2.4123 44.9359 2.41171 45.0199 2.41276C45.0535 2.41404 45.0871 2.41515 45.1207 2.41627L45.1208 2.41627C45.221 2.41959 45.3215 2.42292 45.4215 2.43052C45.6887 2.44574 45.9559 2.47533 46.2205 2.51422C46.486 2.55142 46.7481 2.60553 47.0094 2.66556C47.2698 2.72813 47.5259 2.80591 47.7796 2.89046C48.0324 2.97755 48.2801 3.07647 48.5245 3.18384C48.768 3.29291 49.0047 3.41635 49.2364 3.54656C49.3175 3.59221 49.3463 3.69536 49.3006 3.77653C49.2566 3.85516 49.1594 3.88475 49.0791 3.84586L49.0783 3.84501C47.241 2.94457 45.1036 2.74419 43.1455 3.19314C41.184 3.64717 39.4237 4.84099 38.2679 6.47447C37.6887 7.28952 37.2558 8.20602 36.9844 9.16734C36.7139 10.1303 36.6141 11.1365 36.6581 12.135C36.7088 13.1327 36.9143 14.121 37.2821 15.0468C37.6524 15.971 38.18 16.8308 38.8403 17.5723C40.1575 19.0612 42.0278 20.0327 44.002 20.255C44.4949 20.3108 44.9937 20.3269 45.4917 20.3032C45.9897 20.2804 46.4843 20.206 46.9705 20.0978C47.4566 19.9879 47.9343 19.839 48.3985 19.6547C48.861 19.4662 49.3082 19.2404 49.7352 18.9792C51.4448 17.9443 52.7975 16.2998 53.3911 14.3874C53.687 13.4311 53.7918 12.4233 53.7047 11.4129C53.627 10.3984 53.4147 9.39224 53.063 8.43346V8.43261C53.0224 8.3227 53.0791 8.2018 53.189 8.16121C53.2964 8.12063 53.4131 8.1722 53.457 8.27366ZM45.1129 13.2037C45.4008 13.2037 45.6764 13.1221 45.911 12.9809C46.1865 13.2511 46.4694 13.5128 46.7591 13.7684C47.082 14.0542 47.4135 14.3307 47.7584 14.5928C48.1034 14.8549 48.4576 15.1068 48.8398 15.3275C48.8965 15.3596 48.9692 15.3588 49.0258 15.319C49.1036 15.2641 49.123 15.1567 49.0681 15.0781C48.8144 14.7162 48.5329 14.3856 48.2412 14.0652C47.9495 13.7448 47.6451 13.4395 47.3323 13.1419C47.0547 12.8771 46.7704 12.6197 46.4783 12.3702C46.5758 12.1704 46.6247 11.9455 46.6086 11.708C46.559 10.9838 46.1222 10.4235 45.4957 10.2606C45.4976 10.1625 45.4987 10.0644 45.4993 9.96631C45.5027 9.38969 45.474 8.81307 45.4427 8.2373C45.4114 7.66152 45.3666 7.08575 45.315 6.50997C45.2584 5.93504 45.1966 5.35927 45.1036 4.78518C45.0918 4.71078 45.0318 4.65075 44.9523 4.6423C44.8584 4.633 44.7747 4.70063 44.7654 4.79448C44.7063 5.37279 44.6784 5.95111 44.6555 6.52857C44.6378 7.10604 44.6268 7.6835 44.6293 8.26012C44.6319 8.83759 44.6369 9.41421 44.6741 9.98999C44.6802 10.0843 44.6868 10.1786 44.6941 10.2729C44.0849 10.4552 43.6629 11.0287 43.6629 11.708C43.6629 12.5341 44.2869 13.2037 45.1129 13.2037Z" fill="#070615"></path></svg>