<svg xmlns="http://www.w3.org/2000/svg" width="151" height="18" viewBox="0 0 151 18" fill="none"><path d="M9.328 9.544C9.328 8.088 8.448 7 7.04 6.552V6.536C8.368 5.928 9.04 4.968 9.04 3.656C9.04 2.776 8.688 1.992 7.968 1.336C7.248 0.664 6.272 0.327999 5.008 0.327999C2.976 0.327999 1.488 1.48 0.912 3.208L2.096 3.736C2.688 2.28 3.648 1.56 4.976 1.56C5.824 1.56 6.496 1.784 6.976 2.216C7.456 2.648 7.696 3.176 7.696 3.768C7.696 4.392 7.44 4.936 6.944 5.368C6.448 5.8 5.792 6.024 4.96 6.024H3.744V7.24H4.992C6.928 7.24 7.984 8.216 7.984 9.56C7.984 10.184 7.728 10.744 7.2 11.208C6.672 11.672 5.952 11.896 5.008 11.896C3.552 11.896 2.528 11.16 1.936 9.672L0.784 10.248C1.424 12.04 2.912 13.128 5.008 13.128C6.272 13.128 7.312 12.792 8.112 12.104C8.928 11.416 9.328 10.552 9.328 9.544ZM12.0409 13H15.7689C17.6409 13 19.2089 12.408 20.4729 11.24C21.7369 10.056 22.3769 8.552 22.3769 6.712C22.3769 4.936 21.7529 3.448 20.5209 2.264C19.2889 1.064 17.7049 0.471999 15.7689 0.471999H12.0409V13ZM13.3529 1.704H15.7049C17.3209 1.704 18.6009 2.184 19.5609 3.128C20.5369 4.072 21.0169 5.288 21.0169 6.744C21.0169 8.216 20.5209 9.416 19.5449 10.36C18.5689 11.304 17.3049 11.768 15.7209 11.768H13.3529V1.704ZM36.5191 10.76L36.4071 10.616C37.2551 9.512 37.8471 8.264 38.1831 6.872L36.9991 6.584C36.6951 7.784 36.2311 8.824 35.6071 9.704L32.9991 6.68L34.1511 5.976C35.3671 5.224 35.9431 4.52 35.9431 3.288C35.9431 2.472 35.6231 1.768 34.9671 1.208C34.3271 0.631999 33.5911 0.344 32.7591 0.344C31.8791 0.344 31.1271 0.631999 30.4711 1.208C29.8151 1.768 29.4951 2.488 29.4951 3.368C29.4951 4.088 29.7831 4.776 30.3751 5.448L31.2871 6.504C29.6391 7.528 28.5511 8.552 28.5511 10.04C28.5511 10.952 28.8871 11.704 29.5591 12.264C30.2471 12.824 31.0951 13.112 32.1031 13.112C33.3511 13.112 34.5191 12.584 35.6071 11.528L35.6551 11.592L36.8711 13H38.4551L36.5191 10.76ZM30.7431 3.368C30.7431 2.84 30.9351 2.408 31.3351 2.04C31.7351 1.672 32.2151 1.48 32.7431 1.48C33.2711 1.48 33.7191 1.656 34.1031 2.024C34.5031 2.392 34.6951 2.824 34.6951 3.352C34.6951 4.088 34.3271 4.68 33.5751 5.128L32.3111 5.896L32.1671 5.72L31.7191 5.224L31.2231 4.632C31.0151 4.36 30.7431 3.816 30.7431 3.368ZM32.1511 11.96C30.8231 11.96 29.8631 11.112 29.8631 9.896C29.8631 9.32 30.1031 8.808 30.5671 8.36C31.0631 7.912 31.3511 7.72 31.9911 7.336L34.8391 10.632C33.9751 11.512 33.0791 11.96 32.1511 11.96ZM56.377 4.136C56.025 3.096 55.369 2.2 54.393 1.464C53.433 0.712 52.233 0.344 50.793 0.344C49.001 0.344 47.497 0.967999 46.297 2.2C45.097 3.432 44.489 4.968 44.489 6.776C44.489 8.6 45.065 10.12 46.217 11.32C47.369 12.52 48.873 13.128 50.745 13.128C52.521 13.128 53.945 12.584 55.001 11.496C56.073 10.408 56.601 9.048 56.601 7.416V6.936H49.961V8.152H55.193C55.129 9.304 54.665 10.216 53.801 10.888C52.953 11.56 51.945 11.896 50.777 11.896C49.289 11.896 48.105 11.4 47.193 10.408C46.297 9.4 45.849 8.168 45.849 6.696C45.849 5.208 46.329 3.992 47.273 3.032C48.233 2.072 49.401 1.592 50.761 1.592C51.961 1.592 52.921 1.896 53.641 2.488C54.361 3.08 54.889 3.8 55.193 4.68L56.377 4.136ZM61.5358 8.072C60.6398 8.072 59.8558 8.28 59.1678 8.68C58.4958 9.08 58.1598 9.688 58.1598 10.536V10.632C58.1598 11.352 58.4158 11.96 58.9438 12.44C59.4718 12.904 60.1758 13.144 61.0238 13.144C62.2398 13.144 63.1998 12.6 63.9038 11.496H63.9198V13H65.1358V7.48C65.1358 6.952 65.0558 6.488 64.8798 6.072C64.3678 4.904 63.3278 4.312 61.7598 4.312C60.0638 4.312 58.8958 5.048 58.2558 6.52L59.2798 7.096C59.8078 5.976 60.6238 5.416 61.7278 5.416C63.1838 5.416 63.9038 6.104 63.9038 7.496V8.072H61.5358ZM63.9038 9.4C63.9038 10.184 63.6478 10.808 63.1518 11.304C62.6558 11.8 62.0158 12.04 61.2478 12.04C60.1758 12.04 59.4078 11.48 59.4078 10.536C59.4557 9.416 60.5438 9.08 61.5198 9.096H63.9038V9.4ZM74.9015 13V8.088C74.9015 7.336 75.1095 6.712 75.5415 6.216C75.9735 5.704 76.5495 5.448 77.2695 5.448C78.7575 5.448 79.4775 6.488 79.4775 8.024V13H80.7255V7.72C80.7255 5.672 79.5735 4.312 77.5735 4.312C76.3095 4.312 75.3015 4.872 74.5655 6.008C74.0375 4.872 73.1255 4.296 71.8295 4.296C70.6135 4.296 69.7975 4.84 69.0775 5.944V4.456H67.8455V13H69.0935V8.136C69.0935 7.4 69.3015 6.76 69.7335 6.232C70.1655 5.704 70.7415 5.432 71.4615 5.432C72.9335 5.432 73.6695 6.504 73.6695 7.992V13H74.9015ZM90.9913 9.112C91.0073 9.032 91.0073 8.888 91.0073 8.696C91.0073 7.4 90.6553 6.36 89.9513 5.544C89.2473 4.728 88.2553 4.312 86.9753 4.312C85.8073 4.312 84.8153 4.744 84.0153 5.624C83.2153 6.504 82.8153 7.528 82.8153 8.712C82.8153 9.944 83.2313 11 84.0633 11.864C84.8953 12.712 85.9193 13.144 87.1513 13.144C88.6873 13.144 90.0473 12.344 90.7673 10.936L89.8393 10.328C89.3433 11.352 88.3353 12.04 87.1353 12.04C86.3033 12.04 85.5993 11.768 85.0233 11.208C84.4473 10.648 84.1273 9.944 84.0793 9.112H90.9913ZM84.0953 8.056C84.2073 7.32 84.5273 6.696 85.0713 6.184C85.6153 5.656 86.2552 5.4 86.9753 5.4C88.5753 5.4 89.5673 6.456 89.7433 8.056H84.0953ZM97.9628 13H101.691C103.563 13 105.131 12.408 106.395 11.24C107.659 10.056 108.299 8.552 108.299 6.712C108.299 4.936 107.675 3.448 106.443 2.264C105.211 1.064 103.627 0.471999 101.691 0.471999H97.9628V13ZM99.2748 1.704H101.627C103.243 1.704 104.523 2.184 105.483 3.128C106.459 4.072 106.939 5.288 106.939 6.744C106.939 8.216 106.443 9.416 105.467 10.36C104.491 11.304 103.227 11.768 101.643 11.768H99.2748V1.704ZM118.116 9.112C118.132 9.032 118.132 8.888 118.132 8.696C118.132 7.4 117.78 6.36 117.076 5.544C116.372 4.728 115.38 4.312 114.1 4.312C112.932 4.312 111.94 4.744 111.14 5.624C110.34 6.504 109.94 7.528 109.94 8.712C109.94 9.944 110.356 11 111.188 11.864C112.02 12.712 113.044 13.144 114.276 13.144C115.812 13.144 117.172 12.344 117.892 10.936L116.964 10.328C116.468 11.352 115.46 12.04 114.26 12.04C113.428 12.04 112.724 11.768 112.148 11.208C111.572 10.648 111.252 9.944 111.204 9.112H118.116ZM111.22 8.056C111.332 7.32 111.652 6.696 112.196 6.184C112.74 5.656 113.38 5.4 114.1 5.4C115.7 5.4 116.692 6.456 116.868 8.056H111.22ZM125.947 10.568C125.947 10.04 125.739 9.56 125.339 9.16C124.875 8.68 124.123 8.328 123.099 8.104C121.515 7.768 121.099 7.464 121.099 6.76C121.099 6.392 121.275 6.088 121.611 5.816C121.947 5.544 122.363 5.416 122.827 5.416C123.707 5.416 124.379 5.896 124.827 6.856L125.851 6.296C125.275 4.968 124.267 4.312 122.827 4.312C122.059 4.312 121.371 4.552 120.763 5.032C120.155 5.512 119.851 6.12 119.851 6.856C119.851 7.352 120.011 7.768 120.315 8.136C120.779 8.664 121.371 8.936 122.539 9.192C124.091 9.56 124.683 9.928 124.683 10.648C124.683 11.496 123.835 12.04 122.859 12.04C121.851 12.04 121.083 11.48 120.555 10.376L119.531 10.936C120.187 12.408 121.307 13.144 122.875 13.144C123.755 13.144 124.491 12.904 125.067 12.424C125.659 11.928 125.947 11.32 125.947 10.568ZM127.87 1.4C127.87 1.912 128.286 2.328 128.798 2.328C129.326 2.328 129.742 1.912 129.742 1.4C129.742 0.872 129.326 0.455999 128.798 0.455999C128.286 0.455999 127.87 0.872 127.87 1.4ZM129.438 4.456H128.174V13H129.438V4.456ZM138.956 13.08C138.956 15.176 137.692 16.184 135.9 16.184C134.956 16.184 134.204 15.896 133.708 15.384C133.212 14.872 132.972 14.52 132.7 13.928L131.692 14.52C132.508 16.36 133.916 17.272 135.916 17.272C138.556 17.272 140.204 15.736 140.204 13.032V4.456H138.972V6.248C138.108 4.952 137.004 4.312 135.644 4.312C134.476 4.312 133.516 4.744 132.764 5.624C132.012 6.504 131.644 7.512 131.644 8.68C131.644 9.88 132.012 10.92 132.748 11.768C133.484 12.616 134.444 13.032 135.644 13.032C137.068 13.032 138.172 12.392 138.956 11.096V13.08ZM135.9 11.944C134.988 11.944 134.268 11.64 133.724 11.016C133.196 10.392 132.924 9.624 132.924 8.712C132.924 7.768 133.196 6.984 133.724 6.36C134.252 5.736 134.988 5.416 135.9 5.416C136.764 5.416 137.484 5.736 138.076 6.392C138.668 7.048 138.972 7.8 138.972 8.664C138.972 9.56 138.684 10.328 138.092 10.984C137.516 11.624 136.78 11.944 135.9 11.944ZM150.425 13V7.72C150.425 5.672 149.241 4.296 147.193 4.296C145.897 4.296 144.921 4.872 144.249 6.024V4.456H143.017V13H144.265V8.136C144.265 7.368 144.505 6.728 144.985 6.216C145.465 5.688 146.073 5.432 146.809 5.432C148.345 5.432 149.177 6.44 149.177 8.024V13H150.425Z" fill="#101B3E"></path></svg>