<svg xmlns="http://www.w3.org/2000/svg" width="51" height="51" viewBox="0 0 51 51" fill="none"><path fill-rule="evenodd" clip-rule="evenodd" d="M1.80356 17.2254L0.708256 19.2299L4.43322 26.0495L6.46382 26.1497L1.80356 17.2254ZM22.0231 2.77677L17.3778 1.95317L8.75946 5.87271L12.7607 6.82167C12.7742 6.81393 12.7882 6.80686 12.8026 6.8006L22.0231 2.77677ZM22.5023 3.30224L13.356 7.5404L11.765 12.2965L20.9623 8.5092C21.1907 7.54765 21.4627 6.59935 21.7481 5.65393C21.9028 5.14443 22.06 4.63665 22.2255 4.13044C22.3149 3.85372 22.4075 3.57765 22.5023 3.30224ZM25.4603 12.5739L26.797 11.9673C26.9288 11.9062 27.0606 11.8452 27.1925 11.7842C27.3672 11.7033 27.5419 11.6225 27.7165 11.5413L23.1114 3.52175C23.0416 3.79214 22.9697 4.06204 22.8955 4.33136C22.7547 4.84498 22.6066 5.35613 22.4559 5.86645C22.1735 6.81467 21.877 7.75918 21.5378 8.69102C21.7044 8.97664 21.8626 9.26686 22.0164 9.5589C22.1802 9.86839 22.3391 10.1803 22.4938 10.4948C22.6502 10.8084 22.8 11.1253 22.9457 11.4446C23.0889 11.7656 23.2297 12.0875 23.3539 12.4192C23.386 12.5056 23.3424 12.6011 23.256 12.6331C23.1852 12.6595 23.1087 12.6348 23.065 12.5781C22.851 12.2957 22.6543 12.0052 22.4601 11.7121C22.2683 11.4183 22.0798 11.122 21.8995 10.8223C21.7168 10.5236 21.5382 10.2222 21.3637 9.9186C21.2449 9.71101 21.129 9.5017 21.0155 9.29098L11.6642 13.2243L16.0496 21.4683L17.123 16.3882L17.1247 16.38C17.1551 16.2376 17.2556 16.1256 17.3807 16.0738C17.6847 15.9507 17.9872 15.824 18.2897 15.6973L18.2898 15.6973L18.29 15.6972L18.2901 15.6971L18.2903 15.697C18.4389 15.6348 18.5875 15.5725 18.7363 15.5107L20.087 14.9362C20.6957 14.6756 21.3024 14.4113 21.9091 14.1469L21.9098 14.1466C22.1997 14.0203 22.4895 13.8941 22.7794 13.7683C23.0843 13.6324 23.3893 13.4972 23.6943 13.362L23.6952 13.3616L23.6953 13.3616L23.6954 13.3616L23.6954 13.3615L23.6955 13.3615C24.2845 13.1005 24.8733 12.8395 25.4603 12.5739ZM16.7341 21.9061L25.7105 17.8557L27.5985 12.466L27.5411 12.4905C27.3973 12.5519 27.2536 12.6133 27.1097 12.6742L25.7631 13.2587C25.188 13.5088 24.615 13.7636 24.0419 14.0184C23.7211 14.1611 23.4002 14.3038 23.079 14.4456C22.7967 14.5736 22.5142 14.7012 22.2319 14.8288L22.231 14.8292L22.2301 14.8296L22.2292 14.83C21.6209 15.1048 21.0129 15.3795 20.4064 15.658L19.0738 16.2737C18.9432 16.3354 18.8125 16.397 18.6818 16.4586C18.4386 16.5731 18.1954 16.6877 17.9529 16.8037L16.7341 21.9061ZM32.9481 47.8053L30.0738 45.6421L24.3367 41.3018L18.6129 36.9444C18.1894 36.6194 17.7642 36.2966 17.3391 35.9738C16.0026 34.9592 14.6661 33.9446 13.3829 32.8596C13.5557 33.9148 13.6652 34.9762 13.7748 36.0376L13.7748 36.0377L13.7749 36.038L13.7749 36.0383L13.7749 36.0386L13.775 36.0389C13.8033 36.3133 13.8316 36.5877 13.8611 36.8621L14.3368 41.4221L14.7945 45.9837L15.0159 48.2654L15.194 50.1581L17.4539 50.0556L20.1043 49.9437L25.4059 49.7345L30.7084 49.5428L33.3596 49.4531L35.0755 49.4004L32.9481 47.8053ZM39.4728 5.48201L50.8003 38.4293C50.8669 38.6234 50.764 38.8351 50.5699 38.9017L50.5666 38.9025C49.8493 39.1525 49.1306 39.3954 48.4113 39.6385L48.2314 39.6993C47.4528 39.9635 46.6733 40.2269 45.8922 40.4853L43.5496 41.2591L41.2038 42.0246C39.6399 42.5341 38.0727 43.0345 36.5055 43.535C34.9391 44.0363 33.3653 44.5161 31.752 44.8775C31.6632 44.8972 31.5743 44.8412 31.5544 44.7523C31.5371 44.6742 31.5792 44.596 31.65 44.5647C33.162 43.8979 34.7135 43.3489 36.2717 42.8222L36.6888 42.6809C38.1078 42.2003 39.5265 41.7199 40.9485 41.2476L43.2903 40.4706L45.6345 39.7018C46.4122 39.4468 47.1924 39.1977 47.9726 38.9486L47.9829 38.9453C48.6465 38.7327 49.3099 38.521 49.9749 38.3129L38.6986 6.25696L27.5802 9.71845L28.6177 11.461C28.6378 11.4858 28.6561 11.5124 28.6703 11.5424C28.7006 11.606 28.7109 11.673 28.7073 11.7384C28.7071 11.7467 28.7064 11.7548 28.7057 11.763C28.7043 11.7746 28.7027 11.7859 28.7004 11.7972C28.6935 11.8366 28.6818 11.8749 28.6638 11.9108L26.2842 18.2096C26.2831 18.2125 26.2817 18.2151 26.2802 18.2176C26.2791 18.2197 26.278 18.2218 26.277 18.224C26.2466 18.2973 26.1907 18.3601 26.1138 18.3965L17.4429 22.47L17.5005 22.609L17.5005 22.609L17.5006 22.609L17.5006 22.609L17.5006 22.609C17.5898 22.8241 17.679 23.0393 17.7667 23.2553L18.2317 24.3969L19.1454 26.6868C19.7487 28.2153 20.3438 29.748 20.9299 31.2831L21.8073 33.5869L22.2427 34.7401L22.6732 35.8949L23.5309 38.2062C23.6218 38.4572 23.7132 38.708 23.8046 38.9588C23.9795 39.4383 24.1542 39.9176 24.3252 40.3984L24.7688 40.7322L30.5034 45.0758L33.3653 47.2546L36.2232 49.4391C36.368 49.5493 36.3952 49.7568 36.2849 49.9017C36.224 49.9815 36.1343 50.0252 36.0421 50.0309H36.0388L33.3891 50.1708L30.7396 50.3034L25.4397 50.5552L20.1389 50.789L17.4885 50.8985L14.8372 50.9997H14.8364C14.6175 51.0079 14.4314 50.8424 14.4109 50.6277L14.1911 48.346L13.9779 46.0636L13.5664 41.4978L13.1729 36.9304C13.15 36.6547 13.1259 36.3791 13.1019 36.1035L13.1018 36.103C12.993 34.8563 12.8842 33.6094 12.8774 32.3531C12.877 32.301 12.8966 32.2538 12.9281 32.2174C12.9308 32.2138 12.9329 32.21 12.9359 32.2065C13.0042 32.1275 13.1202 32.1135 13.205 32.1695C14.7595 33.1913 16.2404 34.3098 17.7216 35.4284C18.1541 35.7551 18.5867 36.0818 19.0211 36.4061L23.2965 39.6241L23.1389 39.229C23.0382 38.9764 22.9375 38.7237 22.8362 38.4712L21.9349 36.1764L21.4855 35.0282L21.0418 33.8783L20.1603 31.5761C19.5742 30.0402 18.9972 28.5018 18.4276 26.9601L17.5823 24.6438L17.1674 23.4825C17.0773 23.2305 16.9881 22.9779 16.8996 22.7252L16.36 22.9788C16.2724 23.0199 16.1781 23.0255 16.0908 23.0043L7.22187 26.7889C7.19668 26.7996 7.171 26.8075 7.14524 26.8128C7.10573 26.8283 7.06268 26.8366 7.01774 26.8357L4.19531 26.779C4.06032 26.7766 3.94344 26.7 3.8841 26.5881L3.88253 26.5847L0.0443942 19.3867L0.03534 19.3694C-0.019808 19.2666 -0.00828455 19.1456 0.0550945 19.0558L1.63891 16.8093C1.64468 16.696 1.70731 16.5886 1.81572 16.5322C1.8223 16.5289 1.82889 16.5256 1.83465 16.5231L1.83876 16.5215C2.51124 16.226 3.18701 15.9371 3.86525 15.6547L4.88261 15.2309L5.90326 14.816L6.92391 14.4012L7.0734 14.3417C7.365 14.2256 7.65635 14.1096 7.9495 13.9979C8.63514 13.7328 9.3249 13.4793 10.0229 13.2439C10.1307 13.2077 10.2476 13.2653 10.2838 13.3739C10.3167 13.4727 10.2715 13.5789 10.1809 13.6242C9.52245 13.9542 8.85656 14.2662 8.18573 14.5666C7.92889 14.6834 7.67109 14.7957 7.41307 14.9082L7.41295 14.9083L7.41278 14.9084L7.17742 15.0111L6.16418 15.444L5.15094 15.877L4.13358 16.3009C3.56827 16.5372 3 16.7678 2.43008 16.9949L7.2487 25.8905L15.6505 22.4698L10.7267 13.2134L10.7258 13.2118C10.6713 13.1091 10.6654 12.994 10.6989 12.8916L12.4417 7.43647L7.40625 6.39639C7.19644 6.35277 7.05964 6.15596 7.08417 5.94706C7.0724 5.89413 7.07231 5.83808 7.08853 5.78326L7.81862 3.31642C7.85237 3.20283 7.93303 3.11723 8.03428 3.07278L8.04333 3.06866L15.1245 0.0338732L15.1492 0.0231728C15.2447 -0.0179825 15.3509 -0.00234347 15.4291 0.0544508L16.2924 0.680834C16.4036 0.761416 16.4275 0.916242 16.3476 1.02654C16.2752 1.12687 16.141 1.15659 16.034 1.10144L15.249 0.699354L8.53505 3.74789L7.94793 5.34809L17.2004 1.30969L17.207 1.30722C17.2687 1.28005 17.3345 1.27421 17.3963 1.28746L22.8515 2.4152L22.8839 2.40112L22.8847 2.4003C23.0403 2.33281 23.2189 2.39289 23.3029 2.53447L27.2293 9.12894L38.8538 5.17417C39.109 5.08774 39.3855 5.22347 39.472 5.47871L39.4728 5.48201ZM23.0169 43.66C23.1728 43.7802 23.3287 43.9005 23.4848 44.0206L23.9696 44.4008L24.0262 44.4466C24.167 44.5605 24.3075 44.6741 24.4462 44.791C24.7614 45.0544 25.0717 45.3252 25.3697 45.6133C25.4355 45.6775 25.4372 45.782 25.373 45.8479C25.3219 45.9038 25.2405 45.9145 25.1763 45.8791C24.8124 45.6816 24.4618 45.466 24.1161 45.2437C23.9743 45.1537 23.8347 45.0608 23.695 44.968L23.6008 44.9054L23.0938 44.5564C22.9259 44.4385 22.758 44.3208 22.59 44.2031C22.0859 43.8498 21.5818 43.4965 21.0805 43.139L20.0779 42.4246L19.0787 41.7052C18.7462 41.4656 18.4153 41.2228 18.0852 40.9792L17.8373 40.7969L18.3512 46.1638C19.6254 46.1349 20.9002 46.1382 22.1744 46.1565C22.8617 46.1672 23.5482 46.1787 24.2354 46.2076C24.9227 46.2364 25.6092 46.2701 26.2965 46.3343C26.387 46.3425 26.4545 46.4232 26.4455 46.5146C26.4381 46.5952 26.3739 46.657 26.2965 46.6636C25.6092 46.7278 24.9227 46.7615 24.2354 46.7903C23.5808 46.8178 22.9269 46.8288 22.2723 46.8398L22.2718 46.8398L22.1744 46.8414C20.8006 46.8611 19.426 46.8652 18.0523 46.8282H18.0473C17.8794 46.8241 17.7444 46.6965 17.7247 46.5343L16.9296 39.9585C16.9024 39.7338 17.0621 39.5305 17.2868 39.5034C17.3922 39.4902 17.4934 39.519 17.5732 39.5766L17.5823 39.5832C17.9051 39.8143 18.2255 40.0501 18.5451 40.2852L18.5766 40.3084C18.9075 40.5512 19.2384 40.794 19.566 41.0401L20.5504 41.7784L21.5315 42.5217C22.0289 42.8983 22.5229 43.2792 23.0169 43.66ZM46.1407 21.6445C46.1449 21.684 46.1564 21.7243 46.177 21.7622L47.8931 24.9386L47.8949 24.941C47.9286 25.0036 47.9838 25.0546 48.0554 25.081C48.2108 25.1394 48.3846 25.0604 48.4431 24.904L49.7007 21.5326C49.7147 21.4963 49.7222 21.4552 49.7189 21.4132L49.718 21.405C49.6068 19.9217 49.4834 18.4401 49.3566 16.9586C49.2299 15.477 49.0982 13.9962 48.9632 12.5154L48.5475 8.07396C48.5234 7.82976 48.5001 7.58546 48.4768 7.34117C48.4296 6.84522 48.3824 6.34926 48.3277 5.85405C48.243 5.1149 48.141 4.3774 47.9878 3.64483C47.9746 3.58475 47.9228 3.53865 47.857 3.53865C47.7828 3.53701 47.7203 3.59545 47.7178 3.67035C47.6964 4.41855 47.7261 5.16182 47.7721 5.90426C47.804 6.38299 47.8434 6.86104 47.8829 7.33929L47.8829 7.33952L47.883 7.34116C47.9047 7.60315 47.9263 7.86521 47.9466 8.12746L48.3196 12.5722C48.4472 14.0538 48.5788 15.5346 48.7154 17.0154C48.834 18.3074 48.9572 19.5997 49.0869 20.8913C49.033 20.8753 48.9787 20.8611 48.9237 20.8494C48.7162 20.8058 48.5039 20.7868 48.2948 20.8033C48.0874 20.8206 47.8816 20.856 47.6906 20.9284C47.6222 20.948 47.5581 20.9776 47.4942 21.0072C47.4667 21.0199 47.4393 21.0326 47.4116 21.0445C47.3549 21.0726 47.3005 21.1043 47.2462 21.1359L47.2462 21.1359L47.246 21.1361L47.2459 21.1361C47.2145 21.1544 47.1832 21.1727 47.1515 21.1901C47.0816 21.2288 47.0494 21.3136 47.0775 21.3902C47.1088 21.4749 47.2034 21.5186 47.2882 21.4873L47.3087 21.4799C47.3392 21.4686 47.3693 21.4565 47.3992 21.4445L47.3993 21.4444C47.4501 21.424 47.5006 21.4037 47.5524 21.3877C47.5805 21.3807 47.6084 21.3726 47.6362 21.3646C47.6905 21.3488 47.7446 21.333 47.8001 21.326C47.9656 21.2897 48.1336 21.2881 48.2957 21.298C48.4586 21.3087 48.6175 21.3482 48.7664 21.4042C48.8406 21.4313 48.9121 21.4659 48.9814 21.5029L49.0046 21.5168C49.0275 21.5303 49.0505 21.5438 49.0718 21.5583L48.5312 22.9735C48.296 22.9076 47.9368 22.8558 47.5527 22.9793L46.7886 21.5129L45.1685 3.24662L45.1728 3.24234C45.2157 3.20036 45.2617 3.16002 45.3078 3.12052C45.4017 3.04232 45.5005 2.97071 45.6041 2.90733C45.8107 2.7814 46.0355 2.68921 46.2684 2.64805C46.3853 2.6283 46.5037 2.62089 46.6223 2.62583C46.7408 2.63077 46.8593 2.65299 46.9778 2.68262C47.2125 2.74847 47.4422 2.86206 47.6545 3.01022L47.6569 3.01187C47.7425 3.07113 47.8603 3.05714 47.9293 2.97647C48.0034 2.89005 47.9936 2.76082 47.9071 2.68674C47.6824 2.49496 47.424 2.32869 47.1335 2.2151C46.9877 2.1616 46.8354 2.11715 46.6782 2.09493C46.521 2.07188 46.3605 2.06612 46.2017 2.07682C45.8831 2.09987 45.5744 2.19288 45.2929 2.32787C45.1522 2.39536 45.018 2.47438 44.8888 2.56163C44.8247 2.60525 44.762 2.65135 44.7003 2.70073C44.6699 2.72543 44.6395 2.75094 44.609 2.77728L44.5915 2.79283C44.5668 2.81475 44.5439 2.83503 44.5118 2.86782C44.446 2.94108 44.4081 3.04232 44.418 3.1485V3.14932L46.1399 21.6379L46.1407 21.6445ZM28.1362 35.0521L36.1455 36.644L41.3375 30.9852L39.3172 23.1339L34.2043 29.1072C34.3589 29.6027 34.5087 30.0996 34.6543 30.5982C34.7737 30.9959 34.8866 31.3956 34.9996 31.7953C35.0487 31.9689 35.0977 32.1425 35.1473 32.316C35.312 32.8889 35.4675 33.4642 35.6206 34.0404L35.6269 34.0645L35.6269 34.0648C35.7738 34.6346 35.9205 35.2034 36.0511 35.778C36.0717 35.867 36.0157 35.9558 35.9268 35.9755C35.847 35.9937 35.7671 35.9508 35.7375 35.8768C35.5253 35.3562 35.3276 34.8305 35.1301 34.3053L35.093 34.2067C34.8872 33.647 34.6848 33.0864 34.4906 32.5227C34.4375 32.3694 34.3839 32.2162 34.3305 32.063C34.1875 31.6536 34.0445 31.2443 33.9086 30.8328C33.7445 30.3476 33.5845 29.8616 33.4285 29.3741L25.4623 27.9875L28.1362 35.0521ZM24.6585 27.7222L24.6577 27.7206C24.6141 27.5971 24.6478 27.4654 24.7334 27.3774L30.7149 21.2675C30.7947 21.1851 30.9042 21.1489 31.0104 21.1588L31.0252 21.1605C31.6072 21.2172 32.1883 21.2839 32.7669 21.3621C33.3464 21.4387 33.925 21.5226 34.5028 21.6115C35.6585 21.791 36.8125 21.9819 37.9607 22.2157C38.0726 22.2387 38.1443 22.3474 38.122 22.4593C38.1015 22.5597 38.0101 22.6289 37.9088 22.6231C36.7384 22.5597 35.5737 22.4536 34.4098 22.3358C33.8279 22.2766 33.2476 22.2116 32.6673 22.1391C32.1462 22.0756 31.6267 22.0021 31.1076 21.9212L25.6259 27.4141L33.5891 28.5742L39.2546 22.4486C39.2762 22.4254 39.3013 22.4077 39.3281 22.3947L39.3305 22.3933C39.3417 22.3879 39.3533 22.3842 39.365 22.3807L39.3679 22.3797L39.3714 22.3783C39.3733 22.3775 39.3752 22.3767 39.3773 22.3762L39.379 22.3759C39.3806 22.3755 39.382 22.3755 39.3837 22.3752C39.5117 22.3456 39.6396 22.4211 39.6761 22.5474L42.1034 30.9908C42.1388 31.1143 42.105 31.2418 42.0252 31.3316L42.0203 31.3373L36.5968 37.3699C36.4972 37.481 36.3507 37.5238 36.2149 37.4974L36.2124 37.4966L27.7526 35.8151L27.7484 35.8142C27.6036 35.7854 27.4925 35.6825 27.4464 35.5533L24.6585 27.7222ZM32.6006 12.6742C33.1053 12.5541 33.6081 12.4273 34.1045 12.2792C34.6 12.1302 35.0923 11.9688 35.5787 11.7878C36.0634 11.6034 36.5449 11.4083 37.0117 11.163C37.0849 11.1235 37.1319 11.042 37.122 10.954C37.1096 10.8395 37.006 10.7564 36.8907 10.7696C36.3672 10.8288 35.8594 10.9383 35.3539 11.0577C34.8502 11.1811 34.3522 11.3243 33.8583 11.4791C33.3645 11.6355 32.878 11.8133 32.3925 11.9968L32.3325 12.0192C31.8666 12.1926 31.4 12.3664 30.9635 12.6356C30.9133 12.6668 30.8804 12.7245 30.882 12.7862C30.8861 12.88 30.966 12.9525 31.0598 12.9483C31.5778 12.9252 32.0663 12.8053 32.5546 12.6855L32.6006 12.6742ZM30.3067 16.2836C30.1931 16.3017 30.0861 16.2243 30.068 16.1107C30.0532 16.0185 30.1009 15.9321 30.1791 15.8918C30.7948 15.5782 31.4294 15.3238 32.0698 15.0851C32.7102 14.8464 33.3604 14.6398 34.0123 14.439C34.6642 14.2382 35.3211 14.0505 35.9812 13.8735C36.6421 13.6998 37.3056 13.5328 37.9805 13.4011C38.0702 13.3838 38.1575 13.4422 38.1748 13.5319C38.1896 13.6085 38.1492 13.6826 38.0817 13.7138C37.4587 14.0036 36.8232 14.2579 36.187 14.5065C35.5491 14.7518 34.9079 14.9855 34.2617 15.2061C33.6156 15.4267 32.9678 15.6416 32.3101 15.8251C31.6525 16.0078 30.989 16.1757 30.3067 16.2836Z" fill="#070615"></path></svg>