<svg xmlns="http://www.w3.org/2000/svg" id="Group_27" data-name="Group 27" width="15.719" height="17.28" viewBox="0 0 15.719 17.28"><path id="Path_39" data-name="Path 39" d="M7.675,3.282a3.787,3.787,0,0,0-.729-1.06A8.093,8.093,0,0,0,.055.1,8.159,8.159,0,0,0,.32,2.553a6.916,6.916,0,0,0,2.054,3.71c.4.331.8.663,1.259.994l.066.066A13,13,0,0,0,5.819,8.45c.331.133.729.265,1.06.4a2.142,2.142,0,0,0,1.126.2,3.494,3.494,0,0,0,.8-.2,3.229,3.229,0,0,0,.729-.265,12.675,12.675,0,0,0,3.843-2.319,6.917,6.917,0,0,0,2.054-3.71A17.223,17.223,0,0,0,15.692.1,8.211,8.211,0,0,0,8.8,2.222a2.775,2.775,0,0,0-.729,1.06c0,.066,0,.133-.066.133a.164.164,0,0,1-.265-.066Z" fill="#101b3e"></path><path id="Path_40" data-name="Path 40" d="M7.675,11.432a3.788,3.788,0,0,0-.729-1.06A8.093,8.093,0,0,0,.055,8.252,8.159,8.159,0,0,0,.32,10.7,7.1,7.1,0,0,0,2.374,14.48c.4.331.8.663,1.259.994l.066.066a13,13,0,0,0,2.12,1.126c.331.132.729.265,1.06.4a2.143,2.143,0,0,0,1.126.2,3.492,3.492,0,0,0,.8-.2A3.232,3.232,0,0,0,9.53,16.8a12.677,12.677,0,0,0,3.843-2.319A6.869,6.869,0,0,0,15.427,10.7a17.223,17.223,0,0,0,.265-2.451A8.211,8.211,0,0,0,8.8,10.372a2.775,2.775,0,0,0-.729,1.06c0,.066,0,.132-.066.132a.164.164,0,0,1-.265-.066A.065.065,0,0,1,7.675,11.432Z" fill="#101b3e"></path></svg>