<svg xmlns="http://www.w3.org/2000/svg" width="32" height="32" viewBox="0 0 32 32"><g id="Group_28" data-name="Group 28" transform="translate(-2980 -2247)"><rect id="Rectangle_66" data-name="Rectangle 66" width="32" height="32" rx="16" transform="translate(2980 2247)" fill="#ffc017"></rect><path id="Path_39" data-name="Path 39" d="M15.675,165.282a3.788,3.788,0,0,0-.729-1.06,8.092,8.092,0,0,0-6.891-2.12,8.154,8.154,0,0,0,.265,2.451,6.917,6.917,0,0,0,2.054,3.711c.4.331.8.662,1.259.994l.066.066a12.963,12.963,0,0,0,2.12,1.126c.331.133.729.265,1.06.4a2.15,2.15,0,0,0,1.126.2,3.509,3.509,0,0,0,.8-.2,3.242,3.242,0,0,0,.729-.265,12.671,12.671,0,0,0,3.843-2.319,6.917,6.917,0,0,0,2.054-3.711,17.209,17.209,0,0,0,.265-2.451,8.209,8.209,0,0,0-6.891,2.12,2.776,2.776,0,0,0-.729,1.06c0,.067,0,.133-.066.133a.164.164,0,0,1-.265-.066Z" transform="translate(2980 2093)" fill="#101b3e"></path><path id="Path_40" data-name="Path 40" d="M15.675,173.432a3.774,3.774,0,0,0-.729-1.06,8.092,8.092,0,0,0-6.891-2.12A8.158,8.158,0,0,0,8.32,172.7a7.1,7.1,0,0,0,2.054,3.777c.4.331.8.662,1.259.993l.066.067a13.039,13.039,0,0,0,2.12,1.126c.331.133.729.265,1.06.4a2.14,2.14,0,0,0,1.126.2,3.505,3.505,0,0,0,.8-.2,3.291,3.291,0,0,0,.729-.265,12.691,12.691,0,0,0,3.843-2.319,6.869,6.869,0,0,0,2.054-3.777,17.224,17.224,0,0,0,.265-2.451,8.21,8.21,0,0,0-6.891,2.12,2.769,2.769,0,0,0-.729,1.06c0,.066,0,.132-.066.132a.163.163,0,0,1-.265-.066A.065.065,0,0,1,15.675,173.432Z" transform="translate(2980 2093)" fill="#101b3e"></path></g></svg>