<svg xmlns="http://www.w3.org/2000/svg" width="32" height="32" viewBox="0 0 32 32"><g id="Group_27" data-name="Group 27" transform="translate(-3494 -2093)"><rect id="Rectangle_67" data-name="Rectangle 67" width="32" height="32" rx="16" transform="translate(3494 2093)" fill="#070615"></rect><path id="Path_41" data-name="Path 41" d="M529.675,11.282a3.8,3.8,0,0,0-.729-1.06,8.093,8.093,0,0,0-6.891-2.12,8.161,8.161,0,0,0,.265,2.452,6.917,6.917,0,0,0,2.054,3.71c.4.331.795.663,1.259.994l.066.066a13.054,13.054,0,0,0,2.12,1.126c.332.132.729.265,1.061.4a2.14,2.14,0,0,0,1.126.2,3.492,3.492,0,0,0,.8-.2,3.23,3.23,0,0,0,.729-.265,12.688,12.688,0,0,0,3.843-2.319,6.924,6.924,0,0,0,2.054-3.71,17.317,17.317,0,0,0,.265-2.452,8.211,8.211,0,0,0-6.891,2.12,2.783,2.783,0,0,0-.729,1.06c0,.066,0,.132-.066.132a.164.164,0,0,1-.265-.066Z" transform="translate(2980 2093)" fill="#ffc017"></path><path id="Path_42" data-name="Path 42" d="M529.675,19.432a3.8,3.8,0,0,0-.729-1.06,8.094,8.094,0,0,0-6.891-2.12,8.161,8.161,0,0,0,.265,2.451,7.1,7.1,0,0,0,2.054,3.777c.4.331.795.663,1.259.994l.066.066a13.053,13.053,0,0,0,2.12,1.126c.332.132.729.265,1.061.4a2.14,2.14,0,0,0,1.126.2,3.492,3.492,0,0,0,.8-.2,3.235,3.235,0,0,0,.729-.265,12.69,12.69,0,0,0,3.843-2.319,6.875,6.875,0,0,0,2.054-3.777,17.317,17.317,0,0,0,.265-2.451,8.211,8.211,0,0,0-6.891,2.12,2.784,2.784,0,0,0-.729,1.06c0,.066,0,.132-.066.132a.164.164,0,0,1-.265-.066A.065.065,0,0,1,529.675,19.432Z" transform="translate(2980 2093)" fill="#ffc017"></path></g></svg>