<svg xmlns="http://www.w3.org/2000/svg" width="108.463" height="99.479" viewBox="0 0 108.463 99.479"><path id="Path_144" data-name="Path 144" d="M62.135,74.636A4.209,4.209,0,0,1,60.9,75.852a6.244,6.244,0,0,1-3.376.969,4.866,4.866,0,0,1-3.219-.991,3.8,3.8,0,0,1-1.336-2.967,3.43,3.43,0,0,1,.4-1.594,4.074,4.074,0,0,1,1.075-1.3,4.809,4.809,0,0,1,3.235-1.015,6.188,6.188,0,0,1,3.384,1.074,3.721,3.721,0,0,1,1.117,1.313,3.979,3.979,0,0,1,.412,1.7A2.886,2.886,0,0,1,62.135,74.636ZM87.349,61.995h0l-1.105.906-3.536,2.9-3.525,2.913-7.045,5.833-.4.335a22.827,22.827,0,0,1-8.612.44l.014-.024.007-.012.026-.044a4.3,4.3,0,0,0,.559-2.228,5.646,5.646,0,0,0-.144-1.109,5.387,5.387,0,0,0-.367-1.064,5.158,5.158,0,0,0-1.379-1.78A6.467,6.467,0,0,0,59.9,67.968a8.115,8.115,0,0,0-2.134-.45,6.059,6.059,0,0,0-4.251,1.3A5.488,5.488,0,0,0,52.064,70.6a4.945,4.945,0,0,0-.548,2.264,5.63,5.63,0,0,0,.427,2.246A5.053,5.053,0,0,0,53.31,77a5.676,5.676,0,0,0,2.019,1.112,6.915,6.915,0,0,0,1.1.251A6.409,6.409,0,0,0,59.741,78a7.1,7.1,0,0,0,1.944-1.065,6.49,6.49,0,0,0,.656-.586,24.237,24.237,0,0,0,5.092.3,23.771,23.771,0,0,0,2.477-.252l-1.291,1.071L65.112,80.4l-1.083.907h-.007q-2.96,2.48-5.91,4.974a.481.481,0,0,0-.125.168,4.815,4.815,0,0,0-.911,1.007,5.144,5.144,0,0,0-.715,1.554,5.236,5.236,0,0,0-.174,1.727,4.062,4.062,0,0,0,.535,1.785.647.647,0,0,0,.039.061v0a.841.841,0,0,0,1.174.2h0L62.672,89.4a.567.567,0,0,0-.606-.955l-4.239,2.368a2.423,2.423,0,0,1-.058-.249,3.305,3.305,0,0,1,.015-1.208,3.573,3.573,0,0,1,.445-1.148,3.4,3.4,0,0,1,.821-.91,2.9,2.9,0,0,1,1.087-.511,2.955,2.955,0,0,1,.616-.074,6.182,6.182,0,0,1,.673.006,6.366,6.366,0,0,1,2.566.711,5.843,5.843,0,0,1,2,1.7,5.244,5.244,0,0,1,.98,2.378,5.073,5.073,0,0,1,.021,1.28,5,5,0,0,1-.312,1.232,5.574,5.574,0,0,1-1.471,2.081A6.3,6.3,0,0,1,62.979,97.4a5.785,5.785,0,0,1-1.255.267,5.035,5.035,0,0,1-1.256-.021A7.3,7.3,0,0,1,58,96.774a15.407,15.407,0,0,1-2.3-1.576c-.736-.6-1.449-1.24-2.155-1.91l-2.139-2.031-3.867-3.7,2.59-7.971.007-.019a.646.646,0,0,0-.91-.773L42.014,82.4,36.52,77.655l-1.743-6.147-.008-.029a.554.554,0,0,0-.314-.354l-1.943-.937c.024-.117.048-.233.077-.35.066-.277.147-.551.236-.823a14.723,14.723,0,0,1,.645-1.6,17.2,17.2,0,0,1,1.808-2.965,23.575,23.575,0,0,1,5.056-4.82c.081-.057.162-.115.242-.173.157-.114.314-.227.479-.331l.737-.482c.152-.1.307-.189.462-.281h0c.1-.058.2-.117.293-.176l.378-.226c.071-.041.143-.08.214-.119l.172-.1.773-.43c.178-.1.358-.186.538-.278l.249-.127c.375-.2.76-.376,1.146-.554.151-.07.3-.139.453-.211.345-.159.7-.306,1.049-.454h0c.194-.081.388-.162.581-.246l1.666-.639a20.606,20.606,0,0,0,2.962-1.369,6.565,6.565,0,0,0,3.7,1,7.322,7.322,0,0,0,2.2-.409A6.46,6.46,0,0,0,60.6,52.908a5.48,5.48,0,0,0,1.424-1.816,5.193,5.193,0,0,0,.522-2.262,4.829,4.829,0,0,0-.561-2.288A5.575,5.575,0,0,0,60.5,44.757c-.043-.034-.087-.067-.131-.1l-.025-.019a21.974,21.974,0,0,0,.544-2.26c.161-.851.281-1.7.39-2.548.264-.081.526-.166.789-.251h0l.131-.042.143-.046c.79-.267,1.568-.547,2.35-.872a16.366,16.366,0,0,0,1.676,1.515,17.562,17.562,0,0,0,6.543,3.208,20.443,20.443,0,0,0,3.6.571,21.257,21.257,0,0,0,3.631-.052,20.908,20.908,0,0,0,2.166-.333l4.2,4.433,2.032,4.7.014.033a.621.621,0,0,0,.378.341L95.7,55.2l-.588.473-1.779,1.439Q90.327,59.543,87.349,61.995ZM53.1,51.867a3.9,3.9,0,0,1-1.129-1.242,3.271,3.271,0,0,1-.422-1.592,2.273,2.273,0,0,1,.04-.417l0-.015q.037-.216.092-.427a4.126,4.126,0,0,1,.307-.8,3.838,3.838,0,0,1,1.067-1.282,4.384,4.384,0,0,1,1.5-.757,5.833,5.833,0,0,1,1.706-.238,6.1,6.1,0,0,1,1.709.246,5.146,5.146,0,0,1,1.548.726,3.954,3.954,0,0,1,1.143,1.2,3.113,3.113,0,0,1,.435,1.557,3.414,3.414,0,0,1-.386,1.607,3.933,3.933,0,0,1-1.078,1.279,5.707,5.707,0,0,1-3.258,1.108,5.156,5.156,0,0,1-1.717-.209A4.989,4.989,0,0,1,53.1,51.867ZM22.39,61.951Q19.624,59,16.884,56.032l1.749-4.722.012-.031a.659.659,0,0,0,.034-.293.64.64,0,0,0-.708-.562l-5.767.337C10.8,49.254,9.409,47.727,8.026,46.2c-.74-.819-1.476-1.641-2.183-2.47s-1.392-1.677-2.019-2.55A16.152,16.152,0,0,1,2.2,38.455a9.5,9.5,0,0,1-.81-2.978c-.024-.264-.047-.509-.045-.76a6.093,6.093,0,0,1,.037-.75A6.59,6.59,0,0,1,1.716,32.5a6.115,6.115,0,0,1,1.618-2.485,5.418,5.418,0,0,1,2.6-1.331c.074-.018.149-.029.223-.04h0c.048-.007.1-.014.144-.023.124-.015.248-.027.372-.039a7.562,7.562,0,0,1,.758-.01,5.828,5.828,0,0,1,1.473.238,4.891,4.891,0,0,1,1.318.617,3.61,3.61,0,0,1,.423.329c-.979.521-1.931,1.083-2.872,1.66-1.067.656-2.125,1.327-3.153,2.04a.811.811,0,0,0-.345.69v0c0,.11.006.176.013.26s.013.158.021.236c.019.155.042.31.071.464a6.267,6.267,0,0,0,.239.918,4.719,4.719,0,0,0,1.023,1.728,3.678,3.678,0,0,0,1.863,1.051,4.336,4.336,0,0,0,1.03.1,5.581,5.581,0,0,0,.978-.106,5.208,5.208,0,0,0,1.833-.736,4.846,4.846,0,0,0,.657-.514c2.9-1.781,5.749-3.653,8.594-5.526h0Q22.161,31,23.719,29.984q1.95-1.275,3.885-2.571h0q1.077-.717,2.156-1.433l2-1.328a25.244,25.244,0,0,0,2.412,6.492,23.059,23.059,0,0,0,1.4,2.3,21.9,21.9,0,0,0,1.665,2.136l.2.221h0c.24.259.479.519.738.76.057.054.113.109.169.165.106.1.212.209.324.306l.514.45c.131.12.272.228.413.337h0l.119.093.142.11h0c.133.1.266.206.4.3l.568.383.285.191.3.174.592.348c.124.067.25.13.376.193l.235.119c.344.185.705.334,1.065.483l.188.078c.194.087.4.154.6.222h0l.046.016.65.22c.143.045.288.082.432.119l.229.06c.081.02.162.042.243.064h0c.14.038.28.076.421.1l.673.128c.069.012.138.025.207.039h0a4.143,4.143,0,0,0,.467.073l.338.038c.338.038.677.076,1.015.109a28.259,28.259,0,0,0,5.376-.186A39.85,39.85,0,0,0,59.8,40.256l.416-.111a28.041,28.041,0,0,1-.967,3.832,6.725,6.725,0,0,0-.753-.306,7.047,7.047,0,0,0-2.241-.354,6.891,6.891,0,0,0-2.241.383,5.959,5.959,0,0,0-1.987,1.183,5.469,5.469,0,0,0-1.66,2.991c-.036.188-.062.374-.079.561-.011.113-.016.225-.021.339h0l0,.1,0,.05c0,.026,0,.052,0,.078a4.613,4.613,0,0,0,.482,2.268,5.118,5.118,0,0,0,.74,1.093c-.742.333-1.5.645-2.264.925-.563.213-1.14.44-1.707.663-.2.089-.406.175-.61.262h0c-.36.153-.721.306-1.076.472l-.452.213h0c-.4.19-.809.38-1.2.592l-.164.085-.16.083c-.165.085-.33.17-.494.257l-.805.454c-.27.149-.532.31-.792.475l-.28.174c-.169.1-.337.208-.5.319l-.766.519c-.169.111-.331.233-.494.354h0c-.085.063-.169.127-.255.188a27.206,27.206,0,0,0-2.829,2.406,22.677,22.677,0,0,0-2.427,2.833,18.4,18.4,0,0,0-1.864,3.248,13.256,13.256,0,0,0-.644,1.772c-.087.3-.165.611-.226.925l0,.027,0,.017c0,.013,0,.026-.007.039L28.172,68.1ZM11.164,30.3l.035.042c.02.024.04.047.058.072a4.571,4.571,0,0,1,.881,2.671,4.276,4.276,0,0,1-.754,2.632,3.4,3.4,0,0,1-2.194,1.351,4.3,4.3,0,0,1-.67.063,2.6,2.6,0,0,1-.614-.063,1.985,1.985,0,0,1-.988-.546,3.23,3.23,0,0,1-.679-1.088,5.275,5.275,0,0,1-.218-.673c-.023-.093-.042-.187-.061-.281.876-.636,1.734-1.3,2.583-1.973C9.435,31.795,10.315,31.068,11.164,30.3Zm-1.04-4.72,6.1-3.908,12.183-7.851L40.567,5.929l3.039-1.973.758-.493c.243-.163.477-.306.723-.448a11.042,11.042,0,0,1,1.51-.721,6.776,6.776,0,0,1,3.124-.49,4.42,4.42,0,0,1,1.434.411,4.468,4.468,0,0,1,.645.39,2.347,2.347,0,0,1,.2.15h0c.035.029.07.057.106.085l.084.076h0c.068.06.136.12.2.187a4.4,4.4,0,0,1,1.3,2.723,4.108,4.108,0,0,1-.146,1.536,3.988,3.988,0,0,1-.718,1.37,4.333,4.333,0,0,1-.545.559l-.144.115-.036.029-.047.031-.094.063-.377.252-1.505,1.006L47.066,12.8l-12.1,7.976-3.019,2-3.01,2.013q-1.13.76-2.263,1.515h0c-1.253.837-2.505,1.673-3.751,2.521q-1.554,1.06-3.114,2.11h0c-2.141,1.447-4.282,2.893-6.4,4.379.044-.139.082-.278.115-.418a6.324,6.324,0,0,0,.147-1.879,6.566,6.566,0,0,0-.382-1.83,5.762,5.762,0,0,0-.93-1.64,6.075,6.075,0,0,0-3.093-1.992,7.317,7.317,0,0,0-1.793-.275H7.458ZM67.185,14.435a16.008,16.008,0,0,1,5.166-2.6A19.64,19.64,0,0,1,78.126,11a19.213,19.213,0,0,1,4.442.5l-.016.032h0l-.029.059q-.189.395-.34.808a8.564,8.564,0,0,0-.258.839,5.083,5.083,0,0,0-.15.883.423.423,0,0,0,.752.294,5.2,5.2,0,0,0,.485-.752,8.294,8.294,0,0,0,.377-.794,8.635,8.635,0,0,0,.3-.826c.022-.075.043-.15.063-.226l.067.019h0l.072.021a17.284,17.284,0,0,1,5.192,2.587,13.683,13.683,0,0,1,3.837,4.27,11.382,11.382,0,0,1,1.455,5.5,12.491,12.491,0,0,1-.786,4.371c-.149-.078-.3-.149-.454-.217-.273-.118-.553-.222-.836-.314a7.94,7.94,0,0,0-.868-.231,4.809,4.809,0,0,0-.915-.108.439.439,0,0,0-.326.144.43.43,0,0,0,.032.61,4.98,4.98,0,0,0,.749.538,8.009,8.009,0,0,0,.8.416c.271.125.546.238.828.335.139.046.279.091.421.13a13.6,13.6,0,0,1-3.595,4.358A16.706,16.706,0,0,1,84.3,37.008a20.069,20.069,0,0,1-5.764,1.046,16.5,16.5,0,0,1-4.009-.324q.061-.173.115-.347c.077-.256.134-.521.19-.785l.028-.133a14.237,14.237,0,0,0,.277-1.893.335.335,0,0,0-.611-.21,14.565,14.565,0,0,0-.943,1.665l-.007.015h0c-.137.279-.273.557-.384.845-.058.154-.113.308-.16.464a15.674,15.674,0,0,1-5.353-2.823,14.274,14.274,0,0,1-3.667-4.472,13.95,13.95,0,0,1-1.541-5.588,11.784,11.784,0,0,1,.989-5.4c.485.18.979.339,1.475.491a19.917,19.917,0,0,0,2.016.514.329.329,0,0,0,.233-.6,20.047,20.047,0,0,0-1.837-.98c-.426-.2-.855-.4-1.29-.577A12.38,12.38,0,0,1,67.185,14.435Zm41.253,44.61a6.508,6.508,0,0,0-.779-2.47,9.4,9.4,0,0,0-1.486-2.023,8.5,8.5,0,0,0-2-1.567,5.443,5.443,0,0,0-2.6-.7,6.092,6.092,0,0,0-2.581.613,8.909,8.909,0,0,0-1.1.621c-.175.113-.343.233-.509.354l-.244.184-.226.18-.08.063-.079.063h0l-.023.019-.089.071-6.984-2.541-1.7-4.7a.719.719,0,0,0-.175-.268l0,0L83.82,43.152a18.909,18.909,0,0,0,3.271-1.283,18.266,18.266,0,0,0,3.056-1.956,16.343,16.343,0,0,0,2.568-2.558l.022-.028h0c.179-.229.357-.456.521-.7.152-.207.291-.424.429-.64l.074-.115a12.831,12.831,0,0,0,.839-1.605,11.263,11.263,0,0,0,.915-3.476.244.244,0,0,0-.183-.26.24.24,0,0,0-.294.176l0,0a14.438,14.438,0,0,1-3.123,5.974,16.326,16.326,0,0,1-5.394,4.005A18.041,18.041,0,0,1,82.4,42.047a.65.65,0,0,0-.239.047,20.141,20.141,0,0,1-8.832-.336,17.326,17.326,0,0,1-6-2.865,14.655,14.655,0,0,1-4.264-5.062,14.852,14.852,0,0,1-1.6-6.463c0-.15,0-.3.005-.455a15.109,15.109,0,0,0,1.3,3.772,15.705,15.705,0,0,0,3.958,4.99,17.007,17.007,0,0,0,5.565,3.1,18.1,18.1,0,0,0,6.3.9,21.68,21.68,0,0,0,6.23-1.148,18.18,18.18,0,0,0,5.56-3.091,15.148,15.148,0,0,0,3.992-4.99,13.935,13.935,0,0,0,1.449-6.231,12.885,12.885,0,0,0-1.578-6.228,15.359,15.359,0,0,0-4.181-4.851,18.671,18.671,0,0,0-5.551-2.908c.1-.331.186-.663.272-1l.028-.113c.131.024.262.046.394.063a5.86,5.86,0,0,0,1.484-.019,4.558,4.558,0,0,0,1.452-.463,3.456,3.456,0,0,0,1.2-1.017,2.933,2.933,0,0,0,.377-.7l.023-.068a2.579,2.579,0,0,0,.092-.311,2.816,2.816,0,0,0,.053-.4,2.489,2.489,0,0,0-.37-1.462.334.334,0,0,0-.61.227v0A2.377,2.377,0,0,1,86.517,7.7a4.5,4.5,0,0,1-1.091-.058c-.09-.016-.18-.034-.269-.055.028-.146.056-.292.08-.44a.491.491,0,0,0-.917-.31c-.068.127-.132.255-.2.383a3.649,3.649,0,0,1-1.365-1.17,2.509,2.509,0,0,1-.387-.884,2.154,2.154,0,0,1,.007-.925,1.7,1.7,0,0,1,.4-.776,2,2,0,0,1,.778-.522,4.082,4.082,0,0,1,2.17-.157,5.257,5.257,0,0,1,2.152.878l.008,0a.406.406,0,0,0,.527-.611A5.388,5.388,0,0,0,86,1.612a5.292,5.292,0,0,0-1.426-.236,4.494,4.494,0,0,0-1.5.192,3.5,3.5,0,0,0-1.4.82,3.207,3.207,0,0,0-.838,1.454,3.58,3.58,0,0,0-.066,1.634,3.98,3.98,0,0,0,.611,1.479,4.734,4.734,0,0,0,1.061,1.129,5.071,5.071,0,0,0,1,.6l-.012.027-.02.045c-.138.327-.275.653-.4.983l-.02.051a20.915,20.915,0,0,0-4.876-.577,21.429,21.429,0,0,0-6.282.977,17.517,17.517,0,0,0-5.641,2.991,14.554,14.554,0,0,0-2.273,2.29,12.877,12.877,0,0,0-1.672,2.768,12.719,12.719,0,0,0-.873,2.808c-.245.908-.466,1.818-.66,2.742-.121.58-.235,1.162-.322,1.757a13.218,13.218,0,0,0-.162,1.827,16.044,16.044,0,0,0,1.554,7.085,15.855,15.855,0,0,0,2.191,3.37c-.645.218-1.307.423-1.965.616l-.33.092h0c-.306.086-.612.171-.921.247l-.627.162-.63.149a41.111,41.111,0,0,1-5.092.87,26.876,26.876,0,0,1-5.109.1l-1.254-.157a4.435,4.435,0,0,1-.444-.075h0l-.176-.035-.618-.121c-.131-.027-.26-.063-.389-.1-.073-.02-.146-.041-.219-.059l-.215-.058h0c-.131-.035-.261-.069-.389-.11l-.592-.205-.089-.031c-.169-.058-.337-.116-.5-.191a16.357,16.357,0,0,1-4.293-2.564,20.242,20.242,0,0,1-3.452-3.695,28.323,28.323,0,0,1-2.6-4.407q-.558-1.162-1.031-2.367c-.218-.553-.424-1.118-.611-1.682l.352-.234,3.009-2.019,12.018-8.1,3.017-2.008.008-.006,3.942,3.846,1.539,4.965.029.1a.487.487,0,0,0,.323.319l2.823.852a.245.245,0,0,0,.2-.441l-2.189-1.4-1.24-5.045a.746.746,0,0,0-.228-.375l0,0L51.969,11.08l.364-.242.377-.251.094-.063.047-.031.053-.04.212-.163a5.835,5.835,0,0,0,.731-.723,5.623,5.623,0,0,0,1.007-1.79,5.813,5.813,0,0,0,.3-2.039,6.1,6.1,0,0,0-3.2-5.061A5.7,5.7,0,0,0,49.933.05,6.967,6.967,0,0,0,47.88.109a9.659,9.659,0,0,0-1.914.535,12.657,12.657,0,0,0-1.753.844c-.276.16-.558.333-.815.508l-.76.5L39.606,4.474,27.482,12.408l-12.1,7.969-6.039,4L3.35,28.365a6.607,6.607,0,0,0-.9.691,7.813,7.813,0,0,0-2.4,6.558,11.174,11.174,0,0,0,.884,3.4A17.56,17.56,0,0,0,2.643,42.01c.647.933,1.34,1.816,2.048,2.681.469.571.946,1.129,1.42,1.684h0q.365.428.728.856,1.462,1.719,2.94,3.422.7.806,1.39,1.612l.045.047a.819.819,0,0,0,.7.244l5.055-.692L15.2,55.917a.8.8,0,0,0,.15.845l0,0c1.922,2.1,3.862,4.17,5.8,6.243h0l.049.052L27.1,69.317l.034.034a.664.664,0,0,0,.226.15l6.376,2.557L35.021,78.3a.785.785,0,0,0,.264.425l6.15,5.1.012.01a.72.72,0,0,0,.791.082L48.3,80.744l-2.614,6.778a.857.857,0,0,0,.2.912l.023.022q2.1,2.083,4.236,4.131l2.144,2.04c.723.686,1.47,1.368,2.27,2a17.237,17.237,0,0,0,2.585,1.74,9.055,9.055,0,0,0,3.088,1.048,6.705,6.705,0,0,0,1.69.013,7.469,7.469,0,0,0,1.622-.375,7.8,7.8,0,0,0,2.812-1.709c.117-.111.229-.227.339-.346q1.606-1.258,3.2-2.528l.193-.153c1.246-.984,2.483-1.98,3.719-2.977l0,0,.605-.488,4.3-3.5L83,83.831l1.073-.895c2.481-2.068,4.963-4.137,7.409-6.248,2.8-2.419,5.567-4.87,8.246-7.426a.4.4,0,0,0-.525-.614c-2.941,2.244-5.825,4.55-8.7,6.875q-2.957,2.4-5.891,4.827-1.337,1.1-2.675,2.2L73.4,89.619l-4.249,3.557-.482.405,0,0-.281.236a6.4,6.4,0,0,0,.134-.875A6.715,6.715,0,0,0,67.1,88.292a7.127,7.127,0,0,0-1.148-1.158,7.462,7.462,0,0,0-1.36-.88,7.949,7.949,0,0,0-3.095-.828c-.239-.011-.48-.014-.72,0Q63.341,83.4,65.9,81.367l3.581-2.842,3.568-2.859,7.135-5.718,3.569-2.859,3.559-2.87,7.119-5.736,1.78-1.431.255-.2h0c.508-.407,1.017-.815,1.521-1.21l.222-.175.212-.158c.142-.1.285-.205.43-.3a7.422,7.422,0,0,1,.888-.5,4.3,4.3,0,0,1,1.829-.441,3.737,3.737,0,0,1,1.769.47,6.823,6.823,0,0,1,1.592,1.234,7.669,7.669,0,0,1,1.257,1.619,5.286,5.286,0,0,1,.656,1.84,3.519,3.519,0,0,1-.216,1.837,3.784,3.784,0,0,1-.471.83c-.1.131-.2.255-.315.378l-.177.179-.208.2-1.614,1.628-.8.815c-.265.273-.531.545-.8.807a.486.486,0,0,0,.645.724c.9-.716,1.763-1.463,2.618-2.206h0q.44-.382.88-.762l.212-.183.238-.215c.153-.151.3-.306.444-.474A5.169,5.169,0,0,0,108,61.677,5.015,5.015,0,0,0,108.438,59.045Zm-80.1-1.66a.4.4,0,0,0,.3-.487l-1.682-7.083L31.9,51.707l.067.217h0q.12.389.243.778c.325,1.022.668,2.04,1.036,3.053a.327.327,0,0,0,.631-.159q-.228-1.6-.521-3.182c-.2-1.054-.4-2.107-.619-3.156L32.4,47.685q-.165-.786-.348-1.568c-.06-.268-.122-.535-.184-.8l-.053-.23.081.049h0c.323.2.646.391.97.584l.242.145c.888.532,1.776,1.065,2.672,1.587l1.024.6c.633.373,1.265.745,1.9,1.112.49.282.983.559,1.481.828s1,.538,1.5.792a.407.407,0,0,0,.432-.684c-.446-.349-.9-.687-1.361-1.017s-.92-.66-1.386-.98l-.072-.049-.063-.043-.868-4.272,5.484,1.235a.324.324,0,0,0,.186-.619l-6.479-2.449a.772.772,0,0,0-.513-.014.78.78,0,0,0-.506.98l0,.013,1.336,4.206L37.6,46.9q-.516-.348-1.03-.7c-.847-.576-1.7-1.142-2.552-1.709l-.265-.176c-.939-.627-1.887-1.243-2.834-1.858a.885.885,0,0,0-1.342.951l0,.016c.252,1.041.527,2.076.812,3.109.139.517.281,1.035.43,1.549l.446,1.544c.024.083.049.165.074.248h0q.029.1.057.19l-5.277-2.3-.018-.008a.792.792,0,0,0-1.066.978l2.821,8.383A.407.407,0,0,0,28.335,57.385ZM48.176,34.1a.412.412,0,0,1-.314-.357,22.058,22.058,0,0,1-.1-2.212c0-.413.009-.825.024-1.237-.5,0-1-.006-1.5-.029a20.118,20.118,0,0,1-2.343-.218.489.489,0,0,1,0-.967,20.5,20.5,0,0,1,2.343-.218c.524-.024,1.049-.031,1.573-.028.04-.566.092-1.131.176-1.7a12.933,12.933,0,0,1,.487-2.173.334.334,0,0,1,.645.042,12.941,12.941,0,0,1,.194,2.218c.008.548-.012,1.093-.046,1.638.552.02,1.1.049,1.656.095.781.061,1.562.142,2.343.281a.329.329,0,0,1,0,.647c-.781.139-1.562.22-2.343.281-.59.049-1.179.08-1.769.1-.043.45-.091.9-.151,1.349-.1.729-.218,1.455-.39,2.18A.41.41,0,0,1,48.176,34.1Zm1.872,32.784c-.729-.157-1.46-.254-2.191-.343-.458-.054-.917-.1-1.376-.132.04-.468.069-.937.083-1.409a14.531,14.531,0,0,0-.068-2.066.413.413,0,0,0-.8-.078,14.753,14.753,0,0,0-.464,2.015c-.081.481-.145.965-.2,1.449-.524-.023-1.05-.033-1.576-.026a15.962,15.962,0,0,0-2.215.166.414.414,0,0,0-.039.808,16.08,16.08,0,0,0,2.189.378c.507.056,1.016.1,1.525.123-.022.395-.035.79-.039,1.186a16.187,16.187,0,0,0,.1,2.07.335.335,0,0,0,.225.273.33.33,0,0,0,.419-.21,16.165,16.165,0,0,0,.5-2.011c.077-.419.143-.839.2-1.259.49.01.981.014,1.472,0,.737-.018,1.473-.045,2.213-.131a.41.41,0,0,0,.039-.808ZM76.554,22.414l0,0-2.2,6.895,5.8-4.109,0-.011ZM81.087,26.5,73.61,31.221a.572.572,0,0,1-.859-.629L75.1,21.661l0-.008a.746.746,0,0,1,.372-.467l7.51-3.932a.493.493,0,0,1,.706.559L81.65,25.767a.9.9,0,0,1-.562.737ZM55.754,49.178a7.571,7.571,0,0,0,.776.786,4.652,4.652,0,0,0,.931.648.348.348,0,0,0,.483-.43,4.728,4.728,0,0,0-.535-1,7.415,7.415,0,0,0-.69-.863,7.6,7.6,0,0,0-.807-.758,4.76,4.76,0,0,0-.962-.622.243.243,0,0,0-.194-.01.263.263,0,0,0-.167.333,4.818,4.818,0,0,0,.5,1.027A7.857,7.857,0,0,0,55.754,49.178Zm27.829,7.8a3.967,3.967,0,0,0,1.074-1.3,3.347,3.347,0,0,0,.367-1.617,2.94,2.94,0,0,0-.489-1.528,4.763,4.763,0,0,0-1.13-1.179,5.823,5.823,0,0,0-4.956-.9,4.306,4.306,0,0,0-1.533.781,3.822,3.822,0,0,0-1.064,1.336,3.955,3.955,0,0,0-.369,1.693,3.052,3.052,0,0,0,.45,1.578,4.251,4.251,0,0,0,1.133,1.213,5.278,5.278,0,0,0,3.238,1.019,6.179,6.179,0,0,0,1.744-.288A4.879,4.879,0,0,0,83.582,56.976Zm-3.4-8.345a6.817,6.817,0,0,1,4.291,1.308,5.014,5.014,0,0,1,1.5,1.811,5.1,5.1,0,0,1,.5,2.314,5.322,5.322,0,0,1-.539,2.254,5.489,5.489,0,0,1-1.429,1.8,6.537,6.537,0,0,1-1.965,1.109,7.507,7.507,0,0,1-2.186.432,6.435,6.435,0,0,1-2.244-.283,6.285,6.285,0,0,1-2.026-1.043,5.057,5.057,0,0,1-1.452-1.809,4.875,4.875,0,0,1-.454-2.285,6.116,6.116,0,0,1,.516-2.191,5.509,5.509,0,0,1,.641-1.085,11.19,11.19,0,0,0-1.892.083,4.55,4.55,0,0,0-1.289.359,2.185,2.185,0,0,0-.493.315.915.915,0,0,0-.285.343,2.582,2.582,0,0,0-.16,1.124,8.535,8.535,0,0,0,.17,1.389c.143.77.356,1.56.568,2.342h0q.075.276.148.55a.548.548,0,0,1-.7.771l-.089-.039c-.189-.083-.4-.171-.608-.251s-.414-.163-.622-.241c-.417-.155-.836-.3-1.258-.435s-.844-.257-1.269-.361-.847-.2-1.271-.265a8.059,8.059,0,0,0-2.459-.071,3.825,3.825,0,0,0-1.064.307,2.585,2.585,0,0,0-.443.265c-.022.015-.043.032-.064.049l-.019.016-.017.013-.01.008a.309.309,0,0,0-.034.028l-.008.009-.014.012-.006,0-.005.005-.012.014,0,.005a.169.169,0,0,1-.019.02.3.3,0,0,1-.02.027.27.27,0,0,0-.027.037,2.271,2.271,0,0,0-.283.918,8.035,8.035,0,0,0-.049,1.217,19.9,19.9,0,0,0,.289,2.6c.251,1.46.6,2.933.972,4.385l5.574-3.976a.4.4,0,0,1,.49.642L63.005,68.1a.634.634,0,0,1-.99-.265L62,67.8c-.356-.875-.652-1.744-.928-2.637s-.514-1.793-.705-2.715a18.26,18.26,0,0,1-.393-2.842,8.354,8.354,0,0,1,.049-1.521,5.187,5.187,0,0,1,.17-.812,3.317,3.317,0,0,1,.391-.855c.045-.071.1-.142.155-.212l.046-.052h0A1.821,1.821,0,0,1,60.929,56l.1-.1a.714.714,0,0,1,.061-.05h0l.027-.021.031-.024c.046-.036.093-.072.142-.105a4.345,4.345,0,0,1,.741-.424,5.537,5.537,0,0,1,1.568-.43,9.144,9.144,0,0,1,3,.2c.476.1.939.231,1.4.377s.9.315,1.337.495c.327.139.649.282.967.434a11.7,11.7,0,0,1-.469-1.436,8.063,8.063,0,0,1-.241-1.7A3.738,3.738,0,0,1,70,51.313a2.415,2.415,0,0,1,.341-.464,2.892,2.892,0,0,1,.4-.348,3.653,3.653,0,0,1,.863-.443,5.106,5.106,0,0,1,1.749-.281,9.282,9.282,0,0,1,2.67.428,6.039,6.039,0,0,1,1.949-1.157A6.988,6.988,0,0,1,80.185,48.631ZM80.4,55a10,10,0,0,0-.741-.673,6.016,6.016,0,0,0-.808-.584,2.958,2.958,0,0,0-.972-.369.375.375,0,0,0-.213.026.366.366,0,0,0-.175.487,2.922,2.922,0,0,0,.619.834,6,6,0,0,0,.782.619c.273.189.555.367.849.531a5.852,5.852,0,0,0,.93.424.34.34,0,0,0,.39-.516A5.96,5.96,0,0,0,80.4,55Zm1.169-2.446a9.1,9.1,0,0,1,.731.707,5.46,5.46,0,0,1,.64.826.26.26,0,0,1-.084.357.248.248,0,0,1-.207.031,5.451,5.451,0,0,1-.965-.4,8.761,8.761,0,0,1-.875-.52,5.588,5.588,0,0,1-.8-.621,2.877,2.877,0,0,1-.624-.847.366.366,0,0,1,.179-.485.361.361,0,0,1,.212-.029,2.86,2.86,0,0,1,.982.378A5.678,5.678,0,0,1,81.571,52.558ZM60.653,72.09a5.077,5.077,0,0,0-.529-.734,5.2,5.2,0,0,0-.65-.634,3.4,3.4,0,0,0-.808-.5.272.272,0,0,0-.374.307,3.405,3.405,0,0,0,.338.891,5.2,5.2,0,0,0,.5.76,5.05,5.05,0,0,0,.618.661,3.193,3.193,0,0,0,.778.528.366.366,0,0,0,.236.023.359.359,0,0,0,.264-.433A3.216,3.216,0,0,0,60.653,72.09ZM56.2,73.624a6.974,6.974,0,0,1,.595.729,4.272,4.272,0,0,1,.475.844.261.261,0,0,1-.144.341.266.266,0,0,1-.205,0,4.283,4.283,0,0,1-.826-.506,6.825,6.825,0,0,1-.706-.621,5.5,5.5,0,0,1-.611-.713,3.493,3.493,0,0,1-.461-.859.267.267,0,0,1,.165-.339.259.259,0,0,1,.188,0,3.444,3.444,0,0,1,.841.49A5.244,5.244,0,0,1,56.2,73.624Zm2.443-.522A8.092,8.092,0,0,0,58,72.235a6.618,6.618,0,0,0-.755-.765,4.023,4.023,0,0,0-.922-.614.352.352,0,0,0-.48.433,4.058,4.058,0,0,0,.518.98,6.594,6.594,0,0,0,.686.828,8.108,8.108,0,0,0,.8.726,5,5,0,0,0,.939.6.268.268,0,0,0,.2.01.261.261,0,0,0,.16-.335A5.07,5.07,0,0,0,58.644,73.1ZM24.111,35.522a2.937,2.937,0,0,0,.472,1.583,4.488,4.488,0,0,0,1.149,1.188,5.4,5.4,0,0,0,3.224,1.033,6.043,6.043,0,0,0,3.386-1.019A3.9,3.9,0,0,0,33.5,37.053a3.15,3.15,0,0,0,.406-1.586,3.513,3.513,0,0,0-.425-1.6,4.012,4.012,0,0,0-1.106-1.269,5.706,5.706,0,0,0-1.526-.81A5.31,5.31,0,0,0,29.1,31.5a5.75,5.75,0,0,0-3.387,1.062,4.131,4.131,0,0,0-1.166,1.3A3.338,3.338,0,0,0,24.111,35.522Zm7.115,5.048a8.1,8.1,0,0,1-2.2.451,6.423,6.423,0,0,1-4.369-1.327A4.908,4.908,0,0,1,23.21,37.81a5.005,5.005,0,0,1-.393-2.333A5.447,5.447,0,0,1,24.9,31.506a7.2,7.2,0,0,1,4.17-1.5,6.831,6.831,0,0,1,2.257.267,5.659,5.659,0,0,1,2.045,1.066,5.577,5.577,0,0,1,1.467,1.829,5.048,5.048,0,0,1,.522,2.3,4.782,4.782,0,0,1-.608,2.29A5.657,5.657,0,0,1,33.221,39.5,7.369,7.369,0,0,1,31.226,40.57Zm-2.089-2.842a.343.343,0,0,0,.111-.47,5.569,5.569,0,0,0-.593-.775,9.159,9.159,0,0,0-.677-.671,5.573,5.573,0,0,0-.749-.585,2.667,2.667,0,0,0-.918-.377.392.392,0,0,0-.205.02.369.369,0,0,0-.205.48,2.674,2.674,0,0,0,.55.828,5.469,5.469,0,0,0,.721.619,9.147,9.147,0,0,0,.792.532,5.567,5.567,0,0,0,.876.429A.341.341,0,0,0,29.137,37.727Zm.252-2.133c-.281-.133-.558-.278-.828-.44a5.881,5.881,0,0,1-.782-.553.341.341,0,0,1-.034-.482A.349.349,0,0,1,28.024,34a5.838,5.838,0,0,1,.948.147,9.257,9.257,0,0,1,.9.26c.122.042.243.087.363.135l-.021-.062c-.012-.035-.024-.07-.035-.105A5.215,5.215,0,0,1,30,33.562a3.352,3.352,0,0,1-.013-.875.272.272,0,0,1,.306-.236.266.266,0,0,1,.149.069A3.425,3.425,0,0,1,31,33.2a5.034,5.034,0,0,1,.4.734,5.776,5.776,0,0,1,.281.776,3.412,3.412,0,0,1,.134.83v.028a.581.581,0,0,1-.569.593.471.471,0,0,1-.068,0,4.222,4.222,0,0,1-.922-.209A7.28,7.28,0,0,1,29.39,35.595Z" fill="#070615" fill-rule="evenodd"></path></svg>