<?xml version="1.0" encoding="iso-8859-1"?>
<!-- Generator: Adobe Illustrator 19.0.0, SVG Export Plug-In . SVG Version: 6.00 Build 0)  -->
<svg version="1.1" xmlns="http://www.w3.org/2000/svg" xmlns:xlink="http://www.w3.org/1999/xlink" x="0px" y="0px"
	 viewBox="0 0 512 512" style="enable-background:new 0 0 512 512;" xml:space="preserve">
<path style="fill:#1689FC;" d="M410.797,205.3c-2.695-3.6-7.2-5.7-11.697-5.7H112.899c-4.497,0-9.001,2.1-11.697,5.7
	c-3.003,3.6-3.904,8.399-2.703,12.599l22.8,94.2c0.901,3.3,2.999,6.299,5.698,8.399C165.099,348.999,210.399,363.1,256,363.1
	s90.901-14.101,129.001-42.601c2.699-2.1,4.797-5.099,5.698-8.399l22.8-94.2C414.701,213.699,413.8,208.9,410.797,205.3z"/>
<path style="fill:#136EF1;" d="M413.5,217.899l-22.8,94.2c-0.901,3.3-2.999,6.299-5.698,8.399
	C346.901,348.999,301.601,363.1,256,363.1V199.6h143.101c4.497,0,9.001,2.1,11.697,5.7C413.8,208.9,414.701,213.699,413.5,217.899z"
	/>
<path style="fill:#18A7FC;" d="M503.599,152.5l-241-120c-2.098-0.901-4.197-1.5-6.599-1.5s-4.501,0.599-6.599,1.5l-241,120
	C3.3,155.2,0,160.3,0,166s3.3,10.8,8.401,13.5l241,120c2.098,0.899,4.197,1.5,6.599,1.5c2.402,0,4.501-0.601,6.599-1.5l241-120
	C508.7,176.8,512,171.7,512,166S508.7,155.2,503.599,152.5z"/>
<path style="fill:#57555C;" d="M466,331c-8.291,0-15-6.709-15-15V181c0-8.291,6.709-15,15-15s15,6.709,15,15v135
	C481,324.291,474.291,331,466,331z"/>
<path style="fill:#FCBF29;" d="M466,481c-2.93,0-5.83-0.85-8.35-2.549C453.9,475.932,421,452.934,421,421s32.9-54.932,36.65-57.451
	c5.039-3.398,11.66-3.398,16.699,0C478.1,366.068,511,389.066,511,421s-32.9,54.932-36.65,57.451C471.83,480.15,468.93,481,466,481z
	"/>
<g>
	<path style="fill:#1689FC;" d="M466,391c-24.814,0-45-20.186-45-45s20.186-45,45-45s45,20.186,45,45S490.814,391,466,391z"/>
	<path style="fill:#1689FC;" d="M503.599,152.5C508.7,155.2,512,160.3,512,166s-3.3,10.8-8.401,13.5l-241,120
		c-2.098,0.899-4.197,1.5-6.599,1.5V31c2.402,0,4.501,0.599,6.599,1.5L503.599,152.5z"/>
	<path style="fill:#1689FC;" d="M330.099,150.099C310.302,170.2,283.898,181,256,181s-54.302-10.8-74.099-30.901
		c-5.999-5.7-5.999-15.3,0-21c5.698-5.999,15.3-5.999,20.999,0c14.099,14.101,33.6,21.301,53.101,21.301s39.001-7.2,53.101-21.301
		c5.698-5.999,15.3-5.999,20.999,0C336.098,134.799,336.098,144.399,330.099,150.099z"/>
</g>
<path style="fill:#136EF1;" d="M330.099,150.099C310.302,170.2,283.898,181,256,181v-30.601c19.501,0,39.001-7.2,53.101-21.301
	c5.698-5.999,15.3-5.999,20.999,0C336.098,134.799,336.098,144.399,330.099,150.099z"/>
<g>
</g>
<g>
</g>
<g>
</g>
<g>
</g>
<g>
</g>
<g>
</g>
<g>
</g>
<g>
</g>
<g>
</g>
<g>
</g>
<g>
</g>
<g>
</g>
<g>
</g>
<g>
</g>
<g>
</g>
</svg>
