<?xml version="1.0" encoding="iso-8859-1"?>
<!-- Generator: Adobe Illustrator 19.0.0, SVG Export Plug-In . SVG Version: 6.00 Build 0)  -->
<svg version="1.1" xmlns="http://www.w3.org/2000/svg" xmlns:xlink="http://www.w3.org/1999/xlink" x="0px" y="0px"
	 viewBox="0 0 512 512" style="enable-background:new 0 0 512 512;" xml:space="preserve">
<path style="fill:#E8A137;" d="M437.881,279.46l-50.28-156.2c-0.756-2.35-2.081-4.477-3.856-6.191L267.298,4.566
	C264.266,1.637,260.216,0,256,0l0,0c-4.216,0-8.267,1.637-11.298,4.566L128.255,117.069c-1.775,1.715-3.1,3.842-3.856,6.191
	l-50.28,156.2c-1.141,3.543-0.923,7.384,0.61,10.776l55.161,122c1.539,3.402,4.291,6.108,7.718,7.59l112.442,48.588
	c1.899,0.82,3.924,1.23,5.95,1.23c2.025,0,4.052-0.41,5.95-1.23l112.442-48.588c3.427-1.481,6.179-4.188,7.718-7.59l55.161-122
	C438.804,286.845,439.022,283.004,437.881,279.46z"/>
<path style="fill:#FFCC30;" d="M256,0L256,0c-4.216,0-8.267,1.637-11.298,4.566L128.255,117.069c-1.775,1.715-3.1,3.842-3.856,6.191
	l-50.28,156.2c-1.141,3.543-0.923,7.384,0.61,10.776l55.161,122c1.539,3.402,4.291,6.108,7.718,7.59l112.442,48.588
	c1.899,0.82,3.924,1.23,5.95,1.23V0z"/>
<path style="fill:#99522E;" d="M362.345,295.467c-5.068-6.553-14.489-7.758-21.042-2.688L271,347.151v-48.173
	c0.397-0.252,0.789-0.519,1.168-0.813l77.574-59.997c6.553-5.068,7.757-14.489,2.688-21.042s-14.49-7.758-21.042-2.688L271,261.144
	v-52.471l48.4-37.433c6.553-5.068,7.757-14.489,2.688-21.042s-14.49-7.758-21.042-2.688L271,170.748V92.65c0-8.284-6.716-15-15-15
	s-15,6.716-15,15v78.097l-30.047-23.238c-6.553-5.068-15.974-3.865-21.042,2.688c-5.068,6.553-3.865,15.974,2.688,21.042
	l48.4,37.433v52.471l-60.389-46.705c-6.554-5.067-15.975-3.865-21.042,2.688c-5.068,6.553-3.865,15.974,2.688,21.042l77.574,59.997
	c0.38,0.294,0.771,0.561,1.168,0.813v48.173l-70.304-54.373c-6.553-5.068-15.974-3.864-21.042,2.688
	c-5.068,6.553-3.865,15.974,2.688,21.042L241,385.077V497c0,8.284,6.716,15,15,15s15-6.716,15-15V385.077l88.657-68.568
	C366.21,311.441,367.414,302.02,362.345,295.467z"/>
<path style="fill:#802812;" d="M362.345,295.467c-5.068-6.553-14.489-7.758-21.042-2.688L271,347.151v-48.173
	c0.397-0.252,0.789-0.519,1.168-0.813l77.574-59.997c6.553-5.068,7.757-14.489,2.688-21.042s-14.49-7.758-21.042-2.688L271,261.144
	v-52.471l48.4-37.433c6.553-5.068,7.757-14.489,2.688-21.042s-14.49-7.758-21.042-2.688L271,170.748V92.65c0-8.284-6.716-15-15-15
	c0,0-0.229,434.35,0,434.35c8.284,0,15-6.716,15-15V385.077l88.657-68.568C366.21,311.441,367.414,302.02,362.345,295.467z"/>
<g>
</g>
<g>
</g>
<g>
</g>
<g>
</g>
<g>
</g>
<g>
</g>
<g>
</g>
<g>
</g>
<g>
</g>
<g>
</g>
<g>
</g>
<g>
</g>
<g>
</g>
<g>
</g>
<g>
</g>
</svg>
