<svg enable-background="new 0 0 512 512" height="512" viewBox="0 0 512 512" width="512" xmlns="http://www.w3.org/2000/svg"><g><g><path d="m386.057 143.491-119.08-138.065c-2.849-3.304-6.995-5.203-11.358-5.203s-8.51 1.899-11.358 5.203l-119.081 138.065c-3.832 4.442-4.722 10.71-2.279 16.044 2.443 5.333 7.771 8.753 13.638 8.753h29.895v328.372c0 5.75 3.238 10.737 7.987 13.255h158.472c4.627-2.554 7.765-7.478 7.765-13.138v-328.49h34.042c5.866 0 11.194-3.42 13.638-8.753 2.44-5.332 1.551-11.601-2.281-16.043z" fill="#c4e83a"/><g style="fill:none;stroke:#000;stroke-width:30;stroke-linecap:round;stroke-linejoin:round;stroke-miterlimit:10"><path d="m134.552 496.66v-87.153"/><path d="m376.5 496.66v-87.153"/></g></g><g><path d="m386.057 143.491-119.08-138.065c-2.849-3.304-6.995-5.203-11.358-5.203v509.693h77.273c4.627-2.554 7.765-7.478 7.765-13.138v-328.49h34.042c5.866 0 11.194-3.42 13.638-8.753 2.441-5.333 1.552-11.602-2.28-16.044z" fill="#90d960"/></g><g style="fill:none;stroke:#000;stroke-width:30;stroke-linecap:round;stroke-linejoin:round;stroke-miterlimit:10"><path d="m134.552 496.66v-87.153"/><path d="m376.5 496.66v-87.153"/></g><g><g><g><g><g><path d="m148.75 404.368h-41.5c-59.19 0-107.33 48.2-107.25 107.41h256v-.15c0-59.14-48.11-107.26-107.25-107.26z" fill="#5ecbf1"/></g><g><path d="m256 511.628v.15h-128v-107.41h20.75c59.14 0 107.25 48.12 107.25 107.26z" fill="#4793ff"/></g><g><ellipse cx="128" cy="360.034" fill="#e5ae8c" rx="76.814" ry="76.814" transform="matrix(.383 -.924 .924 .383 -253.612 340.512)"/><g><path d="m128 283.22v153.627c42.355 0 76.813-34.458 76.813-76.814.001-42.354-34.458-76.813-76.813-76.813z" fill="#ffddce"/><path d="m51.187 360.034c0 42.355 34.458 76.814 76.814 76.814v-153.628c-42.356 0-76.814 34.459-76.814 76.814z" fill="#ffece2"/></g></g></g><g><g><path d="m404.75 404.368h-41.5c-59.14 0-107.25 48.12-107.25 107.26v.15h256c.08-59.21-48.06-107.41-107.25-107.41z" fill="#ff0059"/></g><g><path d="m512 511.778h-128v-107.41h20.75c59.19 0 107.33 48.2 107.25 107.41z" fill="#d20041"/></g><g><ellipse cx="384" cy="360.034" fill="#e5ae8c" rx="76.814" ry="76.814" transform="matrix(.383 -.924 .924 .383 -95.578 577.025)"/><g><path d="m384 283.22v153.627c42.355 0 76.813-34.458 76.813-76.814.001-42.354-34.458-76.813-76.813-76.813z" fill="#dd9366"/><path d="m307.187 360.034c0 42.355 34.458 76.814 76.814 76.814v-153.628c-42.356 0-76.814 34.459-76.814 76.814z" fill="#e5ae8c"/></g></g></g></g></g></g></g></svg>
