<svg width="40px" height="32px" viewBox="0 0 40 32" version="1.1" xmlns="http://www.w3.org/2000/svg" xmlns:xlink="http://www.w3.org/1999/xlink">
    <path d="M25.2378696,21.9245635 C25.2378696,17.9157392 28.0581384,14.5831 31.7329617,13.9811429 C31.3376035,13.9164069 30.9382555,13.8839701 30.5383375,13.8839701 C26.298218,13.8839701 22.8486212,17.4909189 22.8486212,21.9245635 C22.8486212,26.3582081 26.298218,29.9651568 30.5383375,29.9651568 C30.9382555,29.9651568 31.3376035,29.93272 31.7329617,29.8679841 C28.0581384,29.2661125 25.2378696,25.9333878 25.2378696,21.9245635 L25.2378696,21.9245635 Z" fill="#D4E1F4" class="text-lighten-fill-color"></path>
    <path d="M2.19165754,30.6238766 L28.1593629,30.6238766 L28.1593629,29.5964998 L6.06255848,29.5964998 L6.06255848,7.37271279 L26.7848283,7.37271279 L26.7848283,14.0861065 L27.7405276,14.0861065 L27.7405276,7.37271279 L30.6554107,7.37271279 C31.3427443,7.37897719 31.8956533,7.98216336 31.8913688,8.72105923 L31.8913688,13.5862877 L32.8470886,13.5862877 L32.8470886,8.72105923 C32.8507301,7.41503609 31.8703043,6.35226949 30.6554107,6.34533599 L23.8428671,6.34533599 L23.8428671,2.18386063 C23.8428671,0.979689398 22.9629069,0 21.8812941,0 L10.9661722,0 C9.88455944,0 9.0045993,0.979689398 9.0045993,2.18386063 L9.0045993,6.34533599 L2.19165754,6.34533599 C0.976763898,6.35226949 -0.00366194063,7.41503609 -2.03926985e-05,8.72105923 L-2.03926985e-05,28.2481533 C-0.00366194063,29.5541765 0.976763898,30.6169431 2.19165754,30.6238766 L2.19165754,30.6238766 Z M20.9865207,6.34533599 L11.8608661,6.34533599 L11.8608661,3.05139472 L20.9865207,3.05139472 L20.9865207,6.34533599 Z M9.9602987,2.18386063 C9.9602987,1.54620209 10.4114684,1.0273768 10.9661722,1.0273768 L21.8812941,1.0273768 C22.4359183,1.0273768 22.8871677,1.54620209 22.8871677,2.18386063 L22.8871677,6.34533599 L21.94222,6.34533599 L21.94222,2.69532305 C21.942353,2.32531406 21.6638547,2.02500924 21.3196615,2.02401792 L11.5278048,2.02401792 C11.1835806,2.02496212 10.9050339,2.32528073 10.9051668,2.69532305 L10.9051668,6.34533599 L9.9602987,6.34533599 L9.9602987,2.18386063 Z M0.95565117,8.72105923 C0.951458819,7.98218255 1.50434238,7.37902412 2.19165754,7.37271279 L5.10654057,7.37271279 L5.10654057,29.5964998 L2.19165754,29.5964998 C1.50434238,29.5901884 0.951458819,28.98703 0.95565117,28.2481533 L0.95565117,8.72105923 Z" fill="#47586D" class="text-fill-color"></path>
    <g transform="translate(21.821802, 12.842210)" fill="#0071DC" class="primary-fill-color">
        <path d="M8.71653559,0.0143832753 C3.94942757,0.0143832753 0.0711199602,4.08228173 0.0711199602,9.08235341 C0.0711199602,14.0824251 3.94942757,18.1503235 8.71653559,18.1503235 C13.4836436,18.1503235 17.3618715,14.0824251 17.3618715,9.08235341 C17.3618715,4.08228173 13.483325,0.0143832753 8.71653559,0.0143832753 Z M8.71653559,17.1229467 C4.47641613,17.1229467 1.02681931,13.515998 1.02681931,9.08235341 C1.02681931,4.64870881 4.47641613,1.04176008 8.71653559,1.04176008 C12.9566551,1.04176008 16.4061722,4.64888004 16.4061722,9.08235341 C16.4061722,13.5158268 12.9566551,17.1229467 8.71653559,17.1229467 Z"></path>
        <path d="M9.31926335,4.41772026 L9.31926335,3.80215032 C9.31926335,3.51844805 9.10532273,3.28846192 8.84141364,3.28846192 C8.57750455,3.28846192 8.36356396,3.51844805 8.36356396,3.80215032 L8.36356396,4.41994624 C7.93061584,4.48999752 7.5283592,4.70208415 7.21178696,5.02721155 C6.5538676,5.71658138 6.51516177,6.67957591 6.51890493,6.95782379 C6.53371827,8.0462439 7.30385266,8.96437631 8.39191637,9.1903992 L8.49959183,9.21291588 C8.57819811,9.22943952 8.67090095,9.24887407 8.72895968,9.2606889 C8.76447984,9.26796615 8.85543056,9.29716078 8.89445495,9.30966053 C8.90841429,9.31418873 8.92213309,9.31953335 8.93555003,9.32567048 C8.94176207,9.32858138 8.94805376,9.33123544 8.95434544,9.33423196 L9.10319562,9.3949328 C9.11654648,9.40039414 9.12962523,9.40659525 9.14237929,9.4135112 C9.21294176,9.45178099 9.23484321,9.46539373 9.28143355,9.49441712 L9.37461423,9.55289199 C9.37979098,9.55640219 9.38552512,9.56025485 9.39197609,9.56444998 C9.54496763,9.66324938 10.3095272,10.1952593 10.3397113,10.963566 C10.35779,11.4226322 10.2485217,11.7726252 10.005774,12.0337501 C9.61704335,12.4518069 8.97839721,12.5388771 8.6627775,12.5250931 C8.19886511,12.5041175 7.29182678,12.0671399 7.21218516,11.3061105 C7.18264933,11.0241814 6.94610236,10.821372 6.68384271,10.853123 C6.42158306,10.884874 6.23292312,11.139162 6.26245893,11.4210911 C6.38861125,12.6254335 7.48838228,13.3650592 8.3636436,13.5218198 L8.3636436,14.0408163 C8.3636436,14.3245186 8.5775842,14.5545047 8.84149328,14.5545047 C9.10540237,14.5545047 9.31934298,14.3245186 9.31934298,14.0408163 L9.31934298,13.492882 C9.83113237,13.3993973 10.3054164,13.1441418 10.6816924,12.7596775 C11.1117571,12.2973579 11.3236834,11.6609836 11.2949328,10.9199024 C11.2454753,9.66059532 10.2067895,8.89203186 9.8829666,8.68236137 L9.84019907,8.65410851 L9.76055749,8.60488004 C9.6983574,8.56618218 9.66443005,8.5453778 9.57324037,8.49589248 C9.53084558,8.47296319 9.48738372,8.45238858 9.44302642,8.43424988 L9.3025386,8.376888 C9.25862757,8.3572297 9.21377975,8.34008278 9.16818317,8.32551916 C9.07492285,8.29555401 8.98500747,8.26738676 8.90743654,8.25163365 C8.85073171,8.24007566 8.76001991,8.22106919 8.68308611,8.20497362 L8.57365854,8.18202887 C7.82423096,8.02629567 7.48185167,7.44762568 7.47460428,6.94309806 C7.46974614,6.58266003 7.57335988,6.08344052 7.87894474,5.76324141 C8.12272772,5.50776705 8.47769039,5.38859134 8.93363862,5.40785465 C10.1619513,5.46093579 10.4521653,6.51442509 10.4818715,6.63728223 C10.5465825,6.91023926 10.803703,7.0762614 11.0582559,7.00945244 C11.3128089,6.94264347 11.4698324,6.66792677 11.4102539,6.3936227 C11.1387863,5.34794152 10.3187689,4.57305792 9.31926335,4.41772026 L9.31926335,4.41772026 Z"></path>
    </g>
</svg>
