<svg enable-background="new 0 0 512 512" height="512" viewBox="0 0 512 512" width="512" xmlns="http://www.w3.org/2000/svg"><g><path d="m338.561 292.768c-11.191-17.048-21.599-33.445-25.598-51.768l-38.972-30h-145.781l-29.128 30c-3.999 18.323-14.407 34.72-25.598 51.768-7.926 12.079-15.51 24.673-21.613 38.232l25.245 30h247.031l35.99-30c-6.142-13.574-13.709-26.234-21.576-38.232z" fill="#ffd5cc"/><path d="m360.137 331c-6.141-13.574-13.709-26.234-21.575-38.232-11.192-17.048-21.6-33.445-25.599-51.768l-38.972-30h-67.969v150h118.124z" fill="#ffbfb3"/><path d="m428.444 337.592c-2.798-4.116-7.441-6.592-12.422-6.592h-364.151c-1.582 3.517-10.864 18.532-10.864 45.981-.688 38.965 10.532 84.613 31.597 126.728 2.549 5.083 7.734 8.291 13.418 8.291h75c6.456 0 11.841-4.116 13.958-9.831l-9.564-30.775 31.817 10.606h17.578l31.816-10.605-9.564 30.775c2.117 5.715 7.502 9.831 13.958 9.831h105c6.138 0 11.646-3.735 13.931-9.434l60-151c1.847-4.615 1.275-9.859-1.508-13.975z" fill="#4d578c"/><path d="m246.628 471.395-9.564 30.775c2.117 5.715 7.502 9.831 13.958 9.831h105c6.138 0 11.646-3.735 13.931-9.434l60-151c1.846-4.614 1.274-9.858-1.509-13.975-2.798-4.116-7.441-6.592-12.422-6.592h-210v151h8.789z" fill="#333e73"/><path d="m176.022 482h21.211l-40.605-40.605c-5.859-5.859-15.352-5.859-21.211 0s-5.859 15.352 0 21.211l39.564 39.564c.602-1.624 1.042-3.334 1.042-5.169v-15.001z" fill="#333e73"/><path d="m276.628 441.395c-5.859-5.859-15.352-5.859-21.211 0l-40.606 40.605h21.211v15c0 1.835.439 3.545 1.042 5.169l39.564-39.564c5.859-5.859 5.859-15.351 0-21.21z" fill="#1f2859"/><g><path d="m386.022 271c-8.291 0-15-6.709-15-15v-30c0-8.291 6.709-15 15-15s15 6.709 15 15v30c0 8.291-6.709 15-15 15z" fill="#fed843"/></g><g><path d="m424.206 292.816c-5.859-5.859-5.859-15.352 0-21.211l21.211-21.211c5.859-5.859 15.352-5.859 21.211 0s5.859 15.352 0 21.211l-21.211 21.211c-5.859 5.86-15.352 5.86-21.211 0z" fill="#fed843"/></g><path d="m341.022 136c0-.311-.159-.569-.178-.877.015-.302.167-.56.163-.866-.366-25.547-8.364-46.073-16.113-64.955-7.133-17.388-13.872-33.823-13.872-54.302 0-8.291-6.709-15-15-15h-30c-8.291 0-15 6.709-15 15v61c0 24.814-20.186 45-45 45s-45-20.186-45-45v-61c0-8.291-6.709-15-15-15h-30c-8.291 0-15 6.709-15 15 0 20.479-6.738 36.914-13.872 54.302-7.925 19.336-16.128 40.316-16.128 66.698 0 21.401 8.95 37.764 16.846 52.192 7.061 12.92 13.154 24.067 13.154 37.808 0 5.208-.879 10.129-1.941 15h213.882c-1.062-4.871-1.941-9.792-1.941-15 0-13.74 6.094-24.888 13.154-37.808 7.896-14.428 16.846-30.791 16.846-52.192z" fill="#f9b"/><path d="m311.022 226c0-13.74 6.094-24.888 13.154-37.808 7.896-14.429 16.846-30.791 16.846-52.192 0-.311-.159-.569-.178-.877.015-.302.167-.56.163-.866-.366-25.547-8.364-46.073-16.113-64.955-7.133-17.388-13.872-33.823-13.872-54.302 0-8.291-6.709-15-15-15h-30c-8.291 0-15 6.709-15 15v61c0 24.814-20.186 45-45 45v120h106.941c-1.062-4.871-1.941-9.792-1.941-15z" fill="#f69"/><circle cx="206.022" cy="286" fill="#ffbfb3" r="15"/><path d="m221.022 286c0-8.284-6.716-15-15-15v30c8.284 0 15-6.716 15-15z" fill="#fa9"/></g></svg>
