<svg enable-background="new 0 0 512 512" height="512" viewBox="0 0 512 512" width="512" xmlns="http://www.w3.org/2000/svg"><g><path d="m346 15v467h-135l-30 30h-150c-8.401 0-15-6.599-15-15v-482c0-8.401 6.599-15 15-15h300c8.401 0 15 6.599 15 15z" fill="#edf5ff"/><g fill="#d5e8fe"><path d="m346 15v467h-135l-30 30v-512h150c8.401 0 15 6.599 15 15z"/><path d="m286 106c0 8.401-6.599 15-15 15h-180c-8.401 0-15-6.599-15-15s6.599-15 15-15h180c8.401 0 15 6.599 15 15z"/><path d="m226 166c0 8.401-6.599 15-15 15h-120c-8.401 0-15-6.599-15-15s6.599-15 15-15h120c8.401 0 15 6.599 15 15z"/><path d="m196 226c0 8.401-6.599 15-15 15h-90c-8.401 0-15-6.599-15-15s6.599-15 15-15h90c8.401 0 15 6.599 15 15z"/></g><g><path d="m331 211c-41.353 0-75 33.647-75 75 0 8.291 6.709 15 15 15s15-6.709 15-15c0-24.814 20.186-45 45-45s45 20.186 45 45c0 8.291 6.709 15 15 15s15-6.709 15-15c0-41.353-33.647-75-75-75z" fill="#47568c"/><path d="m376 286c0 8.291 6.709 15 15 15s15-6.709 15-15c0-41.353-33.647-75-75-75v30c24.814 0 45 20.186 45 45z" fill="#29376d"/><path d="m467.251 376h-136.251-135l-30 30v91c0 8.291 6.709 15 15 15h150 150c8.291 0 15-6.709 15-15v-91z" fill="#61729b"/><path d="m496 497v-91l-28.749-30h-136.251v136h150c8.291 0 15-6.709 15-15z" fill="#47568c"/><path d="m481 271h-150-150c-8.291 0-15 6.709-15 15v120h165 165v-120c0-8.291-6.709-15-15-15z" fill="#6aa9ff"/><path d="m496 286c0-8.291-6.709-15-15-15h-150v135h165z" fill="#4895ff"/><path d="m361 361h-30-30c-8.291 0-15 6.709-15 15v30c0 24.814 20.186 45 45 45s45-20.186 45-45v-30c0-8.291-6.709-15-15-15z" fill="#edf5ff"/><path d="m376 406v-30c0-8.291-6.709-15-15-15h-30v90c24.814 0 45-20.186 45-45z" fill="#d5e8fe"/></g><path d="m196 226c0 8.401-6.599 15-15 15v-30c8.401 0 15 6.599 15 15z" fill="#b5dbff"/><path d="m226 166c0 8.401-6.599 15-15 15h-30v-30h30c8.401 0 15 6.599 15 15z" fill="#b5dbff"/><path d="m286 106c0 8.401-6.599 15-15 15h-90v-30h90c8.401 0 15 6.599 15 15z" fill="#b5dbff"/></g></svg>
