<svg width="40px" height="36px" viewBox="0 0 40 36" version="1.1" xmlns="http://www.w3.org/2000/svg" xmlns:xlink="http://www.w3.org/1999/xlink">
    <polygon fill="#D4E1F4" class="text-lighten-fill-color" points="16.4853556 31.7991632 18.9958159 31.7991632 18.9958159 34.0585774 16.4853556 34.0585774"></polygon>
    <path d="M10.8786611,22.6976569 L10.8786611,20.7531381 L8.36820084,20.7531381 L8.36820084,22.6976569 C8.36820084,27.0472803 11.9253556,30.6276151 16.2748954,30.6276151 L18.7853556,30.6276151 C14.4358159,30.6276151 10.8786611,27.0472803 10.8786611,22.6976569 L10.8786611,22.6976569 Z" fill="#D4E1F4" class="text-lighten-fill-color"></path>
    <g fill="#0071DC" class="primary-fill-color">
        <path d="M32.4846862,13.0292887 C32.8496925,13.0117567 33.1968383,12.866125 33.4651046,12.6179916 C33.4830126,12.6016736 33.5006695,12.5845188 33.5166527,12.5691213 C33.5345607,12.5515481 33.5520502,12.5337238 33.5682845,12.5164017 C33.8368376,12.2356781 33.9931195,11.8662169 34.0075314,11.4779916 C34.0633473,11.4819247 34.1190795,11.4844351 34.1748954,11.4844351 C35.0890025,11.4837976 35.9231679,10.9633043 36.325523,10.1425105 C36.6151805,9.54702437 36.5098255,8.83482301 36.0601674,8.34870293 C35.8676987,8.14016736 35.7571548,7.93230126 35.7571548,7.77849372 C35.7571548,7.63824268 35.8764017,7.42393305 36.0759833,7.20502092 C36.5149829,6.7193435 36.615969,6.01611419 36.3313808,5.4265272 C35.8987613,4.5545811 34.9870126,4.02549214 34.0153138,4.08251046 C34.0020567,3.6931146 33.845975,3.32221208 33.5768201,3.04050209 C33.5600837,3.0223431 33.5423431,3.00451883 33.5258577,2.9883682 C33.5093724,2.97221757 33.490795,2.9548954 33.4724686,2.938159 C33.2026254,2.68797897 32.852648,2.54184858 32.4850209,2.52585774 C32.5317224,1.56247688 32.0034783,0.66288512 31.1394142,0.234309623 C30.5498236,-0.0502549085 29.8466081,0.0507291235 29.3609205,0.489707113 C29.1420084,0.689288703 28.9276151,0.808535565 28.7874477,0.808535565 C28.6337238,0.808535565 28.4258577,0.698075314 28.2173222,0.505523013 C27.7310797,0.0560505754 27.0189765,-0.0492850184 26.423431,0.240167364 C25.5590059,0.663935639 25.0321203,1.56388636 25.0856904,2.5251046 C24.7097543,2.54206416 24.3528282,2.69521521 24.0815063,2.95598326 C24.0639331,2.97271967 24.0466109,2.98945607 24.0312971,3.00560669 C24.0141423,3.02301255 23.9978243,3.04066946 23.9803347,3.05941423 C23.7224553,3.33917142 23.573386,3.70209165 23.5601674,4.0823431 C22.5883886,4.02533584 21.6765255,4.55431064 21.2435983,5.42619247 C20.9590417,6.01582539 21.0600589,6.71907415 21.4990795,7.20476987 C21.6987448,7.42359833 21.8179916,7.63790795 21.8179916,7.778159 C21.8179916,7.93196653 21.7074477,8.13983264 21.5148954,8.3483682 C21.0652778,8.83453086 20.9598667,9.54669534 21.2493724,10.1422594 C21.6517275,10.9630533 22.4858929,11.4835466 23.4,11.4841841 C23.4502092,11.4841841 23.5014226,11.4820084 23.5523013,11.4787448 C23.5668895,11.8574123 23.7160131,12.2184716 23.972887,12.4970711 C23.9888703,12.514477 24.0050209,12.5315481 24.0216736,12.5486192 C24.0383264,12.5656904 24.0561506,12.5830126 24.0739749,12.5999163 C24.3472473,12.861996 24.707091,13.014841 25.0854393,13.0295397 C25.0309464,13.9914902 25.5579421,14.8925095 26.4230962,15.316569 C27.0187913,15.6064915 27.7313634,15.5010544 28.2175732,15.051046 C28.4260251,14.8585774 28.6338912,14.7480335 28.7876987,14.7480335 C28.9278661,14.7480335 29.1421757,14.8672803 29.3610879,15.0669456 C29.6574349,15.3352135 30.0431095,15.4834329 30.4428452,15.4826835 C30.6842993,15.4830937 30.9226501,15.428279 31.1396653,15.3224268 C32.0039562,14.8933471 32.5320079,13.9930671 32.4846862,13.0292887 L32.4846862,13.0292887 Z M33.7360669,5.32435146 C34.3324816,5.10808515 34.9962572,5.3735378 35.2790795,5.94142259 C35.3546728,6.09868833 35.327512,6.28606789 35.2103766,6.41539749 C34.7958159,6.87004184 34.585523,7.32853556 34.585523,7.77841004 C34.585523,8.23648536 34.7977406,8.70845188 35.1994979,9.14351464 C35.321046,9.27189474 35.3514407,9.46167064 35.2760669,9.62158996 C34.9966639,10.1912974 34.3304248,10.4558377 33.736318,10.2329707 L32.5621757,9.64719665 L32.5525523,9.64292887 L30.9277824,8.83054393 C31.0033953,8.67774178 31.0623132,8.51723265 31.1035146,8.35179916 L31.7803347,8.34451883 C31.988182,8.34771145 32.1815166,8.23829232 32.2857791,8.05845904 C32.3900415,7.87862576 32.3889402,7.65647798 32.2829,7.47768724 C32.1768597,7.2988965 31.9824497,7.19139956 31.7746444,7.19665272 L31.7682008,7.19665272 L31.0987448,7.19205021 C31.0579542,7.0333021 31.0011787,6.87909706 30.9292887,6.73179916 L32.5620084,5.91330544 L32.563431,5.91439331 L32.663431,5.86050209 L33.7360669,5.32435146 Z M31.692636,4.54962343 L31.6956485,4.55121339 L31.9257741,4.10209205 C31.9341423,4.08535565 31.9416736,4.06920502 31.9483682,4.05230126 C32.0121255,3.88219022 32.1539717,3.75324204 32.3293724,3.70594142 C32.4558336,3.67473385 32.5894302,3.71138819 32.6822594,3.80276151 C32.689205,3.80920502 32.6962343,3.81573222 32.7043515,3.82376569 C32.7108787,3.83012552 32.7170711,3.83648536 32.7238494,3.84368201 C32.8243715,3.9456269 32.8660918,4.09172671 32.8345607,4.23138075 C32.7949636,4.40604975 32.6727443,4.55047087 32.5070293,4.61841004 C32.4920502,4.62485356 32.4773222,4.63188285 32.4630126,4.63949791 L32.125523,4.81841004 L31.3695397,5.19598326 L31.692636,4.54962343 Z M26.9442678,1.28945607 C27.1042552,1.21407571 27.2940959,1.24450338 27.4225105,1.36610879 C27.8576569,1.76778243 28.3294561,1.98 28.7874477,1.98 C29.2371548,1.98 29.6957322,1.76979079 30.1503766,1.35523013 C30.2797245,1.23807367 30.4671235,1.21088179 30.6244351,1.28644351 C31.1924533,1.56914716 31.4581184,2.23291404 31.2420084,2.82945607 L29.84,5.63640167 C29.6858749,5.56047975 29.5239454,5.50155549 29.3570711,5.46066946 L29.3538912,4.77799163 C29.353199,4.45349071 29.0925807,4.18940989 28.7681172,4.18443515 L28.765272,4.18443515 C28.4395274,4.19052607 28.1794492,4.45780898 28.1822594,4.78359833 L28.1854393,5.46317992 C28.0298082,5.50469815 27.8788177,5.56198203 27.7348117,5.63414226 L26.9130544,3.99029289 L26.9174895,3.98861925 L26.8275314,3.81983264 L26.3329707,2.8292887 C26.1099571,2.23517875 26.3744882,1.56883563 26.9442678,1.28945607 L26.9442678,1.28945607 Z M30.0029289,7.77807531 C30.0029966,8.26974824 29.7068676,8.71304395 29.2526372,8.90123813 C28.7984068,9.0894323 28.2755367,8.98545971 27.9278595,8.63780641 C27.5801822,8.29015312 27.4761736,7.76729015 27.6643365,7.31304682 C27.8524994,6.8588035 28.2957748,6.56264398 28.7874477,6.56267782 C29.4584009,6.56341564 30.0021449,7.10712217 30.0029289,7.77807531 Z M24.8451883,3.84937238 C24.8515481,3.84242678 24.858159,3.83539749 24.8661925,3.82719665 C24.8729707,3.82025105 24.8798326,3.81355649 24.8864435,3.80728033 C24.9771369,3.71435919 25.1096674,3.67536098 25.2362343,3.70435146 C25.412374,3.74891003 25.5562044,3.87569635 25.6225105,4.04485356 C25.6295397,4.06158996 25.6373222,4.07832636 25.6459414,4.09414226 L25.783682,4.35288703 L26.2048536,5.19623431 L25.5697908,4.8790795 L25.5724686,4.8739749 L25.1194979,4.6423431 C25.1049372,4.63492329 25.0901255,4.62811715 25.0750628,4.62192469 C24.9083372,4.55650323 24.783936,4.41396022 24.7416736,4.23991632 C24.7076019,4.10060312 24.7465866,3.95352017 24.8451883,3.84937238 L24.8451883,3.84937238 Z M23.8385774,10.2311297 C23.244965,10.4546555 22.5786503,10.190918 22.2988285,9.62167364 C22.2234892,9.46172175 22.2538791,9.27194313 22.3753975,9.14351464 C22.7770711,8.7083682 22.9894561,8.23656904 22.9894561,7.77841004 C22.9894561,7.32853556 22.7791632,6.87004184 22.3646025,6.41539749 C22.2473089,6.2861475 22.2201027,6.0986831 22.2958159,5.94142259 C22.5785792,5.37342207 23.2423471,5.10777091 23.8389121,5.32384937 L26.6457741,6.72585774 C26.5700233,6.8790082 26.5111015,7.03992068 26.4700418,7.20577406 L25.7948117,7.21196653 C25.5845931,7.20738731 25.3884525,7.31726694 25.2825683,7.49892968 C25.176684,7.68059243 25.1777417,7.90541133 25.2853304,8.08606982 C25.3929191,8.26672832 25.5900848,8.37475769 25.800251,8.36820084 L25.8056904,8.36820084 L26.476569,8.36962343 C26.517278,8.52740817 26.5739439,8.68063882 26.6456904,8.82694561 L23.8385774,10.2311297 Z M25.8770711,11.0170711 L25.8754812,11.0162343 L25.6382427,11.4619247 C25.6298745,11.4779916 25.6215063,11.4943933 25.6148117,11.5112971 C25.548477,11.6803855 25.4046956,11.807125 25.2286192,11.8517155 C25.1022082,11.8804599 24.9699333,11.8415946 24.8791632,11.7490377 C24.8722176,11.7424268 24.8653556,11.7357322 24.8584937,11.7287866 C24.8516318,11.721841 24.8443515,11.7140586 24.8383264,11.7075314 C24.739227,11.6033179 24.6999133,11.455868 24.7339749,11.3161506 C24.7763118,11.1420717 24.9007629,10.9995119 25.0675314,10.9340586 C25.0825105,10.9278661 25.0974059,10.9210042 25.1118828,10.9136402 L25.5647699,10.6819247 L25.5641841,10.6806695 L26.2050209,10.3605858 L25.8770711,11.0170711 Z M30.6241004,14.2704603 C30.4667976,14.3461655 30.2792999,14.3189262 30.1500418,14.20159 C29.6953138,13.7870293 29.2368201,13.5768201 28.787113,13.5768201 C28.328954,13.5768201 27.8569874,13.7891213 27.4220921,14.190795 C27.293637,14.3123279 27.1038269,14.3427174 26.9438494,14.267364 C26.3742049,13.9879032 26.1097149,13.3216998 26.3325523,12.7276151 L27.7346444,9.92058577 C27.8886826,9.99650654 28.0505288,10.0554311 28.2173222,10.096318 L28.2205858,10.7833473 C28.2210096,11.1086671 28.4811161,11.3741244 28.8063598,11.3811715 L28.8092887,11.3811715 C29.1358896,11.3731374 29.3955184,11.10434 29.3922176,10.7776569 L29.388954,10.0960669 C29.5446247,10.0541123 29.6956356,9.99646687 29.8396653,9.92401674 L30.6476151,11.5399163 L30.6451046,11.5399163 L30.7679498,11.7789958 L30.8879498,12.0191632 C30.9067782,12.060251 30.9266109,12.1005021 30.9482008,12.1396653 L31.2416736,12.7271967 C31.4577436,13.3236279 31.1922527,13.9872833 30.6244351,14.2701255 L30.6241004,14.2704603 Z M32.0292887,10.6902929 L32.4548954,10.9162343 C32.4693724,10.9239331 32.4840167,10.9309623 32.4989958,10.9374059 C32.6647452,11.0052978 32.7869824,11.1497401 32.8265272,11.3244351 C32.8580582,11.4644552 32.8160396,11.6108895 32.7150628,11.712887 C32.7090377,11.7192469 32.7028452,11.7256067 32.6949791,11.7333054 C32.687113,11.7410042 32.6811715,11.7466109 32.6746444,11.7525523 C32.5818361,11.8442638 32.4480049,11.8810976 32.3213389,11.8497908 C32.1758603,11.8116349 32.0524647,11.7153512 31.9800837,11.5835146 L31.9441004,11.5116318 C31.9430126,11.5088703 31.9415063,11.5062762 31.9403347,11.5032636 C31.9336543,11.4861571 31.9261133,11.4693993 31.9177406,11.4530544 L31.8180753,11.2586611 L31.3690377,10.3596653 L32.0292887,10.6902929 Z"></path>
        <path d="M7.08008368,7.27715481 L6.61732218,6.89631799 C6.30626909,6.64017522 5.90618041,6.51813349 5.50512159,6.557056 C5.10406277,6.59597852 4.73490743,6.7926749 4.47891213,7.10384937 L0.354895397,12.1141423 C0.0988003082,12.4251993 -0.0232118312,12.8252637 0.0157095602,13.2262953 C0.0546309516,13.6273269 0.251296408,13.9964626 0.562426778,14.2524686 L1.02518828,14.6334728 C1.29583253,14.8574959 1.63619876,14.9799981 1.98753138,14.9798326 C2.03712692,14.9798326 2.0869735,14.9774059 2.13707113,14.9725523 C2.50245277,14.937616 2.84252619,14.7705399 3.0934728,14.5026778 L9.37799163,20.552887 L10.1904603,19.7088703 L3.8441841,13.5989121 L6.60686192,10.2426778 L21.4111297,20.6103766 L22.0832636,19.650795 L7.34937238,9.33230126 C7.81298075,8.68276813 7.69538644,7.78531671 7.08008368,7.27715481 Z M6.38309623,8.67104603 L2.25891213,13.6814226 C2.13687525,13.8295694 1.91789256,13.8508422 1.76962343,13.728954 L1.30694561,13.3480335 C1.15896469,13.2258729 1.1377077,13.0070157 1.25941423,12.8586611 L5.38351464,7.84828452 C5.44192086,7.77689147 5.52648811,7.73186529 5.61832636,7.7232636 C5.62966955,7.72209401 5.64106529,7.72150627 5.65246862,7.72150627 C5.73292403,7.72150627 5.81085756,7.74958053 5.87280335,7.8009205 L6.33556485,8.18167364 C6.48358971,8.30381085 6.50485038,8.52270593 6.38309623,8.67104603 L6.38309623,8.67104603 Z"></path>
        <path d="M13.1422594,8.88292887 C13.338159,9.84125523 13.7458577,11.8353138 16.0552301,12.2257741 C16.0743933,12.228954 16.0935565,12.2312134 16.1129707,12.2325523 L18.2566527,12.3791632 C18.2700418,12.3800837 18.283431,12.3805021 18.2967364,12.3805021 C18.5213759,12.3805021 18.7261828,12.2518802 18.8239331,12.0496234 L19.7588285,10.1150628 C19.7658577,10.1004184 19.7723013,10.0854393 19.7782427,10.0703766 C20.6179916,7.88543933 19.0767364,6.53589958 18.3359833,5.88736402 L18.2564017,5.81757322 C17.1630962,4.85523013 13.6464435,2.58887029 13.4973222,2.49280335 C13.3123657,2.37378436 13.0763252,2.36840186 12.8861358,2.47886629 C12.6959464,2.58933073 12.5836631,2.79702415 12.5953975,3.01665272 C12.6048536,3.19380753 12.8303766,7.37121339 13.1247699,8.79790795 L13.1422594,8.88292887 Z M17.4822594,6.69682008 L17.5642678,6.76878661 C18.4378243,7.53364017 19.1810879,8.32820084 18.6930544,9.62828452 L18.2503766,10.5439331 L16.2560669,7.11029289 C16.0935704,6.83054565 15.7350611,6.73549515 15.4553138,6.89799164 C15.1755666,7.06048814 15.0805161,7.41899752 15.2430126,7.69874477 L17.2389121,11.1353138 L16.2231799,11.0658577 C14.8446025,10.8200837 14.521841,9.78217573 14.2901255,8.6483682 L14.2722176,8.56133891 C14.087113,7.66384937 13.9237657,5.47539749 13.8352301,4.11305439 C14.9746444,4.86493724 16.7949791,6.09129707 17.4822594,6.69682008 Z"></path>
        <path d="M39.1982427,14.1377406 C39.0323849,14.2005021 35.1204184,15.683431 33.8509623,16.3971548 L33.7756485,16.4394979 C32.925272,16.9151464 31.1558159,17.9049372 31.4717992,20.2101255 C31.5157046,20.5306587 31.8111405,20.7549097 32.1316736,20.7110042 C32.4522068,20.6670987 32.6764578,20.3716628 32.6325523,20.0511297 C32.4408368,18.6536402 33.334477,18.0288703 34.3480335,17.4621757 L34.425523,17.4187448 C35.2243515,16.9700418 37.26,16.1501255 38.5311297,15.6523013 C38.1629289,16.9583264 37.5520502,19.0474477 37.1824268,19.8974059 C37.0965112,20.0897913 37.1205362,20.3134963 37.2453442,20.4832509 C37.3701521,20.6530055 37.5765121,20.7426532 37.7857655,20.7180228 C37.9950189,20.6933923 38.1749231,20.558279 38.2569038,20.3641841 C38.843682,19.0137238 39.9264435,15.0085356 39.9723849,14.8386611 C40.0296706,14.6263 39.963165,14.3997454 39.8001823,14.2520446 C39.6371996,14.1043437 39.405212,14.0603928 39.1994979,14.1382427 L39.1982427,14.1377406 Z"></path>
        <path d="M35.5408368,18.0815063 L34.0405858,19.7369038 C33.8964567,19.8914079 33.8467046,20.1115584 33.9103871,20.3130262 C33.9740696,20.514494 34.1413163,20.6660527 34.348063,20.7096476 C34.5548098,20.7532425 34.769012,20.6821165 34.9086192,20.5235146 L36.4088703,18.8681172 C36.5529994,18.713613 36.6027515,18.4934625 36.539069,18.2919947 C36.4753865,18.0905269 36.3081398,17.9389682 36.101393,17.8953733 C35.8946463,17.8517785 35.680444,17.9229044 35.5408368,18.0815063 L35.5408368,18.0815063 Z"></path>
    </g>
    <path d="M39.0869456,19.58159 L7.80100418,19.58159 C7.47740586,19.58159 7.19665272,19.8066946 7.19665272,20.1302929 L7.19665272,22.6976569 C7.19829418,27.3346682 10.7018451,31.2215148 15.3138075,31.7028452 L15.3138075,34.6558996 C15.3071884,34.8067045 15.3628271,34.953604 15.4676895,35.0621849 C15.5725519,35.1707658 15.7174243,35.2314877 15.8683682,35.2304285 L31.0195816,35.2304285 C31.3460151,35.2374743 31.6182485,34.9821345 31.6317992,34.6558996 L31.6317992,31.7028452 C36.1506276,31.2069456 39.665272,27.3579079 39.665272,22.6976569 L39.665272,20.1302929 C39.665272,19.8066946 39.4104603,19.58159 39.0869456,19.58159 L39.0869456,19.58159 Z M16.4853556,34.0585774 L16.4853556,31.7991632 L30.460251,31.7991632 L30.460251,34.0585774 L16.4853556,34.0585774 Z M38.4937238,22.6976569 C38.4937238,27.0472803 34.9623431,30.6276151 30.6129707,30.6276151 L16.2748954,30.6276151 C11.9253556,30.6276151 8.36820084,27.0472803 8.36820084,22.6976569 L8.36820084,20.7531381 L38.4937238,20.7531381 L38.4937238,22.6976569 Z" fill="#47586D" class="text-fill-color"></path>
</svg>
