<svg width="44px" height="36px" viewBox="0 0 44 36" version="1.1" xmlns="http://www.w3.org/2000/svg" xmlns:xlink="http://www.w3.org/1999/xlink">
    <path d="M2.97109544,25.7038506 C2.97655036,21.3201666 6.28092511,17.6433416 10.6391452,17.1715021 C7.37337745,16.822404 4.19483269,18.3680383 2.45273504,21.1523164 C0.710637392,23.9365944 0.710637392,27.4710155 2.45273504,30.2552936 C4.19483269,33.0395717 7.37337745,34.585206 10.6391452,34.2361079 C6.28093937,33.7643119 2.97655516,30.0875157 2.97109544,25.7038506 L2.97109544,25.7038506 Z" fill="#D4E1F4" class="text-lighten-fill-color"></path>
    <path d="M41.6145975,22.5998423 L41.6145975,7.69278838 C41.6144269,7.66782756 41.6125358,7.64290819 41.6089378,7.61820747 C41.6461466,7.36198492 41.4988606,7.11470596 41.2558423,7.02539419 L22.3405892,0.0724813278 C22.2186039,0.0276434545 22.0846493,0.0276434545 21.9626639,0.0724813278 L3.04741079,7.02521162 C2.83367131,7.10378272 2.6908464,7.30640908 2.688647,7.5341224 C2.68654495,7.76183573 2.82551715,7.96712362 3.03773444,8.04971784 L8.82336929,10.3013859 L8.82336929,16.5827054 L9.91880498,16.5827054 L9.91880498,10.7276929 L21.9529876,15.4112282 C22.0807585,15.460885 22.2224946,15.460885 22.3502656,15.4112282 L34.3844481,10.7276929 L34.3844481,17.8668299 C28.845348,19.8571198 22.9046385,20.4674525 17.0765643,19.6449959 C16.8828241,19.6174864 16.6891246,19.6954258 16.5684306,19.849455 C16.4477366,20.0034843 16.4183844,20.2102027 16.4914306,20.3917414 C16.5644768,20.57328 16.7288241,20.702059 16.9225643,20.7295685 C18.6480093,20.9742294 20.3885652,21.0968575 22.1312697,21.0965394 C26.3025797,21.0967919 30.4444456,20.3980572 34.3848133,19.029361 L34.3848133,23.9937842 C29.4462827,25.7643695 24.182922,26.4446108 18.9565145,25.987751 L18.859751,27.0788963 C19.9400941,27.1748077 21.0241494,27.2226722 22.111917,27.2224896 C26.5530283,27.2223967 30.9587408,26.4325868 35.1233195,24.8899419 C35.337783,24.810159 35.4800481,24.6054619 35.4800664,24.376639 L35.4800664,10.3013859 L40.5190705,8.34019087 L40.5190705,22.6082407 C39.0749631,22.9016649 38.0899082,24.2439439 38.2431018,25.7095754 C38.3962954,27.175207 39.637627,28.2847752 41.1111978,28.2734094 C42.5847685,28.2616893 43.8085657,27.1328108 43.9387803,25.6649593 C44.0689949,24.1971077 43.0630332,22.870425 41.6145062,22.5996598 L41.6145975,22.5998423 Z M22.1516266,14.3130539 L4.78413278,7.55394191 L22.1516266,1.17019917 L39.5191203,7.55394191 L22.1516266,14.3130539 Z M41.090888,27.1739253 C40.3774754,27.1739622 39.7342895,26.7442413 39.4612527,26.0851446 C39.188216,25.4260479 39.3390996,24.6673765 39.8435454,24.1629046 C40.3479912,23.6584326 41.1066548,23.5075098 41.7657657,23.7805124 C42.4248765,24.053515 42.8546307,24.6966787 42.8546307,25.4100913 C42.8535241,26.3837355 42.0645322,27.1727683 41.090888,27.1739253 L41.090888,27.1739253 Z" fill="#47586D" class="text-fill-color"></path>
    <g transform="translate(0.000000, 15.975104)" fill="#0071DC" class="primary-fill-color">
        <path d="M19.4026307,9.72874689 C19.4026307,4.38464715 15.0703819,0.0523983402 9.72628216,0.0523983402 C4.38218242,0.0523983402 0.04993361,4.38464715 0.04993361,9.72874689 C0.04993361,15.0728466 4.38218242,19.4050954 9.72628216,19.4050954 C15.0678794,19.3990586 19.3965939,15.0703441 19.4026307,9.72874689 Z M9.72628216,18.3096598 C4.98717484,18.3096598 1.14536929,14.4678542 1.14536929,9.72874689 C1.14536929,4.98963957 4.98717484,1.14783402 9.72628216,1.14783402 C14.4653895,1.14783402 18.307195,4.98963957 18.307195,9.72874689 C18.3018122,14.4656228 14.4631581,18.304277 9.72628216,18.3096598 L9.72628216,18.3096598 Z"></path>
        <path d="M13.2119585,6.75947718 L8.4353112,11.5361245 L6.24051452,9.34141909 C6.10279397,9.19992555 5.89957602,9.14351094 5.70862557,9.1937633 C5.51767513,9.24401565 5.36855286,9.39315549 5.31832302,9.58411186 C5.26809317,9.77506822 5.32453173,9.97827953 5.46604149,10.1159834 L8.04807469,12.6979253 C8.26195842,12.9117445 8.60866398,12.9117445 8.82254772,12.6979253 L13.9865228,7.53395021 C14.1267698,7.39596909 14.1822372,7.19336809 14.1318323,7.00319092 C14.0814274,6.81301376 13.932895,6.66448127 13.7427178,6.61407637 C13.5525406,6.56367146 13.3499396,6.6191389 13.2119585,6.75938589 L13.2119585,6.75947718 Z"></path>
    </g>
</svg>
