<svg width="40px" height="36px" viewBox="0 0 40 36" version="1.1" xmlns="http://www.w3.org/2000/svg" xmlns:xlink="http://www.w3.org/1999/xlink">
    <path d="M39.3396226,31.5229953 L8.20754717,31.5229953 C5.76002355,31.5209316 3.77623819,29.5371463 3.77358491,27.0890331 L3.77358491,0.666568377 C3.7738797,0.460200453 3.7886203,0.254422189 3.81751177,0.0501178868 C1.62971698,0.359669811 0.00265329811,2.23113208 0,4.44015328 L0,30.862618 C0.00265329811,33.3107312 1.98643864,35.2945165 4.43396226,35.2965802 L35.5660377,35.2965802 C37.7753538,35.2942217 39.6465212,33.667158 39.9560731,31.479658 C39.7520637,31.5082547 39.5459906,31.5229953 39.3396226,31.5229953 Z" fill="#D4E1F4" class="text-lighten-fill-color"></path>
    <path d="M40,4.44015328 L40,30.862618 C39.9973467,33.3107312 38.0135614,35.2945165 35.5660377,35.2965802 L4.43396226,35.2965802 C1.98643864,35.2945165 0.00265329811,33.3107312 0,30.862618 L0,4.44015328 C0.00265329811,1.99262974 1.98643864,0.00884437736 4.43396226,0.00619101887 L35.5660377,0.00619101887 C38.0135614,0.00884437736 39.9973467,1.99262974 40,4.44015328 Z M38.6792453,30.862618 L38.6792453,10.5807783 L1.32075472,10.5807783 L1.32075472,30.862618 C1.32252362,32.5813679 2.71521223,33.9743514 4.43396226,33.9758255 L35.5660377,33.9758255 C37.2847878,33.9743514 38.6774764,32.5813679 38.6792453,30.862618 Z M38.6792453,9.26002355 L38.6792453,4.44015328 C38.6774764,2.72140332 37.2847878,1.32900943 35.5660377,1.32694574 L4.43396226,1.32694574 C2.71521223,1.32900943 1.32252362,2.72140332 1.32075472,4.44015328 L1.32075472,9.26002355 L38.6792453,9.26002355 Z" fill="#47586D" class="text-fill-color"></path>
    <g transform="translate(2.716981, 3.169811)">
        <path d="M26.2016509,17.7072524 L21.928066,14.068691 C21.6497642,13.8422759 21.2417453,13.8800118 21.0088444,14.1530071 C20.7762382,14.4262972 20.8045401,14.8354952 21.0728184,15.0742925 L24.754717,18.2099057 L21.0728184,21.3461085 C20.8867925,21.4970519 20.7971698,21.7367335 20.8387382,21.9725826 C20.8800118,22.2087264 21.0459906,22.4035967 21.2721109,22.4820165 C21.498526,22.5607312 21.7494104,22.510908 21.928066,22.3517099 L26.2016509,18.7128537 C26.3490566,18.5872642 26.4342571,18.4038915 26.4342571,18.2099057 C26.4342571,18.0165094 26.3490566,17.8325472 26.2016509,17.7072524 L26.2016509,17.7072524 Z" fill="#0071DC" class="primary-fill-color"></path>
        <path d="M18.568691,11.2865566 C18.2119694,11.2113797 17.8620283,11.4398585 17.7868514,11.7965802 L15.123526,24.442217 C15.0483491,24.7986438 15.276533,25.1485849 15.6332547,25.2243514 C15.678066,25.2334906 15.7237618,25.2382075 15.7700472,25.2382075 C16.0819576,25.2379128 16.3514151,25.0194575 16.4159788,24.7137382 L19.0790094,12.068691 C19.1535967,11.7119694 18.9254128,11.3617335 18.568691,11.2865566 Z" fill="#0071DC" class="primary-fill-color"></path>
        <path d="M14.9811321,4.27063683 L14.9879128,4.27063683 C16.1391509,4.27004717 17.073408,3.33903306 17.0772406,2.18720521 L17.0772406,2.18071932 C17.0760613,1.02948113 16.1447524,0.0961085283 14.9935141,0.0910916712 L14.9879128,0.0910916712 C13.8337264,0.0893278491 12.8965212,1.02358491 12.8947474,2.17747638 C12.8929835,3.33166272 13.8272406,4.26857313 14.9811321,4.27063683 Z M14.988132,1.12426166 L14.9905591,1.12426166 C15.5730656,1.12507391 16.0451386,1.59899589 16.0439296,2.18228454 C16.0435205,2.76557319 15.5706385,3.23787502 14.988132,3.2374705 L14.9840868,3.2374705 C14.4015803,3.23625477 13.9299118,2.76233269 13.9307188,2.17904405 C13.9319344,1.59535036 14.405221,1.12345367 14.988132,1.12426166 Z" fill="#47586D" class="text-fill-color"></path>
        <path d="M8.13207547,18.2099057 C8.13207547,18.4033019 8.21698113,18.5872642 8.36438679,18.7128537 L12.6379717,22.3517099 C12.9162736,22.5778302 13.3242925,22.5403891 13.5571934,22.2668042 C13.7897995,21.993809 13.7614977,21.5849057 13.4932193,21.3461085 L9.81132075,18.2099057 L13.4932193,15.0742925 C13.7614977,14.8354952 13.7897995,14.4262972 13.5571934,14.1530071 C13.3242925,13.8800118 12.9162736,13.8422759 12.6379717,14.068691 L8.36438679,17.7072524 C8.21698113,17.832842 8.13207547,18.0165094 8.13207547,18.2099057 L8.13207547,18.2099057 Z" fill="#0071DC" class="primary-fill-color"></path>
        <path d="M6.47641007,2.15448113 C6.47464619,3.30807781 7.40624996,4.24557781 8.55955185,4.25058958 L8.56603774,4.25058958 C9.71698113,4.24941042 10.6509434,3.31869102 10.6556604,2.16774762 L10.6556604,2.16126181 C10.6553656,1.00943396 9.7240566,0.0754716981 8.57281842,0.0713443019 L8.56603774,0.0713443019 C7.41450475,0.0716391698 6.48054249,1.00324294 6.47641007,2.15448113 Z M7.82216307,1.41186942 C8.01888573,1.2141625 8.28644489,1.10315497 8.56574251,1.10435071 L8.5693855,1.10435071 C9.15267236,1.10518063 9.624645,1.57919114 9.62343531,2.16258862 C9.62221627,2.74679633 9.14862462,3.21878107 8.56574251,3.21757031 L8.56290903,3.21757031 C8.13586691,3.21675541 7.75132668,2.95827786 7.58941498,2.56286401 C7.42709853,2.16745016 7.51898345,1.71248123 7.82216307,1.41186942 Z" fill="#47586D" class="text-fill-color"></path>
        <path d="M2.15182785,0.0506840835 C0.997641509,0.0468750189 0.0586674717,0.979658038 0.0554010647,2.13413917 C0.051592,3.28832543 0.984375019,4.22700468 2.13856136,4.23084229 L2.14504717,4.23084229 C3.29982309,4.23260611 4.2370283,3.29834906 4.23880214,2.14416272 C4.24056604,0.989681585 3.30630898,0.0524763774 2.15182785,0.0506840835 Z M2.14488336,3.19737676 L2.14165031,3.19737676 C1.55889247,3.19615993 1.08767506,2.72241992 1.08888282,2.13895048 C1.0896957,1.55548103 1.56252973,1.08295576 2.14488336,1.08416584 L2.14892473,1.08416584 C2.73168246,1.08498037 3.20289997,1.55872028 3.20209374,2.1425946 C3.20087924,2.72606415 2.7276412,3.19818444 2.14488336,3.19737676 Z" fill="#47586D" class="text-fill-color"></path>
    </g>
</svg>
