<svg width="40px" height="36px" viewBox="0 0 40 36" version="1.1" xmlns="http://www.w3.org/2000/svg" xmlns:xlink="http://www.w3.org/1999/xlink">
    <path d="M20.9049774,10.9980995 C20.6063348,10.9733937 20.3047964,10.96 20,10.96 C14.2136392,10.9668632 9.44537497,15.5024807 9.14932127,21.281267 L10.959276,21.281267 C11.2383514,15.8495069 15.4855485,11.4581988 20.9049774,10.9980995 L20.9049774,10.9980995 Z" fill="#D4E1F4" class="text-lighten-fill-color"></path>
    <g fill="#0071DC" class="primary-fill-color">
        <path d="M20,9.87402715 C13.4105882,9.87402715 8.04968326,15.2349321 8.04968326,21.8242534 C8.04968326,22.1241365 8.29278656,22.3672398 8.59266968,22.3672398 L31.4071493,22.3672398 C31.7070324,22.3672398 31.9501357,22.1241365 31.9501357,21.8242534 C31.9501357,15.2349321 26.5894118,9.87402715 20,9.87402715 Z M9.14932127,21.281267 C9.44048036,15.5007649 14.2121698,10.9633723 20,10.9633723 C25.7878302,10.9633723 30.5595196,15.5007649 30.8506787,21.281267 L9.14932127,21.281267 Z"></path>
        <path d="M19.4570136,0.561085973 L19.4570136,7.67918552 C19.4570136,7.97906864 19.7001169,8.22217195 20,8.22217195 C20.2998831,8.22217195 20.5429864,7.97906864 20.5429864,7.67918552 L20.5429864,0.561085973 C20.5429864,0.261202851 20.2998831,0.0180995475 20,0.0180995475 C19.7001169,0.0180995475 19.4570136,0.261202851 19.4570136,0.561085973 Z"></path>
        <path d="M10.3745701,6.20624434 C10.2497011,6.27819173 10.1585557,6.39682776 10.1212118,6.53601874 C10.0838678,6.67520972 10.103389,6.82353679 10.1754751,6.94832579 L11.9247059,9.97791855 C12.0210108,10.1473036 12.2006913,10.2521013 12.3955393,10.2525323 C12.5903874,10.252958 12.7705269,10.1489513 12.8675757,9.97999136 C12.9646244,9.81103139 12.9637019,9.60302466 12.8651584,9.43493213 L11.1160181,6.40533937 C10.9662038,6.1456777 10.6343041,6.05655536 10.3745701,6.20624434 Z"></path>
        <path d="M7.52941176,14.3491403 L0.880180995,10.7899548 C0.615759053,10.6484349 0.286678214,10.7480667 0.145158371,11.0124887 C0.00363852768,11.2769106 0.103270365,11.6059915 0.367692308,11.7475113 L7.01719457,15.3066063 C7.28131127,15.4458858 7.60832822,15.345777 7.74921588,15.0825146 C7.89010355,14.8192523 7.79199099,14.4916309 7.52959276,14.3491403 L7.52941176,14.3491403 Z"></path>
        <path d="M5.39864253,21.281267 L1.90045249,21.281267 C1.60056937,21.281267 1.35746606,21.5243703 1.35746606,21.8242534 C1.35746606,22.1241365 1.60056937,22.3672398 1.90045249,22.3672398 L5.39864253,22.3672398 C5.69852566,22.3672398 5.94162896,22.1241365 5.94162896,21.8242534 C5.94162896,21.5243703 5.69852566,21.281267 5.39864253,21.281267 Z"></path>
        <path d="M38.0995475,21.281267 L34.6013575,21.281267 C34.3014743,21.281267 34.058371,21.5243703 34.058371,21.8242534 C34.058371,22.1241365 34.3014743,22.3672398 34.6013575,22.3672398 L38.0995475,22.3672398 C38.3994306,22.3672398 38.6425339,22.1241365 38.6425339,21.8242534 C38.6425339,21.5243703 38.3994306,21.281267 38.0995475,21.281267 Z"></path>
        <path d="M39.0733937,9.91294118 L32.4238914,14.3770136 C32.2628309,14.4851632 32.171702,14.6710223 32.1848321,14.8645796 C32.1979622,15.0581369 32.3133564,15.2299864 32.487547,15.3153941 C32.6617376,15.4008018 32.8682608,15.3867922 33.0293213,15.2786425 L39.678733,10.8144796 C39.927711,10.6473198 39.9940377,10.3099734 39.8268778,10.0609955 C39.659718,9.81201751 39.3223716,9.74569083 39.0733937,9.91285068 L39.0733937,9.91294118 Z"></path>
        <path d="M28.2752941,6.25339367 L26.5261538,9.28289593 C26.4291587,9.45090775 26.4291647,9.65790339 26.5261696,9.82590959 C26.6231745,9.9939158 26.802441,10.0974028 26.9964411,10.0974028 C27.1904412,10.0974028 27.3697016,9.99389418 27.4666968,9.82588235 L29.2158371,6.79638009 C29.3128323,6.62836827 29.3128263,6.42137263 29.2158214,6.25336642 C29.1188165,6.08536022 28.93955,5.98187321 28.7455499,5.98187321 C28.5515498,5.98187321 28.3722893,6.08538184 28.2752941,6.25339367 L28.2752941,6.25339367 Z"></path>
    </g>
    <path d="M37.8171946,34.7330317 C36.781448,34.7330317 36.2845249,34.3604525 35.7093213,33.9290498 C35.0710407,33.4504072 34.3476923,32.9078733 32.9498643,32.9078733 C31.5520362,32.9078733 30.8285973,33.4508597 30.1904072,33.9290498 C29.6151131,34.3604525 29.1182805,34.7330317 28.0825339,34.7330317 C27.0467873,34.7330317 26.5498643,34.3604525 25.9746606,33.9290498 C25.3364706,33.4504072 24.6131222,32.9078733 23.2152941,32.9078733 C21.8174661,32.9078733 21.0942081,33.4508597 20.4560181,33.9290498 C19.8808145,34.3604525 19.3839819,34.7330317 18.3483258,34.7330317 C17.3126697,34.7330317 16.8158371,34.3604525 16.2406335,33.9290498 C15.6024434,33.4504072 14.8791855,32.9078733 13.4815385,32.9078733 C12.0838914,32.9078733 11.360362,33.4508597 10.7220814,33.9290498 C10.1469683,34.3604525 9.65022624,34.7330317 8.61447964,34.7330317 C7.57873303,34.7330317 7.08199095,34.3604525 6.50669683,33.9290498 C5.86859729,33.4504072 5.14515837,32.9078733 3.74751131,32.9078733 C3.44762819,32.9078733 3.20452489,33.1509766 3.20452489,33.4508597 C3.20452489,33.7507429 3.44762819,33.9938462 3.74751131,33.9938462 C4.78316742,33.9938462 5.28,34.3664253 5.85520362,34.7978281 C6.49339367,35.2764706 7.21674208,35.8190045 8.61447964,35.8190045 C10.0122172,35.8190045 10.7355656,35.2760181 11.3737557,34.7978281 C11.9489593,34.3664253 12.4457014,33.9938462 13.4815385,33.9938462 C14.5173756,33.9938462 15.0138462,34.3664253 15.5890498,34.7978281 C16.2273303,35.2764706 16.9505882,35.8190045 18.3483258,35.8190045 C19.7460633,35.8190045 20.4694118,35.2760181 21.1075113,34.7978281 C21.6828054,34.3664253 22.1795475,33.9938462 23.2152941,33.9938462 C24.2510407,33.9938462 24.7478733,34.3664253 25.3230769,34.7978281 C25.961267,35.2764706 26.6846154,35.8190045 28.0825339,35.8190045 C29.4804525,35.8190045 30.2037104,35.2760181 30.8419005,34.7978281 C31.4171041,34.3664253 31.9139367,33.9938462 32.9498643,33.9938462 C33.9857919,33.9938462 34.4825339,34.3664253 35.0578281,34.7978281 C35.6959276,35.2764706 36.419457,35.8190045 37.8171946,35.8190045 C38.1170777,35.8190045 38.360181,35.5759012 38.360181,35.2760181 C38.360181,34.976135 38.1170777,34.7330317 37.8171946,34.7330317 L37.8171946,34.7330317 Z" fill="#47586D" class="text-fill-color"></path>
    <path d="M37.8171946,29.4096833 C36.781448,29.4096833 36.2845249,29.0370136 35.7093213,28.6056109 C35.0711312,28.1269683 34.3476923,27.5844344 32.9498643,27.5844344 C31.5520362,27.5844344 30.8285068,28.1274208 30.1904072,28.6056109 C29.6151131,29.0370136 29.1182805,29.4096833 28.0825339,29.4096833 C27.0467873,29.4096833 26.5498643,29.0370136 25.9746606,28.6056109 C25.3364706,28.1269683 24.6131222,27.5844344 23.2152941,27.5844344 C21.8174661,27.5844344 21.0942081,28.1274208 20.4559276,28.6057014 C19.8808145,29.0370136 19.3839819,29.4096833 18.3483258,29.4096833 C17.3126697,29.4096833 16.8158371,29.0370136 16.240724,28.6056109 C15.6025339,28.1269683 14.8791855,27.5844344 13.4815385,27.5844344 C12.0838914,27.5844344 11.360362,28.1274208 10.7220814,28.6057014 C10.1469683,29.0370136 9.65022624,29.4096833 8.61447964,29.4096833 C7.57873303,29.4096833 7.08199095,29.0370136 6.50678733,28.6056109 C5.86859729,28.1269683 5.14515837,27.5844344 3.74751131,27.5844344 C3.44762819,27.5844344 3.20452489,27.8275377 3.20452489,28.1274208 C3.20452489,28.4273039 3.44762819,28.6704072 3.74751131,28.6704072 C4.78316742,28.6704072 5.28,29.0429864 5.85511312,29.4742986 C6.49339367,29.9530317 7.21674208,30.4956561 8.61447964,30.4956561 C10.0122172,30.4956561 10.7355656,29.9526697 11.3737557,29.4743891 C11.9489593,29.0429864 12.4457014,28.6704072 13.4815385,28.6704072 C14.5173756,28.6704072 15.0138462,29.0429864 15.5890498,29.4742986 C16.2272398,29.9530317 16.9505882,30.4956561 18.3483258,30.4956561 C19.7460633,30.4956561 20.4694118,29.9526697 21.1076018,29.4743891 C21.6828054,29.0429864 22.1795475,28.6704072 23.2152941,28.6704072 C24.2510407,28.6704072 24.7478733,29.0429864 25.3229864,29.4742986 C25.961267,29.9530317 26.6846154,30.4956561 28.0825339,30.4956561 C29.4804525,30.4956561 30.2037104,29.9526697 30.8419005,29.4743891 C31.4171041,29.0429864 31.9139367,28.6704072 32.9498643,28.6704072 C33.9857919,28.6704072 34.4825339,29.0429864 35.0578281,29.4743891 C35.6959276,29.9530317 36.419457,30.4956561 37.8171946,30.4956561 C38.1170777,30.4956561 38.360181,30.2525528 38.360181,29.9526697 C38.360181,29.6527866 38.1170777,29.4096833 37.8171946,29.4096833 Z" fill="#47586D" class="text-fill-color"></path>
</svg>
