<svg enable-background="new 0 0 512.01 512.01" height="512" viewBox="0 0 512.01 512.01" width="512" xmlns="http://www.w3.org/2000/svg"><g><path d="m431.005 192c0 105.32-85.68 191-191 191s-191-85.68-191-191c0-105.87 85.68-192 191-192s191 86.13 191 192z" fill="#425796"/><path d="m431.005 192c0 105.32-85.68 191-191 191v-383c105.32 0 191 86.13 191 192z" fill="#283758"/><circle cx="240.005" cy="192" fill="#eef4ff" r="55"/><path d="m295.005 192c0 30.33-24.67 55-55 55v-110c30.33 0 55 24.67 55 55z" fill="#d9e6fc"/><path d="m463.005 256v168c0 8.28-6.72 15-15 15s-15-6.72-15-15v-84.63l-130 33.62v91.01c0 8.28-6.72 15-15 15s-15-6.72-15-15v-168c0-6.88 4.68-12.88 11.36-14.55l83.64-20.91 76.36-19.09c9.45-2.36 18.64 4.79 18.64 14.55z" fill="#ffe278"/><path d="m463.005 256v168c0 8.28-6.72 15-15 15s-15-6.72-15-15v-84.63l-65 16.81v-95.64l76.36-19.09c9.45-2.36 18.64 4.79 18.64 14.55z" fill="#ffb454"/><path d="m256.005 417c-25.916 0-47 21.084-47 47 0 12.496 4.81 24.396 13.544 33.508 18.534 19.334 48.373 19.34 66.912 0 8.734-9.111 13.544-21.012 13.544-33.508 0-25.916-21.084-47-47-47z" fill="#ffb454"/><circle cx="416.005" cy="432" fill="#ff7d47" r="47"/></g></svg>
