<svg enable-background="new 0 0 512 512" height="512" viewBox="0 0 512 512" width="512" xmlns="http://www.w3.org/2000/svg">
	<path d="m490.848 162.982c-11.265-18.223-33.212-52.734-71.62-124.644-2.608-4.892-7.918-7.338-13.228-7.338s-10.62 2.446-13.228 7.339c-38.965 72.979-59.854 107.314-71.074 125.435-8.626 13.923-20.698 31.618-20.698 62.226 0 57.891 47.109 105 105 105s106-47.109 106-105c0-30.802-11.84-47.93-21.152-63.018z" fill="#ff7b4a"/>
	<path d="m512 226c0-30.802-11.84-47.93-21.152-63.018-11.265-18.223-33.212-52.734-71.62-124.644-2.608-4.892-7.918-7.338-13.228-7.338v300c57.891 0 106-47.109 106-105z" fill="#e63950"/>
	<path d="m339.848 162.982c-11.265-18.223-32.212-52.734-70.62-124.644-2.608-4.892-7.918-7.338-13.228-7.338s-10.62 2.446-13.228 7.339c-38.965 72.979-59.854 107.314-71.074 125.435-8.626 13.923-20.698 31.618-20.698 62.226 0 57.891 47.109 105 105 105s105-47.109 105-105c0-30.802-11.84-47.93-21.152-63.018z" fill="#7ed8f6"/>
	<path d="m361 226c0-30.802-11.84-47.93-21.152-63.018-11.265-18.223-32.212-52.734-70.62-124.644-2.608-4.892-7.918-7.338-13.228-7.338v300c57.891 0 105-47.109 105-105z" fill="#6aa9ff"/>
	<path d="m189.848 162.982c-11.265-18.223-32.212-52.734-70.62-124.644-2.608-4.892-7.918-7.338-13.228-7.338s-10.62 2.446-13.228 7.339c-38.965 72.979-60.854 107.314-72.074 125.435-8.626 13.923-20.698 31.618-20.698 62.226 0 57.891 48.109 105 106 105s105-47.109 105-105c0-30.802-11.84-47.93-21.152-63.018z" fill="#fed843"/>
	<path d="m211 226c0-30.802-11.84-47.93-21.152-63.018-11.265-18.223-32.212-52.734-70.62-124.644-2.608-4.892-7.918-7.338-13.228-7.338v300c57.891 0 105-47.109 105-105z" fill="#ff9f00"/>
	<path d="m497 421h-241-241c-8.284 0-15 6.716-15 15s6.716 15 15 15h241 241c8.284 0 15-6.716 15-15s-6.716-15-15-15z" fill="#5f55af"/>
	<path d="m512 436c0-8.284-6.716-15-15-15h-241v30h241c8.284 0 15-6.716 15-15z" fill="#453d83"/>
	<path d="m296.605 395.395-30-30c-2.93-2.93-6.768-4.395-10.605-4.395s-7.676 1.465-10.605 4.395l-30 30c-2.813 2.812-4.395 6.621-4.395 10.605v60c0 8.291 6.709 15 15 15h30 30c8.291 0 15-6.709 15-15v-60c0-3.984-1.582-7.793-4.395-10.605z" fill="#d5e8fe"/>
	<path d="m301 466v-60c0-3.984-1.582-7.793-4.395-10.605l-30-30c-2.93-2.93-6.768-4.395-10.605-4.395v120h30c8.291 0 15-6.709 15-15z" fill="#a8d3d8"/>
</svg>
