<?xml version="1.0" encoding="iso-8859-1"?>
<!-- Generator: Adobe Illustrator 19.0.0, SVG Export Plug-In . SVG Version: 6.00 Build 0)  -->
<svg version="1.1" xmlns="http://www.w3.org/2000/svg" xmlns:xlink="http://www.w3.org/1999/xlink" x="0px" y="0px"
	 viewBox="0 0 512.002 512.002" style="enable-background:new 0 0 512.002 512.002;" xml:space="preserve">
<path style="fill:#F77E00;" d="M304.699,486.325c-16.184,0-32.367-6.16-44.688-18.478l-42.604-42.605
	c-5.857-5.857-5.857-15.355,0.001-21.213c5.858-5.857,15.355-5.857,21.213,0l42.603,42.605
	c12.943,12.943,34.008,12.943,46.951-0.002c12.945-12.943,12.945-34.008,0.002-46.953l-25.563-25.564
	c-5.858-5.857-5.857-15.355,0-21.213c5.857-5.855,15.355-5.857,21.213,0l25.563,25.564c24.641,24.643,24.641,64.738-0.002,89.381
	C337.068,480.165,320.883,486.325,304.699,486.325z"/>
<path style="fill:#FFDA2D;" d="M423.234,293.261L218.739,88.763c-3.266-3.266-7.856-4.844-12.439-4.281
	c-4.584,0.564-8.653,3.211-11.029,7.17L24.86,375.675c-3.541,5.902-2.611,13.457,2.255,18.324L118,484.886
	c2.892,2.891,6.732,4.393,10.611,4.393c2.649,0,5.317-0.699,7.712-2.137L420.346,316.73c3.961-2.375,6.605-6.445,7.17-11.029
	C428.08,301.116,426.501,296.527,423.234,293.261z"/>
<g>
	<path style="fill:#FF9F00;" d="M320.989,191.015l-248.43,248.43L118,484.886c2.892,2.891,6.732,4.393,10.611,4.393
		c2.649,0,5.317-0.699,7.712-2.137L420.346,316.73c3.961-2.375,6.605-6.445,7.17-11.029c0.565-4.584-1.015-9.174-4.281-12.439
		L320.989,191.015z"/>
	<path style="fill:#FF9F00;" d="M435.35,341.589c-3.839,0-7.678-1.465-10.606-4.395L174.806,87.257
		c-5.858-5.857-5.858-15.355,0-21.213c5.857-5.858,15.355-5.858,21.213,0l249.938,249.938c5.857,5.857,5.857,15.355,0,21.213
		C443.028,340.124,439.189,341.589,435.35,341.589z"/>
	<path style="fill:#FF9F00;" d="M151.328,512.001c-3.839,0-7.677-1.463-10.607-4.393L4.393,371.277
		c-5.857-5.857-5.857-15.355,0.001-21.213c5.858-5.857,15.355-5.857,21.213,0l136.328,136.332
		c5.857,5.857,5.857,15.355-0.001,21.213C159.006,510.536,155.166,512.001,151.328,512.001z"/>
</g>
<path style="fill:#D6E9FF;" d="M412.631,114.372c-3.839,0-7.678-1.465-10.607-4.393c-5.858-5.857-5.858-15.355,0-21.213
	l84.369-84.369c5.857-5.857,15.355-5.857,21.213,0c5.858,5.857,5.858,15.356,0,21.213l-84.369,84.369
	C420.308,112.907,416.47,114.372,412.631,114.372z"/>
<path style="fill:#B5D9FF;" d="M507.606,4.398c5.858,5.857,5.858,15.356,0,21.213l-84.369,84.369
	c-2.929,2.928-6.768,4.393-10.606,4.393c-3.839,0-7.678-1.465-10.607-4.393L507.606,4.398z"/>
<path style="fill:#D6E9FF;" d="M321.732,91.655c-2.103,0-4.24-0.445-6.275-1.383c-7.523-3.473-10.807-12.383-7.336-19.906
	L336.57,8.718c3.471-7.522,12.382-10.803,19.904-7.336c7.521,3.473,10.806,12.383,7.334,19.906l-28.447,61.648
	C332.829,88.423,327.402,91.655,321.732,91.655z"/>
<path style="fill:#B5D9FF;" d="M435.361,205.263c-5.672,0-11.098-3.232-13.63-8.721c-3.471-7.521-0.187-16.434,7.336-19.904
	l61.647-28.441c7.524-3.469,16.434-0.188,19.904,7.336c3.471,7.521,0.186,16.434-7.336,19.904l-61.646,28.441
	C439.6,204.818,437.464,205.263,435.361,205.263z"/>
<g>
	<path style="fill:#F77E00;" d="M320.989,191.015l-21.213,21.213l124.968,124.967c2.929,2.93,6.767,4.395,10.606,4.395
		s7.678-1.465,10.607-4.395c5.857-5.857,5.857-15.355,0-21.213L320.989,191.015z"/>
	<path style="fill:#F77E00;" d="M140.721,507.609c2.93,2.93,6.768,4.393,10.607,4.393c3.838,0,7.678-1.465,10.606-4.393
		c5.858-5.857,5.858-15.355,0.001-21.213l-68.163-68.164l-21.213,21.213L140.721,507.609z"/>
</g>
<g>
</g>
<g>
</g>
<g>
</g>
<g>
</g>
<g>
</g>
<g>
</g>
<g>
</g>
<g>
</g>
<g>
</g>
<g>
</g>
<g>
</g>
<g>
</g>
<g>
</g>
<g>
</g>
<g>
</g>
</svg>
