<svg width="40px" height="28px" viewBox="0 0 40 28" version="1.1" xmlns="http://www.w3.org/2000/svg" xmlns:xlink="http://www.w3.org/1999/xlink">
    <polygon fill="#D4E1F4" class="text-lighten-fill-color" points="22.1798283 2.60686695 22.1798283 4.32360515 24.7538197 3.1223176 24.7538197 1.4055794"></polygon>
    <path d="M14.6466094,6.1223176 C12.6578122,7.04786252 10.5676723,7.73783483 8.41871245,8.17819742 L8.41871245,9.89493562 C10.5676723,9.45457302 12.6578122,8.76460071 14.6466094,7.83905579 L21.1502146,4.80429185 L21.1502146,3.08755365 L14.6466094,6.1223176 Z" fill="#D4E1F4" class="text-lighten-fill-color"></path>
    <path d="M1.95974249,12.1430043 C1.96078318,11.2215231 2.70753171,10.4747746 3.62901288,10.4737339 C4.8866048,10.4727759 6.1426914,10.3867426 7.38866953,10.2162232 L7.38866953,8.37072961 C5.8626501,8.62690647 4.31801609,8.75610448 2.77064378,8.75699571 C1.84916261,8.7580364 1.10241408,9.50478493 1.10137339,10.4262661 L1.10137339,14.7948498 C1.10194491,15.4005064 1.43041202,15.9583749 1.95974249,16.2527039 L1.95974249,12.1430043 Z" fill="#D4E1F4" class="text-lighten-fill-color"></path>
    <path d="M3.02008584,17.4958798 L3.02008584,26.6992275 C3.02008584,26.983666 3.2506688,27.2142489 3.5351073,27.2142489 C6.23099292,27.2112214 8.41568495,25.0265294 8.41871245,22.3306438 L8.41871245,18.0953648 C10.4162994,18.5206965 12.3594174,19.1704277 14.211073,20.0321888 L25.051073,25.0908155 C25.2105764,25.1652392 25.3970414,25.1530529 25.5455016,25.0585023 C25.6939618,24.9639518 25.7838555,24.8001322 25.7838627,24.6241202 L25.7838627,17.4528755 C28.2194603,17.1396811 30.0434134,15.066167 30.0434134,12.610515 C30.0434134,10.154863 28.2194603,8.08134893 25.7838627,7.76815451 L25.7838627,0.596909871 C25.7838555,0.420897858 25.6939618,0.257078256 25.5455016,0.162527714 C25.3970414,0.0679771724 25.2105764,0.0557908459 25.051073,0.130214592 L14.211073,5.18892704 C10.6269542,6.85510056 6.72311235,7.72115646 2.77064378,7.72695279 C1.28056014,7.72865569 0.0730333724,8.93618246 0.0713304721,10.4262661 L0.0713304721,14.7948498 C0.0730333724,16.2849334 1.28056014,17.4924602 2.77064378,17.4941631 C2.85373391,17.4941631 2.93690987,17.4951073 3.02008584,17.4958798 Z M29.0128755,12.6105579 C29.010485,14.4969732 27.6447204,16.1052072 25.7836052,16.413133 L25.7836052,8.80824034 C27.6446245,9.11615012 29.0103592,10.7242401 29.0128755,12.6105579 Z M7.38866953,22.3306438 C7.38631425,24.2590242 5.96087864,25.8896955 4.05012876,26.1498712 L4.05012876,17.5256652 C5.16955183,17.5799733 6.28453475,17.7035864 7.38866953,17.895794 L7.38866953,22.3306438 Z M24.7534764,23.8156223 L22.1802575,22.6142489 L22.1802575,2.60686695 L24.7542489,1.40515021 L24.7534764,23.8156223 Z M14.6466094,6.1223176 L21.1502146,3.08755365 L21.1502146,22.1335622 L14.6466094,19.0987124 C12.6578151,18.1731402 10.5676753,17.4831392 8.41871245,17.0427468 L8.41871245,8.17819742 C10.5676723,7.73783483 12.6578122,7.04786252 14.6466094,6.1223176 L14.6466094,6.1223176 Z M1.10137339,14.7948498 L1.10137339,10.4262661 C1.10241408,9.50478493 1.84916261,8.7580364 2.77064378,8.75699571 C4.31801609,8.75610448 5.8626501,8.62690647 7.38866953,8.37072961 L7.38866953,16.8514163 C5.86264946,16.5952445 4.31801587,16.4660466 2.77064378,16.4651502 C1.84876085,16.4641086 1.10184632,15.7167332 1.10137339,14.7948498 Z" fill="#47586D" class="text-fill-color"></path>
    <path d="M35.3519416,12.611073 C35.3557935,8.96809088 33.179605,5.67632448 29.8262661,4.2527897 C29.5645353,4.14138462 29.2620489,4.26324772 29.1506438,4.52497854 C29.0392387,4.78670937 29.1611018,5.08919578 29.4228326,5.20060086 C32.3935719,6.46505348 34.3219122,9.38157209 34.3219122,12.6102146 C34.3219122,15.8388571 32.3935719,18.7553757 29.4228326,20.0198283 C29.2535224,20.0918948 29.1355204,20.2488128 29.1132767,20.4314729 C29.091033,20.6141331 29.167927,20.7947849 29.3149934,20.9053785 C29.4620599,21.0159722 29.6569559,21.0397059 29.8262661,20.9676395 C33.1792892,19.5446598 35.3554921,16.2535478 35.3519416,12.611073 Z" fill="#0071DC" class="primary-fill-color"></path>
    <path d="M31.6725322,0.123004292 C31.4108014,0.0115992136 31.1083149,0.133462309 30.9969099,0.395193133 C30.8855048,0.656923957 31.0073679,0.959410372 31.2690987,1.07081545 C35.8955012,3.04012132 38.8985149,7.5821599 38.8985149,12.6102575 C38.8985149,17.6383551 35.8955012,22.1803937 31.2690987,24.1496996 C31.0073679,24.2611046 30.8855048,24.5635911 30.9969099,24.8253219 C31.1083149,25.0870527 31.4108014,25.2089158 31.6725322,25.0975107 C36.6789818,22.9664965 39.9287018,18.051375 39.9287018,12.6102575 C39.9287018,7.16914001 36.6789818,2.25401857 31.6725322,0.123004292 Z" fill="#0071DC" class="primary-fill-color"></path>
</svg>
