<svg width="40px" height="40px" viewBox="0 0 40 40" version="1.1" xmlns="http://www.w3.org/2000/svg" xmlns:xlink="http://www.w3.org/1999/xlink">
    <path d="M3.07470574,11.1458083 L3.07470574,1.53735287 C3.07470574,1.32508873 3.24677982,1.15301465 3.45904396,1.15301465 L1.53735287,1.15301465 C1.32508873,1.15301465 1.15301465,1.32508873 1.15301465,1.53735287 L1.15301465,11.1458083 C1.15301465,11.3580724 1.32508873,11.5301465 1.53735287,11.5301465 L3.45904396,11.5301465 C3.24677982,11.5301465 3.07470574,11.3580724 3.07470574,11.1458083 Z" fill="#D4E1F4" class="text-lighten-fill-color"></path>
    <path d="M3.07470574,24.5976459 L3.07470574,14.9891905 C3.07470574,14.7769264 3.24677982,14.6048523 3.45904396,14.6048523 L1.53735287,14.6048523 C1.32508873,14.6048523 1.15301465,14.7769264 1.15301465,14.9891905 L1.15301465,24.5976459 C1.15301465,24.8099101 1.32508873,24.9819841 1.53735287,24.9819841 L3.45904396,24.9819841 C3.24677982,24.9819841 3.07470574,24.8099101 3.07470574,24.5976459 Z" fill="#D4E1F4" class="text-lighten-fill-color"></path>
    <path d="M3.07470574,38.0494835 L3.07470574,28.4410281 C3.07470574,28.228764 3.24677982,28.0566899 3.45904396,28.0566899 L1.53735287,28.0566899 C1.32508873,28.0566899 1.15301465,28.228764 1.15301465,28.4410281 L1.15301465,38.0494835 C1.15301465,38.2617477 1.32508873,38.4338218 1.53735287,38.4338218 L3.45904396,38.4338218 C3.24677982,38.4338218 3.07470574,38.2617477 3.07470574,38.0494835 Z" fill="#D4E1F4" class="text-lighten-fill-color"></path>
    <path d="M1.53735287,39.5868364 L33.2452558,39.5868364 C34.0938953,39.5858304 34.7816027,38.8981231 34.7826087,38.0494835 L34.7826087,28.4410281 C34.7816027,27.5923886 34.0938953,26.9046812 33.2452558,26.9036752 L29.978381,26.9036752 L29.978381,26.1349988 L33.2452558,26.1349988 C34.0938953,26.1339928 34.7816027,25.4462854 34.7826087,24.5976459 L34.7826087,14.9891905 C34.7816027,14.140551 34.0938953,13.4528436 33.2452558,13.4518376 L29.978381,13.4518376 L29.978381,12.6831612 L33.2452558,12.6831612 C34.0938953,12.6821552 34.7816027,11.9944478 34.7826087,11.1458083 L34.7826087,1.53735287 C34.7816027,0.68871336 34.0938953,0.0010059686 33.2452558,0 L1.53735287,0 C0.68871336,0.0010059686 0.0010059686,0.68871336 0,1.53735287 L0,11.1458083 C0.0010059686,11.9944478 0.68871336,12.6821552 1.53735287,12.6831612 L4.80422772,12.6831612 L4.80422772,13.4518376 L1.53735287,13.4518376 C0.68871336,13.4528436 0.0010059686,14.140551 0,14.9891905 L0,24.5976459 C0.0010059686,25.4462854 0.68871336,26.1339928 1.53735287,26.1349988 L4.80422772,26.1349988 L4.80422772,26.9036752 L1.53735287,26.9036752 C0.68871336,26.9046812 0.0010059686,27.5923886 0,28.4410281 L0,38.0494835 C0.0010059686,38.8981231 0.68871336,39.5858304 1.53735287,39.5868364 Z M5.95724237,25.7506606 L28.8253663,25.7506606 L28.8253663,27.1919289 L5.95724237,27.1919289 L5.95724237,25.7506606 Z M5.95724237,12.298823 L28.8253663,12.298823 L28.8253663,13.7400913 L5.95724237,13.7400913 L5.95724237,12.298823 Z M1.15301465,11.1458083 L1.15301465,1.53735287 C1.15301465,1.32508873 1.32508873,1.15301465 1.53735287,1.15301465 L33.2452558,1.15301465 C33.45752,1.15301465 33.629594,1.32508873 33.629594,1.53735287 L33.629594,11.1458083 C33.629594,11.3580724 33.45752,11.5301465 33.2452558,11.5301465 L29.9448475,11.5301465 C29.8634784,11.2999996 29.6459812,11.1460465 29.4018736,11.1458083 L5.38073505,11.1458083 C5.13662752,11.1460465 4.91913033,11.2999996 4.83776123,11.5301465 L1.53735287,11.5301465 C1.32508873,11.5301465 1.15301465,11.3580724 1.15301465,11.1458083 Z M1.15301465,24.5976459 L1.15301465,14.9891905 C1.15301465,14.7769264 1.32508873,14.6048523 1.53735287,14.6048523 L4.88196012,14.6048523 C4.98473866,14.7831872 5.17490316,14.8930877 5.38073505,14.8931059 L29.4018736,14.8931059 C29.6077055,14.8930877 29.79787,14.7831872 29.9006486,14.6048523 L33.2452558,14.6048523 C33.45752,14.6048523 33.629594,14.7769264 33.629594,14.9891905 L33.629594,24.5976459 C33.629594,24.8099101 33.45752,24.9819841 33.2452558,24.9819841 L29.9448475,24.9819841 C29.8634784,24.7518372 29.6459812,24.5978841 29.4018736,24.5976459 L5.38073505,24.5976459 C5.13662752,24.5978841 4.91913033,24.7518372 4.83776123,24.9819841 L1.53735287,24.9819841 C1.32508873,24.9819841 1.15301465,24.8099101 1.15301465,24.5976459 Z M1.15301465,28.4410281 C1.15301465,28.228764 1.32508873,28.0566899 1.53735287,28.0566899 L4.88196012,28.0566899 C4.98473866,28.2350248 5.17490316,28.3449253 5.38073505,28.3449436 L29.4018736,28.3449436 C29.6077055,28.3449253 29.79787,28.2350248 29.9006486,28.0566899 L33.2452558,28.0566899 C33.45752,28.0566899 33.629594,28.228764 33.629594,28.4410281 L33.629594,38.0494835 C33.629594,38.2617477 33.45752,38.4338218 33.2452558,38.4338218 L1.53735287,38.4338218 C1.32508873,38.4338218 1.15301465,38.2617477 1.15301465,38.0494835 L1.15301465,28.4410281 Z" fill="#47586D" class="text-fill-color"></path>
    <path d="M24.0691809,35.4552006 C25.2896997,35.4552006 26.2791256,34.4657746 26.2791256,33.2452558 C26.2791256,32.024737 25.2896997,31.0353111 24.0691809,31.0353111 C22.8486621,31.0353111 21.8592361,32.024737 21.8592361,33.2452558 C21.8606129,34.4652039 22.8492328,35.4538238 24.0691809,35.4552006 L24.0691809,35.4552006 Z M24.0691809,32.1883257 C24.6529073,32.1883257 25.126111,32.6615295 25.126111,33.2452558 C25.126111,33.8289822 24.6529073,34.3021859 24.0691809,34.3021859 C23.4854545,34.3021859 23.0122508,33.8289822 23.0122508,33.2452558 C23.0129391,32.6618148 23.4857398,32.189014 24.0691809,32.1883257 Z" fill="#0071DC" class="primary-fill-color"></path>
    <path d="M29.642085,35.4552006 C30.8626038,35.4552006 31.8520298,34.4657746 31.8520298,33.2452558 C31.8520298,32.024737 30.8626038,31.0353111 29.642085,31.0353111 C28.4215663,31.0353111 27.4321403,32.024737 27.4321403,33.2452558 C27.433517,34.4652039 28.422137,35.4538238 29.642085,35.4552006 L29.642085,35.4552006 Z M29.642085,32.1883257 C30.2258114,32.1883257 30.6990151,32.6615295 30.6990151,33.2452558 C30.6990151,33.8289822 30.2258114,34.3021859 29.642085,34.3021859 C29.0583587,34.3021859 28.5851549,33.8289822 28.5851549,33.2452558 C28.5858432,32.6618148 29.058644,32.189014 29.642085,32.1883257 L29.642085,32.1883257 Z" fill="#0071DC" class="primary-fill-color"></path>
    <path d="M3.45904396,35.2630315 C3.77744016,35.2630315 4.03555129,35.0049203 4.03555129,34.6865241 L4.03555129,31.8039875 C4.03555129,31.4855913 3.77744016,31.2274802 3.45904396,31.2274802 C3.14064775,31.2274802 2.88253663,31.4855913 2.88253663,31.8039875 L2.88253663,34.6865241 C2.88253663,35.0049203 3.14064775,35.2630315 3.45904396,35.2630315 Z" fill="#0071DC" class="primary-fill-color"></path>
    <path d="M6.05332693,35.2630315 C6.37172313,35.2630315 6.62983425,35.0049203 6.62983425,34.6865241 L6.62983425,31.8039875 C6.62983425,31.4855913 6.37172313,31.2274802 6.05332693,31.2274802 C5.73493072,31.2274802 5.4768196,31.4855913 5.4768196,31.8039875 L5.4768196,34.6865241 C5.4768196,35.0049203 5.73493072,35.2630315 6.05332693,35.2630315 Z" fill="#0071DC" class="primary-fill-color"></path>
    <path d="M8.55152534,35.2630315 C8.86992155,35.2630315 9.12803267,35.0049203 9.12803267,34.6865241 L9.12803267,31.8039875 C9.12803267,31.4855913 8.86992155,31.2274802 8.55152534,31.2274802 C8.23312914,31.2274802 7.97501802,31.4855913 7.97501802,31.8039875 L7.97501802,34.6865241 C7.97501802,35.0049203 8.23312914,35.2630315 8.55152534,35.2630315 Z" fill="#0071DC" class="primary-fill-color"></path>
    <path d="M11.1458083,35.2630315 C11.4642045,35.2630315 11.7223156,35.0049203 11.7223156,34.6865241 L11.7223156,31.8039875 C11.7223156,31.4855913 11.4642045,31.2274802 11.1458083,31.2274802 C10.8274121,31.2274802 10.569301,31.4855913 10.569301,31.8039875 L10.569301,34.6865241 C10.569301,34.8394234 10.63004,34.9860603 10.7381561,35.0941764 C10.8462722,35.2022925 10.9929091,35.2630315 11.1458083,35.2630315 Z" fill="#0071DC" class="primary-fill-color"></path>
    <path d="M13.6440067,35.2630315 C13.9624029,35.2630315 14.2205141,35.0049203 14.2205141,34.6865241 L14.2205141,31.8039875 C14.2205141,31.4855913 13.9624029,31.2274802 13.6440067,31.2274802 C13.3256105,31.2274802 13.0674994,31.4855913 13.0674994,31.8039875 L13.0674994,34.6865241 C13.0674994,35.0049203 13.3256105,35.2630315 13.6440067,35.2630315 Z" fill="#0071DC" class="primary-fill-color"></path>
    <path d="M24.0691809,22.003363 C25.2896997,22.003363 26.2791256,21.013937 26.2791256,19.7934182 C26.2791256,18.5728994 25.2896997,17.5834735 24.0691809,17.5834735 C22.8486621,17.5834735 21.8592361,18.5728994 21.8592361,19.7934182 C21.8606129,21.0133663 22.8492328,22.0019862 24.0691809,22.003363 L24.0691809,22.003363 Z M24.0691809,18.7364881 C24.6529073,18.7364881 25.126111,19.2096918 25.126111,19.7934182 C25.126111,20.3771446 24.6529073,20.8503483 24.0691809,20.8503483 C23.4854545,20.8503483 23.0122508,20.3771446 23.0122508,19.7934182 C23.0129391,19.2099772 23.4857398,18.7371764 24.0691809,18.7364881 L24.0691809,18.7364881 Z" fill="#0071DC" class="primary-fill-color"></path>
    <path d="M29.642085,22.003363 C30.8626038,22.003363 31.8520298,21.013937 31.8520298,19.7934182 C31.8520298,18.5728994 30.8626038,17.5834735 29.642085,17.5834735 C28.4215663,17.5834735 27.4321403,18.5728994 27.4321403,19.7934182 C27.433517,21.0133663 28.422137,22.0019862 29.642085,22.003363 Z M29.642085,18.7364881 C30.2258114,18.7364881 30.6990151,19.2096918 30.6990151,19.7934182 C30.6990151,20.3771446 30.2258114,20.8503483 29.642085,20.8503483 C29.0583587,20.8503483 28.5851549,20.3771446 28.5851549,19.7934182 C28.5858432,19.2099772 29.058644,18.7371764 29.642085,18.7364881 L29.642085,18.7364881 Z" fill="#0071DC" class="primary-fill-color"></path>
    <path d="M3.45904396,21.8111939 C3.77744016,21.8111939 4.03555129,21.5530827 4.03555129,21.2346865 L4.03555129,18.3521499 C4.03555129,18.0337537 3.77744016,17.7756426 3.45904396,17.7756426 C3.14064775,17.7756426 2.88253663,18.0337537 2.88253663,18.3521499 L2.88253663,21.2346865 C2.88253663,21.5530827 3.14064775,21.8111939 3.45904396,21.8111939 Z" fill="#0071DC" class="primary-fill-color"></path>
    <path d="M6.05332693,21.8111939 C6.37172313,21.8111939 6.62983425,21.5530827 6.62983425,21.2346865 L6.62983425,18.3521499 C6.62983425,18.0337537 6.37172313,17.7756426 6.05332693,17.7756426 C5.73493072,17.7756426 5.4768196,18.0337537 5.4768196,18.3521499 L5.4768196,21.2346865 C5.4768196,21.5530827 5.73493072,21.8111939 6.05332693,21.8111939 Z" fill="#0071DC" class="primary-fill-color"></path>
    <path d="M8.55152534,21.8111939 C8.86992155,21.8111939 9.12803267,21.5530827 9.12803267,21.2346865 L9.12803267,18.3521499 C9.12803267,18.0337537 8.86992155,17.7756426 8.55152534,17.7756426 C8.23312914,17.7756426 7.97501802,18.0337537 7.97501802,18.3521499 L7.97501802,21.2346865 C7.97501802,21.5530827 8.23312914,21.8111939 8.55152534,21.8111939 Z" fill="#0071DC" class="primary-fill-color"></path>
    <path d="M11.1458083,21.8111939 C11.4642045,21.8111939 11.7223156,21.5530827 11.7223156,21.2346865 L11.7223156,18.3521499 C11.7223156,18.0337537 11.4642045,17.7756426 11.1458083,17.7756426 C10.8274121,17.7756426 10.569301,18.0337537 10.569301,18.3521499 L10.569301,21.2346865 C10.569301,21.3875858 10.63004,21.5342227 10.7381561,21.6423388 C10.8462722,21.7504549 10.9929091,21.8111939 11.1458083,21.8111939 Z" fill="#0071DC" class="primary-fill-color"></path>
    <path d="M13.6440067,21.8111939 C13.9624029,21.8111939 14.2205141,21.5530827 14.2205141,21.2346865 L14.2205141,18.3521499 C14.2205141,18.0337537 13.9624029,17.7756426 13.6440067,17.7756426 C13.3256105,17.7756426 13.0674994,18.0337537 13.0674994,18.3521499 L13.0674994,21.2346865 C13.0674994,21.5530827 13.3256105,21.8111939 13.6440067,21.8111939 Z" fill="#0071DC" class="primary-fill-color"></path>
    <path d="M24.0691809,8.55152534 C25.2896997,8.55152534 26.2791256,7.56209938 26.2791256,6.34158059 C26.2791256,5.12106181 25.2896997,4.13163584 24.0691809,4.13163584 C22.8486621,4.13163584 21.8592361,5.12106181 21.8592361,6.34158059 C21.8606129,7.56152866 22.8492328,8.5501486 24.0691809,8.55152534 L24.0691809,8.55152534 Z M24.0691809,5.28465049 C24.6529073,5.28465049 25.126111,5.75785422 25.126111,6.34158059 C25.126111,6.92530697 24.6529073,7.39851069 24.0691809,7.39851069 C23.4854545,7.39851069 23.0122508,6.92530697 23.0122508,6.34158059 C23.0129391,5.75813956 23.4857398,5.28533879 24.0691809,5.28465049 L24.0691809,5.28465049 Z" fill="#0071DC" class="primary-fill-color"></path>
    <path d="M29.642085,8.55152534 C30.8626038,8.55152534 31.8520298,7.56209938 31.8520298,6.34158059 C31.8520298,5.12106181 30.8626038,4.13163584 29.642085,4.13163584 C28.4215663,4.13163584 27.4321403,5.12106181 27.4321403,6.34158059 C27.433517,7.56152866 28.422137,8.5501486 29.642085,8.55152534 Z M29.642085,5.28465049 C30.2258114,5.28465049 30.6990151,5.75785422 30.6990151,6.34158059 C30.6990151,6.92530697 30.2258114,7.39851069 29.642085,7.39851069 C29.0583587,7.39851069 28.5851549,6.92530697 28.5851549,6.34158059 C28.5858432,5.75813956 29.058644,5.28533879 29.642085,5.28465049 L29.642085,5.28465049 Z" fill="#0071DC" class="primary-fill-color"></path>
    <path d="M3.45904396,8.35935623 C3.77744016,8.35935623 4.03555129,8.10124511 4.03555129,7.78284891 L4.03555129,4.90031227 C4.03555129,4.58191607 3.77744016,4.32380495 3.45904396,4.32380495 C3.14064775,4.32380495 2.88253663,4.58191607 2.88253663,4.90031227 L2.88253663,7.78284891 C2.88253663,8.10124511 3.14064775,8.35935623 3.45904396,8.35935623 Z" fill="#0071DC" class="primary-fill-color"></path>
    <path d="M6.05332693,8.35935623 C6.37172313,8.35935623 6.62983425,8.10124511 6.62983425,7.78284891 L6.62983425,4.90031227 C6.62983425,4.58191607 6.37172313,4.32380495 6.05332693,4.32380495 C5.73493072,4.32380495 5.4768196,4.58191607 5.4768196,4.90031227 L5.4768196,7.78284891 C5.4768196,8.10124511 5.73493072,8.35935623 6.05332693,8.35935623 Z" fill="#0071DC" class="primary-fill-color"></path>
    <path d="M8.55152534,8.35935623 C8.86992155,8.35935623 9.12803267,8.10124511 9.12803267,7.78284891 L9.12803267,4.90031227 C9.12803267,4.58191607 8.86992155,4.32380495 8.55152534,4.32380495 C8.23312914,4.32380495 7.97501802,4.58191607 7.97501802,4.90031227 L7.97501802,7.78284891 C7.97501802,8.10124511 8.23312914,8.35935623 8.55152534,8.35935623 Z" fill="#0071DC" class="primary-fill-color"></path>
    <path d="M11.1458083,8.35935623 C11.4642045,8.35935623 11.7223156,8.10124511 11.7223156,7.78284891 L11.7223156,4.90031227 C11.7223156,4.58191607 11.4642045,4.32380495 11.1458083,4.32380495 C10.8274121,4.32380495 10.569301,4.58191607 10.569301,4.90031227 L10.569301,7.78284891 C10.569301,7.93574816 10.63004,8.08238505 10.7381561,8.19050115 C10.8462722,8.29861724 10.9929091,8.35935623 11.1458083,8.35935623 Z" fill="#0071DC" class="primary-fill-color"></path>
    <path d="M13.6440067,8.35935623 C13.9624029,8.35935623 14.2205141,8.10124511 14.2205141,7.78284891 L14.2205141,4.90031227 C14.2205141,4.58191607 13.9624029,4.32380495 13.6440067,4.32380495 C13.3256105,4.32380495 13.0674994,4.58191607 13.0674994,4.90031227 L13.0674994,7.78284891 C13.0674994,8.10124511 13.3256105,8.35935623 13.6440067,8.35935623 Z" fill="#0071DC" class="primary-fill-color"></path>
</svg>
